<svg id="svg" version="1.1" xmlns="http://www.w3.org/2000/svg" xmlns:xlink="http://www.w3.org/1999/xlink" width="400" height="266.1818181818182" viewBox="0, 0, 400,266.1818181818182"><g id="svgg"><path id="path0" d="M182.208 42.277 C 182.286 43.221,182.345 43.280,183.289 43.358 C 184.281 43.440,184.288 43.449,184.288 44.623 C 184.288 45.941,184.811 46.163,186.311 45.479 C 186.958 45.184,187.069 45.215,187.455 45.806 C 187.690 46.166,188.093 46.672,188.349 46.932 C 188.869 47.458,188.956 48.221,188.542 48.635 C 188.356 48.821,188.699 48.852,189.621 48.734 C 190.479 48.624,191.183 48.349,191.551 47.981 L 192.131 47.402 191.605 46.421 C 191.315 45.882,190.752 45.253,190.352 45.024 C 189.952 44.795,189.486 44.272,189.316 43.863 C 188.834 42.702,187.368 42.194,186.121 42.757 C 185.151 43.194,184.021 42.977,184.021 42.353 C 184.021 41.927,183.197 41.278,182.655 41.278 C 182.205 41.278,182.138 41.430,182.208 42.277 M191.212 50.099 C 191.212 50.803,191.272 50.880,191.606 50.604 C 191.898 50.361,191.930 50.147,191.729 49.772 C 191.347 49.058,191.212 49.143,191.212 50.099 M192.462 51.568 C 192.249 51.781,192.489 52.197,192.825 52.197 C 192.963 52.197,193.076 52.017,193.076 51.798 C 193.076 51.386,192.762 51.269,192.462 51.568 M194.145 54.261 C 194.143 54.591,194.261 54.860,194.407 54.860 C 194.741 54.860,194.741 54.578,194.407 54.061 C 194.199 53.738,194.149 53.776,194.145 54.261 M195.473 56.059 C 195.473 56.303,195.602 56.459,195.759 56.407 C 195.916 56.355,196.045 56.198,196.045 56.059 C 196.045 55.919,195.916 55.763,195.759 55.710 C 195.602 55.658,195.473 55.814,195.473 56.059 M197.071 58.571 C 197.071 58.863,197.310 59.231,197.603 59.387 C 197.971 59.584,198.136 59.945,198.136 60.551 C 198.136 61.596,198.357 61.887,198.844 61.483 C 199.668 60.799,199.281 59.591,197.936 58.647 C 197.097 58.058,197.071 58.056,197.071 58.571 M221.490 162.088 C 221.277 162.301,221.517 162.716,221.853 162.716 C 221.991 162.716,222.104 162.537,222.104 162.317 C 222.104 161.905,221.790 161.788,221.490 162.088 M216.972 168.610 C 216.718 168.752,216.511 169.028,216.511 169.224 C 216.511 169.419,216.205 169.780,215.830 170.026 C 214.924 170.619,214.979 172.123,215.912 172.256 C 216.438 172.330,216.511 172.224,216.511 171.383 C 216.511 170.607,216.637 170.378,217.177 170.173 C 217.639 169.998,217.843 169.719,217.843 169.263 C 217.843 168.465,217.582 168.269,216.972 168.610 M210.120 170.269 C 210.120 170.915,210.242 171.238,210.487 171.238 C 210.688 171.238,211.003 171.418,211.185 171.638 C 211.629 172.173,211.985 172.143,211.981 171.571 C 211.980 171.315,211.560 170.699,211.049 170.202 L 210.120 169.299 210.120 170.269 M212.364 172.722 C 212.945 173.302,212.886 173.902,212.160 174.810 C 211.402 175.758,210.977 175.559,210.752 174.152 C 210.616 173.302,210.474 173.103,210.004 173.103 C 208.250 173.103,208.052 174.953,209.730 175.654 C 210.927 176.154,210.988 177.008,209.854 177.403 C 209.414 177.557,209.055 177.846,209.055 178.046 C 209.055 178.246,208.815 178.538,208.522 178.695 C 208.229 178.852,207.989 179.164,207.989 179.388 C 207.989 179.612,207.854 180.049,207.688 180.358 C 207.202 181.266,206.651 180.306,206.935 179.046 C 207.144 178.121,207.298 177.931,208.322 177.345 C 208.903 177.013,208.931 176.144,208.367 175.927 C 207.473 175.584,207.196 175.771,207.026 176.831 C 206.896 177.644,206.735 177.896,206.346 177.896 C 206.066 177.896,205.260 178.435,204.555 179.095 C 203.380 180.194,202.130 180.674,202.130 180.027 C 202.130 179.880,201.951 179.760,201.731 179.760 C 201.424 179.760,201.332 180.100,201.332 181.221 C 201.332 182.640,201.304 182.694,200.399 183.072 C 199.887 183.286,199.467 183.597,199.467 183.762 C 199.467 183.928,198.988 184.538,198.402 185.118 C 197.816 185.698,197.337 186.430,197.337 186.745 L 197.337 187.317 196.794 186.735 C 196.094 185.983,195.632 185.998,195.007 186.793 C 194.729 187.146,194.037 187.655,193.467 187.925 C 192.898 188.195,192.367 188.664,192.288 188.967 C 192.072 189.794,190.455 191.794,189.044 192.981 C 188.845 193.149,188.350 193.651,187.944 194.095 C 187.538 194.540,186.938 194.943,186.612 194.989 C 186.219 195.045,185.853 195.433,185.528 196.138 C 185.149 196.959,184.722 197.356,183.666 197.870 C 182.602 198.386,182.175 198.786,181.760 199.651 C 181.451 200.296,180.775 201.069,180.160 201.483 C 179.145 202.164,178.806 202.505,178.621 203.031 C 178.576 203.160,177.706 203.403,176.688 203.569 C 175.069 203.835,174.770 203.976,174.303 204.695 C 174.009 205.147,173.311 205.847,172.753 206.250 C 172.194 206.653,171.481 207.359,171.168 207.819 C 169.861 209.739,168.190 210.942,166.602 211.106 C 164.760 211.296,164.262 211.763,165.229 212.396 C 166.012 212.909,166.112 213.448,165.471 213.694 C 165.207 213.795,164.800 213.647,164.455 213.323 C 163.652 212.568,163.313 212.643,162.681 213.715 C 162.379 214.228,162.039 214.647,161.926 214.647 C 161.813 214.647,161.016 215.372,160.155 216.258 C 159.293 217.144,157.989 218.243,157.257 218.701 C 156.525 219.159,155.626 219.795,155.260 220.113 C 154.893 220.432,154.065 220.897,153.418 221.148 C 152.771 221.398,151.950 221.832,151.593 222.112 C 151.236 222.393,150.507 222.695,149.973 222.783 C 148.775 222.980,147.537 223.438,147.537 223.683 C 147.537 223.783,147.051 224.080,146.457 224.342 C 145.863 224.604,144.709 225.471,143.892 226.269 C 143.075 227.067,142.032 227.910,141.576 228.143 C 141.119 228.377,140.657 228.719,140.548 228.904 C 140.439 229.089,139.720 229.386,138.950 229.564 C 138.180 229.741,136.591 230.398,135.419 231.023 C 132.765 232.438,126.705 235.153,126.202 235.153 C 125.996 235.153,125.678 234.913,125.495 234.621 C 125.312 234.328,124.978 234.088,124.753 234.088 C 124.071 234.088,121.457 231.991,121.285 231.305 C 120.859 229.610,118.502 229.431,117.967 231.053 C 117.803 231.550,117.558 231.957,117.423 231.957 C 117.288 231.957,117.177 232.317,117.177 232.756 C 117.177 233.425,117.283 233.555,117.825 233.555 C 118.334 233.555,118.491 233.712,118.558 234.288 C 118.624 234.863,118.799 235.038,119.374 235.104 C 119.777 235.151,120.107 235.300,120.107 235.437 C 120.107 235.574,120.761 235.686,121.561 235.686 C 122.559 235.686,123.123 235.817,123.358 236.104 C 125.066 238.185,125.734 238.615,127.262 238.617 C 128.087 238.618,129.105 238.797,129.524 239.016 C 130.876 239.721,131.824 239.553,131.824 238.609 C 131.824 237.627,132.752 237.143,133.839 237.557 C 135.168 238.062,136.085 237.894,136.085 237.145 C 136.085 236.199,137.131 235.742,138.314 236.170 C 139.786 236.702,140.559 236.592,140.421 235.869 C 140.272 235.089,140.701 234.747,142.228 234.428 C 143.469 234.168,144.607 234.384,144.607 234.878 C 144.607 235.029,144.727 235.153,144.874 235.153 C 145.020 235.153,145.140 234.808,145.140 234.387 C 145.140 233.389,145.729 232.909,146.670 233.141 C 148.843 233.675,148.824 233.679,148.916 232.717 C 148.993 231.912,149.126 231.783,150.272 231.403 C 150.970 231.171,151.784 230.721,152.080 230.404 C 152.375 230.087,152.908 229.827,153.262 229.827 C 153.617 229.827,154.144 229.573,154.433 229.262 C 154.894 228.768,155.065 228.735,155.815 228.996 C 156.999 229.409,157.067 229.385,156.921 228.619 C 156.772 227.840,157.481 226.897,158.217 226.897 C 158.480 226.897,158.806 226.700,158.941 226.458 C 159.128 226.123,159.419 226.056,160.153 226.175 C 161.061 226.322,161.119 226.289,161.123 225.616 C 161.128 224.692,161.364 224.354,162.184 224.099 C 162.550 223.985,162.991 223.691,163.164 223.445 C 163.337 223.199,164.312 222.439,165.332 221.755 C 166.351 221.071,167.254 220.331,167.339 220.110 C 167.424 219.888,167.727 219.707,168.012 219.707 C 168.297 219.707,168.767 219.382,169.057 218.985 C 169.533 218.331,169.648 218.293,170.290 218.586 C 171.512 219.143,172.304 219.008,172.304 218.242 C 172.304 217.876,172.416 217.577,172.554 217.577 C 172.691 217.577,172.841 217.130,172.887 216.584 C 172.947 215.862,173.137 215.509,173.583 215.287 C 173.920 215.120,174.434 214.728,174.725 214.416 C 175.016 214.104,175.421 213.848,175.625 213.848 C 175.829 213.848,176.068 213.638,176.156 213.382 C 176.307 212.941,177.707 211.796,179.167 210.919 C 179.533 210.699,180.110 210.250,180.450 209.920 C 180.790 209.591,181.185 209.321,181.328 209.321 C 181.471 209.321,181.662 209.091,181.751 208.811 C 181.840 208.530,182.269 208.176,182.704 208.024 C 183.140 207.872,183.567 207.563,183.654 207.336 C 183.741 207.110,183.972 206.924,184.168 206.924 C 184.364 206.924,184.684 206.595,184.879 206.192 C 185.158 205.617,185.418 205.460,186.092 205.462 C 186.768 205.464,186.951 205.354,186.951 204.943 C 186.951 204.441,189.427 201.864,189.910 201.864 C 190.040 201.864,190.146 201.678,190.146 201.451 C 190.146 201.224,190.501 200.914,190.935 200.763 C 191.368 200.612,191.798 200.251,191.890 199.962 C 191.982 199.672,192.346 199.303,192.700 199.142 C 193.053 198.981,193.342 198.746,193.342 198.620 C 193.342 198.303,197.021 194.674,197.342 194.674 C 197.486 194.674,197.603 194.540,197.603 194.376 C 197.603 193.995,199.454 192.159,200.067 191.933 C 200.323 191.838,200.533 191.520,200.533 191.226 C 200.533 190.932,200.832 190.495,201.198 190.255 C 201.565 190.015,201.864 189.657,201.864 189.459 C 201.864 189.262,202.110 188.969,202.410 188.808 C 202.710 188.648,203.068 188.219,203.206 187.856 C 203.344 187.492,203.816 186.990,204.255 186.740 C 204.693 186.490,205.177 185.985,205.330 185.619 C 205.904 184.249,206.391 183.618,206.981 183.478 C 207.350 183.391,207.624 183.099,207.676 182.739 C 207.723 182.412,208.053 181.953,208.408 181.720 C 208.764 181.488,209.055 181.146,209.055 180.961 C 209.055 180.480,209.620 180.076,210.449 179.965 C 211.413 179.836,211.512 179.689,211.196 178.857 C 210.956 178.227,211.001 178.118,211.588 177.895 C 212.098 177.701,212.250 177.452,212.250 176.813 C 212.250 176.205,212.394 175.945,212.786 175.842 C 213.080 175.765,213.395 175.408,213.485 175.049 C 213.576 174.689,213.919 174.293,214.248 174.168 C 215.650 173.635,214.550 172.316,212.697 172.307 C 212.014 172.304,211.984 172.342,212.364 172.722 M206.154 181.807 C 205.877 182.843,205.326 182.913,205.326 181.913 C 205.326 181.282,205.444 181.092,205.836 181.092 C 206.259 181.092,206.313 181.214,206.154 181.807 M201.952 186.796 C 202.032 187.003,201.936 187.235,201.740 187.310 C 201.278 187.487,201.064 187.263,201.245 186.792 C 201.430 186.311,201.767 186.313,201.952 186.796 M197.676 191.511 C 197.140 192.048,196.464 191.581,196.819 190.918 C 197.098 190.397,197.157 190.385,197.551 190.779 C 197.872 191.100,197.903 191.284,197.676 191.511 " stroke="none" fill="#42410c" fill-rule="evenodd"></path><path id="path1" d="M182.491 33.688 C 182.494 34.274,182.548 34.483,182.612 34.151 C 182.675 33.820,182.673 33.341,182.606 33.086 C 182.540 32.831,182.488 33.103,182.491 33.688 M193.527 34.526 C 193.702 34.597,193.782 34.820,193.704 35.021 C 193.627 35.222,193.689 35.604,193.841 35.869 C 194.068 36.263,194.113 36.168,194.087 35.353 C 194.063 34.622,193.942 34.360,193.632 34.375 C 193.380 34.388,193.338 34.449,193.527 34.526 M192.556 36.603 C 192.367 36.831,192.088 37.017,191.937 37.017 C 191.514 37.017,188.763 38.362,188.016 38.933 C 187.650 39.213,186.871 39.807,186.285 40.252 L 185.220 41.061 186.285 40.869 C 186.871 40.764,187.539 40.514,187.771 40.312 C 188.359 39.801,188.824 39.852,190.191 40.579 C 191.267 41.151,191.448 41.176,192.094 40.837 C 192.776 40.480,192.833 40.502,193.365 41.337 L 193.923 42.210 193.794 41.098 C 193.715 40.419,193.811 39.704,194.041 39.260 C 194.667 38.054,193.333 35.667,192.556 36.603 M200.959 54.538 C 201.426 55.252,201.941 55.692,202.436 55.801 C 203.051 55.936,203.196 56.110,203.196 56.714 C 203.196 57.249,203.451 57.655,204.096 58.147 C 204.592 58.525,205.073 59.138,205.167 59.510 C 205.260 59.882,205.448 60.186,205.585 60.186 C 206.085 60.186,206.782 62.076,206.375 62.327 C 206.075 62.512,206.064 62.766,206.316 63.701 C 206.559 64.602,206.552 64.961,206.284 65.379 C 205.627 66.406,205.533 67.402,206.039 67.962 C 206.638 68.624,206.636 70.312,206.034 71.851 C 205.472 73.287,205.431 74.696,205.840 78.562 C 206.789 87.544,206.131 103.197,204.753 104.437 C 204.374 104.777,204.260 105.268,204.256 106.567 C 204.249 108.660,203.904 110.887,203.211 113.316 C 202.918 114.341,202.675 115.673,202.671 116.276 C 202.666 116.981,202.461 117.628,202.096 118.093 C 201.607 118.714,201.575 118.900,201.862 119.437 C 202.249 120.160,201.708 121.804,201.154 121.591 C 200.740 121.432,200.533 122.037,200.533 123.405 C 200.533 124.187,200.329 124.806,199.867 125.433 C 199.501 125.929,199.201 126.542,199.201 126.796 C 199.201 127.049,198.918 127.595,198.572 128.009 C 198.148 128.516,197.879 129.280,197.747 130.347 C 197.584 131.668,197.405 132.069,196.675 132.744 C 196.071 133.303,195.743 133.898,195.617 134.660 C 195.510 135.313,195.115 136.123,194.655 136.639 C 194.203 137.145,193.875 137.814,193.875 138.228 C 193.875 139.019,192.966 140.346,192.425 140.346 C 192.203 140.346,192.032 140.831,191.949 141.690 C 191.856 142.663,191.627 143.236,191.121 143.764 C 190.737 144.165,190.342 144.893,190.245 145.382 C 190.121 145.998,189.802 146.426,189.201 146.781 C 188.724 147.062,188.266 147.566,188.182 147.901 C 188.098 148.236,187.726 148.648,187.357 148.817 C 186.950 149.002,186.684 149.343,186.684 149.679 C 186.684 150.466,186.326 151.045,184.955 152.476 C 184.295 153.165,183.755 153.896,183.755 154.100 C 183.755 154.305,183.465 154.604,183.110 154.766 C 182.755 154.928,182.400 155.315,182.322 155.626 C 182.243 155.937,181.566 156.844,180.817 157.641 C 180.068 158.438,179.281 159.427,179.068 159.838 C 178.855 160.249,178.565 160.586,178.422 160.586 C 178.279 160.586,178.162 160.772,178.162 161.000 C 178.162 161.480,176.768 162.843,175.699 163.408 C 175.134 163.707,174.967 163.989,174.967 164.646 C 174.967 165.365,174.616 165.836,172.703 167.681 C 171.458 168.881,170.439 170.057,170.439 170.293 C 170.439 170.529,170.230 170.800,169.973 170.894 C 169.717 170.988,169.411 171.224,169.294 171.418 C 169.177 171.612,168.852 171.771,168.571 171.771 C 168.291 171.771,167.919 172.041,167.744 172.370 C 166.670 174.402,164.959 175.346,164.032 174.418 C 163.726 174.112,163.224 173.905,162.900 173.952 C 162.092 174.067,161.962 175.161,162.694 175.674 C 163.666 176.354,162.201 179.494,160.912 179.494 C 160.797 179.494,159.629 180.510,158.315 181.752 C 157.001 182.995,155.792 184.013,155.629 184.016 C 155.466 184.019,155.004 184.495,154.603 185.073 C 154.121 185.769,153.524 186.243,152.840 186.472 C 152.029 186.743,151.677 187.075,151.203 188.016 C 150.786 188.844,150.352 189.298,149.800 189.486 C 149.361 189.635,148.182 190.534,147.179 191.483 C 146.177 192.432,144.971 193.449,144.499 193.742 C 144.027 194.035,143.090 194.844,142.416 195.539 C 141.743 196.235,141.014 196.804,140.795 196.804 C 140.577 196.804,140.277 197.152,140.129 197.577 C 139.936 198.129,139.625 198.401,139.038 198.530 C 138.586 198.630,138.216 198.831,138.216 198.979 C 138.216 199.370,136.557 201.065,136.174 201.065 C 135.995 201.065,135.692 201.348,135.501 201.694 C 134.807 202.949,133.677 204.527,133.472 204.527 C 133.356 204.527,133.000 205.067,132.680 205.726 C 132.359 206.385,131.992 206.924,131.864 206.924 C 131.735 206.924,131.423 207.466,131.170 208.128 C 130.643 209.508,129.726 210.120,128.183 210.120 C 127.198 210.120,127.190 210.128,127.770 210.534 C 128.964 211.371,128.447 212.975,126.165 215.510 C 125.762 215.958,125.433 216.469,125.433 216.647 C 125.433 216.824,125.122 217.428,124.741 217.988 C 124.055 219.000,124.055 219.004,124.675 218.592 C 125.018 218.364,125.426 217.728,125.580 217.179 L 125.861 216.180 126.311 216.866 C 126.744 217.527,126.728 217.630,125.865 219.761 C 125.242 221.296,125.050 222.072,125.234 222.304 C 125.620 222.791,126.349 222.710,126.881 222.122 C 127.463 221.479,128.026 221.677,128.442 222.670 C 128.753 223.413,128.783 223.424,129.524 223.036 C 130.529 222.510,131.944 222.528,132.489 223.073 C 133.299 223.883,135.607 223.695,136.820 222.720 C 137.901 221.851,139.390 221.313,140.746 221.301 C 141.555 221.293,143.809 220.402,144.067 219.987 C 144.229 219.727,147.962 217.023,149.513 216.042 C 150.087 215.679,150.799 215.157,151.095 214.881 C 151.390 214.606,151.720 214.381,151.827 214.381 C 152.736 214.381,153.694 212.911,153.625 211.622 C 153.542 210.045,153.738 209.925,156.477 209.880 C 159.201 209.835,160.380 209.266,162.110 207.163 C 162.942 206.153,163.693 205.326,163.780 205.326 C 163.866 205.326,164.936 204.482,166.156 203.449 C 167.377 202.417,168.989 201.168,169.740 200.675 C 170.829 199.959,173.443 197.553,175.366 195.495 C 176.030 194.785,178.719 192.666,180.293 191.613 C 182.376 190.220,183.274 189.299,183.929 187.886 C 184.204 187.294,184.745 186.669,185.152 186.475 C 185.553 186.282,186.017 185.871,186.184 185.560 C 186.350 185.249,188.435 183.068,190.817 180.713 C 193.199 178.358,195.227 176.168,195.324 175.845 C 195.421 175.523,195.900 175.013,196.388 174.711 C 197.052 174.300,197.350 173.866,197.572 172.982 C 197.790 172.119,198.160 171.564,198.949 170.920 C 199.542 170.436,200.377 169.363,200.803 168.536 C 201.642 166.908,202.645 165.716,203.785 164.991 C 204.182 164.739,204.923 163.906,205.431 163.140 C 205.939 162.375,206.873 161.404,207.505 160.984 C 210.406 159.053,213.582 154.803,213.582 152.851 C 213.582 151.993,214.014 151.377,215.040 150.772 C 215.556 150.467,215.979 150.023,215.979 149.785 C 215.979 149.547,216.379 148.885,216.867 148.314 C 218.406 146.516,219.266 143.924,219.315 140.929 C 219.363 138.083,219.503 137.616,220.879 135.717 C 221.515 134.840,222.278 134.190,223.227 133.720 C 224.905 132.888,225.071 132.583,226.102 128.435 C 227.106 124.394,227.793 123.038,229.948 120.839 C 231.629 119.122,232.224 118.723,232.224 119.308 C 232.224 119.454,232.458 119.574,232.744 119.574 C 233.030 119.574,233.479 119.861,233.743 120.212 L 234.221 120.851 234.556 118.814 C 235.385 113.784,235.755 103.298,235.187 100.932 C 235.029 100.273,234.894 98.475,234.887 96.937 C 234.873 93.951,234.371 91.317,233.178 87.983 C 232.805 86.940,232.422 85.242,232.326 84.210 C 232.159 82.421,232.106 82.303,231.190 81.711 C 230.238 81.095,229.925 80.634,228.108 77.177 C 226.965 75.001,225.851 73.696,224.479 72.925 C 223.909 72.605,223.128 71.888,222.743 71.333 C 222.358 70.777,221.830 70.255,221.570 70.173 C 221.309 70.090,221.039 69.804,220.970 69.538 C 220.884 69.210,220.487 68.997,219.734 68.877 C 218.899 68.743,218.566 68.542,218.384 68.064 C 218.085 67.278,216.992 66.458,214.276 64.979 C 212.759 64.154,212.096 63.629,211.894 63.093 C 211.740 62.685,211.308 62.196,210.933 62.005 C 208.047 60.538,205.912 58.613,204.634 56.324 C 204.472 56.035,203.617 55.438,202.733 54.997 C 201.849 54.555,200.927 54.025,200.683 53.819 C 200.440 53.612,200.564 53.936,200.959 54.538 M208.975 62.043 C 209.051 62.332,209.089 62.648,209.061 62.746 C 209.032 62.843,209.169 63.025,209.365 63.149 C 209.622 63.312,209.560 63.375,209.141 63.378 C 208.390 63.383,207.288 62.056,207.782 61.742 C 208.360 61.375,208.832 61.494,208.975 62.043 M218.842 70.938 C 219.318 71.184,219.707 71.502,219.707 71.645 C 219.707 71.787,219.871 71.904,220.070 71.904 C 220.629 71.904,221.025 75.864,220.618 77.379 C 220.368 78.308,217.310 77.496,217.310 76.501 C 217.310 76.316,217.200 76.165,217.066 76.165 C 216.712 76.165,216.297 73.970,216.425 72.783 C 216.585 71.314,217.369 69.701,217.710 70.144 C 217.856 70.335,218.366 70.692,218.842 70.938 " stroke="none" fill="#ddbe08" fill-rule="evenodd"></path><path id="path2" d="M184.021 30.488 C 184.021 30.970,183.842 31.193,183.356 31.315 C 182.600 31.505,182.612 31.461,182.684 33.888 L 182.738 35.686 181.249 35.686 L 179.760 35.686 179.760 37.150 C 179.760 38.600,179.752 38.615,178.961 38.615 C 178.171 38.615,178.162 38.630,178.162 40.080 C 178.162 42.067,179.496 42.326,180.222 40.479 C 180.664 39.353,181.079 39.156,181.625 39.814 C 182.342 40.679,183.739 40.323,183.576 39.317 C 183.440 38.480,183.501 38.387,184.502 37.919 C 186.192 37.127,186.656 35.902,185.615 34.975 C 184.803 34.251,184.620 33.468,185.095 32.756 C 185.321 32.418,185.461 32.468,186.002 33.079 C 186.353 33.476,186.956 33.880,187.341 33.976 C 187.726 34.073,187.979 34.213,187.905 34.288 C 186.916 35.277,190.101 35.804,191.748 34.924 C 193.074 34.216,193.262 32.756,192.028 32.756 C 191.346 32.756,191.212 32.652,191.212 32.122 C 191.212 31.362,190.659 31.167,188.482 31.162 C 187.027 31.159,186.951 31.125,186.951 30.493 C 186.951 29.863,186.871 29.827,185.486 29.827 C 184.104 29.827,184.021 29.864,184.021 30.488 M194.919 34.439 C 195.077 34.598,195.206 35.250,195.206 35.890 C 195.206 37.399,195.586 38.083,196.426 38.083 C 197.085 38.083,197.093 38.056,197.016 36.152 L 196.937 34.221 195.784 34.186 C 194.959 34.162,194.713 34.234,194.919 34.439 M196.612 38.948 C 196.028 39.702,196.036 40.199,196.640 40.674 C 197.320 41.209,198.728 44.005,199.185 45.730 C 199.349 46.348,199.633 46.947,199.817 47.062 C 200.001 47.176,200.531 47.870,200.995 48.602 C 201.459 49.334,202.233 50.366,202.717 50.895 C 203.200 51.424,204.374 52.779,205.326 53.907 C 208.627 57.819,209.205 58.322,210.390 58.322 C 210.974 58.322,211.451 58.202,211.451 58.056 C 211.451 57.909,211.571 57.790,211.718 57.790 C 211.864 57.790,211.984 58.065,211.984 58.402 C 211.984 58.739,212.128 59.158,212.304 59.334 C 212.689 59.720,214.381 59.763,214.381 59.387 C 214.381 59.241,214.501 59.121,214.647 59.121 C 214.794 59.121,214.913 59.462,214.913 59.879 C 214.913 60.523,215.585 61.518,216.021 61.518 C 216.094 61.518,217.100 62.057,218.257 62.716 C 219.414 63.375,220.632 63.915,220.966 63.915 C 221.378 63.915,221.571 64.072,221.571 64.409 C 221.571 64.865,224.210 67.111,224.745 67.111 C 224.868 67.111,225.827 67.830,226.876 68.708 C 227.925 69.587,228.935 70.306,229.119 70.306 C 229.304 70.306,229.704 70.896,230.008 71.616 C 230.439 72.636,230.804 73.049,231.659 73.486 C 232.401 73.864,232.756 74.221,232.756 74.587 C 232.756 74.884,233.407 76.116,234.202 77.323 C 234.997 78.530,235.795 79.842,235.976 80.238 C 236.156 80.634,236.452 80.959,236.632 80.959 C 237.055 80.959,237.277 81.554,237.310 82.778 C 237.356 84.470,237.637 85.087,238.361 85.087 C 239.340 85.087,239.392 80.879,238.415 80.740 C 237.887 80.665,237.816 80.501,237.816 79.347 C 237.816 78.181,237.745 78.022,237.163 77.876 C 236.591 77.732,236.501 77.543,236.431 76.339 C 236.357 75.063,236.300 74.961,235.619 74.882 C 235.044 74.816,234.887 74.659,234.887 74.150 C 234.887 73.621,234.753 73.502,234.154 73.502 C 233.448 73.503,233.422 73.453,233.422 72.104 C 233.422 70.777,233.385 70.701,232.690 70.621 C 232.115 70.555,231.957 70.398,231.957 69.889 C 231.957 69.375,231.819 69.241,231.292 69.241 C 230.729 69.241,230.626 69.117,230.626 68.442 C 230.626 67.732,230.537 67.643,229.827 67.643 C 229.152 67.643,229.028 67.540,229.028 66.977 C 229.028 66.348,228.948 66.312,227.563 66.312 C 226.113 66.312,226.099 66.304,226.099 65.513 C 226.099 64.838,225.995 64.714,225.433 64.714 C 224.900 64.714,224.767 64.581,224.767 64.048 C 224.767 63.418,224.687 63.382,223.302 63.382 C 221.852 63.382,221.838 63.374,221.838 62.583 C 221.838 61.873,221.749 61.784,221.039 61.784 C 220.364 61.784,220.240 61.681,220.240 61.119 C 220.240 60.497,220.151 60.453,218.908 60.453 C 217.681 60.453,217.577 60.403,217.577 59.815 C 217.577 59.076,217.142 58.855,215.691 58.855 C 214.755 58.855,214.647 58.786,214.647 58.189 C 214.647 57.561,214.566 57.523,213.200 57.523 C 211.820 57.523,211.749 57.490,211.669 56.791 C 211.603 56.220,211.427 56.040,210.866 55.976 C 210.200 55.899,210.141 55.791,210.067 54.511 L 209.987 53.129 208.604 53.169 C 207.294 53.208,207.216 53.173,207.139 52.504 C 207.081 52.006,206.881 51.773,206.458 51.713 C 205.921 51.636,205.859 51.478,205.859 50.181 C 205.859 48.752,205.850 48.735,205.060 48.735 C 204.385 48.735,204.261 48.631,204.261 48.069 C 204.261 47.537,204.128 47.403,203.595 47.403 C 203.033 47.403,202.929 47.279,202.929 46.605 C 202.929 45.894,202.841 45.806,202.130 45.806 C 201.340 45.806,201.332 45.791,201.332 44.341 C 201.332 42.956,201.295 42.876,200.666 42.876 C 200.036 42.876,200.000 42.796,200.000 41.411 C 200.000 40.027,199.964 39.947,199.334 39.947 C 198.802 39.947,198.668 39.814,198.668 39.281 C 198.668 38.534,197.126 38.284,196.612 38.948 M179.760 43.259 C 179.760 44.378,179.813 44.474,180.426 44.474 C 180.959 44.474,181.092 44.607,181.092 45.140 C 181.092 45.739,181.198 45.806,182.157 45.806 C 183.492 45.806,183.820 44.368,182.557 44.051 C 182.097 43.935,181.825 43.625,181.676 43.047 C 181.279 41.504,179.760 41.672,179.760 43.259 M185.353 47.403 L 185.353 48.735 186.551 48.735 C 187.911 48.735,188.178 48.038,187.320 46.728 C 186.470 45.432,185.353 45.815,185.353 47.403 M188.282 50.599 C 188.282 51.632,188.310 51.664,189.183 51.664 C 190.157 51.664,190.590 50.850,190.091 49.959 C 189.547 48.986,188.282 49.433,188.282 50.599 M191.212 54.860 C 191.212 55.866,191.256 55.925,192.011 55.925 C 192.793 55.925,192.921 56.103,192.824 57.057 C 192.797 57.314,192.911 57.523,193.075 57.523 C 193.239 57.523,193.292 57.392,193.193 57.230 C 193.065 57.025,193.179 57.027,193.576 57.240 C 194.094 57.517,194.141 57.475,194.141 56.734 C 194.141 56.193,194.009 55.925,193.742 55.925 C 193.482 55.925,193.342 55.665,193.342 55.180 C 193.342 54.233,192.904 53.795,191.957 53.795 C 191.265 53.795,191.212 53.871,191.212 54.860 M194.141 59.254 C 194.141 60.408,194.171 60.453,194.940 60.453 C 195.615 60.453,195.739 60.556,195.739 61.119 C 195.739 61.642,195.874 61.784,196.374 61.784 C 197.217 61.784,197.515 60.567,196.769 60.168 C 196.496 60.021,196.272 59.630,196.272 59.298 C 196.272 58.489,195.789 58.056,194.887 58.056 C 194.181 58.056,194.141 58.119,194.141 59.254 M197.071 63.702 C 197.071 65.007,198.478 65.250,198.943 64.026 C 199.284 63.128,199.133 62.931,198.005 62.799 C 197.081 62.691,197.071 62.702,197.071 63.702 M198.668 66.578 C 198.668 67.813,200.042 68.236,200.399 67.111 C 200.698 66.170,200.307 65.513,199.449 65.513 C 198.716 65.513,198.668 65.577,198.668 66.578 M200.000 70.306 L 200.000 71.904 200.939 71.904 C 202.191 71.904,202.611 70.972,201.969 69.618 C 201.152 67.896,200.000 68.298,200.000 70.306 M201.546 77.416 C 201.434 79.666,201.442 95.860,201.559 102.463 L 201.598 104.660 202.374 104.660 C 203.457 104.660,203.581 103.122,203.541 90.146 C 203.500 77.104,203.338 74.999,202.369 74.886 L 201.676 74.806 201.546 77.416 M238.729 87.209 C 238.042 88.258,238.752 90.146,239.836 90.146 C 240.609 90.146,240.613 90.139,240.691 88.349 L 240.770 86.551 239.965 86.551 C 239.403 86.551,239.030 86.750,238.729 87.209 M240.129 92.799 C 239.642 93.286,239.767 116.241,240.260 116.834 C 240.417 117.023,240.889 117.177,241.311 117.177 L 242.077 117.177 242.077 104.794 L 242.077 92.410 241.297 92.410 C 240.868 92.410,240.342 92.585,240.129 92.799 M200.113 108.745 C 199.639 109.981,200.139 113.316,200.811 113.395 C 201.792 113.509,202.733 110.140,202.023 109.057 C 201.547 108.330,200.347 108.134,200.113 108.745 M198.761 115.989 C 198.151 117.577,199.257 119.564,200.231 118.629 C 200.553 118.320,200.556 116.158,200.235 115.959 C 199.678 115.615,198.898 115.630,198.761 115.989 M239.385 119.772 C 238.770 119.905,238.349 120.999,238.349 122.463 C 238.349 123.957,238.676 124.368,239.867 124.368 L 240.746 124.368 240.746 122.135 C 240.746 119.796,240.583 119.513,239.385 119.772 M197.123 121.620 C 197.202 123.137,197.220 123.169,197.983 123.169 C 199.776 123.169,199.713 120.329,197.916 120.155 L 197.043 120.071 197.123 121.620 M195.739 126.232 L 195.739 128.096 196.529 128.096 C 197.842 128.096,198.446 125.771,197.382 124.808 C 196.234 123.769,195.739 124.198,195.739 126.232 M237.744 127.302 C 236.386 128.402,236.868 131.824,238.381 131.824 L 239.148 131.824 239.148 129.339 C 239.148 126.644,238.936 126.336,237.744 127.302 M194.141 129.932 C 194.141 130.997,194.453 131.316,195.363 131.182 C 196.758 130.978,196.378 128.895,194.946 128.895 C 194.188 128.895,194.141 128.956,194.141 129.932 M192.810 133.156 C 192.810 134.815,194.053 135.188,194.664 133.713 C 195.112 132.631,194.657 131.824,193.599 131.824 C 192.829 131.824,192.810 131.857,192.810 133.156 M236.120 132.654 C 235.538 133.485,236.052 134.487,237.060 134.487 C 237.779 134.487,237.816 134.428,237.816 133.289 C 237.816 131.911,236.885 131.562,236.120 132.654 M191.545 134.664 C 191.349 134.743,191.212 135.282,191.212 135.974 C 191.212 137.217,192.179 137.675,193.023 136.831 C 193.483 136.371,193.437 134.754,192.965 134.754 C 192.757 134.754,192.427 134.703,192.232 134.642 C 192.037 134.580,191.728 134.590,191.545 134.664 M234.640 136.996 C 233.573 138.288,234.063 140.346,235.437 140.346 L 236.485 140.346 236.481 138.815 C 236.475 136.874,235.520 135.930,234.640 136.996 M189.880 138.673 C 189.880 139.786,189.902 139.814,190.759 139.814 C 192.208 139.814,192.920 138.312,191.764 137.694 C 190.590 137.065,189.880 137.434,189.880 138.673 M188.561 140.731 C 188.003 141.403,188.326 142.333,189.149 142.428 C 189.990 142.525,190.295 142.039,190.037 141.011 C 189.850 140.265,189.071 140.117,188.561 140.731 M233.352 140.922 C 232.553 141.721,233.067 143.276,234.131 143.276 C 234.901 143.276,234.914 143.252,234.835 142.011 C 234.749 140.671,234.088 140.186,233.352 140.922 M231.682 145.018 C 230.739 146.154,231.419 147.877,232.756 147.739 C 233.802 147.630,233.780 144.782,232.734 144.660 C 232.337 144.614,231.891 144.766,231.682 145.018 M185.384 145.073 C 185.509 145.860,185.296 146.205,184.687 146.205 C 184.128 146.205,184.021 146.331,184.021 146.986 C 184.021 147.641,183.902 147.781,183.289 147.852 C 182.582 147.933,182.559 147.985,182.635 149.334 C 182.714 150.732,182.714 150.732,181.903 150.732 C 181.119 150.732,181.092 150.773,181.092 151.931 C 181.092 153.495,182.338 153.720,183.196 152.310 C 183.470 151.860,183.949 151.313,184.261 151.094 C 184.572 150.876,185.054 150.256,185.330 149.716 C 185.606 149.177,186.204 148.269,186.658 147.700 C 187.942 146.089,187.839 144.874,186.418 144.874 C 185.832 144.874,185.367 144.963,185.384 145.073 M230.093 148.735 C 229.521 149.424,230.240 150.732,231.191 150.732 C 231.922 150.732,231.957 150.677,231.957 149.534 C 231.957 148.235,230.889 147.777,230.093 148.735 M228.815 151.585 C 228.002 152.397,228.726 153.779,229.879 153.616 C 230.930 153.467,230.946 151.265,229.895 151.265 C 229.477 151.265,228.991 151.409,228.815 151.585 M179.760 154.310 C 179.760 154.819,179.603 154.976,179.028 155.042 C 178.504 155.103,178.271 155.297,178.211 155.726 C 178.164 156.055,178.014 156.340,177.878 156.358 C 177.741 156.376,177.480 156.406,177.297 156.425 C 177.114 156.443,176.927 156.780,176.881 157.174 C 176.817 157.728,176.636 157.909,176.082 157.973 C 175.574 158.032,175.341 158.230,175.281 158.655 C 175.219 159.089,175.017 159.254,174.549 159.254 C 173.943 159.254,173.901 159.346,173.901 160.701 C 173.901 162.082,173.868 162.152,173.169 162.233 C 172.594 162.299,172.419 162.474,172.352 163.049 C 172.286 163.624,172.129 163.782,171.620 163.782 C 171.106 163.782,170.972 163.920,170.972 164.447 C 170.972 164.982,170.839 165.113,170.300 165.113 C 169.765 165.113,169.594 165.278,169.467 165.912 C 169.344 166.531,169.165 166.711,168.675 166.711 C 168.183 166.711,168.043 166.854,168.043 167.359 C 168.043 167.868,167.885 168.025,167.310 168.091 C 166.735 168.158,166.560 168.333,166.494 168.908 C 166.427 169.483,166.270 169.640,165.761 169.640 C 165.248 169.640,165.113 169.778,165.113 170.306 C 165.113 170.831,164.978 170.972,164.476 170.972 C 163.720 170.972,163.541 171.333,163.714 172.503 C 163.932 173.979,166.774 172.602,167.466 170.685 C 167.514 170.550,167.716 170.439,167.914 170.439 C 168.112 170.439,168.832 169.729,169.514 168.861 C 170.196 167.992,170.923 167.217,171.129 167.138 C 171.336 167.059,171.505 166.823,171.505 166.615 C 171.505 166.406,172.094 165.787,172.814 165.237 C 173.779 164.502,174.167 164.004,174.290 163.345 C 174.403 162.746,174.609 162.449,174.912 162.448 C 175.169 162.446,176.118 161.450,177.097 160.155 C 178.049 158.895,179.158 157.551,179.561 157.168 C 179.963 156.786,180.293 156.324,180.293 156.142 C 180.293 155.960,180.533 155.683,180.826 155.526 C 181.750 155.031,181.554 153.662,180.559 153.662 C 179.890 153.662,179.760 153.767,179.760 154.310 M227.150 154.629 C 226.726 155.745,227.055 156.325,228.114 156.325 C 229.020 156.325,229.028 156.314,229.028 155.126 C 229.028 153.640,227.664 153.278,227.150 154.629 M224.767 160.072 C 224.767 160.767,224.856 160.877,225.366 160.804 C 226.308 160.670,226.385 159.254,225.450 159.254 C 224.865 159.254,224.767 159.372,224.767 160.072 M223.169 162.854 C 223.169 163.730,223.220 163.786,223.968 163.729 C 224.681 163.675,224.767 163.575,224.767 162.793 C 224.767 161.998,224.694 161.917,223.968 161.917 C 223.232 161.917,223.169 161.991,223.169 162.854 M221.564 164.861 C 221.039 165.841,221.338 166.568,222.304 166.661 C 223.166 166.744,223.169 166.740,223.169 165.530 C 223.169 164.151,222.167 163.734,221.564 164.861 M218.697 169.266 C 218.234 170.094,218.633 170.972,219.472 170.972 C 220.190 170.972,220.240 170.903,220.240 169.907 C 220.240 168.748,219.223 168.326,218.697 169.266 M215.777 173.411 C 215.595 173.593,215.446 173.895,215.446 174.082 C 215.446 174.269,215.146 174.618,214.780 174.858 C 213.697 175.568,213.834 176.892,214.980 176.781 C 215.701 176.712,215.860 176.576,215.930 175.965 C 216.001 175.348,216.140 175.233,216.811 175.233 C 217.570 175.233,217.605 175.184,217.526 174.234 C 217.437 173.153,216.483 172.704,215.777 173.411 M159.720 175.417 C 159.438 175.490,159.254 175.793,159.254 176.185 C 159.254 176.696,159.116 176.831,158.589 176.831 C 158.056 176.831,157.923 176.964,157.923 177.497 C 157.923 177.896,157.763 178.176,157.523 178.196 C 157.304 178.214,156.974 178.244,156.791 178.262 C 156.608 178.281,156.420 178.625,156.374 179.028 C 156.308 179.603,156.150 179.760,155.641 179.760 C 155.137 179.760,154.993 179.900,154.993 180.393 C 154.993 180.883,154.813 181.061,154.194 181.185 C 153.560 181.312,153.395 181.483,153.395 182.017 C 153.395 182.633,153.053 182.846,152.264 182.721 C 152.154 182.704,152.078 182.780,152.095 182.889 C 152.206 183.592,151.965 183.997,151.265 184.288 C 150.778 184.489,150.466 184.814,150.466 185.119 C 150.466 185.497,150.661 185.619,151.265 185.619 C 151.940 185.619,152.064 185.516,152.064 184.953 C 152.064 184.391,152.188 184.288,152.863 184.288 C 153.488 184.288,153.662 184.170,153.662 183.748 C 153.662 183.363,153.888 183.164,154.453 183.051 C 154.888 182.964,155.312 182.677,155.396 182.414 C 155.479 182.151,155.902 181.812,156.336 181.661 C 156.769 181.510,157.124 181.219,157.124 181.015 C 157.124 180.812,157.423 180.508,157.790 180.341 C 158.156 180.175,158.455 179.927,158.455 179.791 C 158.455 179.656,158.978 179.239,159.616 178.864 C 162.392 177.238,162.469 174.698,159.720 175.417 M213.109 177.508 C 213.054 178.178,213.060 178.180,213.690 177.707 C 214.379 177.190,214.353 176.831,213.624 176.831 C 213.325 176.831,213.146 177.066,213.109 177.508 M210.031 180.737 C 209.933 180.834,209.854 181.265,209.854 181.694 C 209.854 182.249,209.700 182.513,209.321 182.613 C 208.706 182.773,208.559 184.021,209.155 184.021 C 209.635 184.021,210.211 183.319,210.005 182.985 C 209.915 182.840,210.231 182.687,210.714 182.640 C 211.987 182.518,212.236 180.559,210.979 180.559 C 210.555 180.559,210.129 180.639,210.031 180.737 M147.563 185.804 C 147.683 186.507,147.465 186.924,146.937 186.999 C 146.508 187.060,146.314 187.292,146.254 187.816 C 146.188 188.391,146.031 188.549,145.522 188.549 C 144.905 188.549,144.829 188.636,144.767 189.414 C 144.752 189.597,144.441 189.807,144.075 189.881 C 143.589 189.980,143.386 190.213,143.325 190.747 C 143.258 191.321,143.101 191.478,142.592 191.478 C 142.050 191.478,141.944 191.608,141.944 192.277 C 141.944 193.259,143.478 193.510,143.725 192.568 C 143.798 192.288,144.095 191.998,144.385 191.922 C 144.676 191.846,144.975 191.545,145.052 191.254 C 145.128 190.963,145.477 190.652,145.827 190.564 C 146.178 190.476,146.660 190.107,146.898 189.743 C 147.137 189.379,147.447 189.081,147.589 189.081 C 147.731 189.081,148.382 188.642,149.037 188.106 C 150.725 186.723,150.633 185.789,148.797 185.671 C 148.098 185.626,147.543 185.686,147.563 185.804 M203.456 188.867 C 202.947 189.482,202.223 190.291,201.848 190.665 C 201.473 191.039,201.083 191.566,200.981 191.836 C 200.879 192.106,200.564 192.388,200.280 192.462 C 199.986 192.539,199.694 192.918,199.601 193.342 C 199.507 193.767,199.215 194.145,198.920 194.222 C 198.622 194.300,198.402 194.587,198.402 194.897 C 198.402 195.288,198.200 195.461,197.670 195.522 C 197.156 195.581,196.913 195.777,196.856 196.180 C 196.807 196.524,196.520 196.818,196.141 196.913 C 195.699 197.024,195.483 197.292,195.424 197.804 C 195.365 198.316,195.168 198.560,194.767 198.617 C 194.453 198.662,194.135 198.931,194.060 199.216 C 193.969 199.562,193.694 199.734,193.227 199.734 C 192.729 199.734,192.458 199.923,192.277 200.399 C 192.138 200.766,191.888 201.065,191.722 201.065 C 191.556 201.065,190.805 201.704,190.051 202.485 C 189.298 203.266,188.472 203.981,188.216 204.075 C 187.156 204.460,187.625 205.859,188.815 205.859 C 189.774 205.859,189.880 205.792,189.880 205.193 C 189.880 204.660,190.013 204.527,190.546 204.527 C 191.108 204.527,191.212 204.403,191.212 203.728 C 191.212 203.018,191.300 202.929,192.011 202.929 C 192.679 202.929,192.810 202.824,192.810 202.282 C 192.810 201.814,192.975 201.611,193.409 201.550 C 193.834 201.489,194.032 201.257,194.091 200.748 C 194.155 200.195,194.336 200.013,194.890 199.950 C 195.394 199.891,195.606 199.713,195.607 199.346 C 195.607 199.010,195.843 198.770,196.272 198.670 C 196.743 198.560,196.962 198.308,197.020 197.809 C 197.084 197.266,197.269 197.084,197.819 197.020 C 198.320 196.962,198.560 196.763,198.618 196.355 C 198.670 195.992,198.921 195.740,199.284 195.689 C 199.653 195.636,199.898 195.386,199.952 195.007 C 200.014 194.573,200.216 194.407,200.684 194.407 C 201.226 194.407,201.332 194.277,201.332 193.609 C 201.332 192.898,201.420 192.810,202.130 192.810 C 202.805 192.810,202.929 192.706,202.929 192.144 C 202.929 191.611,203.063 191.478,203.595 191.478 C 204.157 191.478,204.261 191.354,204.261 190.679 C 204.261 189.969,204.350 189.880,205.060 189.880 C 205.814 189.880,205.859 189.821,205.859 188.815 C 205.859 187.264,204.765 187.287,203.456 188.867 M137.417 195.073 C 137.417 195.606,137.284 195.739,136.751 195.739 C 136.139 195.739,136.085 195.837,136.085 196.937 C 136.085 198.832,138.873 198.562,139.698 196.588 C 140.440 194.813,140.263 194.407,138.748 194.407 C 137.506 194.407,137.417 194.452,137.417 195.073 M131.558 202.264 C 131.558 202.796,131.425 202.929,130.892 202.929 C 130.330 202.929,130.226 203.054,130.226 203.728 C 130.226 204.442,130.139 204.527,129.413 204.527 C 128.156 204.527,128.298 207.018,129.561 207.125 C 130.474 207.202,132.357 204.968,132.357 203.808 C 132.357 203.441,132.517 203.196,132.756 203.196 C 133.023 203.196,133.156 202.929,133.156 202.397 C 133.156 201.687,133.067 201.598,132.357 201.598 C 131.682 201.598,131.558 201.701,131.558 202.264 M128.029 207.400 C 126.968 207.533,126.935 209.172,127.988 209.437 C 128.826 209.647,129.427 209.209,129.427 208.389 C 129.427 207.619,128.953 207.284,128.029 207.400 M180.826 210.526 C 180.826 210.749,180.499 211.056,180.100 211.208 C 179.701 211.359,179.192 211.659,178.969 211.873 C 178.745 212.087,178.232 212.508,177.830 212.808 C 176.532 213.775,176.816 214.647,178.429 214.647 C 179.672 214.647,179.760 214.603,179.760 213.981 C 179.760 213.449,179.893 213.316,180.426 213.316 C 180.988 213.316,181.092 213.191,181.092 212.517 C 181.092 211.852,181.199 211.718,181.727 211.718 C 182.230 211.718,182.388 211.551,182.480 210.919 C 182.590 210.168,182.544 210.120,181.712 210.120 C 181.095 210.120,180.826 210.243,180.826 210.526 M125.884 210.746 C 125.571 211.563,125.995 212.250,126.812 212.250 C 127.537 212.250,127.591 212.184,127.514 211.385 C 127.422 210.431,126.191 209.948,125.884 210.746 M124.586 213.915 C 124.525 214.344,124.293 214.538,123.768 214.598 C 122.607 214.732,122.643 217.044,123.806 217.044 C 124.596 217.044,124.900 216.660,124.900 215.666 C 124.900 215.354,125.123 215.072,125.433 214.991 C 126.279 214.769,126.179 213.316,125.318 213.316 C 124.850 213.316,124.647 213.481,124.586 213.915 M173.824 215.879 C 173.235 216.468,173.645 217.577,174.451 217.577 C 175.211 217.577,175.261 217.517,175.183 216.711 C 175.102 215.866,174.317 215.385,173.824 215.879 M121.628 217.742 C 120.974 218.396,121.448 219.740,122.304 219.657 C 123.099 219.581,123.169 219.499,123.169 218.642 C 123.169 217.722,122.209 217.161,121.628 217.742 M120.107 221.571 C 120.107 222.569,120.156 222.636,120.877 222.636 C 121.742 222.636,122.056 222.136,121.808 221.151 C 121.497 219.911,120.107 220.255,120.107 221.571 M167.776 221.039 C 167.776 221.427,167.599 221.571,167.120 221.571 C 166.749 221.571,166.346 221.790,166.195 222.073 C 166.047 222.349,165.619 222.652,165.244 222.746 C 164.565 222.917,163.899 224.044,164.195 224.523 C 164.577 225.142,166.445 224.792,166.445 224.101 C 166.445 223.539,166.569 223.435,167.244 223.435 C 167.954 223.435,168.043 223.347,168.043 222.636 C 168.043 221.962,168.146 221.838,168.708 221.838 C 169.241 221.838,169.374 221.704,169.374 221.172 C 169.374 220.610,169.250 220.506,168.575 220.506 C 167.954 220.506,167.776 220.624,167.776 221.039 M118.509 224.066 C 118.509 224.552,118.348 224.753,117.909 224.815 C 117.351 224.894,117.305 225.049,117.233 227.097 L 117.156 229.294 116.353 229.294 C 115.553 229.294,115.552 229.297,115.632 230.692 C 115.777 233.216,117.697 232.478,117.708 229.893 C 117.709 229.710,117.996 229.561,118.347 229.561 C 119.071 229.561,119.189 229.345,119.457 227.531 C 119.562 226.816,119.861 225.960,120.120 225.628 C 120.845 224.696,120.452 223.593,119.357 223.485 C 118.608 223.411,118.509 223.479,118.509 224.066 M161.917 225.584 C 161.917 226.317,161.992 226.392,162.650 226.316 C 163.810 226.182,163.887 224.767,162.734 224.767 C 162.000 224.767,161.917 224.850,161.917 225.584 M157.656 228.500 C 157.656 229.228,157.731 229.297,158.455 229.242 C 159.137 229.190,159.254 229.072,159.254 228.439 C 159.254 227.791,159.152 227.696,158.455 227.696 C 157.744 227.696,157.656 227.785,157.656 228.500 M152.996 230.556 C 152.172 231.183,152.693 232.250,153.783 232.170 C 154.785 232.096,154.860 232.035,154.860 231.292 C 154.860 230.474,153.704 230.018,152.996 230.556 M150.266 231.868 C 149.337 232.242,149.906 233.555,150.999 233.555 C 152.005 233.555,152.064 233.511,152.064 232.756 C 152.064 232.244,151.928 231.957,151.686 231.957 C 151.479 231.957,151.149 231.907,150.954 231.845 C 150.759 231.784,150.449 231.794,150.266 231.868 M146.205 234.354 C 146.205 235.029,146.309 235.153,146.871 235.153 C 147.433 235.153,147.537 235.029,147.537 234.354 C 147.537 233.680,147.433 233.555,146.871 233.555 C 146.309 233.555,146.205 233.680,146.205 234.354 M142.365 234.971 C 141.463 235.631,141.940 236.342,143.345 236.433 C 144.583 236.512,144.607 236.499,144.607 235.729 C 144.607 234.638,143.385 234.225,142.365 234.971 M120.107 237.004 C 120.107 237.811,120.116 237.816,121.571 237.816 C 123.021 237.816,123.036 237.824,123.036 238.615 C 123.036 239.290,123.140 239.414,123.702 239.414 C 124.228 239.414,124.368 239.549,124.368 240.058 C 124.368 240.412,124.517 240.762,124.700 240.836 C 124.967 240.943,124.967 240.974,124.700 240.991 C 124.481 241.005,124.368 241.467,124.368 242.344 L 124.368 243.675 125.832 243.675 L 127.297 243.675 127.297 242.366 C 127.297 241.567,127.167 241.004,126.964 240.922 C 126.781 240.848,127.440 240.778,128.429 240.767 C 130.159 240.746,130.226 240.721,130.226 240.085 C 130.226 239.296,129.848 239.177,127.033 239.082 C 125.148 239.018,125.019 238.974,124.688 238.282 C 124.490 237.868,124.121 237.550,123.839 237.550 C 123.524 237.550,123.308 237.329,123.254 236.951 C 123.179 236.420,122.994 236.342,121.638 236.272 L 120.107 236.192 120.107 237.004 M137.150 237.150 C 137.150 237.734,137.266 237.816,138.083 237.816 C 138.899 237.816,139.015 237.734,139.015 237.150 C 139.015 236.567,138.899 236.485,138.083 236.485 C 137.266 236.485,137.150 236.567,137.150 237.150 M132.889 238.615 C 132.889 239.325,132.978 239.414,133.688 239.414 C 134.399 239.414,134.487 239.325,134.487 238.615 C 134.487 237.905,134.399 237.816,133.688 237.816 C 132.978 237.816,132.889 237.905,132.889 238.615 " stroke="none" fill="#d2cead" fill-rule="evenodd"></path><path id="path3" d="M184.919 33.197 C 184.553 34.656,186.671 35.904,187.545 34.745 C 187.987 34.159,187.980 34.137,187.302 33.966 C 186.918 33.870,186.374 33.498,186.092 33.141 C 185.435 32.305,185.140 32.319,184.919 33.197 M186.727 36.282 C 186.221 36.788,186.356 37.550,186.951 37.550 C 187.338 37.550,187.483 37.372,187.483 36.900 C 187.483 36.124,187.154 35.855,186.727 36.282 M180.196 40.555 C 179.627 42.046,179.623 42.030,180.610 42.127 C 181.312 42.196,181.498 42.357,181.676 43.047 C 181.825 43.625,182.097 43.935,182.557 44.051 C 183.080 44.182,183.222 44.387,183.222 45.012 C 183.222 45.628,183.341 45.806,183.755 45.806 C 184.931 45.806,184.483 43.457,183.289 43.358 C 182.105 43.260,181.501 41.278,182.655 41.278 C 183.197 41.278,184.021 41.927,184.021 42.353 C 184.021 42.977,185.151 43.194,186.121 42.757 C 187.368 42.194,188.834 42.702,189.316 43.863 C 189.486 44.272,189.952 44.795,190.352 45.024 C 190.752 45.253,191.315 45.882,191.605 46.421 L 192.131 47.402 191.544 47.989 C 191.174 48.358,190.493 48.630,189.707 48.722 C 188.283 48.889,187.758 49.534,189.046 49.534 C 190.055 49.534,190.432 50.136,190.115 51.241 C 189.720 52.620,189.812 52.996,190.546 52.996 C 190.960 52.996,191.212 53.147,191.212 53.395 C 191.212 53.655,191.472 53.795,191.957 53.795 C 192.904 53.795,193.342 54.233,193.342 55.180 C 193.342 55.665,193.482 55.925,193.742 55.925 C 194.030 55.925,194.141 56.221,194.141 56.991 C 194.141 57.980,194.194 58.056,194.887 58.056 C 195.788 58.056,196.272 58.488,196.272 59.294 C 196.272 59.624,196.472 60.006,196.717 60.143 C 197.020 60.312,197.168 60.761,197.183 61.554 C 197.203 62.674,197.238 62.721,198.136 62.852 C 199.116 62.995,199.140 63.062,198.792 64.647 C 198.609 65.479,198.634 65.513,199.429 65.513 C 200.378 65.513,200.793 66.392,200.289 67.335 C 199.783 68.279,199.933 68.708,200.769 68.708 C 201.382 68.708,201.625 68.893,201.969 69.618 C 202.415 70.559,202.201 71.904,201.604 71.904 C 201.431 71.904,201.350 73.041,201.383 75.033 C 201.413 76.859,201.474 77.469,201.529 76.498 C 201.643 74.478,202.959 73.886,203.299 75.701 C 203.593 77.265,203.997 90.608,203.846 93.742 C 203.765 95.426,203.796 98.457,203.914 100.478 C 204.154 104.548,204.119 104.660,202.621 104.660 L 201.619 104.660 201.530 102.463 C 201.476 101.139,201.418 101.866,201.386 104.297 L 201.332 108.328 201.997 108.764 C 202.630 109.178,202.663 109.326,202.663 111.724 L 202.663 114.248 201.531 114.279 C 200.909 114.297,200.310 114.297,200.200 114.279 C 199.730 114.205,200.015 115.787,200.494 115.913 C 200.863 116.009,201.036 116.402,201.179 117.475 L 201.371 118.908 202.017 118.161 C 202.475 117.631,202.665 117.088,202.671 116.297 C 202.675 115.682,202.918 114.341,203.211 113.316 C 203.904 110.887,204.249 108.660,204.256 106.567 C 204.260 105.268,204.374 104.777,204.753 104.437 C 206.131 103.197,206.789 87.544,205.840 78.562 C 205.431 74.696,205.472 73.287,206.034 71.851 C 206.636 70.312,206.638 68.624,206.039 67.962 C 205.533 67.402,205.627 66.406,206.284 65.379 C 206.552 64.961,206.559 64.602,206.316 63.701 C 206.064 62.766,206.075 62.512,206.375 62.327 C 206.782 62.076,206.085 60.186,205.585 60.186 C 205.448 60.186,205.260 59.882,205.167 59.510 C 205.073 59.138,204.592 58.525,204.096 58.147 C 203.451 57.655,203.196 57.249,203.196 56.714 C 203.196 56.100,203.053 55.936,202.392 55.791 C 201.904 55.684,201.442 55.336,201.215 54.905 C 201.010 54.514,200.352 53.655,199.754 52.996 C 197.521 50.537,197.234 50.307,196.592 50.465 C 196.256 50.548,195.872 50.548,195.738 50.466 C 195.393 50.252,195.724 49.534,196.167 49.534 C 196.733 49.534,196.611 48.941,195.883 48.157 C 194.598 46.770,194.940 44.393,196.473 44.057 C 197.746 43.778,197.870 43.703,197.870 43.204 C 197.870 42.332,197.336 42.086,195.761 42.233 C 194.144 42.383,193.961 42.308,193.261 41.208 C 192.821 40.517,192.749 40.494,192.086 40.841 C 191.450 41.175,191.263 41.149,190.191 40.579 C 188.831 39.856,188.212 39.789,187.774 40.317 C 187.060 41.177,182.782 40.909,181.750 39.940 C 180.939 39.178,180.683 39.279,180.196 40.555 M198.040 44.530 C 197.695 45.817,197.857 47.392,198.383 47.870 C 199.488 48.872,199.774 49.043,200.126 48.908 C 200.570 48.738,200.377 47.750,199.763 47.045 C 199.527 46.775,199.214 46.005,199.068 45.336 C 198.771 43.978,198.289 43.600,198.040 44.530 M185.885 45.672 L 185.220 46.053 186.055 46.062 C 187.012 46.073,187.750 46.951,187.750 48.079 C 187.750 48.597,187.868 48.752,188.216 48.686 C 188.709 48.592,189.058 47.137,188.588 47.137 C 188.444 47.137,188.067 46.718,187.750 46.205 C 187.116 45.179,186.871 45.109,185.885 45.672 M191.729 49.772 C 191.930 50.147,191.898 50.361,191.606 50.604 C 191.272 50.880,191.212 50.803,191.212 50.099 C 191.212 49.143,191.347 49.058,191.729 49.772 M193.076 51.798 C 193.076 52.017,192.963 52.197,192.825 52.197 C 192.489 52.197,192.249 51.781,192.462 51.568 C 192.762 51.269,193.076 51.386,193.076 51.798 M194.670 54.660 C 194.672 54.770,194.554 54.860,194.407 54.860 C 194.261 54.860,194.143 54.591,194.145 54.261 C 194.149 53.689,194.658 54.077,194.670 54.660 M196.045 56.059 C 196.045 56.198,195.916 56.355,195.759 56.407 C 195.602 56.459,195.473 56.303,195.473 56.059 C 195.473 55.814,195.602 55.658,195.759 55.710 C 195.916 55.763,196.045 55.919,196.045 56.059 M198.997 59.521 C 199.320 59.960,199.226 61.166,198.844 61.483 C 198.357 61.887,198.136 61.596,198.136 60.551 C 198.136 59.945,197.971 59.584,197.603 59.387 C 197.310 59.231,197.071 58.863,197.071 58.571 C 197.071 58.033,198.377 58.677,198.997 59.521 M207.782 61.742 C 207.288 62.056,208.390 63.383,209.141 63.378 C 209.560 63.375,209.622 63.312,209.365 63.149 C 209.169 63.025,209.032 62.843,209.061 62.746 C 209.312 61.885,208.527 61.270,207.782 61.742 M238.929 110.748 C 238.735 111.386,238.474 112.884,238.350 114.077 C 238.067 116.781,237.952 117.072,236.997 117.495 C 236.165 117.864,235.686 118.861,235.686 120.229 C 235.686 121.936,235.076 122.200,234.188 120.878 C 233.757 120.236,233.169 119.666,232.881 119.612 C 232.593 119.557,232.279 119.388,232.183 119.237 C 231.960 118.882,231.056 119.592,229.353 121.459 C 227.650 123.326,227.054 124.606,226.102 128.435 C 225.071 132.583,224.905 132.888,223.227 133.720 C 222.278 134.190,221.515 134.840,220.879 135.717 C 219.503 137.616,219.363 138.083,219.315 140.929 C 219.266 143.924,218.406 146.516,216.867 148.314 C 216.379 148.885,215.979 149.547,215.979 149.785 C 215.979 150.023,215.556 150.467,215.040 150.772 C 214.014 151.377,213.582 151.993,213.582 152.851 C 213.582 154.803,210.406 159.053,207.505 160.984 C 206.873 161.404,205.939 162.375,205.431 163.140 C 204.923 163.906,204.182 164.739,203.785 164.991 C 202.645 165.716,201.642 166.908,200.803 168.536 C 200.377 169.363,199.542 170.436,198.949 170.920 C 198.160 171.564,197.790 172.119,197.572 172.982 C 197.350 173.866,197.052 174.300,196.388 174.711 C 195.900 175.013,195.421 175.523,195.324 175.845 C 195.227 176.168,193.199 178.358,190.817 180.713 C 188.435 183.068,186.350 185.249,186.184 185.560 C 186.017 185.871,185.553 186.282,185.152 186.475 C 184.745 186.669,184.204 187.294,183.929 187.886 C 183.274 189.299,182.376 190.220,180.293 191.613 C 178.719 192.666,176.030 194.785,175.366 195.495 C 173.443 197.553,170.829 199.959,169.740 200.675 C 168.989 201.168,167.377 202.417,166.156 203.449 C 164.936 204.482,163.866 205.326,163.780 205.326 C 163.693 205.326,162.942 206.153,162.110 207.163 C 160.380 209.266,159.201 209.835,156.477 209.880 C 153.738 209.925,153.542 210.045,153.625 211.622 C 153.694 212.911,152.736 214.381,151.827 214.381 C 151.720 214.381,151.390 214.606,151.095 214.881 C 150.799 215.157,150.087 215.679,149.513 216.042 C 147.962 217.023,144.229 219.727,144.067 219.987 C 143.809 220.402,141.555 221.293,140.746 221.301 C 139.390 221.313,137.901 221.851,136.820 222.720 C 135.607 223.695,133.299 223.883,132.489 223.073 C 131.944 222.528,130.529 222.510,129.524 223.036 C 128.783 223.424,128.753 223.413,128.442 222.670 C 128.026 221.677,127.463 221.479,126.881 222.122 C 126.349 222.710,125.620 222.791,125.234 222.304 C 125.050 222.072,125.242 221.296,125.865 219.761 C 126.731 217.623,126.745 217.529,126.306 216.859 L 125.852 216.166 125.629 217.071 C 125.507 217.569,125.127 218.216,124.786 218.509 C 124.444 218.802,123.979 219.410,123.751 219.860 C 123.524 220.310,123.150 220.834,122.920 221.024 C 122.691 221.214,122.503 221.587,122.503 221.851 C 122.503 222.574,121.765 223.169,120.867 223.169 C 120.141 223.169,120.107 223.207,120.487 223.588 C 121.245 224.346,121.033 225.427,119.470 228.762 C 119.278 229.170,118.894 229.458,118.475 229.508 C 117.907 229.574,117.748 229.786,117.522 230.773 C 117.204 232.161,117.533 232.368,117.967 231.053 C 118.502 229.431,120.859 229.610,121.285 231.305 C 121.457 231.991,124.071 234.088,124.753 234.088 C 124.978 234.088,125.312 234.328,125.495 234.621 C 125.678 234.913,125.996 235.153,126.202 235.153 C 126.705 235.153,132.765 232.438,135.419 231.023 C 136.591 230.398,138.180 229.741,138.950 229.564 C 139.720 229.386,140.439 229.089,140.548 228.904 C 140.657 228.719,141.119 228.377,141.576 228.143 C 142.032 227.910,143.075 227.067,143.892 226.269 C 144.709 225.471,145.863 224.604,146.457 224.342 C 147.051 224.080,147.537 223.783,147.537 223.683 C 147.537 223.438,148.775 222.980,149.973 222.783 C 150.507 222.695,151.236 222.393,151.593 222.112 C 151.950 221.832,152.771 221.398,153.418 221.148 C 154.065 220.897,154.893 220.432,155.260 220.113 C 155.626 219.795,156.525 219.159,157.257 218.701 C 157.989 218.243,159.293 217.144,160.155 216.258 C 161.016 215.372,161.813 214.647,161.926 214.647 C 162.039 214.647,162.379 214.228,162.681 213.715 C 163.313 212.643,163.652 212.568,164.455 213.323 C 164.800 213.647,165.207 213.795,165.471 213.694 C 166.112 213.448,166.012 212.909,165.229 212.396 C 164.262 211.763,164.760 211.296,166.602 211.106 C 168.190 210.942,169.861 209.739,171.168 207.819 C 171.481 207.359,172.194 206.653,172.753 206.250 C 173.311 205.847,174.009 205.147,174.303 204.695 C 174.769 203.978,175.070 203.835,176.659 203.574 C 178.252 203.313,178.723 203.071,179.024 202.363 C 179.063 202.271,179.574 201.874,180.160 201.481 C 180.776 201.068,181.450 200.297,181.760 199.651 C 182.175 198.786,182.602 198.386,183.666 197.870 C 184.722 197.356,185.149 196.959,185.528 196.138 C 185.853 195.433,186.219 195.045,186.612 194.989 C 186.938 194.943,187.538 194.540,187.944 194.095 C 188.350 193.651,188.845 193.149,189.044 192.981 C 190.455 191.794,192.072 189.794,192.288 188.967 C 192.367 188.664,192.898 188.195,193.467 187.925 C 194.037 187.655,194.729 187.146,195.007 186.793 C 195.632 185.998,196.094 185.983,196.794 186.735 L 197.337 187.317 197.337 186.745 C 197.337 186.430,197.816 185.698,198.402 185.118 C 198.988 184.538,199.467 183.928,199.467 183.762 C 199.467 183.597,199.887 183.286,200.399 183.072 C 201.304 182.694,201.332 182.640,201.332 181.221 C 201.332 180.100,201.424 179.760,201.731 179.760 C 201.951 179.760,202.130 179.880,202.130 180.027 C 202.130 180.674,203.380 180.194,204.555 179.095 C 205.260 178.435,206.066 177.896,206.346 177.896 C 206.735 177.896,206.896 177.644,207.026 176.831 C 207.196 175.771,207.473 175.584,208.367 175.927 C 208.931 176.144,208.903 177.013,208.322 177.345 C 207.298 177.931,207.144 178.121,206.935 179.046 C 206.651 180.306,207.202 181.266,207.688 180.358 C 207.854 180.049,207.989 179.612,207.989 179.388 C 207.989 179.164,208.229 178.852,208.522 178.695 C 208.815 178.538,209.055 178.246,209.055 178.046 C 209.055 177.846,209.414 177.557,209.854 177.403 C 210.988 177.008,210.927 176.154,209.730 175.654 C 208.052 174.953,208.250 173.103,210.004 173.103 C 210.474 173.103,210.616 173.302,210.752 174.152 C 210.977 175.559,211.402 175.758,212.160 174.810 C 212.886 173.902,212.945 173.302,212.364 172.722 C 211.984 172.342,212.014 172.304,212.697 172.307 C 214.550 172.316,215.650 173.635,214.248 174.168 C 213.919 174.293,213.576 174.689,213.485 175.049 C 213.395 175.408,213.080 175.765,212.786 175.842 C 212.394 175.945,212.250 176.205,212.250 176.813 C 212.250 177.452,212.098 177.701,211.588 177.895 C 211.001 178.118,210.956 178.227,211.196 178.857 C 211.512 179.689,211.413 179.836,210.449 179.965 C 209.620 180.076,209.055 180.480,209.055 180.961 C 209.055 181.146,208.764 181.488,208.408 181.720 C 208.053 181.953,207.723 182.412,207.676 182.739 C 207.624 183.099,207.350 183.391,206.981 183.478 C 206.391 183.618,205.904 184.249,205.330 185.619 C 205.177 185.985,204.693 186.490,204.255 186.740 C 203.816 186.990,203.344 187.492,203.206 187.856 C 203.068 188.219,202.710 188.648,202.410 188.808 C 202.110 188.969,201.864 189.262,201.864 189.459 C 201.864 189.657,201.565 190.015,201.198 190.255 C 200.832 190.495,200.533 190.932,200.533 191.226 C 200.533 191.520,200.323 191.838,200.067 191.933 C 199.454 192.159,197.603 193.995,197.603 194.376 C 197.603 194.540,197.486 194.674,197.342 194.674 C 197.006 194.674,193.342 198.311,193.342 198.645 C 193.342 198.785,193.095 198.977,192.793 199.073 C 192.491 199.169,192.115 199.531,191.958 199.877 C 191.800 200.223,191.328 200.626,190.909 200.772 C 190.489 200.918,190.146 201.224,190.146 201.451 C 190.146 201.678,190.040 201.864,189.910 201.864 C 189.427 201.864,186.951 204.441,186.951 204.943 C 186.951 205.354,186.768 205.464,186.092 205.462 C 185.418 205.460,185.158 205.617,184.879 206.192 C 184.684 206.595,184.364 206.924,184.168 206.924 C 183.972 206.924,183.741 207.110,183.654 207.336 C 183.567 207.563,183.140 207.872,182.704 208.024 C 182.269 208.176,181.840 208.530,181.751 208.811 C 181.662 209.091,181.471 209.321,181.328 209.321 C 181.185 209.321,180.790 209.591,180.450 209.920 C 180.110 210.250,179.533 210.699,179.167 210.919 C 177.707 211.796,176.307 212.941,176.156 213.382 C 176.068 213.638,175.829 213.848,175.625 213.848 C 175.421 213.848,175.016 214.104,174.725 214.416 C 174.434 214.728,173.920 215.120,173.583 215.287 C 172.836 215.657,172.518 217.577,173.203 217.577 C 173.458 217.577,173.631 217.265,173.685 216.711 L 173.768 215.846 175.272 215.933 L 176.775 216.020 176.961 214.667 C 177.103 213.639,177.317 213.189,177.855 212.788 C 178.244 212.499,178.745 212.087,178.969 211.873 C 179.192 211.659,179.701 211.359,180.100 211.208 C 180.499 211.056,180.826 210.738,180.826 210.501 C 180.826 210.142,181.067 210.091,182.285 210.194 C 183.087 210.262,183.679 210.213,183.601 210.085 C 183.522 209.958,183.584 209.854,183.739 209.854 C 183.894 209.854,184.021 209.727,184.021 209.572 C 184.021 209.416,183.901 209.364,183.755 209.454 C 183.609 209.545,183.489 209.495,183.489 209.344 C 183.489 209.193,183.878 208.969,184.354 208.847 C 184.943 208.695,185.246 208.442,185.303 208.056 C 185.360 207.665,185.608 207.463,186.102 207.406 C 186.659 207.342,186.836 207.162,186.902 206.591 C 186.950 206.172,187.149 205.859,187.368 205.859 C 187.615 205.859,187.750 205.575,187.750 205.052 C 187.750 204.525,187.912 204.185,188.216 204.075 C 188.472 203.981,189.298 203.266,190.051 202.485 C 190.805 201.704,191.556 201.065,191.722 201.065 C 191.888 201.065,192.138 200.766,192.277 200.399 C 192.458 199.923,192.729 199.734,193.227 199.734 C 193.694 199.734,193.969 199.562,194.060 199.216 C 194.135 198.931,194.453 198.662,194.767 198.617 C 195.168 198.560,195.365 198.316,195.424 197.804 C 195.483 197.292,195.699 197.024,196.141 196.913 C 196.520 196.818,196.807 196.524,196.856 196.180 C 196.913 195.777,197.156 195.581,197.670 195.522 C 198.200 195.461,198.402 195.288,198.402 194.897 C 198.402 194.587,198.622 194.300,198.920 194.222 C 199.215 194.145,199.507 193.767,199.601 193.342 C 199.694 192.918,199.986 192.539,200.280 192.462 C 200.564 192.388,200.879 192.106,200.981 191.836 C 201.083 191.566,201.473 191.039,201.848 190.665 C 202.223 190.291,202.947 189.482,203.456 188.867 C 204.136 188.046,204.578 187.750,205.120 187.750 C 205.599 187.750,205.859 187.609,205.859 187.350 C 205.859 187.102,206.110 186.951,206.525 186.951 C 207.052 186.951,207.190 186.816,207.190 186.303 C 207.190 185.794,207.348 185.636,207.923 185.570 C 208.604 185.492,208.661 185.390,208.735 184.116 C 208.797 183.038,208.921 182.717,209.315 182.614 C 209.654 182.525,209.843 182.195,209.901 181.588 C 209.977 180.794,210.084 180.683,210.852 180.609 C 211.352 180.561,211.718 180.376,211.718 180.172 C 211.718 179.977,212.017 179.743,212.383 179.651 C 213.002 179.496,213.296 178.391,213.081 177.031 C 213.043 176.790,213.957 176.762,214.192 176.997 C 214.283 177.089,214.148 177.358,213.891 177.596 C 213.634 177.834,213.558 177.942,213.722 177.836 C 213.886 177.730,214.162 177.783,214.334 177.956 C 214.574 178.196,214.647 178.101,214.647 177.550 C 214.647 177.154,214.527 176.831,214.381 176.831 C 213.876 176.831,214.089 175.265,214.634 174.974 C 214.919 174.821,215.312 174.368,215.506 173.966 C 215.784 173.393,216.045 173.236,216.718 173.238 C 217.232 173.240,217.577 173.106,217.577 172.905 C 217.577 172.721,217.820 172.570,218.118 172.570 C 218.836 172.570,219.026 171.981,218.710 170.734 C 218.393 169.486,218.692 168.842,219.587 168.842 C 219.990 168.842,220.240 168.688,220.240 168.442 C 220.240 168.176,220.506 168.043,221.039 168.043 C 221.925 168.043,222.114 167.413,221.515 166.454 C 221.012 165.648,221.534 164.468,222.442 164.363 C 223.112 164.285,223.169 164.186,223.169 163.098 C 223.169 161.964,223.200 161.917,223.968 161.917 C 224.749 161.917,224.767 161.888,224.767 160.586 C 224.767 159.343,224.811 159.254,225.433 159.254 C 225.961 159.254,226.099 159.120,226.099 158.606 C 226.099 158.097,226.256 157.940,226.831 157.874 C 227.551 157.791,228.152 156.325,227.466 156.325 C 227.036 156.325,226.862 155.387,227.150 154.629 C 227.357 154.085,227.597 153.928,228.222 153.928 C 229.012 153.928,229.288 153.588,228.762 153.262 C 227.901 152.730,228.721 151.265,229.880 151.265 C 230.757 151.265,230.752 151.282,230.183 150.088 C 229.644 148.957,230.001 148.336,231.191 148.336 C 231.960 148.336,232.294 147.693,231.638 147.474 C 230.504 147.097,231.613 144.496,232.832 144.675 C 233.675 144.799,233.666 144.872,233.138 142.275 C 232.920 141.201,233.405 140.522,234.271 140.687 C 234.999 140.826,235.035 140.723,234.458 140.145 C 233.990 139.678,234.107 137.557,234.629 137.036 C 234.978 136.686,236.029 136.675,236.281 137.017 C 236.652 137.522,236.484 134.726,236.099 133.981 C 235.603 133.021,236.148 132.091,237.207 132.091 C 237.878 132.091,237.884 132.075,237.425 131.567 C 236.400 130.434,237.174 127.115,238.509 126.922 C 239.188 126.824,239.385 124.629,238.761 124.112 C 237.566 123.120,238.460 119.740,239.907 119.781 C 240.964 119.811,241.147 117.966,240.213 116.700 C 239.784 116.120,239.641 115.352,239.480 112.783 C 239.282 109.603,239.279 109.593,238.929 110.748 M198.668 119.598 C 198.668 119.758,198.908 120.194,199.201 120.566 C 199.494 120.939,199.734 121.520,199.734 121.858 C 199.734 122.196,199.848 122.542,199.987 122.628 C 200.659 123.044,201.115 120.263,200.479 119.627 C 200.080 119.228,198.668 119.205,198.668 119.598 M195.761 128.724 C 196.079 128.999,197.337 129.139,197.337 128.900 C 197.337 128.751,196.957 128.628,196.494 128.628 C 196.030 128.628,195.700 128.672,195.761 128.724 M222.104 162.317 C 222.104 162.537,221.991 162.716,221.853 162.716 C 221.517 162.716,221.277 162.301,221.490 162.088 C 221.790 161.788,222.104 161.905,222.104 162.317 M217.843 169.263 C 217.843 169.719,217.639 169.998,217.177 170.173 C 216.637 170.378,216.511 170.607,216.511 171.383 C 216.511 172.224,216.438 172.330,215.912 172.256 C 214.979 172.123,214.924 170.619,215.830 170.026 C 216.205 169.780,216.511 169.419,216.511 169.224 C 216.511 168.822,217.323 168.286,217.637 168.480 C 217.750 168.550,217.843 168.902,217.843 169.263 M211.981 171.571 C 211.985 172.143,211.629 172.173,211.185 171.638 C 211.003 171.418,210.688 171.238,210.487 171.238 C 210.242 171.238,210.120 170.915,210.120 170.269 L 210.120 169.299 211.049 170.202 C 211.560 170.699,211.980 171.315,211.981 171.571 M205.326 181.913 C 205.326 182.913,205.877 182.843,206.154 181.807 C 206.313 181.214,206.259 181.092,205.836 181.092 C 205.444 181.092,205.326 181.282,205.326 181.913 M201.245 186.792 C 201.064 187.263,201.278 187.487,201.740 187.310 C 201.936 187.235,202.032 187.003,201.952 186.796 C 201.767 186.313,201.430 186.311,201.245 186.792 M196.819 190.918 C 196.571 191.381,196.594 191.516,196.944 191.650 C 197.632 191.914,198.065 191.293,197.551 190.779 C 197.157 190.385,197.098 190.397,196.819 190.918 M168.999 219.041 C 168.759 219.407,168.322 219.707,168.028 219.707 C 167.734 219.707,167.424 219.888,167.339 220.110 C 167.254 220.331,166.351 221.071,165.332 221.755 C 164.312 222.439,163.337 223.199,163.164 223.445 C 162.991 223.691,162.550 223.985,162.184 224.099 C 161.121 224.430,160.552 226.365,161.518 226.365 C 161.784 226.365,161.917 226.099,161.917 225.566 C 161.917 224.795,161.960 224.767,163.132 224.767 C 163.799 224.767,164.278 224.657,164.195 224.523 C 163.899 224.044,164.565 222.917,165.244 222.746 C 165.619 222.652,166.047 222.349,166.195 222.073 C 166.346 221.790,166.749 221.571,167.120 221.571 C 167.593 221.571,167.776 221.426,167.776 221.052 C 167.776 220.606,167.994 220.521,169.308 220.453 C 170.702 220.380,170.847 220.315,170.931 219.722 C 171.108 218.463,169.703 217.968,168.999 219.041 M158.897 226.484 C 158.810 226.711,158.514 226.897,158.239 226.897 C 157.542 226.897,156.797 227.801,156.903 228.519 C 157.043 229.474,157.656 229.473,157.656 228.518 L 157.656 227.696 159.272 227.696 C 160.877 227.696,160.887 227.692,160.803 226.964 C 160.704 226.098,159.191 225.717,158.897 226.484 M154.389 229.294 C 154.139 229.587,153.637 229.827,153.275 229.827 C 152.913 229.827,152.375 230.087,152.080 230.404 C 151.784 230.721,150.970 231.171,150.272 231.403 C 148.830 231.881,148.140 233.555,149.384 233.555 C 149.812 233.555,149.933 233.386,149.933 232.785 C 149.933 231.867,150.397 231.632,151.554 231.964 C 152.609 232.266,152.948 232.078,152.794 231.274 C 152.640 230.465,153.132 230.288,154.914 230.511 L 156.325 230.687 156.325 229.889 C 156.325 229.286,156.178 229.051,155.726 228.930 C 154.887 228.705,154.896 228.702,154.389 229.294 M145.459 233.342 C 144.909 233.893,145.057 235.153,145.672 235.153 C 146.087 235.153,146.205 234.976,146.205 234.354 C 146.205 233.661,146.302 233.555,146.937 233.551 C 147.508 233.548,147.582 233.490,147.270 233.289 C 146.719 232.933,145.843 232.959,145.459 233.342 M142.105 234.468 C 140.165 234.893,139.581 236.485,141.366 236.485 C 142.037 236.485,142.121 236.402,142.014 235.842 C 141.859 235.034,142.738 234.500,143.854 234.723 C 144.283 234.809,144.570 234.775,144.491 234.649 C 144.237 234.237,143.435 234.177,142.105 234.468 M120.107 235.939 C 120.107 236.078,120.796 236.228,121.638 236.272 C 122.994 236.342,123.179 236.420,123.254 236.951 C 123.308 237.329,123.524 237.550,123.839 237.550 C 124.122 237.550,124.490 237.868,124.688 238.282 C 125.024 238.986,125.134 239.020,127.487 239.148 C 130.390 239.306,130.407 238.876,127.507 238.635 C 125.498 238.468,125.144 238.252,123.358 236.100 C 122.976 235.639,120.107 235.497,120.107 235.939 M136.551 236.240 C 135.882 236.630,135.932 237.816,136.618 237.816 C 137.008 237.816,137.150 237.639,137.150 237.150 C 137.150 236.578,137.271 236.484,138.016 236.481 C 138.673 236.478,138.785 236.414,138.482 236.218 C 137.968 235.886,137.143 235.895,136.551 236.240 M132.423 237.558 C 131.607 237.886,131.552 239.414,132.357 239.414 C 132.771 239.414,132.889 239.237,132.889 238.615 C 132.889 237.926,132.990 237.814,133.622 237.798 C 134.271 237.781,134.294 237.753,133.822 237.550 C 133.159 237.265,133.152 237.265,132.423 237.558 " stroke="none" fill="#8a8519" fill-rule="evenodd"></path><path id="path4" d="M192.015 34.762 C 190.541 35.573,188.461 35.673,188.029 34.953 C 187.775 34.529,187.720 34.525,187.417 34.914 C 187.189 35.205,186.915 35.274,186.551 35.132 C 185.713 34.805,185.548 34.854,185.991 35.296 C 186.626 35.932,185.859 37.283,184.502 37.919 C 183.501 38.387,183.440 38.480,183.576 39.317 C 183.715 40.173,183.684 40.214,182.873 40.240 C 182.062 40.265,182.054 40.276,182.690 40.479 C 184.045 40.913,185.633 40.773,186.447 40.146 C 186.875 39.817,187.553 39.294,187.954 38.984 C 188.742 38.375,191.491 37.017,191.937 37.017 C 192.088 37.017,192.367 36.831,192.556 36.603 C 193.345 35.652,194.651 38.034,194.034 39.301 C 193.779 39.824,193.715 40.429,193.839 41.145 L 194.024 42.210 195.614 42.210 C 196.488 42.210,197.354 42.307,197.537 42.426 C 198.313 42.928,197.521 41.367,196.654 40.684 C 196.014 40.182,196.034 39.410,196.700 38.858 C 197.260 38.392,197.146 38.083,196.414 38.083 C 195.568 38.083,195.252 37.461,195.178 35.649 L 195.119 34.187 194.164 34.145 C 193.583 34.120,192.742 34.361,192.015 34.762 M194.087 35.353 C 194.113 36.168,194.068 36.263,193.841 35.869 C 193.689 35.604,193.627 35.222,193.704 35.021 C 193.782 34.820,193.702 34.597,193.527 34.526 C 193.338 34.449,193.380 34.388,193.632 34.375 C 193.942 34.360,194.063 34.622,194.087 35.353 M187.483 36.900 C 187.483 37.372,187.338 37.550,186.951 37.550 C 186.356 37.550,186.221 36.788,186.727 36.282 C 187.154 35.855,187.483 36.124,187.483 36.900 M197.800 43.378 C 197.712 43.716,197.439 43.941,197.117 43.941 C 195.098 43.941,194.348 46.501,195.883 48.157 C 196.611 48.941,196.733 49.534,196.167 49.534 C 195.724 49.534,195.393 50.252,195.738 50.466 C 195.872 50.548,196.256 50.546,196.593 50.462 C 197.171 50.317,197.946 50.879,199.398 52.495 C 200.471 53.690,201.247 54.277,202.706 54.995 C 203.605 55.437,204.472 56.035,204.634 56.324 C 205.912 58.613,208.047 60.538,210.933 62.005 C 211.308 62.196,211.740 62.685,211.894 63.093 C 212.096 63.629,212.759 64.154,214.276 64.979 C 216.992 66.458,218.085 67.278,218.384 68.064 C 218.566 68.542,218.899 68.743,219.734 68.877 C 220.487 68.997,220.884 69.210,220.970 69.538 C 221.039 69.804,221.309 70.090,221.570 70.173 C 221.830 70.255,222.358 70.777,222.743 71.333 C 223.128 71.888,223.909 72.605,224.479 72.925 C 225.851 73.696,226.965 75.001,228.108 77.177 C 229.925 80.634,230.238 81.095,231.190 81.711 C 232.106 82.303,232.159 82.421,232.326 84.210 C 232.422 85.242,232.805 86.940,233.178 87.983 C 234.371 91.317,234.873 93.951,234.887 96.937 C 234.894 98.475,235.030 100.273,235.190 100.932 C 235.743 103.220,235.411 113.041,234.585 118.821 C 234.309 120.753,234.316 121.204,234.624 121.575 C 235.119 122.171,235.686 121.453,235.686 120.229 C 235.686 118.861,236.165 117.864,236.997 117.495 C 237.957 117.070,238.066 116.787,238.360 113.981 C 238.490 112.736,238.772 111.238,238.987 110.652 L 239.377 109.587 239.414 111.718 C 239.435 112.889,239.565 114.088,239.704 114.381 C 239.865 114.721,239.910 110.984,239.829 104.049 C 239.706 93.507,239.717 93.172,240.224 92.739 C 241.173 91.926,240.954 90.141,239.906 90.144 C 238.764 90.147,238.017 88.296,238.723 87.218 C 239.435 86.131,239.290 85.063,238.431 85.076 C 237.636 85.088,237.357 84.517,237.310 82.778 C 237.277 81.554,237.055 80.959,236.632 80.959 C 236.452 80.959,236.156 80.634,235.976 80.238 C 235.795 79.842,234.997 78.530,234.202 77.323 C 233.407 76.116,232.756 74.884,232.756 74.587 C 232.756 74.221,232.401 73.864,231.659 73.486 C 230.804 73.049,230.439 72.636,230.008 71.616 C 229.704 70.896,229.304 70.306,229.119 70.306 C 228.935 70.306,227.925 69.587,226.876 68.708 C 225.827 67.830,224.868 67.111,224.745 67.111 C 224.210 67.111,221.571 64.865,221.571 64.409 C 221.571 64.072,221.378 63.915,220.966 63.915 C 220.632 63.915,219.414 63.375,218.257 62.716 C 217.100 62.057,216.073 61.518,215.975 61.518 C 215.560 61.518,214.913 60.492,214.913 59.833 C 214.913 59.441,214.794 59.121,214.647 59.121 C 214.501 59.121,214.381 59.241,214.381 59.387 C 214.381 59.763,212.689 59.720,212.304 59.334 C 212.128 59.158,211.984 58.739,211.984 58.402 C 211.984 58.065,211.864 57.790,211.718 57.790 C 211.571 57.790,211.451 57.909,211.451 58.056 C 211.451 58.202,210.970 58.322,210.381 58.322 C 209.122 58.322,208.931 58.138,202.929 51.138 C 202.270 50.369,201.389 49.244,200.972 48.638 C 200.435 47.859,200.254 47.717,200.352 48.152 C 200.521 48.899,199.947 49.201,199.329 48.692 C 197.992 47.590,197.870 47.383,197.870 46.222 C 197.870 45.573,197.990 44.724,198.137 44.337 C 198.292 43.931,198.308 43.460,198.176 43.224 C 197.985 42.883,197.923 42.908,197.800 43.378 M216.989 70.784 C 216.225 72.445,216.277 76.165,217.066 76.165 C 217.200 76.165,217.310 76.316,217.310 76.501 C 217.310 77.496,220.368 78.308,220.618 77.379 C 221.025 75.864,220.629 71.904,220.070 71.904 C 219.871 71.904,219.707 71.787,219.707 71.645 C 219.707 71.502,219.318 71.184,218.842 70.938 C 218.366 70.692,217.856 70.335,217.710 70.144 C 217.508 69.881,217.334 70.036,216.989 70.784 M203.276 77.230 C 203.276 78.036,203.325 78.366,203.386 77.963 C 203.448 77.560,203.448 76.901,203.386 76.498 C 203.325 76.095,203.276 76.425,203.276 77.230 M203.561 82.290 C 203.561 83.828,203.605 84.457,203.658 83.688 C 203.712 82.919,203.712 81.661,203.658 80.892 C 203.605 80.123,203.561 80.752,203.561 82.290 M201.437 84.554 C 201.437 86.605,201.479 87.408,201.530 86.340 C 201.580 85.272,201.580 83.594,201.529 82.612 C 201.478 81.629,201.436 82.503,201.437 84.554 M203.826 90.413 C 203.826 91.877,203.871 92.443,203.925 91.669 C 203.979 90.895,203.978 89.697,203.924 89.006 C 203.869 88.315,203.825 88.948,203.826 90.413 M201.423 97.603 C 201.424 98.775,201.471 99.221,201.527 98.595 C 201.583 97.968,201.582 97.010,201.525 96.464 C 201.468 95.919,201.422 96.431,201.423 97.603 M203.422 100.133 C 203.262 104.716,203.281 104.948,203.770 104.459 C 204.088 104.141,204.082 100.911,203.758 97.603 C 203.599 95.989,203.554 96.328,203.422 100.133 M202.112 109.151 C 202.740 110.328,201.695 113.524,200.729 113.382 C 200.110 113.291,199.989 113.361,200.054 113.770 C 200.097 114.044,200.223 114.264,200.333 114.258 C 200.443 114.252,201.012 114.248,201.598 114.248 L 202.663 114.248 202.663 111.750 C 202.663 109.745,202.576 109.181,202.220 108.887 C 201.816 108.554,201.807 108.578,202.112 109.151 M200.398 117.157 C 200.396 118.663,200.342 118.753,199.379 118.832 C 198.423 118.911,198.469 119.308,199.435 119.308 C 200.343 119.308,200.719 119.694,200.842 120.752 C 200.966 121.821,201.394 121.871,201.839 120.867 C 202.151 120.161,202.153 119.940,201.850 119.468 C 201.652 119.160,201.356 118.256,201.193 117.460 C 200.816 115.616,200.400 115.458,200.398 117.157 M199.036 120.748 C 199.644 121.931,199.069 123.170,197.913 123.167 C 196.963 123.164,196.685 124.249,197.470 124.900 C 198.467 125.728,197.770 128.096,196.529 128.096 C 196.094 128.096,195.739 128.216,195.739 128.362 C 195.739 128.509,196.099 128.628,196.538 128.628 C 196.977 128.628,197.337 128.745,197.337 128.888 C 197.337 129.034,196.991 129.079,196.549 128.990 C 195.769 128.834,195.764 128.840,196.067 129.641 C 196.467 130.702,196.023 131.289,194.925 131.150 C 194.035 131.037,193.953 131.290,194.572 132.235 C 195.269 133.299,194.652 134.477,193.376 134.518 C 192.845 134.535,192.620 134.604,192.876 134.671 C 194.110 134.993,193.262 137.141,191.891 137.164 L 191.079 137.178 191.678 137.596 C 192.862 138.422,192.286 139.814,190.761 139.814 L 189.884 139.814 189.949 141.079 C 190.013 142.337,190.009 142.344,189.162 142.342 C 188.470 142.340,188.321 142.440,188.364 142.874 C 188.402 143.275,188.233 143.430,187.683 143.493 C 186.964 143.576,186.526 144.874,187.217 144.874 C 187.828 144.874,187.470 146.681,186.658 147.700 C 186.204 148.269,185.606 149.177,185.330 149.716 C 185.054 150.256,184.572 150.876,184.261 151.094 C 183.949 151.313,183.470 151.860,183.196 152.310 C 182.822 152.924,182.503 153.129,181.920 153.129 C 181.170 153.129,181.147 153.166,181.282 154.168 C 181.398 155.035,181.328 155.257,180.857 155.509 C 180.547 155.675,180.293 155.960,180.293 156.142 C 180.293 156.324,179.963 156.786,179.561 157.168 C 179.158 157.551,178.049 158.895,177.097 160.155 C 176.118 161.450,175.169 162.446,174.912 162.448 C 174.609 162.449,174.403 162.746,174.290 163.345 C 174.167 164.004,173.779 164.502,172.814 165.237 C 172.094 165.787,171.505 166.406,171.505 166.615 C 171.505 166.823,171.336 167.059,171.129 167.138 C 170.923 167.217,170.196 167.992,169.514 168.861 C 168.832 169.729,168.112 170.439,167.914 170.439 C 167.716 170.439,167.514 170.550,167.466 170.685 C 166.813 172.494,163.912 173.999,163.706 172.636 C 163.617 172.047,163.587 172.099,163.555 172.903 C 163.446 175.638,166.201 175.288,167.744 172.370 C 167.919 172.041,168.301 171.771,168.593 171.771 C 168.885 171.771,169.189 171.603,169.268 171.398 C 169.347 171.192,169.642 170.964,169.925 170.890 C 170.208 170.816,170.439 170.555,170.439 170.310 C 170.439 170.065,171.458 168.881,172.703 167.681 C 174.616 165.836,174.967 165.365,174.967 164.646 C 174.967 163.989,175.134 163.707,175.699 163.408 C 176.768 162.843,178.162 161.480,178.162 161.000 C 178.162 160.772,178.279 160.586,178.422 160.586 C 178.565 160.586,178.855 160.249,179.068 159.838 C 179.281 159.427,180.068 158.438,180.817 157.641 C 181.566 156.844,182.243 155.937,182.322 155.626 C 182.400 155.315,182.755 154.928,183.110 154.766 C 183.465 154.604,183.755 154.305,183.755 154.100 C 183.755 153.896,184.295 153.165,184.955 152.476 C 186.326 151.045,186.684 150.466,186.684 149.679 C 186.684 149.343,186.950 149.002,187.357 148.817 C 187.726 148.648,188.098 148.236,188.182 147.901 C 188.266 147.566,188.724 147.062,189.201 146.781 C 189.802 146.426,190.121 145.998,190.245 145.382 C 190.342 144.893,190.737 144.165,191.121 143.764 C 191.627 143.236,191.856 142.663,191.949 141.690 C 192.032 140.831,192.203 140.346,192.425 140.346 C 192.966 140.346,193.875 139.019,193.875 138.228 C 193.875 137.814,194.203 137.145,194.655 136.639 C 195.115 136.123,195.510 135.313,195.617 134.660 C 195.743 133.898,196.071 133.303,196.675 132.744 C 197.405 132.069,197.584 131.668,197.747 130.347 C 197.879 129.280,198.148 128.516,198.572 128.009 C 198.918 127.595,199.201 127.049,199.201 126.796 C 199.201 126.542,199.501 125.929,199.867 125.433 C 200.571 124.478,200.824 122.441,200.222 122.570 C 200.051 122.607,199.824 122.234,199.717 121.742 C 199.610 121.249,199.324 120.650,199.080 120.410 C 198.669 120.003,198.665 120.027,199.036 120.748 M161.651 176.041 C 161.651 177.146,160.995 178.056,159.616 178.864 C 158.978 179.239,158.455 179.656,158.455 179.791 C 158.455 179.927,158.156 180.175,157.790 180.341 C 157.423 180.508,157.124 180.812,157.124 181.015 C 157.124 181.219,156.769 181.510,156.336 181.661 C 155.902 181.812,155.479 182.151,155.396 182.414 C 155.312 182.677,154.888 182.964,154.453 183.051 C 153.888 183.164,153.662 183.363,153.662 183.748 C 153.662 184.170,153.488 184.288,152.863 184.288 C 152.188 184.288,152.064 184.391,152.064 184.953 C 152.064 185.548,151.954 185.619,151.045 185.619 C 150.079 185.619,150.031 185.659,150.135 186.367 C 150.242 187.093,148.376 189.081,147.589 189.081 C 147.447 189.081,147.137 189.379,146.898 189.743 C 146.660 190.107,146.178 190.476,145.827 190.564 C 145.477 190.652,145.128 190.963,145.052 191.254 C 144.975 191.545,144.676 191.846,144.385 191.922 C 144.095 191.998,143.796 192.296,143.720 192.585 C 143.600 193.044,143.390 193.099,142.045 193.026 L 140.507 192.943 140.289 194.141 C 139.706 197.336,139.054 198.136,137.031 198.136 C 136.511 198.136,136.085 198.256,136.085 198.402 C 136.085 198.549,135.797 198.668,135.445 198.668 C 134.971 198.668,134.732 198.880,134.520 199.487 C 134.292 200.143,134.127 200.272,133.695 200.135 C 133.194 199.976,133.156 200.078,133.156 201.580 C 133.156 202.839,133.068 203.196,132.756 203.196 C 132.517 203.196,132.357 203.441,132.357 203.808 C 132.357 205.030,130.472 207.217,129.502 207.119 C 128.725 207.041,128.681 207.074,129.036 207.466 C 129.926 208.449,129.235 209.750,127.988 209.437 C 127.459 209.304,127.297 209.363,127.297 209.692 C 127.297 211.121,130.525 209.818,131.170 208.128 C 131.423 207.466,131.735 206.924,131.864 206.924 C 131.992 206.924,132.359 206.385,132.680 205.726 C 133.000 205.067,133.356 204.527,133.472 204.527 C 133.677 204.527,134.807 202.949,135.501 201.694 C 135.692 201.348,135.995 201.065,136.174 201.065 C 136.557 201.065,138.216 199.370,138.216 198.979 C 138.216 198.831,138.586 198.630,139.038 198.530 C 139.625 198.401,139.936 198.129,140.129 197.577 C 140.277 197.152,140.577 196.804,140.795 196.804 C 141.014 196.804,141.743 196.235,142.416 195.539 C 143.090 194.844,144.027 194.035,144.499 193.742 C 144.971 193.449,146.177 192.432,147.179 191.483 C 148.182 190.534,149.361 189.635,149.800 189.486 C 150.352 189.298,150.786 188.844,151.203 188.016 C 151.677 187.075,152.029 186.743,152.840 186.472 C 153.524 186.243,154.121 185.769,154.603 185.073 C 155.004 184.495,155.466 184.019,155.629 184.016 C 155.792 184.013,157.001 182.995,158.315 181.752 C 159.629 180.510,160.797 179.494,160.912 179.494 C 162.234 179.494,163.661 176.351,162.657 175.648 C 161.817 175.059,161.651 175.125,161.651 176.041 M127.513 211.318 C 127.637 212.383,126.170 212.798,125.864 211.784 C 125.786 211.528,125.785 212.111,125.861 213.080 C 125.989 214.697,125.955 214.854,125.450 214.986 C 125.124 215.071,124.900 215.348,124.900 215.666 C 124.900 216.650,124.595 217.044,123.830 217.044 C 123.110 217.044,123.084 217.090,123.126 218.309 C 123.168 219.552,123.154 219.575,122.304 219.657 C 121.357 219.749,121.306 219.858,121.711 220.923 C 122.119 221.997,121.812 222.636,120.888 222.636 C 120.458 222.636,120.107 222.756,120.107 222.903 C 120.107 223.327,121.625 223.211,122.085 222.751 C 122.315 222.520,122.503 222.116,122.503 221.851 C 122.503 221.587,122.699 221.207,122.939 221.008 C 123.179 220.809,123.607 220.166,123.891 219.578 C 124.863 217.564,125.690 216.112,126.245 215.446 C 128.354 212.917,128.876 211.539,128.043 210.706 C 127.523 210.186,127.397 210.331,127.513 211.318 M120.366 224.211 C 120.530 224.782,120.472 225.151,120.148 225.609 C 119.905 225.952,119.574 226.941,119.411 227.808 C 119.159 229.153,119.169 229.312,119.478 228.889 C 119.677 228.616,119.840 228.232,119.840 228.034 C 119.840 227.837,120.080 227.205,120.373 226.631 C 120.912 225.575,121.039 224.625,120.744 223.857 C 120.457 223.109,120.136 223.410,120.366 224.211 " stroke="none" fill="#d6cc51" fill-rule="evenodd"></path></g></svg>