<svg id="svg" version="1.1" xmlns="http://www.w3.org/2000/svg" xmlns:xlink="http://www.w3.org/1999/xlink" width="400" height="606.060606060606" viewBox="0, 0, 400,606.060606060606"><g id="svgg"><path id="path0" d="M172.222 2.036 C 163.326 2.921,151.575 5.338,140.076 8.647 C 135.905 9.848,130.873 11.104,128.894 11.439 C 122.703 12.488,115.665 16.336,109.259 22.175 C 106.655 24.549,105.054 25.683,102.189 27.182 C 95.550 30.655,91.712 34.075,84.419 43.013 C 80.009 48.418,78.662 50.275,76.768 53.564 C 75.460 55.833,70.964 62.576,62.417 75.084 C 61.214 76.843,59.504 79.040,58.616 79.966 C 54.546 84.209,51.575 88.413,46.124 97.643 C 44.179 100.938,41.582 104.797,40.235 106.397 C 36.878 110.382,34.366 113.852,31.990 117.785 C 30.873 119.635,28.672 122.791,27.100 124.800 C 25.103 127.350,23.969 129.162,23.341 130.808 C 22.846 132.104,21.167 135.816,19.610 139.057 C 15.241 148.152,14.208 151.373,13.292 158.763 C 12.615 164.215,11.070 169.466,8.139 176.270 C 6.545 179.970,4.086 193.819,2.880 205.892 C 1.205 222.650,1.224 241.881,2.930 257.576 C 3.524 263.044,3.713 274.891,3.243 277.273 L 2.977 278.620 7.159 274.579 C 9.459 272.357,12.463 269.487,13.835 268.202 C 15.207 266.917,16.027 266.081,15.657 266.345 C 15.286 266.609,15.589 266.217,16.330 265.474 C 23.730 258.055,29.025 246.739,29.593 237.130 C 29.852 232.737,30.027 232.167,30.801 233.190 C 31.928 234.679,31.209 241.995,29.405 247.391 C 26.578 255.847,22.966 260.875,11.130 272.828 L 2.862 281.178 2.906 286.128 C 2.969 293.249,4.326 297.832,7.547 301.808 C 8.915 303.496,8.950 303.601,9.046 306.397 C 9.114 308.340,9.361 309.746,9.815 310.774 C 10.183 311.608,10.839 314.259,11.273 316.667 C 15.671 341.053,21.984 358.010,31.769 371.717 C 36.090 377.769,47.150 392.354,51.813 398.148 C 62.808 411.810,64.670 414.795,71.544 429.769 C 89.477 468.838,104.942 499.448,113.733 513.277 C 117.706 519.526,118.973 521.869,121.488 527.611 C 129.267 545.370,133.401 550.834,147.549 562.062 C 151.201 564.960,156.746 569.795,159.871 572.807 C 174.777 587.173,199.289 596.728,233.838 601.640 C 277.753 607.884,296.744 604.034,318.519 584.475 C 340.470 564.756,343.478 558.495,344.464 530.471 C 345.174 510.277,347.424 490.242,352.025 463.131 C 352.843 458.316,353.889 451.120,354.351 447.138 C 355.486 437.363,356.999 430.254,359.977 420.707 C 363.154 410.525,366.275 404.194,377.493 385.185 C 388.224 367.000,390.331 359.888,394.451 327.946 C 395.640 318.730,396.098 311.812,396.962 290.067 C 397.146 285.438,397.532 280.362,397.820 278.788 C 398.498 275.077,398.495 265.698,397.813 255.387 C 397.530 251.128,397.151 243.628,396.970 238.721 C 396.604 228.816,396.324 225.364,395.127 215.993 C 394.678 212.475,394.215 208.157,394.099 206.397 C 393.347 195.022,392.048 187.309,387.034 164.477 C 383.223 147.125,380.594 136.736,376.897 124.411 C 376.063 121.633,375.304 119.095,375.210 118.771 C 375.092 118.366,374.697 118.182,373.947 118.182 C 373.347 118.182,370.137 117.718,366.815 117.151 L 360.774 116.121 350.168 116.347 C 331.440 116.747,318.803 118.464,300.842 123.050 C 290.601 125.665,279.529 126.848,266.930 126.676 C 261.523 126.602,258.180 126.064,247.475 123.547 C 244.419 122.829,239.798 121.856,237.205 121.386 C 232.276 120.492,231.105 120.245,227.778 119.405 C 222.565 118.088,218.145 117.186,215.993 117.001 C 214.697 116.890,212.045 116.589,210.101 116.332 C 194.440 114.268,181.311 114.496,161.279 117.181 C 159.891 117.367,157.373 117.663,155.684 117.838 C 152.273 118.191,143.258 120.113,138.769 121.444 C 137.168 121.918,135.328 122.415,134.680 122.547 C 134.032 122.680,132.441 123.112,131.145 123.508 C 129.848 123.904,127.348 124.668,125.589 125.205 C 123.830 125.743,120.042 127.038,117.172 128.082 C 107.537 131.589,103.325 132.175,98.583 130.666 C 84.194 126.090,93.859 109.716,116.566 100.203 C 139.640 90.536,160.338 89.905,207.074 97.443 C 249.498 104.285,259.070 104.463,298.822 99.148 C 334.514 94.376,352.340 93.435,366.031 95.599 L 367.652 95.855 366.233 94.154 C 354.137 79.647,335.851 69.925,315.488 67.174 C 313.359 66.886,311.277 66.600,310.861 66.538 C 307.086 65.972,282.115 68.080,274.916 69.572 C 271.002 70.383,262.359 70.852,251.515 70.841 C 238.249 70.828,229.045 70.044,208.081 67.142 C 187.272 64.262,165.558 63.195,156.061 64.585 C 147.371 65.857,138.333 68.114,133.026 70.338 C 130.880 71.238,127.988 72.379,126.599 72.875 C 122.695 74.269,116.706 77.741,110.378 82.280 C 108.208 83.836,107.728 84.056,107.394 83.654 C 106.723 82.845,107.263 82.236,110.511 80.141 C 112.230 79.033,114.621 77.438,115.825 76.596 C 127.583 68.378,148.500 62.671,167.271 62.560 C 178.143 62.496,195.471 63.736,203.030 65.119 C 206.203 65.699,215.825 66.858,230.135 68.383 C 239.019 69.330,265.070 69.904,267.072 69.197 C 267.676 68.983,281.380 67.169,288.721 66.330 C 292.054 65.949,297.530 65.497,300.890 65.326 C 304.250 65.154,307.365 64.922,307.813 64.810 C 308.260 64.698,310.429 64.842,312.632 65.131 C 318.670 65.923,318.669 65.923,316.616 63.334 C 308.566 53.186,297.016 47.675,279.461 45.606 C 274.881 45.066,271.292 44.935,246.970 44.424 C 238.081 44.237,225.126 43.867,218.182 43.601 C 156.994 41.260,143.502 42.418,125.589 51.550 C 122.461 53.145,120.017 54.128,117.753 54.704 C 115.943 55.164,114.172 55.696,113.819 55.885 C 112.807 56.426,112.121 56.296,112.121 55.562 C 112.121 54.646,114.205 53.639,117.673 52.881 C 120.709 52.218,120.775 52.190,125.758 49.419 C 138.833 42.148,161.427 39.716,200.168 41.408 C 213.534 41.992,230.555 42.455,238.497 42.452 C 262.023 42.441,280.758 43.425,287.127 45.004 C 288.036 45.230,287.828 44.408,286.409 42.160 C 281.679 34.667,234.339 10.727,213.360 5.219 C 201.997 2.235,184.121 0.852,172.222 2.036 M87.573 87.248 C 87.351 88.977,86.883 90.905,86.524 91.566 C 86.168 92.223,85.424 93.925,84.870 95.347 C 84.317 96.770,82.358 100.937,80.518 104.607 C 73.476 118.650,72.551 127.804,76.974 139.652 C 78.656 144.156,83.456 152.043,85.741 154.056 C 86.881 155.059,86.892 155.094,86.258 155.667 C 85.633 156.233,85.551 156.185,83.942 154.305 C 72.907 141.413,69.757 124.006,75.943 110.101 C 76.808 108.157,78.054 105.354,78.711 103.872 C 79.368 102.391,80.100 100.875,80.336 100.505 C 82.083 97.770,85.859 87.270,85.859 85.148 C 85.859 83.824,86.789 82.941,87.469 83.621 C 87.904 84.056,87.918 84.556,87.573 87.248 M75.927 86.534 C 76.128 86.859,75.401 89.257,69.800 106.734 C 62.923 128.192,57.518 136.076,43.609 144.936 C 38.549 148.160,26.661 153.822,25.918 153.362 C 25.012 152.802,26.030 152.084,30.892 149.852 C 52.766 139.811,60.260 131.315,66.996 108.923 C 68.519 103.860,74.125 87.239,74.520 86.616 C 74.841 86.110,75.637 86.064,75.927 86.534 M184.007 112.468 C 183.188 112.609,184.629 112.718,187.682 112.747 C 190.445 112.773,192.642 112.732,192.565 112.656 C 192.296 112.392,185.345 112.239,184.007 112.468 M194.192 113.032 C 194.609 113.112,195.290 113.112,195.707 113.032 C 196.124 112.952,195.783 112.886,194.949 112.886 C 194.116 112.886,193.775 112.952,194.192 113.032 M292.003 122.118 C 292.327 122.202,292.858 122.202,293.182 122.118 C 293.506 122.033,293.241 121.964,292.593 121.964 C 291.944 121.964,291.679 122.033,292.003 122.118 M117.003 125.926 C 116.579 126.108,116.517 126.215,116.835 126.215 C 117.113 126.215,117.643 126.085,118.013 125.926 C 118.438 125.744,118.500 125.637,118.182 125.637 C 117.904 125.637,117.374 125.767,117.003 125.926 M172.694 127.621 C 178.839 128.904,193.530 134.319,201.852 138.369 C 234.350 154.184,242.338 191.052,221.407 228.620 C 211.642 246.147,198.614 254.550,181.217 254.544 C 147.484 254.532,130.817 248.936,122.056 234.680 C 112.905 219.790,111.290 213.937,110.091 191.303 C 109.152 173.595,112.199 162.931,122.640 147.378 C 132.287 133.006,155.191 123.966,172.694 127.621 M337.037 130.012 C 362.591 133.471,376.856 155.092,377.677 191.605 C 378.162 213.166,372.629 227.466,360.227 236.703 C 345.311 247.812,311.532 252.073,296.801 244.703 C 283.857 238.227,273.574 223.503,267.702 203.036 C 261.393 181.046,265.081 167.894,282.198 151.347 C 299.526 134.595,317.950 127.428,337.037 130.012 M65.085 146.115 C 70.610 147.020,71.346 148.003,76.274 161.052 C 78.935 168.100,79.224 169.392,78.036 168.936 C 77.552 168.751,73.349 159.008,72.489 156.079 C 69.880 147.195,64.298 145.314,53.872 149.806 C 48.922 151.939,39.909 157.962,35.084 162.361 C 33.663 163.657,32.828 163.872,32.828 162.942 C 32.828 162.291,40.471 156.043,44.957 153.027 C 51.083 148.909,57.158 146.459,62.795 145.833 C 62.980 145.812,64.011 145.939,65.085 146.115 M10.637 161.974 C 10.064 163.406,9.499 166.653,9.884 166.303 C 10.160 166.052,11.490 160.873,11.322 160.705 C 11.252 160.635,10.944 161.206,10.637 161.974 M376.179 196.801 C 376.183 197.542,376.252 197.805,376.332 197.387 C 376.413 196.968,376.410 196.362,376.326 196.040 C 376.241 195.718,376.175 196.061,376.179 196.801 M61.272 202.273 C 61.268 202.412,61.037 204.419,60.759 206.734 C 59.575 216.578,59.745 229.531,61.148 236.320 C 64.493 252.515,81.521 276.475,97.116 286.931 C 103.030 290.896,117.079 297.306,119.855 297.306 C 121.024 297.306,122.559 298.267,122.559 298.999 C 122.559 299.916,122.341 299.880,116.649 298.010 C 109.836 295.772,101.505 292.124,100.173 290.795 C 99.958 290.580,99.187 290.101,98.460 289.731 C 97.733 289.360,97.088 288.944,97.026 288.805 C 96.964 288.666,96.746 288.552,96.542 288.552 C 95.134 288.552,85.326 279.839,80.831 274.595 C 69.384 261.242,61.574 247.053,59.186 235.271 C 57.785 228.361,58.381 203.333,59.970 202.327 C 60.546 201.962,61.282 201.932,61.272 202.273 M245.304 212.156 C 248.620 214.237,250.352 216.799,252.174 222.319 C 252.773 224.131,253.682 226.404,254.194 227.369 C 255.132 229.135,257.079 234.990,258.081 239.057 C 258.377 240.261,259.129 242.912,259.751 244.949 C 260.374 246.987,260.973 249.184,261.083 249.832 C 261.193 250.480,261.527 251.465,261.826 252.020 C 262.738 253.718,266.915 266.487,267.174 268.368 C 267.308 269.340,267.864 271.439,268.410 273.031 C 268.955 274.623,269.686 277.517,270.033 279.461 C 270.380 281.406,270.979 283.830,271.363 284.848 L 272.061 286.700 271.870 284.848 C 270.311 269.720,258.039 228.671,251.899 218.049 C 249.948 214.674,249.935 214.627,250.788 214.170 C 254.779 212.034,270.868 263.106,274.086 288.130 C 276.528 307.118,275.496 308.570,257.186 311.931 C 242.331 314.657,214.141 314.389,214.141 311.521 C 214.141 310.703,214.189 310.687,215.909 310.902 C 226.333 312.210,240.484 312.668,236.957 311.584 C 232.532 310.223,231.742 308.994,233.812 306.692 C 236.178 304.060,237.550 301.522,239.260 296.609 C 242.239 288.052,242.794 285.280,243.437 275.758 C 243.643 272.702,243.954 268.157,244.128 265.657 C 244.830 255.598,244.863 251.442,244.296 244.784 C 243.944 240.655,243.816 236.973,243.949 234.852 C 244.067 232.973,243.997 230.140,243.789 228.451 C 243.267 224.200,242.910 211.111,243.316 211.111 C 243.494 211.111,244.389 211.581,245.304 212.156 M44.781 240.511 C 44.781 241.497,43.608 244.812,42.050 248.226 C 35.345 262.920,36.492 275.517,45.421 285.258 C 46.822 286.786,47.161 287.376,47.069 288.120 C 46.956 289.029,46.873 288.976,44.268 286.339 C 34.710 276.661,33.428 262.321,40.748 246.955 C 41.686 244.986,42.543 242.896,42.654 242.311 C 43.017 240.393,44.781 238.901,44.781 240.511 M272.623 295.960 C 272.739 300.584,272.675 303.174,272.426 303.807 C 272.223 304.327,272.192 304.668,272.358 304.566 C 273.101 304.106,273.486 300.848,273.252 297.007 C 272.789 289.435,272.444 288.859,272.623 295.960 M27.488 296.484 C 36.483 298.817,47.050 305.391,50.536 310.822 C 51.118 311.729,51.926 312.733,52.332 313.054 C 53.223 313.757,55.556 317.160,55.556 317.756 C 55.556 317.990,55.716 318.182,55.912 318.182 C 56.108 318.182,56.175 318.333,56.061 318.519 C 55.946 318.704,55.991 318.855,56.159 318.855 C 56.328 318.855,56.934 319.878,57.505 321.128 C 60.718 328.152,62.719 336.869,61.119 336.869 C 60.361 336.869,60.299 336.696,59.260 331.650 C 55.775 314.724,41.199 300.432,24.495 297.560 C 22.462 297.211,22.222 297.088,22.222 296.396 C 22.222 295.360,23.221 295.377,27.488 296.484 M6.608 305.093 C 6.241 306.926,6.399 308.865,7.071 310.774 C 7.429 311.793,7.730 313.460,7.740 314.478 C 7.751 315.555,8.110 317.316,8.598 318.687 C 9.060 319.983,9.582 322.035,9.758 323.245 C 9.934 324.456,10.456 326.426,10.918 327.623 L 11.757 329.798 11.569 328.114 C 11.466 327.189,11.024 324.613,10.587 322.391 C 9.939 319.103,7.407 304.580,7.407 304.156 C 7.407 303.537,6.769 304.284,6.608 305.093 M270.875 305.934 C 270.270 306.449,270.146 306.654,270.566 306.446 C 271.184 306.139,272.341 305.031,272.011 305.063 C 271.942 305.069,271.431 305.462,270.875 305.934 M266.835 307.744 C 266.411 307.927,266.348 308.033,266.667 308.033 C 266.944 308.033,267.475 307.903,267.845 307.744 C 268.270 307.562,268.332 307.455,268.013 307.455 C 267.736 307.455,267.205 307.585,266.835 307.744 M246.801 311.449 C 246.296 311.612,246.835 311.647,248.148 311.537 C 249.352 311.436,250.400 311.299,250.477 311.232 C 250.749 310.998,247.633 311.182,246.801 311.449 M12.148 331.601 C 12.082 332.732,14.709 341.296,15.025 340.980 C 15.087 340.917,14.530 338.830,13.786 336.342 C 12.216 331.093,12.183 330.998,12.148 331.601 M157.744 343.592 L 158.754 344.420 156.727 344.432 C 142.726 344.516,127.539 362.288,129.324 376.501 C 130.697 387.436,144.458 395.012,163.805 395.485 C 169.580 395.626,170.207 395.781,169.318 396.852 C 168.956 397.288,168.535 397.335,167.014 397.110 C 165.989 396.959,163.788 396.867,162.121 396.906 C 157.421 397.017,150.512 395.816,146.128 394.127 C 145.480 393.877,143.990 393.402,142.816 393.071 C 137.864 391.673,131.383 386.416,129.293 382.101 C 128.769 381.019,128.422 380.135,128.521 380.135 C 128.621 380.135,128.533 379.931,128.327 379.683 C 128.121 379.434,128.018 379.165,128.099 379.084 C 128.180 379.003,128.099 378.336,127.920 377.600 C 124.794 364.770,139.191 345.097,153.060 343.247 C 153.970 343.126,154.777 342.967,154.854 342.894 C 155.280 342.490,156.867 342.873,157.744 343.592 M357.143 349.570 C 369.140 356.197,372.761 371.333,364.736 381.313 C 360.964 386.004,350.193 391.668,343.772 392.337 C 342.123 392.508,342.460 391.014,344.171 390.566 C 350.433 388.925,356.293 386.353,359.834 383.691 C 371.742 374.738,369.087 357.845,354.434 349.334 C 353.260 348.652,352.933 348.311,353.256 348.106 C 353.870 347.716,353.610 347.618,357.143 349.570 M17.525 349.085 C 17.491 350.684,20.668 358.480,23.732 364.310 C 25.084 366.884,27.268 370.816,28.046 372.077 C 28.752 373.222,39.664 385.859,39.947 385.859 C 40.021 385.859,38.017 383.115,35.495 379.762 C 31.032 373.830,24.324 363.955,23.160 361.603 C 22.319 359.903,19.291 352.861,18.351 350.419 C 17.869 349.169,17.535 348.628,17.525 349.085 M312.795 357.254 C 325.725 358.153,336.365 360.949,344.091 365.479 C 347.167 367.282,347.416 367.544,346.716 368.243 C 346.271 368.688,345.908 368.568,343.527 367.184 C 326.875 357.509,301.436 356.109,233.333 361.120 C 192.913 364.095,176.011 367.823,160.655 377.152 C 158.639 378.377,158.470 378.423,158.048 377.867 C 157.396 377.007,157.332 377.076,160.355 375.350 C 176.087 366.364,192.322 362.570,226.263 359.946 C 266.708 356.818,294.213 355.963,312.795 357.254 M41.958 389.310 C 42.449 390.282,43.247 391.562,43.731 392.154 C 44.216 392.746,45.067 393.857,45.623 394.623 C 46.881 396.356,48.665 398.459,51.505 401.557 C 52.714 402.876,54.158 404.589,54.714 405.363 C 55.788 406.859,58.325 409.934,59.179 410.774 C 60.253 411.832,55.577 405.663,51.017 400.006 C 48.402 396.762,45.153 392.630,43.797 390.825 C 40.973 387.064,40.719 386.855,41.958 389.310 M346.173 534.933 C 346.212 537.810,346.250 538.007,346.480 536.532 C 346.861 534.086,346.853 531.650,346.465 531.650 C 346.260 531.650,346.146 532.939,346.173 534.933 M327.104 578.990 L 324.074 581.884 326.806 579.500 C 329.361 577.270,330.554 576.094,330.260 576.095 C 330.191 576.095,328.771 577.398,327.104 578.990 M241.162 604.609 C 241.486 604.694,242.016 604.694,242.340 604.609 C 242.664 604.525,242.399 604.455,241.751 604.455 C 241.103 604.455,240.838 604.525,241.162 604.609 M243.855 604.946 C 244.179 605.031,244.710 605.031,245.034 604.946 C 245.358 604.861,245.093 604.792,244.444 604.792 C 243.796 604.792,243.531 604.861,243.855 604.946 M247.643 605.557 C 248.778 605.888,250.752 606.034,253.704 606.005 L 258.081 605.963 254.882 605.718 C 253.123 605.583,250.396 605.382,248.822 605.270 L 245.960 605.067 247.643 605.557 " stroke="none" fill="#ecb549" fill-rule="evenodd"></path><path id="path1" d="M172.559 0.180 C 172.374 0.250,170.387 0.540,168.143 0.825 C 159.292 1.947,147.365 4.595,136.247 7.905 C 134.054 8.558,130.609 9.384,128.592 9.740 C 121.404 11.009,115.482 14.285,107.363 21.484 C 105.242 23.365,103.382 24.673,101.684 25.478 C 95.794 28.270,90.904 32.501,83.821 40.934 C 80.010 45.472,74.747 52.804,74.747 53.578 C 74.747 53.781,74.024 54.952,73.139 56.182 C 72.255 57.411,69.597 61.296,67.232 64.815 C 60.401 74.980,58.577 77.494,55.969 80.332 C 52.634 83.962,50.190 87.461,45.282 95.631 C 42.889 99.613,39.987 103.932,38.469 105.768 C 35.139 109.798,32.258 113.819,30.014 117.570 C 29.052 119.178,27.198 121.830,25.895 123.463 C 23.332 126.673,22.361 128.351,21.050 131.835 C 20.584 133.071,19.691 134.785,19.065 135.644 C 15.930 139.945,12.337 150.941,11.624 158.418 C 11.285 161.972,10.574 164.716,9.289 167.424 C 8.651 168.767,7.816 171.002,7.433 172.391 C 7.050 173.780,6.439 175.673,6.075 176.599 C 1.512 188.204,-1.463 232.151,0.820 254.209 C 2.083 266.410,2.148 268.561,1.515 277.198 C 0.516 290.841,1.769 297.764,6.162 302.868 C 6.964 303.801,7.491 304.899,7.857 306.403 L 8.388 308.586 8.328 305.724 C 8.271 303.063,8.190 302.758,7.168 301.388 C 4.214 297.426,2.966 292.960,2.906 286.128 L 2.862 281.178 11.130 272.828 C 25.689 258.124,31.301 248.388,31.312 237.814 C 31.315 234.982,30.178 236.394,29.499 240.067 C 28.432 245.832,28.210 246.589,26.399 250.614 C 24.112 255.697,23.721 256.416,22.371 258.012 C 21.776 258.715,20.816 260.179,20.237 261.265 C 19.166 263.274,16.771 265.891,12.675 269.529 C 11.424 270.640,8.794 273.103,6.831 275.003 C 4.867 276.903,3.229 278.418,3.191 278.370 C 3.153 278.322,3.276 276.313,3.464 273.906 C 3.819 269.369,3.556 263.865,2.496 253.704 C 0.134 231.064,3.306 187.514,8.136 176.270 C 10.772 170.134,12.795 163.245,13.280 158.754 C 13.975 152.321,15.418 147.795,19.459 139.381 C 21.100 135.962,22.848 132.104,23.342 130.808 C 23.970 129.160,25.100 127.353,27.100 124.800 C 28.672 122.791,30.873 119.635,31.990 117.785 C 34.366 113.852,36.878 110.382,40.235 106.397 C 41.582 104.797,44.179 100.938,46.124 97.643 C 51.575 88.413,54.546 84.209,58.616 79.966 C 59.504 79.040,61.214 76.843,62.417 75.084 C 70.964 62.576,75.460 55.833,76.768 53.564 C 78.662 50.275,80.009 48.418,84.419 43.013 C 91.712 34.075,95.550 30.655,102.189 27.182 C 105.054 25.683,106.655 24.549,109.259 22.175 C 115.665 16.336,122.703 12.488,128.894 11.439 C 130.873 11.104,135.901 9.850,140.067 8.653 C 183.547 -3.846,209.784 -0.680,255.051 22.526 C 274.850 32.677,284.921 39.177,286.951 43.117 C 288.057 45.262,288.095 45.205,285.829 44.775 C 280.219 43.711,272.049 43.224,254.714 42.922 C 225.380 42.412,209.300 42.037,203.369 41.726 C 187.783 40.910,162.180 41.021,154.231 41.938 C 141.843 43.368,134.291 45.394,126.094 49.486 C 121.940 51.561,119.164 52.722,117.267 53.178 C 114.069 53.947,112.458 54.690,112.458 55.396 C 112.458 56.023,113.112 56.025,114.724 55.401 C 115.422 55.131,117.240 54.607,118.763 54.236 C 120.596 53.790,122.930 52.824,125.665 51.379 C 142.501 42.484,158.396 41.124,218.687 43.423 C 228.687 43.804,244.747 44.260,254.377 44.436 C 290.062 45.090,301.530 48.119,313.889 60.155 C 315.509 61.733,316.835 63.219,316.835 63.458 C 316.835 63.696,317.165 64.110,317.567 64.377 C 318.556 65.033,318.181 66.171,317.083 65.847 C 313.963 64.923,302.191 65.006,293.266 66.014 C 291.692 66.191,288.889 66.493,287.037 66.684 C 285.185 66.875,282.089 67.262,280.157 67.545 C 278.225 67.828,274.891 68.279,272.749 68.547 C 270.608 68.815,268.098 69.166,267.172 69.326 C 260.114 70.546,233.525 69.332,216.542 67.014 C 213.833 66.644,209.849 66.195,207.689 66.016 C 205.530 65.837,202.878 65.465,201.797 65.190 C 194.528 63.338,164.203 62.062,155.724 63.251 C 150.746 63.949,139.516 66.315,136.926 67.212 C 135.598 67.671,133.224 68.474,131.650 68.994 C 127.543 70.353,120.345 73.930,115.657 76.941 C 106.814 82.621,106.464 82.916,107.521 83.793 C 107.865 84.079,108.156 83.970,108.755 83.333 C 109.186 82.874,110.536 81.862,111.756 81.083 C 112.975 80.305,115.185 78.885,116.667 77.927 C 120.874 75.205,123.569 73.813,128.028 72.055 C 130.298 71.160,133.322 69.960,134.749 69.388 C 141.518 66.676,153.399 64.409,163.574 63.888 C 173.386 63.386,192.139 64.533,203.535 66.333 C 204.646 66.508,206.086 66.722,206.734 66.808 C 207.382 66.894,210.109 67.270,212.795 67.644 C 236.522 70.947,265.931 71.745,275.141 69.336 C 279.503 68.194,296.759 66.666,306.229 66.583 L 314.310 66.512 320.370 67.802 C 339.182 71.807,355.341 81.092,366.233 94.154 L 367.652 95.855 366.031 95.599 C 352.340 93.435,334.514 94.376,298.822 99.148 C 259.070 104.463,249.498 104.285,207.074 97.443 C 172.546 91.874,157.674 91.016,140.625 93.612 C 113.306 97.772,90.970 111.780,91.992 124.111 C 92.556 130.901,104.003 133.594,113.805 129.243 C 116.488 128.052,124.024 125.349,126.782 124.588 C 128.256 124.181,130.673 123.496,132.155 123.064 C 137.550 121.491,143.657 119.928,145.960 119.530 C 147.256 119.306,149.074 118.917,150.000 118.665 C 150.926 118.414,153.407 117.973,155.514 117.685 C 157.621 117.398,159.667 117.089,160.060 116.999 C 160.453 116.909,162.365 116.682,164.310 116.496 C 166.254 116.309,168.906 116.006,170.202 115.823 C 181.861 114.175,198.037 114.468,215.570 116.646 C 219.415 117.124,222.550 117.771,228.788 119.376 C 230.455 119.805,232.576 120.261,233.502 120.389 C 235.412 120.654,242.246 122.104,248.485 123.569 C 260.003 126.272,264.688 126.736,275.933 126.282 C 287.227 125.827,290.399 125.361,301.852 122.477 C 306.296 121.358,310.918 120.318,312.121 120.168 C 313.325 120.017,315.598 119.662,317.172 119.379 C 320.654 118.754,332.774 116.802,334.175 116.642 C 337.759 116.231,359.914 115.836,361.111 116.161 C 361.885 116.372,364.533 116.486,367.340 116.429 L 372.222 116.330 366.330 115.320 C 359.519 114.152,343.633 113.848,336.364 114.747 C 326.656 115.946,298.282 121.003,294.353 122.234 C 293.040 122.646,291.258 122.900,289.639 122.906 C 288.208 122.912,285.901 123.064,284.512 123.245 C 279.403 123.910,270.499 124.205,265.170 123.886 C 256.528 123.368,251.968 122.567,231.987 118.054 C 218.380 114.981,208.861 113.580,199.663 113.297 C 197.163 113.220,193.906 113.064,192.424 112.950 C 186.802 112.519,170.565 113.644,160.438 115.167 C 149.024 116.883,127.314 122.103,126.553 123.314 C 126.435 123.502,126.182 123.559,125.992 123.442 C 125.802 123.324,125.596 123.372,125.534 123.548 C 125.472 123.724,124.663 124.048,123.737 124.270 C 122.811 124.491,118.948 125.710,115.152 126.978 C 107.402 129.566,104.691 130.087,101.577 129.587 C 84.119 126.784,97.062 108.469,122.727 99.661 C 143.864 92.407,163.837 92.165,203.872 98.677 C 249.438 106.089,258.500 106.258,301.684 100.498 C 326.956 97.127,331.804 96.659,344.108 96.402 C 363.174 96.004,378.572 98.346,384.215 102.501 C 390.438 107.083,386.284 115.748,377.548 116.409 C 375.831 116.539,375.084 116.730,375.084 117.038 C 375.084 117.361,374.328 117.508,372.306 117.579 L 369.529 117.677 372.297 117.972 C 374.392 118.195,375.104 118.400,375.224 118.814 C 375.310 119.114,376.063 121.633,376.897 124.411 C 380.594 136.736,383.223 147.125,387.034 164.477 C 392.048 187.309,393.347 195.022,394.099 206.397 C 394.215 208.157,394.678 212.475,395.127 215.993 C 396.324 225.364,396.604 228.816,396.970 238.721 C 397.151 243.628,397.530 251.128,397.813 255.387 C 398.495 265.698,398.498 275.077,397.820 278.788 C 397.532 280.362,397.146 285.438,396.962 290.067 C 396.098 311.812,395.640 318.730,394.451 327.946 C 390.331 359.888,388.224 367.000,377.493 385.185 C 366.275 404.194,363.154 410.525,359.977 420.707 C 356.999 430.254,355.486 437.363,354.351 447.138 C 353.889 451.120,352.843 458.316,352.025 463.131 C 347.697 488.634,345.555 507.024,344.928 524.074 C 343.653 558.717,341.363 563.954,318.519 584.475 C 296.744 604.034,277.753 607.884,233.838 601.640 C 199.289 596.728,174.777 587.173,159.871 572.807 C 156.746 569.795,151.201 564.960,147.549 562.062 C 133.401 550.834,129.267 545.370,121.488 527.611 C 118.973 521.869,117.706 519.526,113.733 513.277 C 104.942 499.448,89.477 468.838,71.544 429.769 C 64.670 414.795,62.808 411.811,51.813 398.148 C 49.131 394.815,44.166 388.400,40.781 383.893 C 37.395 379.386,34.128 375.144,33.521 374.466 C 26.806 366.967,19.202 350.145,14.969 333.427 C 14.156 330.215,13.123 326.418,12.674 324.989 C 11.862 322.406,10.780 316.832,10.769 315.176 C 10.763 314.293,8.770 310.558,8.760 311.410 C 8.750 312.181,10.077 319.695,10.929 323.700 C 11.367 325.758,11.815 328.123,11.925 328.956 C 12.034 329.790,12.415 331.380,12.771 332.492 C 13.128 333.603,14.051 336.785,14.824 339.562 C 20.060 358.387,26.369 368.896,51.229 400.197 C 60.457 411.817,63.586 416.630,67.517 425.253 C 71.085 433.080,76.782 445.265,78.693 449.158 C 79.739 451.288,81.075 454.091,81.662 455.387 C 82.249 456.684,83.678 459.714,84.837 462.121 C 85.996 464.529,88.538 469.832,90.486 473.906 C 97.886 489.384,106.824 505.810,113.513 516.227 C 114.785 518.207,115.825 519.949,115.826 520.099 C 115.826 520.248,116.342 521.225,116.971 522.268 C 117.601 523.312,119.058 526.343,120.209 529.002 C 127.133 544.996,132.233 552.066,143.125 560.769 C 145.425 562.607,148.702 565.226,150.408 566.589 C 152.113 567.952,155.926 571.400,158.879 574.252 C 175.526 590.325,203.913 600.344,245.623 604.869 C 278.680 608.455,297.631 604.288,315.351 589.536 C 339.069 569.792,344.198 561.143,345.783 538.215 C 345.975 535.438,346.212 532.029,346.308 530.640 C 346.405 529.251,346.631 524.099,346.811 519.192 C 347.054 512.570,347.312 509.453,347.812 507.104 C 348.182 505.363,348.485 502.974,348.485 501.796 C 348.485 498.176,351.411 476.438,352.851 469.360 C 354.235 462.560,354.876 458.051,356.224 445.623 C 358.306 426.440,363.638 412.131,377.328 388.989 C 389.880 367.770,391.734 361.838,395.990 329.293 C 397.337 318.993,397.610 315.031,398.657 290.572 C 398.844 286.221,399.144 280.463,399.325 277.778 C 399.679 272.526,399.516 257.439,398.991 246.801 C 398.813 243.190,398.512 236.751,398.322 232.492 C 398.124 228.040,397.557 221.455,396.989 217.003 C 396.446 212.744,395.909 207.820,395.795 206.061 C 395.118 195.590,393.302 184.641,389.180 166.162 C 388.436 162.828,387.629 158.965,387.387 157.576 C 386.591 153.007,380.527 130.060,377.929 121.784 C 376.946 118.652,376.936 118.521,377.694 118.510 C 381.437 118.458,387.499 114.158,388.489 110.854 C 390.500 104.141,385.708 99.245,375.084 97.158 C 370.046 96.168,370.464 96.474,364.613 89.513 C 361.127 85.366,360.751 85.060,350.241 77.848 C 342.837 72.768,331.534 68.295,320.657 66.141 C 320.222 66.055,319.791 65.591,319.578 64.980 C 317.120 57.929,303.946 49.078,291.034 45.803 C 289.802 45.491,289.605 45.302,289.313 44.149 C 287.969 38.853,276.563 31.174,251.852 18.927 C 247.500 16.771,243.174 14.523,242.239 13.933 C 240.281 12.698,237.067 11.301,235.354 10.941 C 234.705 10.804,232.288 9.942,229.982 9.025 C 216.945 3.839,207.370 1.453,195.118 0.338 C 191.675 0.024,173.312 -0.104,172.559 0.180 M86.378 83.895 C 86.293 84.141,86.053 85.328,85.846 86.532 C 85.364 89.324,81.790 98.756,80.487 100.673 C 80.173 101.136,79.712 102.045,79.462 102.694 C 79.213 103.342,78.454 105.008,77.776 106.397 C 69.659 123.017,72.028 140.023,84.525 154.855 C 85.713 156.265,85.719 156.267,86.337 155.585 C 86.944 154.914,86.939 154.892,86.120 154.581 C 83.245 153.488,75.379 138.772,74.729 133.270 C 74.362 130.169,74.270 119.355,74.606 118.812 C 74.723 118.622,75.031 117.561,75.289 116.455 C 75.912 113.784,77.810 109.406,81.145 102.950 C 82.651 100.036,84.315 96.475,84.844 95.038 C 85.373 93.600,86.134 91.690,86.535 90.793 C 87.395 88.872,87.686 83.847,86.953 83.592 C 86.722 83.512,86.463 83.648,86.378 83.895 M74.632 86.785 C 74.446 87.086,68.453 105.044,66.060 112.469 C 59.831 131.798,51.834 140.443,31.650 149.664 C 27.053 151.765,25.380 152.848,26.275 153.147 C 26.480 153.215,26.978 152.970,27.381 152.603 C 28.418 151.660,29.200 151.314,31.302 150.870 C 34.496 150.195,43.871 145.036,47.179 142.133 C 47.990 141.422,49.108 140.605,49.663 140.319 C 52.623 138.794,58.719 131.936,61.515 126.986 C 64.438 121.810,65.833 118.197,70.440 103.872 C 70.797 102.761,72.140 98.612,73.424 94.653 C 74.707 90.694,75.758 87.247,75.758 86.993 C 75.758 86.509,74.899 86.350,74.632 86.785 M161.616 126.971 C 146.465 127.668,130.130 136.221,122.640 147.378 C 112.199 162.931,109.152 173.595,110.091 191.303 C 111.290 213.937,112.905 219.790,122.056 234.680 C 130.817 248.936,147.484 254.532,181.217 254.544 C 194.998 254.549,207.998 248.050,216.236 237.037 C 232.744 214.966,237.630 183.604,227.655 163.726 C 219.439 147.356,207.339 138.685,180.303 129.796 C 172.110 127.102,168.998 126.631,161.616 126.971 M173.401 129.271 C 179.778 130.855,193.938 136.188,201.165 139.727 C 235.016 156.303,241.293 197.444,215.726 235.159 C 209.570 244.240,198.133 251.165,186.619 252.783 C 180.993 253.574,160.437 252.443,151.336 250.842 C 133.449 247.696,124.224 239.543,115.836 219.469 C 112.062 210.435,110.084 183.377,112.405 172.515 C 114.032 164.901,122.144 149.436,127.474 143.786 C 138.411 132.192,158.983 125.690,173.401 129.271 M325.084 129.642 C 298.004 131.828,267.328 158.386,264.951 181.702 C 263.561 195.343,271.169 218.508,281.294 231.468 C 291.758 244.861,303.872 249.706,323.064 248.172 C 361.793 245.078,378.490 227.783,377.677 191.605 C 376.735 149.686,357.501 127.026,325.084 129.642 M335.859 131.348 C 357.610 134.000,371.189 150.018,375.218 177.778 C 379.254 205.589,373.213 226.153,357.986 236.428 C 342.735 246.719,310.804 250.189,296.970 243.059 C 284.141 236.448,273.651 220.540,268.331 199.631 C 263.518 180.713,267.138 168.535,281.982 153.702 C 298.954 136.743,317.385 129.095,335.859 131.348 M60.943 146.221 C 61.035 146.321,62.020 146.568,63.131 146.770 C 68.432 147.736,71.687 151.001,72.896 156.566 C 73.037 157.214,73.490 158.502,73.903 159.428 C 74.316 160.354,75.380 162.877,76.269 165.036 C 77.395 167.774,78.021 168.909,78.336 168.788 C 78.964 168.547,79.016 168.743,76.737 162.777 C 75.609 159.824,74.243 156.223,73.702 154.775 C 71.865 149.862,70.913 148.580,68.030 147.134 C 66.677 146.455,60.412 145.648,60.943 146.221 M45.563 152.809 C 43.587 154.106,42.290 155.222,41.807 156.040 L 41.070 157.290 42.168 156.527 C 48.505 152.123,51.348 149.010,45.563 152.809 M180.099 174.814 C 179.617 174.976,179.052 175.481,178.844 175.938 C 178.636 176.394,178.239 176.768,177.961 176.768 C 176.593 176.768,176.233 178.888,177.376 180.219 C 177.842 180.762,177.802 180.808,176.872 180.808 C 176.316 180.808,175.611 181.085,175.305 181.424 C 174.086 182.771,175.028 184.848,176.858 184.848 C 177.631 184.848,177.750 185.001,177.842 186.111 C 177.932 187.207,178.093 187.421,179.064 187.735 C 179.679 187.934,180.364 188.464,180.587 188.913 C 181.292 190.335,184.175 189.924,184.175 188.401 C 184.175 188.191,184.666 187.873,185.266 187.696 C 186.725 187.265,187.202 185.959,186.466 184.415 C 185.940 183.314,185.945 183.296,186.907 182.744 C 188.485 181.838,188.154 179.125,186.465 179.125 C 185.773 179.125,185.723 178.852,186.189 177.625 C 186.784 176.062,184.840 174.861,183.165 175.757 C 182.668 176.024,182.495 175.961,182.335 175.457 C 182.084 174.668,181.250 174.429,180.099 174.814 M345.503 177.130 C 345.087 177.577,344.772 177.698,344.628 177.466 C 344.042 176.518,341.414 177.513,341.414 178.684 C 341.414 178.875,341.049 178.961,340.602 178.876 C 339.403 178.647,338.458 180.168,338.966 181.512 C 339.300 182.399,339.254 182.522,338.437 182.911 C 336.683 183.748,337.285 186.532,339.220 186.532 C 339.654 186.532,340.814 187.062,341.798 187.710 C 343.722 188.978,344.411 189.119,345.561 188.481 C 345.965 188.257,346.895 188.067,347.626 188.060 C 349.495 188.042,350.297 186.738,349.387 185.197 C 348.785 184.178,348.786 184.175,349.569 184.175 C 350.966 184.175,351.852 183.269,351.852 181.840 C 351.852 180.219,351.208 179.650,349.660 179.902 C 348.581 180.077,348.512 180.039,348.829 179.447 C 349.942 177.367,347.117 175.398,345.503 177.130 M60.354 202.243 C 60.096 202.347,59.933 203.064,59.933 204.093 C 59.933 205.055,59.738 205.966,59.477 206.228 C 58.972 206.733,58.733 209.891,58.381 220.707 L 58.162 227.441 59.175 230.976 C 59.733 232.921,60.595 236.254,61.091 238.384 C 62.540 244.606,63.204 246.367,65.392 249.794 C 68.270 254.302,68.310 254.261,65.854 249.313 C 60.166 237.852,58.595 224.725,60.759 206.734 C 61.037 204.419,61.268 202.412,61.272 202.273 C 61.280 201.994,60.994 201.985,60.354 202.243 M250.758 214.180 C 249.941 214.639,249.955 214.686,251.899 218.049 C 261.302 234.317,275.665 291.364,273.127 302.361 C 272.410 305.468,270.463 307.145,266.455 308.108 C 265.553 308.324,264.489 308.704,264.090 308.951 C 263.079 309.577,256.211 310.709,248.822 311.468 C 238.481 312.528,227.343 312.337,215.909 310.902 C 214.189 310.687,214.141 310.703,214.141 311.521 C 214.141 314.389,242.331 314.657,257.186 311.931 C 275.496 308.570,276.528 307.118,274.086 288.130 C 270.858 263.032,254.740 211.938,250.758 214.180 M41.579 245.875 C 40.871 247.403,40.021 249.045,39.690 249.525 C 35.862 255.074,35.030 268.892,38.053 276.730 C 39.576 280.681,44.349 287.750,45.032 287.067 C 45.325 286.773,43.842 283.632,42.241 281.158 C 36.435 272.182,35.818 257.799,40.896 249.824 C 42.438 247.404,43.771 244.592,43.771 243.761 C 43.771 242.306,42.800 243.242,41.579 245.875 M69.771 256.907 C 70.193 257.650,70.883 258.673,71.304 259.180 C 71.724 259.686,71.442 259.078,70.677 257.828 C 69.169 255.366,68.522 254.708,69.771 256.907 M74.925 264.646 C 77.844 269.981,86.662 280.499,90.568 283.307 C 91.934 284.289,97.045 287.224,96.633 286.790 C 96.540 286.693,95.404 285.817,94.108 284.843 C 88.575 280.689,82.895 274.859,77.877 268.182 C 75.337 264.801,74.388 263.665,74.925 264.646 M104.595 292.123 C 106.350 294.424,122.222 300.463,122.222 298.830 C 122.222 298.188,121.855 297.978,119.613 297.329 C 116.512 296.432,108.384 293.257,105.606 291.858 L 103.636 290.865 104.595 292.123 M22.222 296.122 C 22.222 296.623,22.601 296.757,25.084 297.137 C 27.001 297.430,28.854 298.143,33.838 300.502 C 40.003 303.420,44.094 306.009,49.514 310.421 L 50.941 311.583 50.023 310.196 C 48.450 307.819,43.824 304.046,39.057 301.251 C 32.917 297.651,22.222 294.393,22.222 296.122 M147.797 345.600 C 142.943 346.940,140.821 348.799,135.658 356.229 C 132.994 360.063,133.048 360.326,135.761 356.731 C 139.452 351.841,145.058 347.608,150.501 345.601 L 151.684 345.165 150.505 345.172 C 149.857 345.175,148.638 345.368,147.797 345.600 M353.422 348.374 C 353.298 348.498,353.841 348.978,354.629 349.442 C 369.114 357.967,371.671 374.792,359.834 383.691 C 356.298 386.349,350.430 388.926,344.192 390.560 C 343.141 390.835,342.761 391.105,342.761 391.576 C 342.761 392.444,343.451 392.812,343.908 392.188 C 344.129 391.885,345.028 391.614,346.130 391.517 C 347.147 391.428,349.040 390.940,350.337 390.433 C 351.633 389.925,353.509 389.193,354.505 388.806 C 369.568 382.949,373.721 365.731,362.891 354.038 C 360.430 351.380,354.164 347.632,353.422 348.374 M276.711 356.900 C 260.265 357.451,228.176 359.563,212.458 361.129 C 189.485 363.418,173.705 367.725,160.355 375.350 C 157.332 377.076,157.396 377.007,158.048 377.867 C 158.470 378.423,158.639 378.377,160.655 377.152 C 176.011 367.823,192.913 364.095,233.333 361.120 C 301.436 356.109,326.875 357.509,343.527 367.184 C 345.908 368.568,346.271 368.688,346.716 368.243 C 348.850 366.109,332.832 359.747,321.212 358.114 C 312.702 356.918,292.562 356.369,276.711 356.900 M131.660 362.037 C 129.467 364.972,128.634 367.149,128.664 369.865 C 128.692 372.362,129.206 374.372,129.259 372.192 C 129.316 369.885,130.568 365.648,132.111 362.542 C 132.917 360.922,133.555 359.596,133.530 359.596 C 133.505 359.596,132.664 360.694,131.660 362.037 M130.976 382.326 C 130.976 382.453,131.610 383.775,132.385 385.264 C 134.390 389.118,137.878 391.586,143.630 393.220 C 144.911 393.584,147.475 394.330,149.327 394.878 C 154.027 396.269,154.303 396.309,161.279 396.622 C 166.432 396.854,167.600 396.821,168.040 396.431 C 168.332 396.172,168.850 395.960,169.190 395.960 C 169.531 395.960,169.734 395.884,169.641 395.792 C 169.549 395.699,166.910 395.561,163.777 395.484 C 149.379 395.132,137.898 390.851,132.275 383.737 C 131.561 382.833,130.976 382.199,130.976 382.326 " stroke="none" fill="#0e0a0a" fill-rule="evenodd"></path><path id="path2" d="M159.596 128.632 C 142.311 130.742,128.923 139.374,120.969 153.535 C 111.508 170.379,110.304 177.077,112.425 201.050 C 113.570 213.986,114.120 215.994,119.276 226.023 C 127.197 241.429,133.919 246.934,148.774 250.176 C 158.925 252.391,184.142 253.554,189.956 252.074 C 205.882 248.021,214.492 239.825,224.248 219.431 C 232.108 202.998,233.398 181.128,227.336 167.066 C 220.848 152.018,211.001 143.487,190.909 135.509 C 175.295 129.309,167.706 127.643,159.596 128.632 M325.589 131.322 C 302.898 133.081,274.505 154.477,268.042 174.687 C 261.926 193.812,275.785 229.325,293.939 241.047 C 309.995 251.413,347.195 246.841,362.448 232.627 C 375.702 220.276,379.790 195.190,373.004 167.845 C 368.069 147.957,356.558 135.676,339.563 132.166 C 337.456 131.731,329.529 130.882,328.956 131.031 C 328.864 131.055,327.348 131.186,325.589 131.322 M182.133 174.889 C 182.380 175.187,183.078 175.347,183.976 175.312 C 185.936 175.236,186.651 175.865,186.436 177.474 C 186.294 178.533,186.385 178.766,187.065 179.076 C 188.582 179.767,188.425 182.661,186.847 183.073 C 186.473 183.171,186.217 183.345,186.276 183.460 C 187.229 185.297,187.305 185.609,187.009 186.461 C 186.803 187.055,186.333 187.480,185.662 187.679 C 185.096 187.847,184.388 188.410,184.089 188.930 C 183.131 190.599,181.064 190.607,180.307 188.946 C 180.125 188.544,179.708 188.215,179.381 188.215 C 178.543 188.215,177.441 187.012,177.441 186.097 C 177.441 185.516,177.170 185.245,176.347 185.002 C 174.098 184.340,173.925 181.600,176.075 180.696 C 176.824 180.381,176.989 180.159,176.753 179.786 C 176.123 178.790,176.394 177.481,177.357 176.860 C 177.866 176.531,178.637 175.846,179.070 175.337 C 179.942 174.311,181.468 174.088,182.133 174.889 M348.485 176.768 C 348.895 177.177,349.158 177.890,349.158 178.588 C 349.158 179.569,349.256 179.709,349.831 179.559 C 352.705 178.807,353.216 183.180,350.375 184.207 C 349.281 184.603,349.244 184.666,349.702 185.365 C 350.653 186.817,349.245 188.740,347.427 188.473 C 346.843 188.388,345.917 188.540,345.370 188.813 C 344.329 189.332,341.654 188.474,340.689 187.311 C 340.487 187.068,339.896 186.869,339.377 186.869 C 337.061 186.869,336.216 183.348,338.368 182.665 C 338.911 182.492,338.972 182.311,338.714 181.632 C 338.178 180.222,339.670 177.958,340.711 178.601 C 340.872 178.701,341.250 178.407,341.550 177.949 C 342.193 176.968,343.445 176.569,344.355 177.056 C 344.860 177.327,345.123 177.260,345.561 176.748 C 346.285 175.904,347.630 175.913,348.485 176.768 " stroke="none" fill="#f2f2c0" fill-rule="evenodd"></path><path id="path3" d="M151.347 94.137 C 150.606 94.210,148.333 94.429,146.296 94.623 C 118.588 97.262,92.325 112.003,93.694 124.149 C 94.340 129.878,105.321 131.481,114.055 127.121 C 114.936 126.681,116.564 126.060,117.673 125.740 C 118.782 125.420,119.918 125.040,120.198 124.895 C 120.478 124.749,121.692 124.378,122.896 124.069 C 124.099 123.760,127.051 122.908,129.454 122.175 C 139.512 119.110,151.874 116.384,162.121 114.972 C 165.455 114.512,168.913 113.986,169.807 113.802 C 170.701 113.618,172.315 113.468,173.394 113.468 C 174.474 113.468,177.379 113.225,179.850 112.927 C 185.529 112.244,187.724 112.158,191.023 112.489 C 192.474 112.635,196.035 112.919,198.935 113.118 C 206.623 113.648,216.648 114.726,219.360 115.315 C 220.657 115.596,225.884 116.747,230.976 117.872 C 255.947 123.390,257.049 123.563,268.519 123.791 C 277.923 123.978,285.093 123.516,289.989 122.409 C 291.143 122.148,293.148 121.836,294.444 121.717 C 295.741 121.598,298.392 121.207,300.337 120.848 C 318.578 117.484,322.860 116.720,328.283 115.861 C 342.042 113.680,356.302 113.540,367.172 115.478 C 378.451 117.489,383.983 116.209,386.502 111.004 C 389.231 105.368,384.603 100.783,374.074 98.691 C 355.301 94.962,340.406 95.333,301.684 100.498 C 258.732 106.227,249.060 106.061,204.882 98.833 C 180.228 94.799,161.389 93.147,151.347 94.137 M327.020 131.209 C 327.344 131.293,327.875 131.293,328.199 131.209 C 328.523 131.124,328.258 131.055,327.609 131.055 C 326.961 131.055,326.696 131.124,327.020 131.209 M331.061 131.209 C 331.385 131.293,331.915 131.293,332.239 131.209 C 332.563 131.124,332.298 131.055,331.650 131.055 C 331.002 131.055,330.737 131.124,331.061 131.209 M359.933 142.929 C 360.561 143.577,361.151 144.108,361.243 144.108 C 361.336 144.108,360.898 143.577,360.269 142.929 C 359.641 142.281,359.051 141.751,358.959 141.751 C 358.866 141.751,359.304 142.281,359.933 142.929 M127.928 143.350 L 126.768 144.613 128.030 143.452 C 129.206 142.372,129.448 142.088,129.191 142.088 C 129.134 142.088,128.566 142.656,127.928 143.350 M10.429 161.700 C 10.071 162.487,9.786 163.434,9.794 163.805 C 9.803 164.175,10.000 163.872,10.233 163.131 C 10.466 162.391,10.840 161.444,11.064 161.027 C 11.288 160.610,11.383 160.269,11.275 160.269 C 11.167 160.269,10.786 160.913,10.429 161.700 M9.506 165.657 C 9.506 166.305,9.575 166.570,9.660 166.246 C 9.744 165.922,9.744 165.391,9.660 165.067 C 9.575 164.743,9.506 165.008,9.506 165.657 M111.526 181.145 C 111.526 181.793,111.595 182.058,111.680 181.734 C 111.765 181.410,111.765 180.880,111.680 180.556 C 111.595 180.231,111.526 180.497,111.526 181.145 M111.533 189.057 C 111.536 189.798,111.605 190.061,111.686 189.643 C 111.766 189.224,111.763 188.618,111.679 188.296 C 111.595 187.974,111.529 188.316,111.533 189.057 M376.207 193.266 C 376.207 194.655,376.267 195.223,376.340 194.529 C 376.412 193.834,376.412 192.698,376.340 192.003 C 376.267 191.309,376.207 191.877,376.207 193.266 M243.205 218.266 C 243.321 222.201,243.584 226.785,243.789 228.451 C 243.997 230.140,244.067 232.973,243.949 234.852 C 243.816 236.973,243.944 240.655,244.296 244.784 C 244.863 251.442,244.830 255.598,244.128 265.657 C 243.954 268.157,243.643 272.702,243.437 275.758 C 242.794 285.280,242.239 288.052,239.260 296.609 C 237.547 301.531,236.179 304.060,233.796 306.710 C 230.741 310.108,235.837 312.746,243.661 311.817 C 245.666 311.579,248.822 311.255,250.673 311.099 C 262.424 310.104,271.435 307.027,272.442 303.666 C 273.119 301.404,272.346 287.654,271.392 285.017 C 270.991 283.906,270.378 281.406,270.032 279.461 C 269.685 277.517,268.955 274.623,268.410 273.031 C 267.864 271.439,267.308 269.340,267.174 268.368 C 266.915 266.487,262.738 253.718,261.826 252.020 C 261.527 251.465,261.193 250.480,261.083 249.832 C 260.973 249.184,260.374 246.987,259.751 244.949 C 259.129 242.912,258.377 240.261,258.081 239.057 C 257.079 234.990,255.132 229.135,254.194 227.369 C 253.682 226.404,252.773 224.131,252.174 222.319 C 251.024 218.835,249.074 215.129,247.759 213.924 C 246.779 213.027,243.753 211.111,243.316 211.111 C 243.113 211.111,243.071 213.770,243.205 218.266 M210.774 240.572 C 209.957 241.406,209.363 242.088,209.456 242.088 C 209.548 242.088,210.293 241.406,211.111 240.572 C 211.929 239.739,212.522 239.057,212.430 239.057 C 212.337 239.057,211.592 239.739,210.774 240.572 M180.051 253.106 C 180.652 253.180,181.637 253.180,182.239 253.106 C 182.841 253.031,182.348 252.970,181.145 252.970 C 179.941 252.970,179.449 253.031,180.051 253.106 M399.427 263.300 C 399.427 264.318,399.491 264.735,399.568 264.226 C 399.645 263.716,399.645 262.883,399.568 262.374 C 399.491 261.864,399.427 262.281,399.427 263.300 M6.157 307.239 C 6.159 308.165,6.225 308.504,6.302 307.992 C 6.380 307.480,6.378 306.723,6.298 306.309 C 6.218 305.894,6.154 306.313,6.157 307.239 M6.408 309.505 C 6.397 310.120,7.419 312.895,7.593 312.721 C 7.649 312.665,7.408 311.787,7.057 310.771 C 6.706 309.754,6.414 309.185,6.408 309.505 M7.504 314.646 C 7.506 315.572,7.572 315.911,7.649 315.399 C 7.726 314.888,7.724 314.130,7.644 313.716 C 7.565 313.302,7.501 313.721,7.504 314.646 M7.751 316.878 C 7.743 317.475,9.385 321.932,9.410 321.380 C 9.418 321.195,9.050 319.983,8.591 318.687 C 8.133 317.391,7.755 316.577,7.751 316.878 M9.513 323.064 C 9.516 323.805,9.585 324.068,9.666 323.649 C 9.746 323.230,9.743 322.624,9.659 322.302 C 9.575 321.981,9.509 322.323,9.513 323.064 M9.771 324.960 C 9.767 325.262,10.165 326.550,10.655 327.822 C 11.145 329.094,11.668 330.665,11.818 331.313 L 12.090 332.492 11.981 331.313 C 11.862 330.037,9.782 324.056,9.771 324.960 M12.178 333.165 C 12.173 333.535,12.299 334.141,12.458 334.512 C 12.827 335.370,12.827 334.485,12.458 333.333 C 12.241 332.657,12.186 332.624,12.178 333.165 M12.817 335.729 C 12.793 336.320,15.337 343.278,15.879 344.105 C 16.294 344.738,16.142 344.264,14.742 340.572 C 14.181 339.091,13.523 337.273,13.280 336.532 C 13.038 335.791,12.830 335.430,12.817 335.729 M17.250 348.822 C 17.250 349.470,17.319 349.735,17.404 349.411 C 17.489 349.087,17.489 348.556,17.404 348.232 C 17.319 347.908,17.250 348.173,17.250 348.822 M17.515 350.560 C 17.506 351.347,19.513 356.516,19.928 356.772 C 20.115 356.889,20.082 356.633,19.853 356.205 C 19.623 355.777,19.005 354.206,18.479 352.713 C 17.952 351.221,17.519 350.252,17.515 350.560 M20.202 357.368 C 20.202 357.729,21.204 359.596,21.398 359.596 C 21.490 359.596,21.316 359.104,21.010 358.502 C 20.385 357.273,20.202 357.016,20.202 357.368 M21.693 360.438 C 22.925 363.743,23.314 364.657,23.553 364.805 C 23.851 364.989,21.993 360.248,21.649 359.946 C 21.535 359.846,21.554 360.067,21.693 360.438 M24.612 366.478 C 25.001 367.137,25.384 367.677,25.463 367.677 C 25.702 367.677,24.609 365.715,24.244 365.489 C 24.057 365.374,24.223 365.819,24.612 366.478 M25.589 368.142 C 25.589 368.504,26.591 370.370,26.785 370.370 C 26.878 370.370,26.703 369.878,26.397 369.276 C 25.772 368.047,25.589 367.791,25.589 368.142 M27.642 371.865 C 28.031 372.525,28.414 373.064,28.493 373.064 C 28.732 373.064,27.639 371.102,27.275 370.877 C 27.088 370.761,27.253 371.206,27.642 371.865 M29.334 374.394 C 29.738 374.941,30.311 375.481,30.607 375.594 C 30.903 375.706,30.623 375.259,29.984 374.600 C 28.572 373.140,28.357 373.072,29.334 374.394 M31.691 377.088 C 32.095 377.635,32.668 378.174,32.964 378.287 C 33.260 378.400,32.980 377.953,32.341 377.293 C 30.929 375.834,30.714 375.766,31.691 377.088 M34.048 379.782 C 34.452 380.328,35.025 380.868,35.321 380.981 C 35.616 381.094,35.336 380.646,34.698 379.987 C 33.286 378.528,33.070 378.460,34.048 379.782 M36.405 382.475 C 36.809 383.022,37.382 383.561,37.677 383.674 C 37.973 383.787,37.693 383.340,37.055 382.681 C 35.643 381.221,35.427 381.153,36.405 382.475 M38.559 384.848 C 38.926 385.310,39.529 386.002,39.899 386.385 C 40.269 386.767,40.764 387.374,40.998 387.732 C 41.232 388.091,41.207 387.929,40.943 387.374 C 40.678 386.818,39.884 385.833,39.177 385.185 C 38.399 384.471,38.156 384.338,38.559 384.848 M41.414 388.681 C 41.414 389.042,42.416 390.909,42.610 390.909 C 42.702 390.909,42.528 390.417,42.222 389.815 C 41.597 388.586,41.414 388.330,41.414 388.681 M43.580 392.340 C 44.100 393.035,44.587 393.603,44.665 393.603 C 44.962 393.603,44.134 392.385,43.403 391.747 C 42.775 391.199,42.807 391.306,43.580 392.340 M45.601 395.034 C 46.120 395.728,46.608 396.296,46.685 396.296 C 46.982 396.296,46.154 395.079,45.424 394.441 C 44.796 393.892,44.828 394.000,45.601 395.034 M47.516 397.627 C 47.920 398.173,48.493 398.713,48.789 398.826 C 49.084 398.939,48.804 398.492,48.166 397.832 C 46.754 396.373,46.538 396.305,47.516 397.627 M49.675 399.962 C 50.970 401.535,53.954 404.487,53.604 403.848 C 53.408 403.491,52.295 402.290,51.130 401.178 C 49.966 400.067,49.311 399.520,49.675 399.962 M54.692 405.808 C 55.211 406.503,55.699 407.071,55.776 407.071 C 56.073 407.071,55.245 405.853,54.514 405.215 C 53.886 404.667,53.918 404.774,54.692 405.808 M56.607 408.401 C 57.011 408.948,57.584 409.487,57.879 409.600 C 58.175 409.713,57.895 409.266,57.257 408.607 C 55.845 407.147,55.629 407.079,56.607 408.401 M58.976 411.111 C 59.387 411.667,59.874 412.121,60.059 412.121 C 60.244 412.121,59.960 411.667,59.428 411.111 C 58.895 410.556,58.408 410.101,58.344 410.101 C 58.281 410.101,58.565 410.556,58.976 411.111 M328.605 578.003 C 327.739 578.911,327.504 579.275,328.050 578.865 C 328.920 578.212,330.514 576.431,330.229 576.431 C 330.162 576.431,329.431 577.138,328.605 578.003 M325.571 580.689 L 324.411 581.917 325.489 581.143 C 326.082 580.717,326.645 580.165,326.741 579.915 C 327.000 579.239,326.844 579.342,325.571 580.689 M322.877 583.046 L 321.717 584.274 322.795 583.500 C 323.388 583.074,323.951 582.522,324.047 582.272 C 324.307 581.596,324.150 581.699,322.877 583.046 M238.889 604.377 C 239.259 604.536,239.865 604.662,240.236 604.657 C 240.777 604.649,240.744 604.594,240.067 604.377 C 238.916 604.008,238.031 604.008,238.889 604.377 M241.671 604.952 C 242.089 605.032,242.695 605.029,243.017 604.945 C 243.339 604.861,242.997 604.795,242.256 604.799 C 241.515 604.802,241.252 604.871,241.671 604.952 M244.364 605.289 C 244.783 605.369,245.389 605.366,245.711 605.282 C 246.033 605.198,245.690 605.132,244.949 605.135 C 244.209 605.139,243.945 605.208,244.364 605.289 M246.970 605.724 C 247.340 605.883,247.946 606.009,248.316 606.003 C 248.858 605.995,248.825 605.941,248.148 605.724 C 246.997 605.355,246.112 605.355,246.970 605.724 M277.361 605.625 C 277.780 605.706,278.386 605.703,278.708 605.619 C 279.030 605.534,278.687 605.468,277.946 605.472 C 277.205 605.476,276.942 605.545,277.361 605.625 M274.667 605.962 C 275.086 606.043,275.692 606.040,276.014 605.955 C 276.336 605.871,275.993 605.805,275.253 605.809 C 274.512 605.813,274.248 605.882,274.667 605.962 " stroke="none" fill="#e4dc6c" fill-rule="evenodd"></path><path id="path4" d="M166.575 41.320 C 167.173 41.395,168.233 41.396,168.932 41.323 C 169.630 41.250,169.141 41.189,167.845 41.188 C 166.549 41.186,165.977 41.246,166.575 41.320 M184.432 41.316 C 184.850 41.396,185.456 41.393,185.778 41.309 C 186.100 41.225,185.758 41.159,185.017 41.162 C 184.276 41.166,184.013 41.235,184.432 41.316 M189.983 41.326 C 191.048 41.393,192.790 41.393,193.855 41.326 C 194.920 41.259,194.049 41.205,191.919 41.205 C 189.790 41.205,188.918 41.259,189.983 41.326 M200.582 41.657 C 201.179 41.732,202.240 41.733,202.939 41.660 C 203.637 41.587,203.148 41.526,201.852 41.525 C 200.556 41.523,199.984 41.583,200.582 41.657 M209.018 41.999 C 209.996 42.068,211.512 42.067,212.385 41.998 C 213.258 41.929,212.458 41.873,210.606 41.874 C 208.754 41.875,208.040 41.931,209.018 41.999 M149.751 42.326 C 150.170 42.406,150.776 42.403,151.098 42.319 C 151.420 42.235,151.077 42.169,150.337 42.172 C 149.596 42.176,149.333 42.245,149.751 42.326 M219.458 42.337 C 220.622 42.403,222.440 42.403,223.498 42.336 C 224.556 42.269,223.603 42.215,221.380 42.216 C 219.158 42.217,218.293 42.271,219.458 42.337 M162.710 42.670 C 163.405 42.742,164.541 42.742,165.236 42.670 C 165.930 42.597,165.362 42.537,163.973 42.537 C 162.584 42.537,162.016 42.597,162.710 42.670 M185.606 42.674 C 186.856 42.739,188.902 42.739,190.152 42.674 C 191.402 42.609,190.379 42.556,187.879 42.556 C 185.379 42.556,184.356 42.609,185.606 42.674 M236.116 42.666 C 236.628 42.743,237.385 42.741,237.799 42.661 C 238.213 42.581,237.795 42.518,236.869 42.521 C 235.943 42.523,235.604 42.588,236.116 42.666 M243.687 42.675 C 245.400 42.736,248.203 42.736,249.916 42.675 C 251.629 42.614,250.227 42.564,246.801 42.564 C 243.375 42.564,241.974 42.614,243.687 42.675 M199.916 43.007 C 200.703 43.078,201.991 43.078,202.778 43.007 C 203.565 42.937,202.921 42.879,201.347 42.879 C 199.773 42.879,199.129 42.937,199.916 43.007 M258.670 43.011 C 260.105 43.074,262.454 43.074,263.889 43.011 C 265.324 42.948,264.150 42.896,261.279 42.896 C 258.409 42.896,257.235 42.948,258.670 43.011 M210.185 43.343 C 210.880 43.416,212.016 43.416,212.710 43.343 C 213.405 43.270,212.837 43.211,211.448 43.211 C 210.059 43.211,209.491 43.270,210.185 43.343 M270.791 43.345 C 271.671 43.414,273.110 43.414,273.990 43.345 C 274.870 43.276,274.150 43.219,272.391 43.219 C 270.631 43.219,269.912 43.276,270.791 43.345 M219.276 43.680 C 219.971 43.752,221.107 43.752,221.801 43.680 C 222.496 43.607,221.928 43.548,220.539 43.548 C 219.150 43.548,218.582 43.607,219.276 43.680 M228.881 44.018 C 229.673 44.089,230.885 44.088,231.575 44.016 C 232.264 43.943,231.616 43.885,230.135 43.886 C 228.653 43.888,228.089 43.947,228.881 44.018 M239.646 44.356 C 240.619 44.424,242.210 44.424,243.182 44.356 C 244.154 44.288,243.359 44.232,241.414 44.232 C 239.470 44.232,238.674 44.288,239.646 44.356 M257.155 44.696 C 259.053 44.756,262.159 44.756,264.057 44.696 C 265.955 44.636,264.402 44.586,260.606 44.586 C 256.810 44.586,255.257 44.636,257.155 44.696 M128.199 48.004 C 126.893 48.712,127.041 48.957,128.367 48.282 C 129.636 47.637,129.861 47.470,129.433 47.488 C 129.263 47.496,128.708 47.728,128.199 48.004 M112.346 54.770 C 111.798 55.317,112.140 56.228,112.879 56.190 C 113.496 56.158,113.521 56.121,113.016 55.991 C 112.599 55.883,112.451 55.620,112.564 55.188 C 112.744 54.499,112.700 54.416,112.346 54.770 M171.128 62.531 C 171.637 62.608,172.471 62.608,172.980 62.531 C 173.489 62.454,173.072 62.390,172.054 62.390 C 171.035 62.390,170.619 62.454,171.128 62.531 M158.508 62.870 C 159.113 62.945,160.022 62.944,160.528 62.867 C 161.034 62.790,160.539 62.729,159.428 62.731 C 158.316 62.732,157.903 62.795,158.508 62.870 M180.892 63.204 C 181.402 63.281,182.235 63.281,182.744 63.204 C 183.253 63.127,182.837 63.064,181.818 63.064 C 180.800 63.064,180.383 63.127,180.892 63.204 M187.125 63.538 C 187.544 63.618,188.150 63.615,188.472 63.531 C 188.794 63.447,188.451 63.381,187.710 63.385 C 186.970 63.388,186.706 63.457,187.125 63.538 M167.071 63.887 C 168.682 63.948,171.409 63.949,173.131 63.887 C 174.853 63.826,173.535 63.776,170.202 63.775 C 166.869 63.775,165.460 63.825,167.071 63.887 M158.844 64.217 C 159.450 64.292,160.359 64.290,160.865 64.214 C 161.371 64.137,160.875 64.076,159.764 64.077 C 158.653 64.079,158.239 64.142,158.844 64.217 M179.213 64.215 C 179.725 64.292,180.483 64.290,180.897 64.210 C 181.311 64.130,180.892 64.067,179.966 64.069 C 179.040 64.072,178.702 64.137,179.213 64.215 M155.640 64.542 C 155.964 64.627,156.494 64.627,156.818 64.542 C 157.142 64.457,156.877 64.388,156.229 64.388 C 155.581 64.388,155.316 64.457,155.640 64.542 M184.768 64.548 C 185.187 64.628,185.793 64.625,186.115 64.541 C 186.437 64.457,186.094 64.391,185.354 64.395 C 184.613 64.398,184.349 64.467,184.768 64.548 M317.727 64.904 C 317.853 65.388,317.722 65.643,317.287 65.755 C 316.714 65.903,316.713 65.918,317.266 65.954 C 317.988 66.001,318.416 65.083,317.909 64.575 C 317.650 64.316,317.598 64.410,317.727 64.904 M308.337 64.885 C 308.756 64.965,309.362 64.962,309.684 64.878 C 310.006 64.794,309.663 64.728,308.923 64.731 C 308.182 64.735,307.918 64.804,308.337 64.885 M192.512 65.221 C 192.931 65.302,193.537 65.299,193.859 65.215 C 194.181 65.130,193.838 65.064,193.098 65.068 C 192.357 65.072,192.094 65.141,192.512 65.221 M311.195 65.215 C 311.519 65.300,312.050 65.300,312.374 65.215 C 312.698 65.131,312.433 65.061,311.785 65.061 C 311.136 65.061,310.871 65.131,311.195 65.215 M297.559 65.557 C 297.976 65.638,298.657 65.638,299.074 65.557 C 299.491 65.477,299.150 65.412,298.316 65.412 C 297.483 65.412,297.142 65.477,297.559 65.557 M205.808 65.898 C 206.317 65.975,207.151 65.975,207.660 65.898 C 208.169 65.821,207.753 65.757,206.734 65.757 C 205.715 65.757,205.299 65.821,205.808 65.898 M201.267 66.231 C 201.685 66.312,202.291 66.309,202.613 66.225 C 202.935 66.140,202.593 66.074,201.852 66.078 C 201.111 66.082,200.848 66.151,201.267 66.231 M287.626 66.562 C 287.950 66.647,288.481 66.647,288.805 66.562 C 289.129 66.477,288.864 66.408,288.215 66.408 C 287.567 66.408,287.302 66.477,287.626 66.562 M306.313 66.568 C 306.730 66.648,307.412 66.648,307.828 66.568 C 308.245 66.487,307.904 66.422,307.071 66.422 C 306.237 66.422,305.896 66.487,306.313 66.568 M310.859 66.562 C 311.183 66.647,311.713 66.647,312.037 66.562 C 312.361 66.477,312.096 66.408,311.448 66.408 C 310.800 66.408,310.535 66.477,310.859 66.562 M296.889 66.905 C 297.308 66.985,297.914 66.982,298.236 66.898 C 298.558 66.814,298.215 66.748,297.475 66.752 C 296.734 66.755,296.471 66.824,296.889 66.905 M313.724 66.905 C 314.143 66.985,314.749 66.982,315.071 66.898 C 315.393 66.814,315.051 66.748,314.310 66.752 C 313.569 66.755,313.306 66.824,313.724 66.905 M286.279 67.909 C 286.604 67.994,287.134 67.994,287.458 67.909 C 287.782 67.824,287.517 67.755,286.869 67.755 C 286.221 67.755,285.955 67.824,286.279 67.909 M236.448 69.256 C 236.772 69.340,237.302 69.340,237.626 69.256 C 237.950 69.171,237.685 69.102,237.037 69.102 C 236.389 69.102,236.124 69.171,236.448 69.256 M243.687 69.598 C 244.104 69.678,244.785 69.678,245.202 69.598 C 245.619 69.518,245.278 69.452,244.444 69.452 C 243.611 69.452,243.270 69.518,243.687 69.598 M251.279 69.611 C 252.909 69.673,255.484 69.673,257.003 69.611 C 258.522 69.548,257.189 69.498,254.040 69.498 C 250.892 69.498,249.650 69.549,251.279 69.611 M262.535 69.603 C 263.132 69.678,264.193 69.679,264.891 69.606 C 265.590 69.533,265.101 69.472,263.805 69.471 C 262.508 69.469,261.937 69.529,262.535 69.603 M132.660 70.202 C 132.197 70.467,131.970 70.683,132.155 70.683 C 132.340 70.683,132.870 70.467,133.333 70.202 C 133.796 69.937,134.024 69.721,133.838 69.721 C 133.653 69.721,133.123 69.937,132.660 70.202 M269.108 70.266 C 269.432 70.350,269.962 70.350,270.286 70.266 C 270.610 70.181,270.345 70.112,269.697 70.112 C 269.049 70.112,268.784 70.181,269.108 70.266 M239.646 70.617 C 240.434 70.688,241.721 70.688,242.508 70.617 C 243.295 70.546,242.652 70.488,241.077 70.488 C 239.503 70.488,238.859 70.546,239.646 70.617 M248.586 70.958 C 250.215 71.020,252.791 71.020,254.309 70.957 C 255.828 70.895,254.495 70.844,251.347 70.845 C 248.199 70.845,246.956 70.896,248.586 70.958 M257.997 70.939 C 258.321 71.024,258.851 71.024,259.175 70.939 C 259.499 70.854,259.234 70.785,258.586 70.785 C 257.938 70.785,257.673 70.854,257.997 70.939 M129.461 71.561 C 128.619 71.966,128.591 72.013,129.293 71.841 C 130.247 71.608,131.319 71.062,130.808 71.069 C 130.623 71.072,130.017 71.293,129.461 71.561 M87.094 83.503 C 87.310 83.782,87.551 84.539,87.629 85.187 L 87.771 86.364 87.825 85.142 C 87.861 84.331,87.681 83.766,87.290 83.459 C 86.776 83.056,86.751 83.062,87.094 83.503 M74.488 86.589 C 74.260 86.817,74.079 87.162,74.084 87.357 C 74.090 87.551,74.249 87.445,74.438 87.121 C 74.626 86.797,74.990 86.532,75.245 86.532 C 75.500 86.532,75.786 86.797,75.882 87.121 C 76.018 87.584,76.041 87.566,75.987 87.041 C 75.906 86.251,75.076 86.002,74.488 86.589 M86.473 90.925 C 86.162 91.657,85.969 92.256,86.043 92.256 C 86.290 92.256,87.248 90.195,87.142 89.892 C 87.084 89.728,86.783 90.192,86.473 90.925 M82.546 95.469 C 81.982 96.707,82.090 96.971,82.700 95.846 C 82.985 95.320,83.155 94.827,83.078 94.750 C 83.001 94.673,82.762 94.997,82.546 95.469 M70.594 103.107 C 70.293 103.898,69.961 105.076,69.857 105.724 C 69.753 106.372,70.046 105.772,70.510 104.391 C 71.423 101.669,71.482 100.772,70.594 103.107 M182.080 113.042 C 182.872 113.113,184.084 113.112,184.773 113.039 C 185.463 112.967,184.815 112.909,183.333 112.910 C 181.852 112.911,181.288 112.970,182.080 113.042 M183.758 114.716 C 184.177 114.797,184.783 114.794,185.105 114.709 C 185.427 114.625,185.084 114.559,184.343 114.563 C 183.603 114.567,183.339 114.636,183.758 114.716 M178.872 115.056 C 179.381 115.133,180.215 115.133,180.724 115.056 C 181.233 114.979,180.816 114.916,179.798 114.916 C 178.779 114.916,178.363 114.979,178.872 115.056 M191.009 115.065 C 192.452 115.129,194.725 115.128,196.059 115.065 C 197.393 115.001,196.212 114.949,193.434 114.949 C 190.657 114.950,189.565 115.002,191.009 115.065 M172.727 115.492 C 172.070 115.633,172.890 115.667,174.579 115.570 C 176.246 115.473,177.673 115.340,177.750 115.273 C 178.001 115.056,173.939 115.233,172.727 115.492 M200.589 115.389 C 201.006 115.469,201.688 115.469,202.104 115.389 C 202.521 115.309,202.180 115.243,201.347 115.243 C 200.513 115.243,200.173 115.309,200.589 115.389 M204.125 115.729 C 204.634 115.807,205.467 115.807,205.976 115.729 C 206.486 115.652,206.069 115.589,205.051 115.589 C 204.032 115.589,203.615 115.652,204.125 115.729 M169.276 116.063 C 169.693 116.143,170.375 116.143,170.791 116.063 C 171.208 115.982,170.867 115.917,170.034 115.917 C 169.200 115.917,168.859 115.982,169.276 116.063 M210.438 116.321 C 212.012 116.588,213.830 116.792,214.478 116.773 C 215.890 116.734,213.772 116.396,209.933 116.049 L 207.576 115.837 210.438 116.321 M355.315 116.074 C 356.387 116.141,358.054 116.140,359.019 116.073 C 359.984 116.005,359.108 115.950,357.071 115.951 C 355.034 115.952,354.244 116.007,355.315 116.074 M341.835 116.412 C 343.455 116.474,346.107 116.474,347.727 116.412 C 349.348 116.351,348.022 116.300,344.781 116.300 C 341.540 116.300,340.215 116.351,341.835 116.412 M161.279 116.835 C 159.911 117.048,159.879 117.073,160.943 117.092 C 161.591 117.103,162.879 116.995,163.805 116.851 C 165.397 116.602,165.415 116.589,164.141 116.594 C 163.401 116.597,162.113 116.705,161.279 116.835 M335.438 116.739 C 335.947 116.817,336.780 116.817,337.290 116.739 C 337.799 116.662,337.382 116.599,336.364 116.599 C 335.345 116.599,334.928 116.662,335.438 116.739 M365.993 117.016 C 369.185 117.674,375.084 117.666,375.084 117.003 C 375.084 116.573,374.248 116.503,369.444 116.531 C 363.828 116.564,363.814 116.566,365.993 117.016 M216.414 117.073 C 216.831 117.153,217.513 117.153,217.929 117.073 C 218.346 116.992,218.005 116.927,217.172 116.927 C 216.338 116.927,215.997 116.992,216.414 117.073 M156.149 117.747 C 156.568 117.827,157.174 117.824,157.496 117.740 C 157.817 117.655,157.475 117.590,156.734 117.593 C 155.993 117.597,155.730 117.666,156.149 117.747 M222.054 118.037 C 222.980 118.295,223.889 118.493,224.074 118.477 C 224.644 118.428,221.761 117.560,221.044 117.564 C 220.673 117.567,221.128 117.779,222.054 118.037 M74.621 118.700 C 74.505 119.001,74.429 119.803,74.450 120.482 C 74.487 121.619,74.512 121.584,74.770 120.044 C 75.057 118.325,74.992 117.733,74.621 118.700 M229.689 119.852 C 230.000 120.048,230.985 120.279,231.878 120.365 L 233.502 120.522 232.036 120.205 C 231.229 120.031,230.245 119.800,229.847 119.692 C 229.235 119.527,229.211 119.551,229.689 119.852 M308.923 120.716 C 307.161 121.297,308.054 121.303,310.606 120.727 C 312.202 120.367,312.379 120.271,311.448 120.272 C 310.800 120.272,309.663 120.472,308.923 120.716 M233.698 120.664 C 233.775 120.733,234.596 120.877,235.522 120.984 C 236.657 121.115,236.931 121.085,236.364 120.892 C 235.522 120.606,233.433 120.427,233.698 120.664 M291.246 122.391 L 288.721 122.808 290.572 122.826 C 291.591 122.836,293.030 122.644,293.771 122.400 C 295.444 121.849,294.541 121.845,291.246 122.391 M301.010 122.727 C 299.436 123.155,298.375 123.515,298.653 123.529 C 298.931 123.542,300.522 123.191,302.189 122.749 C 303.855 122.308,304.916 121.947,304.545 121.948 C 304.175 121.949,302.584 122.300,301.010 122.727 M72.840 125.926 C 72.840 127.315,72.900 127.883,72.973 127.189 C 73.045 126.494,73.045 125.358,72.973 124.663 C 72.900 123.969,72.840 124.537,72.840 125.926 M123.401 124.065 C 122.660 124.309,122.357 124.513,122.727 124.518 C 123.098 124.524,123.931 124.324,124.579 124.074 C 126.096 123.490,125.167 123.483,123.401 124.065 M269.619 124.150 C 270.224 124.225,271.133 124.223,271.639 124.146 C 272.145 124.069,271.650 124.008,270.539 124.010 C 269.428 124.012,269.014 124.075,269.619 124.150 M252.609 124.811 C 252.934 124.896,253.464 124.896,253.788 124.811 C 254.112 124.727,253.847 124.657,253.199 124.657 C 252.551 124.657,252.285 124.727,252.609 124.811 M292.512 124.817 C 292.931 124.898,293.537 124.895,293.859 124.810 C 294.181 124.726,293.838 124.660,293.098 124.664 C 292.357 124.668,292.094 124.737,292.512 124.817 M258.586 125.909 C 259.427 126.195,261.517 126.374,261.251 126.137 C 261.174 126.069,260.354 125.925,259.428 125.818 C 258.292 125.687,258.018 125.716,258.586 125.909 M282.077 126.170 C 282.682 126.245,283.591 126.243,284.097 126.167 C 284.603 126.090,284.108 126.028,282.997 126.030 C 281.886 126.032,281.472 126.095,282.077 126.170 M262.542 126.506 C 263.144 126.581,264.129 126.581,264.731 126.506 C 265.332 126.432,264.840 126.370,263.636 126.370 C 262.433 126.370,261.940 126.432,262.542 126.506 M271.801 126.495 C 272.125 126.579,272.656 126.579,272.980 126.495 C 273.304 126.410,273.039 126.341,272.391 126.341 C 271.742 126.341,271.477 126.410,271.801 126.495 M162.879 126.843 C 163.481 126.918,164.465 126.918,165.067 126.843 C 165.669 126.768,165.177 126.707,163.973 126.707 C 162.769 126.707,162.277 126.768,162.879 126.843 M267.265 126.846 C 268.057 126.917,269.269 126.916,269.958 126.844 C 270.648 126.772,270.000 126.714,268.519 126.715 C 267.037 126.716,266.473 126.775,267.265 126.846 M74.496 130.471 C 74.499 131.212,74.568 131.476,74.649 131.057 C 74.729 130.638,74.726 130.032,74.642 129.710 C 74.558 129.388,74.492 129.731,74.496 130.471 M74.892 134.044 C 75.008 135.682,76.961 141.333,77.296 140.998 C 77.358 140.936,77.026 139.829,76.557 138.540 C 76.089 137.250,75.492 135.286,75.232 134.175 L 74.759 132.155 74.892 134.044 M53.020 135.774 L 51.010 137.879 53.114 135.869 C 55.069 134.002,55.373 133.670,55.124 133.670 C 55.072 133.670,54.125 134.617,53.020 135.774 M48.990 140.694 C 48.434 141.037,47.677 141.671,47.306 142.102 C 46.806 142.685,47.051 142.591,48.260 141.737 C 50.457 140.184,50.946 139.485,48.990 140.694 M59.761 146.470 C 59.645 146.658,59.405 146.723,59.228 146.614 C 58.572 146.209,48.148 150.342,48.148 151.007 C 48.148 151.123,48.300 151.125,48.485 151.010 C 49.380 150.457,48.672 151.558,47.588 152.404 C 44.997 154.426,44.694 154.856,46.801 153.521 C 54.166 148.853,61.972 146.603,66.330 147.892 C 66.855 148.048,66.770 147.956,66.105 147.650 C 65.323 147.290,60.702 146.131,60.037 146.128 C 60.001 146.128,59.877 146.282,59.761 146.470 M70.835 152.175 C 71.408 153.267,71.927 154.111,71.988 154.050 C 72.147 153.891,70.442 150.589,70.088 150.370 C 69.926 150.270,70.262 151.082,70.835 152.175 M83.062 151.204 C 83.396 151.774,83.885 152.418,84.148 152.635 C 84.411 152.853,84.202 152.386,83.683 151.599 C 82.593 149.947,82.163 149.673,83.062 151.204 M29.523 151.330 C 28.302 151.765,26.797 152.835,27.050 153.088 C 27.115 153.153,28.290 152.684,29.662 152.046 C 32.118 150.903,32.028 150.436,29.523 151.330 M281.818 153.704 C 280.439 155.093,279.386 156.229,279.478 156.229 C 279.571 156.229,280.775 155.093,282.155 153.704 C 283.535 152.315,284.588 151.178,284.495 151.178 C 284.402 151.178,283.198 152.315,281.818 153.704 M25.961 152.160 C 25.413 152.507,25.703 153.548,26.336 153.509 C 26.671 153.488,26.674 153.444,26.349 153.313 C 26.045 153.190,26.026 152.968,26.277 152.498 C 26.665 151.773,26.631 151.736,25.961 152.160 M38.552 157.768 C 33.306 162.012,32.506 162.778,32.807 163.265 C 33.183 163.873,33.566 163.708,35.266 162.205 C 36.156 161.418,38.282 159.736,39.991 158.468 C 41.700 157.199,43.098 156.082,43.098 155.986 C 43.098 155.889,42.867 156.001,42.584 156.236 C 41.723 156.951,41.585 156.282,42.374 155.215 C 42.783 154.661,43.075 154.213,43.024 154.218 C 42.972 154.223,40.960 155.821,38.552 157.768 M74.131 160.623 C 74.327 161.188,74.551 161.588,74.627 161.512 C 74.794 161.345,74.159 159.596,73.932 159.596 C 73.844 159.596,73.934 160.058,74.131 160.623 M351.906 181.835 C 351.876 182.492,351.664 183.250,351.433 183.519 C 351.198 183.793,351.283 183.769,351.627 183.465 C 352.060 183.081,352.198 182.589,352.099 181.781 L 351.960 180.640 351.906 181.835 M376.195 189.226 C 376.195 190.244,376.258 190.661,376.335 190.152 C 376.413 189.642,376.413 188.809,376.335 188.300 C 376.258 187.790,376.195 188.207,376.195 189.226 M111.526 191.246 C 111.526 191.894,111.595 192.159,111.680 191.835 C 111.765 191.511,111.765 190.981,111.680 190.657 C 111.595 190.332,111.526 190.598,111.526 191.246 M376.172 198.990 C 376.172 199.638,376.242 199.903,376.326 199.579 C 376.411 199.255,376.411 198.725,376.326 198.401 C 376.242 198.077,376.172 198.342,376.172 198.990 M59.471 203.114 C 59.152 204.308,59.226 206.061,59.596 206.061 C 59.781 206.061,59.933 205.227,59.933 204.209 C 59.933 202.225,59.796 201.902,59.471 203.114 M58.369 217.003 C 58.368 218.670,58.425 219.394,58.495 218.613 C 58.566 217.831,58.567 216.468,58.497 215.583 C 58.427 214.697,58.370 215.337,58.369 217.003 M58.447 229.966 C 59.824 243.750,67.488 259.031,80.831 274.595 C 85.326 279.839,95.134 288.552,96.542 288.552 C 96.746 288.552,96.964 288.666,97.026 288.805 C 97.088 288.944,97.858 289.433,98.737 289.892 C 99.617 290.351,100.337 290.818,100.337 290.929 C 100.337 291.213,109.760 295.740,109.952 295.548 C 110.038 295.461,109.121 294.971,107.914 294.458 C 106.433 293.828,105.394 293.115,104.720 292.264 C 103.747 291.035,100.345 288.875,93.771 285.312 C 87.259 281.783,77.630 270.166,68.688 255.051 C 68.250 254.310,66.862 252.089,65.604 250.116 C 63.125 246.228,62.649 244.953,60.777 237.170 C 60.104 234.373,59.263 231.192,58.908 230.100 L 58.262 228.114 58.447 229.966 M363.121 232.071 L 361.111 234.175 363.215 232.165 C 364.373 231.060,365.320 230.113,365.320 230.061 C 365.320 229.812,364.988 230.116,363.121 232.071 M29.842 233.418 C 29.730 233.834,29.654 235.160,29.673 236.364 C 29.692 237.567,29.782 238.249,29.873 237.879 C 30.096 236.971,30.649 236.330,31.015 236.556 C 31.490 236.850,31.339 233.900,30.844 233.249 C 30.258 232.477,30.086 232.506,29.842 233.418 M284.512 233.089 C 284.512 233.140,285.686 234.314,287.121 235.699 L 289.731 238.215 287.214 235.606 C 284.876 233.182,284.512 232.843,284.512 233.089 M128.114 240.067 C 129.026 240.993,129.848 241.751,129.941 241.751 C 130.034 241.751,129.363 240.993,128.451 240.067 C 127.539 239.141,126.717 238.384,126.625 238.384 C 126.532 238.384,127.202 239.141,128.114 240.067 M43.267 240.402 C 42.980 240.867,42.118 244.251,42.253 244.385 C 42.313 244.446,42.463 244.181,42.585 243.796 C 42.824 243.041,43.749 242.830,43.806 243.519 C 43.852 244.059,44.721 241.437,44.755 240.657 C 44.783 240.018,43.627 239.820,43.267 240.402 M41.292 245.707 C 40.499 247.247,39.675 249.349,40.004 248.990 C 40.387 248.572,42.103 244.781,41.909 244.781 C 41.832 244.781,41.554 245.198,41.292 245.707 M40.747 249.916 C 38.634 253.586,37.338 258.766,37.408 263.260 L 37.443 265.488 37.890 262.208 C 38.472 257.941,39.428 254.305,40.866 250.897 C 42.210 247.711,42.176 247.433,40.747 249.916 M23.287 256.244 C 22.704 257.182,22.384 257.852,22.575 257.734 C 23.043 257.445,24.664 254.855,24.488 254.678 C 24.411 254.601,23.870 255.306,23.287 256.244 M19.158 262.037 C 18.184 263.380,16.929 264.909,16.369 265.435 C 15.809 265.962,15.317 266.619,15.276 266.897 C 15.235 267.175,15.304 267.300,15.429 267.175 C 15.554 267.050,15.657 266.808,15.657 266.639 C 15.657 266.469,15.749 266.368,15.863 266.414 C 16.273 266.581,19.231 263.134,20.178 261.385 C 21.471 258.999,21.269 259.128,19.158 262.037 M6.544 275.168 L 5.556 276.263 6.650 275.274 C 7.252 274.730,7.744 274.237,7.744 274.179 C 7.744 273.919,7.466 274.148,6.544 275.168 M44.292 284.712 C 44.607 285.435,44.940 286.370,45.032 286.790 C 45.123 287.210,45.635 287.864,46.168 288.244 L 47.138 288.935 47.125 287.986 C 47.116 287.322,46.603 286.491,45.415 285.217 L 43.719 283.398 44.292 284.712 M111.111 296.074 C 111.111 296.274,115.152 297.652,115.638 297.618 C 115.833 297.605,115.236 297.324,114.310 296.994 C 111.753 296.084,111.111 295.899,111.111 296.074 M22.222 296.963 C 22.222 297.152,22.584 297.306,23.027 297.306 C 23.469 297.306,25.248 297.674,26.979 298.124 C 28.710 298.574,30.170 298.898,30.223 298.845 C 30.402 298.666,26.440 297.352,25.084 297.141 C 24.343 297.025,23.396 296.861,22.980 296.776 C 22.563 296.690,22.222 296.775,22.222 296.963 M118.182 298.485 C 119.719 299.077,120.324 299.068,119.024 298.473 C 118.468 298.218,117.786 298.015,117.508 298.021 C 117.231 298.026,117.534 298.235,118.182 298.485 M8.381 303.263 C 8.212 304.543,8.459 310.933,8.684 311.084 C 8.843 311.192,9.377 311.961,9.870 312.795 C 11.002 314.704,11.052 313.770,9.958 311.171 C 9.345 309.716,9.118 308.492,9.049 306.277 C 8.975 303.908,8.550 301.990,8.381 303.263 M46.193 308.707 C 53.234 315.452,57.449 322.852,59.260 331.650 C 60.299 336.696,60.361 336.869,61.119 336.869 C 62.719 336.869,60.718 328.152,57.505 321.128 C 56.934 319.878,56.328 318.855,56.159 318.855 C 55.991 318.855,55.946 318.704,56.061 318.519 C 56.175 318.333,56.108 318.182,55.912 318.182 C 55.716 318.182,55.556 317.990,55.556 317.756 C 55.556 317.060,53.316 313.947,51.708 312.409 C 50.885 311.621,50.301 310.832,50.410 310.655 C 50.520 310.478,50.448 310.433,50.251 310.555 C 50.054 310.677,49.008 310.045,47.926 309.151 C 43.356 305.373,42.478 305.148,46.193 308.707 M10.808 315.360 C 10.729 317.053,12.656 326.177,13.017 325.816 C 13.087 325.746,12.901 324.643,12.604 323.366 C 12.306 322.089,11.788 319.604,11.452 317.845 C 11.116 316.086,10.826 314.968,10.808 315.360 M154.854 342.894 C 154.777 342.967,153.982 343.124,153.087 343.244 C 150.621 343.573,144.077 346.210,144.551 346.684 C 144.646 346.778,145.061 346.675,145.473 346.455 C 147.113 345.577,157.447 343.837,158.344 344.287 C 158.570 344.401,158.300 344.104,157.744 343.629 C 156.871 342.882,155.291 342.480,154.854 342.894 M137.492 352.273 C 129.912 360.049,126.100 370.133,127.920 377.600 C 128.099 378.336,128.180 379.003,128.099 379.084 C 128.018 379.165,128.121 379.434,128.327 379.683 C 128.533 379.931,128.621 380.135,128.521 380.135 C 128.002 380.135,130.477 384.255,131.952 385.846 L 133.658 387.686 132.355 385.173 C 128.617 377.966,127.515 367.906,130.070 364.328 C 130.476 363.760,131.863 361.743,133.152 359.846 C 134.440 357.949,136.571 354.958,137.886 353.199 C 141.719 348.071,141.679 347.977,137.492 352.273 M357.576 349.983 C 357.576 350.075,358.030 350.386,358.586 350.673 C 359.141 350.961,359.596 351.120,359.596 351.027 C 359.596 350.935,359.141 350.624,358.586 350.337 C 358.030 350.049,357.576 349.890,357.576 349.983 M27.989 366.582 C 29.320 368.919,32.850 373.944,33.399 374.283 C 33.615 374.417,33.082 373.553,32.215 372.364 C 31.347 371.175,29.859 368.952,28.909 367.424 C 26.927 364.236,26.355 363.713,27.989 366.582 M344.108 391.919 C 344.108 392.319,344.693 392.319,345.623 391.919 C 346.187 391.677,346.119 391.626,345.202 391.606 C 344.600 391.593,344.108 391.734,344.108 391.919 M168.030 396.444 C 167.809 396.711,167.298 396.993,166.895 397.072 C 166.492 397.150,166.775 397.235,167.525 397.261 C 168.789 397.303,169.697 396.872,169.697 396.229 C 169.697 395.772,168.456 395.932,168.030 396.444 M158.838 396.877 C 159.440 396.951,160.425 396.951,161.027 396.877 C 161.629 396.802,161.136 396.741,159.933 396.741 C 158.729 396.741,158.237 396.802,158.838 396.877 M344.574 527.273 C 344.574 529.588,344.628 530.535,344.694 529.377 C 344.759 528.220,344.759 526.326,344.694 525.168 C 344.628 524.011,344.574 524.958,344.574 527.273 M345.888 536.869 C 345.890 537.795,345.955 538.133,346.033 537.622 C 346.110 537.110,346.108 536.352,346.028 535.938 C 345.948 535.524,345.885 535.943,345.888 536.869 M344.199 537.710 C 344.199 538.544,344.265 538.885,344.345 538.468 C 344.426 538.051,344.426 537.370,344.345 536.953 C 344.265 536.536,344.199 536.877,344.199 537.710 " stroke="none" fill="#805224" fill-rule="evenodd"></path></g></svg>