<svg id="svg" version="1.1" xmlns="http://www.w3.org/2000/svg" xmlns:xlink="http://www.w3.org/1999/xlink" width="400" height="418.1818181818182" viewBox="0, 0, 400,418.1818181818182"><g id="svgg"><path id="path0" d="M348.000 45.661 C 342.830 45.808,335.950 46.214,332.711 46.564 C 329.473 46.914,325.092 47.200,322.977 47.200 C 317.731 47.200,303.987 47.939,300.800 48.393 C 299.370 48.597,292.890 48.961,286.400 49.202 C 279.910 49.444,272.016 49.904,268.858 50.226 C 265.700 50.548,257.600 50.989,250.858 51.207 C 244.116 51.424,237.430 51.778,236.000 51.993 C 234.570 52.208,228.270 52.571,222.000 52.800 C 215.730 53.030,208.890 53.470,206.800 53.779 C 204.710 54.089,201.650 54.466,200.000 54.618 C 198.350 54.770,196.332 55.233,195.516 55.647 C 194.700 56.061,193.670 56.400,193.228 56.400 C 192.497 56.400,187.973 58.491,187.003 59.276 C 186.781 59.456,185.700 60.207,184.600 60.946 C 181.170 63.249,174.400 70.467,174.400 71.821 C 174.400 72.139,174.251 72.400,174.068 72.400 C 173.761 72.400,172.477 74.828,170.471 79.200 C 169.595 81.110,168.690 84.411,167.784 89.000 C 167.047 92.736,167.054 103.720,167.796 107.400 C 169.930 117.977,170.862 121.819,172.056 124.953 C 172.465 126.028,172.800 127.251,172.800 127.672 C 172.800 128.092,173.250 129.282,173.800 130.315 C 174.350 131.348,174.801 132.555,174.803 132.997 C 174.804 133.439,175.163 134.340,175.600 135.000 C 176.037 135.660,176.396 136.581,176.397 137.046 C 176.399 137.511,176.760 138.350,177.200 138.909 C 177.640 139.469,178.000 140.059,178.000 140.221 C 178.000 140.603,180.582 145.732,181.816 147.800 C 182.341 148.680,183.124 150.042,183.556 150.827 C 183.988 151.611,184.625 152.489,184.971 152.776 C 185.317 153.063,185.600 153.524,185.600 153.800 C 185.600 154.076,185.889 154.542,186.242 154.835 C 186.595 155.127,187.045 155.735,187.243 156.184 C 187.441 156.633,188.233 157.810,189.002 158.800 C 189.771 159.790,190.621 161.050,190.891 161.600 C 191.161 162.150,191.701 162.891,192.091 163.247 C 192.481 163.603,192.800 164.033,192.800 164.204 C 192.800 164.493,195.602 167.908,197.400 169.809 C 197.840 170.274,198.770 171.362,199.467 172.227 C 200.163 173.092,201.399 174.520,202.213 175.400 C 203.847 177.168,205.112 178.614,208.160 182.200 C 210.522 184.979,215.614 190.140,218.825 193.011 C 223.418 197.117,226.573 199.831,227.878 200.800 C 228.618 201.350,230.730 202.970,232.571 204.400 C 234.412 205.830,236.513 207.360,237.240 207.800 C 237.967 208.240,238.840 208.782,239.181 209.005 C 239.521 209.228,240.340 209.752,241.000 210.171 C 248.018 214.623,249.070 215.248,251.200 216.233 C 251.970 216.589,252.870 217.110,253.200 217.393 C 253.530 217.675,254.250 218.038,254.800 218.200 C 255.350 218.362,256.070 218.712,256.400 218.978 C 256.730 219.244,257.765 219.680,258.700 219.947 C 259.635 220.214,260.400 220.598,260.400 220.801 C 260.400 221.003,261.133 221.366,262.028 221.608 C 262.924 221.849,264.229 222.395,264.928 222.822 C 265.628 223.248,266.595 223.598,267.077 223.599 C 267.560 223.599,268.550 223.939,269.277 224.353 C 270.005 224.768,271.410 225.227,272.400 225.374 C 273.390 225.520,274.560 225.875,275.000 226.163 C 275.440 226.450,277.060 226.900,278.600 227.163 C 280.140 227.426,282.300 227.891,283.400 228.196 C 290.650 230.210,307.241 230.174,313.200 228.132 C 314.190 227.793,315.705 227.347,316.567 227.140 C 317.429 226.934,318.599 226.509,319.167 226.195 C 319.735 225.882,320.830 225.343,321.600 224.998 C 324.523 223.689,328.518 220.989,331.800 218.103 C 333.511 216.599,336.916 212.197,338.222 209.800 C 338.462 209.360,338.860 208.640,339.108 208.200 C 340.489 205.741,341.603 202.974,341.961 201.112 C 342.185 199.950,342.642 197.740,342.977 196.200 C 343.312 194.660,343.589 192.140,343.594 190.600 C 343.598 189.060,343.881 186.450,344.222 184.800 C 344.564 183.150,345.093 178.740,345.397 175.000 C 345.702 171.260,346.231 166.490,346.573 164.400 C 346.915 162.310,347.199 159.340,347.205 157.800 C 347.211 156.260,347.487 153.470,347.817 151.600 C 348.148 149.730,348.671 145.230,348.980 141.600 C 349.289 137.970,349.725 134.190,349.949 133.200 C 350.174 132.210,350.556 128.610,350.799 125.200 C 351.041 121.790,351.499 117.715,351.815 116.144 C 352.130 114.573,352.564 110.613,352.779 107.344 C 352.993 104.075,353.364 100.770,353.602 100.000 C 353.840 99.230,354.191 95.990,354.383 92.800 C 354.575 89.610,355.107 84.570,355.564 81.600 C 356.022 78.630,356.397 74.901,356.398 73.314 C 356.399 71.727,356.759 68.577,357.199 66.314 C 357.638 64.051,357.999 60.850,358.000 59.200 C 358.002 57.550,358.302 54.490,358.666 52.400 C 360.005 44.729,360.900 45.295,348.000 45.661 M341.200 55.168 C 341.200 55.371,340.679 55.651,340.041 55.791 C 339.404 55.931,338.566 56.395,338.179 56.823 C 337.793 57.250,337.248 57.600,336.969 57.600 C 336.690 57.600,335.953 58.025,335.331 58.545 C 334.709 59.065,333.812 59.612,333.337 59.760 C 332.862 59.909,332.379 60.277,332.264 60.578 C 332.149 60.878,331.521 61.242,330.869 61.385 C 330.216 61.528,329.366 61.995,328.979 62.423 C 328.593 62.850,327.955 63.200,327.562 63.200 C 327.169 63.200,326.731 63.387,326.590 63.616 C 326.368 63.976,324.622 65.232,322.443 66.600 C 322.093 66.820,321.296 67.405,320.672 67.900 C 320.049 68.395,319.365 68.800,319.153 68.800 C 318.941 68.800,318.190 69.193,317.484 69.674 C 314.485 71.715,314.031 71.977,313.070 72.218 C 312.514 72.358,311.748 72.816,311.367 73.236 C 310.987 73.656,310.444 74.000,310.161 74.000 C 309.877 74.000,309.410 74.334,309.123 74.743 C 308.835 75.151,308.150 75.622,307.600 75.789 C 307.050 75.955,306.240 76.389,305.800 76.753 C 304.228 78.053,302.485 79.154,301.054 79.752 C 300.254 80.086,299.600 80.548,299.600 80.780 C 299.600 81.011,299.266 81.200,298.858 81.200 C 298.451 81.200,297.631 81.650,297.038 82.200 C 296.444 82.750,295.700 83.200,295.383 83.200 C 295.066 83.200,294.582 83.560,294.307 84.000 C 294.032 84.440,293.553 84.800,293.242 84.800 C 292.930 84.800,292.086 85.250,291.364 85.800 C 290.643 86.350,289.872 86.800,289.649 86.800 C 289.427 86.800,289.010 87.131,288.723 87.535 C 288.435 87.940,287.750 88.382,287.200 88.519 C 286.650 88.655,285.840 89.045,285.400 89.385 C 283.646 90.741,280.973 92.386,280.514 92.393 C 280.247 92.397,279.835 92.760,279.600 93.200 C 279.365 93.640,278.852 94.000,278.461 94.000 C 278.071 94.000,277.372 94.353,276.910 94.784 C 276.447 95.215,275.616 95.681,275.064 95.820 C 274.511 95.958,273.748 96.416,273.367 96.836 C 272.987 97.256,272.434 97.600,272.138 97.600 C 271.842 97.600,271.279 97.915,270.887 98.300 C 269.791 99.374,267.015 101.200,266.476 101.200 C 266.211 101.200,265.603 101.650,265.125 102.200 C 264.647 102.750,263.928 103.200,263.528 103.200 C 263.128 103.200,262.440 103.560,262.000 104.000 C 261.560 104.440,260.930 104.800,260.600 104.800 C 260.270 104.800,259.626 105.174,259.168 105.632 C 258.710 106.090,257.810 106.647,257.168 106.871 C 256.526 107.095,256.000 107.442,256.000 107.642 C 256.000 107.843,255.280 108.295,254.400 108.647 C 253.520 108.999,252.800 109.425,252.800 109.595 C 252.800 109.764,252.260 110.127,251.600 110.400 C 250.940 110.673,250.400 111.137,250.400 111.430 C 250.400 111.724,249.766 112.083,248.989 112.228 C 248.213 112.374,247.397 112.832,247.175 113.247 C 246.953 113.661,246.440 114.000,246.035 114.000 C 245.630 114.000,245.051 114.298,244.749 114.662 C 244.447 115.026,243.607 115.572,242.883 115.875 C 242.158 116.177,241.464 116.690,241.340 117.013 C 241.216 117.336,240.809 117.600,240.435 117.600 C 240.061 117.600,239.145 118.050,238.400 118.600 C 237.655 119.150,236.880 119.600,236.678 119.600 C 236.057 119.600,232.458 122.073,232.235 122.653 C 232.120 122.954,231.661 123.200,231.216 123.200 C 230.771 123.200,230.182 123.560,229.907 124.000 C 229.632 124.440,229.105 124.800,228.734 124.800 C 228.364 124.800,227.553 125.223,226.931 125.739 C 226.309 126.256,225.305 126.799,224.700 126.947 C 224.095 127.094,223.600 127.389,223.600 127.602 C 223.600 127.815,223.015 128.265,222.300 128.603 C 220.600 129.405,217.968 131.021,217.651 131.456 C 217.513 131.645,216.725 132.112,215.900 132.494 C 215.075 132.875,214.400 133.370,214.400 133.594 C 214.400 133.817,214.130 134.000,213.800 134.000 C 213.470 134.000,212.845 134.355,212.410 134.790 C 211.976 135.224,211.179 135.690,210.640 135.826 C 210.100 135.961,209.348 136.416,208.967 136.836 C 208.587 137.256,207.972 137.600,207.600 137.600 C 207.228 137.600,206.613 137.944,206.233 138.363 C 205.853 138.783,205.015 139.345,204.371 139.612 C 203.727 139.879,203.200 140.253,203.200 140.443 C 203.200 140.634,202.615 141.034,201.900 141.333 C 201.185 141.632,200.353 142.174,200.051 142.538 C 199.749 142.902,199.209 143.203,198.851 143.207 C 198.170 143.215,195.350 144.993,194.208 146.135 C 193.842 146.501,193.314 146.800,193.033 146.800 C 192.753 146.800,192.198 147.160,191.800 147.600 C 191.402 148.040,190.848 148.400,190.569 148.400 C 190.290 148.400,189.506 148.867,188.827 149.439 C 186.841 151.110,184.620 151.207,184.076 149.645 C 183.837 148.960,183.466 148.400,183.252 148.400 C 183.037 148.400,182.650 147.757,182.391 146.972 C 182.132 146.187,181.672 145.449,181.371 145.333 C 181.069 145.218,180.705 144.465,180.561 143.661 C 180.418 142.858,179.987 141.840,179.603 141.400 C 179.219 140.960,178.791 140.118,178.652 139.528 C 178.513 138.938,178.151 138.208,177.848 137.905 C 177.545 137.602,177.166 136.735,177.006 135.977 C 176.845 135.220,176.393 134.060,176.000 133.400 C 175.607 132.740,175.157 131.570,174.999 130.800 C 174.840 130.030,174.477 129.130,174.191 128.800 C 173.905 128.470,173.548 127.300,173.397 126.200 C 173.246 125.100,172.796 123.550,172.397 122.756 C 171.998 121.962,171.544 120.252,171.388 118.956 C 171.232 117.660,170.789 115.880,170.405 115.000 C 170.020 114.120,169.592 111.979,169.453 110.242 C 169.314 108.504,168.930 106.542,168.600 105.880 C 167.719 104.114,167.740 92.245,168.627 90.467 C 168.971 89.776,169.398 87.769,169.576 86.007 C 169.754 84.245,170.103 82.558,170.352 82.258 C 170.601 81.958,171.061 80.860,171.374 79.819 C 171.688 78.777,172.203 77.626,172.519 77.262 C 172.834 76.898,173.200 76.150,173.331 75.600 C 173.738 73.899,174.863 73.569,181.431 73.223 C 186.016 72.982,187.843 72.733,188.581 72.249 C 189.223 71.829,190.435 71.600,192.023 71.600 C 195.708 71.600,204.066 70.805,205.177 70.348 C 205.715 70.127,209.008 69.794,212.496 69.607 C 217.155 69.357,219.095 69.099,219.805 68.633 C 220.380 68.257,221.629 68.000,222.886 68.001 C 226.557 68.003,235.779 67.112,236.291 66.706 C 236.562 66.492,239.712 66.139,243.291 65.921 C 247.416 65.671,250.110 65.330,250.645 64.990 C 251.193 64.642,253.581 64.358,257.445 64.181 C 261.930 63.976,263.832 63.722,265.151 63.154 C 266.372 62.628,267.851 62.400,270.037 62.400 C 273.806 62.400,281.233 61.620,281.820 61.162 C 282.052 60.982,284.932 60.715,288.220 60.570 C 292.739 60.370,294.628 60.122,295.951 59.553 C 297.177 59.026,298.655 58.800,300.883 58.800 C 304.655 58.800,311.469 58.098,312.600 57.592 C 313.040 57.395,316.210 57.066,319.645 56.861 C 323.520 56.629,326.253 56.280,326.845 55.943 C 328.278 55.128,341.200 54.430,341.200 55.168 M150.377 155.830 C 149.442 157.042,147.984 158.791,147.138 159.717 C 146.292 160.642,145.600 161.512,145.600 161.649 C 145.600 161.948,141.758 166.831,141.075 167.400 C 140.625 167.775,139.361 169.284,137.558 171.600 C 135.134 174.713,132.260 178.227,131.997 178.400 C 131.830 178.510,130.687 179.950,129.457 181.600 C 128.228 183.250,127.034 184.821,126.804 185.091 C 126.494 185.454,126.647 185.647,127.393 185.834 C 128.484 186.108,128.631 186.409,127.985 187.055 C 127.698 187.342,129.153 187.413,132.695 187.285 C 139.005 187.058,142.076 189.017,141.340 192.800 C 141.171 193.668,141.294 193.807,142.272 193.853 C 143.829 193.926,146.674 194.707,147.726 195.350 C 148.207 195.644,149.675 196.112,150.988 196.390 C 152.301 196.669,153.741 197.124,154.188 197.402 C 154.635 197.681,155.935 198.024,157.077 198.165 C 158.219 198.306,159.774 198.681,160.533 198.998 C 166.220 201.374,195.383 201.393,202.933 199.025 C 203.997 198.691,205.797 198.388,206.933 198.351 L 209.000 198.284 205.380 194.642 C 203.389 192.639,200.914 190.010,199.881 188.800 C 198.848 187.590,197.290 185.790,196.418 184.800 C 187.537 174.706,185.464 172.219,183.292 169.055 C 181.913 167.045,180.293 164.699,179.692 163.843 C 179.091 162.986,178.413 161.971,178.184 161.585 C 177.956 161.200,177.527 160.594,177.232 160.238 C 176.508 159.367,175.234 157.168,174.936 156.277 C 174.781 155.811,174.465 155.643,174.047 155.804 C 173.691 155.941,170.160 156.206,166.200 156.394 C 157.976 156.784,155.729 156.496,153.539 154.774 L 152.078 153.625 150.377 155.830 M120.000 199.070 C 119.010 199.395,116.879 199.820,115.264 200.015 C 113.650 200.210,111.348 200.736,110.149 201.185 C 108.951 201.633,107.366 202.000,106.629 202.000 C 105.891 202.000,104.503 202.356,103.544 202.791 C 102.585 203.226,101.343 203.586,100.785 203.591 C 100.226 203.596,99.066 203.958,98.207 204.396 C 97.348 204.834,96.005 205.305,95.222 205.441 C 94.440 205.578,93.412 205.933,92.937 206.230 C 92.463 206.527,91.203 206.986,90.137 207.251 C 89.072 207.515,87.840 207.960,87.400 208.240 C 86.960 208.519,85.745 208.961,84.700 209.221 C 83.655 209.482,82.800 209.847,82.800 210.032 C 82.800 210.217,82.037 210.575,81.104 210.826 C 80.171 211.077,78.928 211.624,78.342 212.041 C 77.756 212.459,76.924 212.800,76.492 212.800 C 76.061 212.800,75.250 213.160,74.691 213.600 C 74.131 214.040,73.489 214.400,73.264 214.400 C 72.827 214.400,64.479 218.565,63.794 219.125 C 63.570 219.307,62.800 219.661,62.082 219.912 C 61.364 220.162,60.499 220.644,60.160 220.983 C 59.821 221.322,59.062 221.717,58.472 221.861 C 57.882 222.005,57.310 222.254,57.200 222.415 C 56.959 222.765,53.872 224.606,52.200 225.395 C 48.495 227.145,48.117 228.432,51.088 229.180 C 52.134 229.444,53.178 229.816,53.408 230.007 C 53.639 230.198,54.931 230.532,56.280 230.750 C 57.629 230.967,59.245 231.410,59.872 231.734 C 60.498 232.058,61.902 232.456,62.992 232.620 C 64.082 232.783,65.700 233.247,66.587 233.650 C 67.474 234.053,68.664 234.386,69.230 234.391 C 69.797 234.396,71.549 234.850,73.123 235.400 C 74.697 235.950,76.354 236.400,76.805 236.400 C 77.257 236.400,78.295 236.683,79.113 237.030 C 79.931 237.376,81.542 237.816,82.693 238.008 C 83.844 238.199,85.420 238.657,86.194 239.024 C 87.997 239.880,91.559 239.973,92.005 239.177 C 92.370 238.526,101.491 227.095,102.770 225.686 C 103.227 225.183,103.600 224.620,103.600 224.435 C 103.600 224.249,103.940 223.851,104.355 223.549 C 104.771 223.247,106.637 221.020,108.503 218.600 C 110.369 216.180,112.504 213.520,113.248 212.690 C 113.992 211.859,115.410 210.098,116.400 208.776 C 117.390 207.454,118.976 205.524,119.925 204.486 C 124.471 199.514,124.497 197.594,120.000 199.070 M109.477 233.700 C 107.109 236.615,104.864 239.410,104.486 239.911 C 104.109 240.412,103.229 241.458,102.530 242.235 C 101.832 243.012,100.482 244.672,99.530 245.924 C 97.045 249.193,95.635 250.544,94.232 251.000 C 92.633 251.519,92.356 253.623,93.556 256.121 C 93.999 257.045,94.527 258.546,94.729 259.458 C 94.931 260.370,95.390 261.535,95.748 262.047 C 96.107 262.559,96.400 263.289,96.400 263.670 C 96.400 265.345,97.245 266.363,98.254 265.903 C 99.058 265.536,99.371 265.619,100.246 266.434 C 101.244 267.363,101.236 267.317,100.019 265.243 C 97.499 260.948,96.734 258.002,97.700 256.316 C 98.204 255.437,105.557 246.364,106.755 245.143 C 107.110 244.782,108.210 243.538,109.200 242.380 C 110.190 241.221,111.293 239.987,111.651 239.637 C 112.636 238.675,118.800 231.226,118.800 230.998 C 118.800 230.889,118.356 230.800,117.814 230.800 C 117.272 230.800,116.213 230.260,115.461 229.600 C 114.709 228.940,114.024 228.400,113.938 228.400 C 113.852 228.400,111.844 230.785,109.477 233.700 M157.600 232.578 C 156.090 233.583,156.111 233.563,151.995 237.958 C 148.226 241.982,148.404 242.140,155.200 240.800 C 157.432 240.360,160.196 240.000,161.340 240.000 C 166.678 240.000,166.642 234.359,161.292 232.268 C 159.200 231.450,159.310 231.441,157.600 232.578 M161.719 233.264 C 162.645 233.759,164.040 235.347,164.451 236.373 C 164.871 237.422,163.566 239.175,162.215 239.377 C 159.551 239.774,151.600 239.951,151.600 239.613 C 151.600 239.134,157.239 233.392,158.000 233.096 C 159.024 232.698,160.813 232.779,161.719 233.264 M127.200 234.674 C 127.200 234.902,127.632 235.725,128.160 236.503 C 128.688 237.281,129.252 238.341,129.412 238.859 C 129.573 239.376,130.012 240.250,130.387 240.800 C 130.763 241.350,131.186 242.123,131.329 242.517 C 131.678 243.484,132.434 243.036,135.186 240.229 L 137.373 238.000 136.175 238.000 C 135.517 238.000,134.595 237.732,134.127 237.404 C 133.659 237.076,132.314 236.606,131.138 236.360 C 129.962 236.114,128.595 235.541,128.100 235.087 C 127.605 234.632,127.200 234.447,127.200 234.674 M250.778 239.188 C 250.436 239.389,248.726 239.678,246.978 239.830 C 245.230 239.983,243.311 240.355,242.713 240.658 C 242.116 240.960,239.236 241.467,236.313 241.784 C 233.391 242.102,230.370 242.562,229.600 242.807 C 228.830 243.052,225.770 243.409,222.800 243.600 C 219.830 243.791,215.690 244.241,213.600 244.601 C 207.351 245.678,175.358 245.704,174.575 244.634 C 174.045 243.909,173.980 243.950,173.383 245.379 C 173.035 246.211,170.898 248.806,168.633 251.146 C 155.937 264.260,156.385 263.251,162.458 265.054 C 167.442 266.534,169.920 269.037,169.431 272.096 C 169.172 273.713,164.735 279.682,162.564 281.333 C 161.657 282.024,161.157 283.121,161.983 282.611 C 162.716 282.158,167.556 282.879,167.681 283.459 C 167.751 283.784,168.790 282.933,170.200 281.395 C 173.272 278.044,196.418 254.793,198.037 253.430 C 200.736 251.159,205.390 252.727,206.358 256.233 C 206.618 257.173,206.500 260.353,205.982 266.404 C 205.044 277.357,205.106 277.603,208.152 274.980 C 209.058 274.199,209.980 273.428,210.200 273.267 C 210.951 272.716,215.938 268.462,216.690 267.730 C 217.103 267.329,218.051 266.550,218.798 266.000 C 219.545 265.450,221.156 264.145,222.378 263.100 C 223.600 262.055,226.040 260.018,227.800 258.575 C 232.279 254.902,234.764 252.781,236.089 251.500 C 236.715 250.895,237.356 250.399,237.514 250.398 C 237.671 250.397,238.437 249.812,239.215 249.098 C 239.992 248.384,241.432 247.188,242.415 246.439 C 243.397 245.691,244.470 244.787,244.800 244.430 C 245.546 243.622,250.012 239.968,251.040 239.324 C 251.926 238.768,251.697 238.650,250.778 239.188 M143.357 246.935 L 138.514 251.869 139.557 253.088 C 144.228 258.545,146.667 259.051,150.229 255.300 C 153.221 252.150,153.335 251.628,151.226 250.742 C 148.575 249.629,147.436 246.647,148.600 243.862 C 149.910 240.727,148.830 241.360,143.357 246.935 M148.528 249.681 C 149.187 250.539,150.145 251.256,150.832 251.407 L 152.008 251.665 151.216 252.777 C 150.352 253.991,148.679 255.777,147.316 256.939 C 146.467 257.664,146.423 257.658,145.087 256.639 C 144.338 256.068,143.560 255.600,143.358 255.600 C 143.157 255.600,142.768 255.240,142.493 254.800 C 142.218 254.360,141.735 254.000,141.418 254.000 C 141.102 254.000,140.602 253.505,140.307 252.900 C 139.748 251.753,140.749 250.381,145.400 245.920 L 146.600 244.769 147.000 246.491 C 147.220 247.438,147.908 248.873,148.528 249.681 M177.000 289.424 C 159.027 307.532,159.815 306.488,161.172 310.412 C 161.628 311.727,162.000 313.528,162.000 314.414 C 162.000 315.300,162.340 317.055,162.755 318.313 C 163.171 319.571,163.639 321.678,163.796 322.995 C 163.953 324.312,164.421 326.472,164.835 327.795 C 165.250 329.118,165.592 330.856,165.595 331.658 C 165.598 332.460,165.947 334.260,166.371 335.658 C 166.796 337.056,167.267 339.280,167.420 340.600 C 167.572 341.920,167.946 343.610,168.251 344.356 C 168.557 345.102,168.921 346.722,169.061 347.956 C 169.580 352.529,171.461 352.446,172.766 347.793 C 173.012 346.917,173.480 345.851,173.806 345.424 C 174.133 344.996,174.400 344.384,174.400 344.064 C 174.400 343.519,175.543 340.875,177.194 337.600 C 177.582 336.830,178.036 335.570,178.203 334.800 C 178.370 334.030,178.843 332.773,179.253 332.006 C 179.664 331.239,180.000 330.337,180.000 330.000 C 180.000 329.663,180.347 328.740,180.772 327.948 C 181.196 327.156,181.674 325.813,181.833 324.962 C 181.993 324.112,182.455 322.873,182.860 322.208 C 183.265 321.544,183.598 320.588,183.599 320.084 C 183.599 319.580,183.938 318.500,184.352 317.684 C 184.766 316.868,185.235 315.390,185.394 314.400 C 185.554 313.410,186.026 312.039,186.442 311.353 C 186.859 310.667,187.200 309.533,187.200 308.833 C 187.200 308.134,187.543 306.852,187.962 305.984 C 188.381 305.117,188.852 303.461,189.010 302.304 C 189.167 301.147,189.542 299.570,189.845 298.800 C 190.147 298.030,190.661 295.960,190.988 294.200 C 191.314 292.440,191.856 290.016,192.191 288.813 C 192.526 287.610,192.804 286.080,192.809 285.413 C 192.815 284.746,193.175 282.862,193.609 281.227 C 194.518 277.810,194.693 272.771,193.900 272.850 C 193.625 272.877,186.020 280.335,177.000 289.424 M110.600 281.981 C 110.160 282.163,108.825 283.366,107.633 284.656 C 104.390 288.163,93.087 300.125,89.354 304.000 C 87.553 305.870,83.946 309.632,81.339 312.360 C 78.733 315.087,75.340 318.607,73.800 320.181 C 62.395 331.839,62.233 332.136,65.001 336.254 C 66.368 338.287,67.584 338.789,69.951 338.295 C 71.982 337.871,72.432 337.453,82.948 326.200 C 85.827 323.120,89.206 319.520,90.457 318.200 C 91.709 316.880,93.655 314.810,94.781 313.600 C 95.907 312.390,99.945 308.160,103.754 304.200 C 114.350 293.183,118.400 288.696,118.400 287.972 C 118.400 287.349,112.282 281.571,111.680 281.625 C 111.526 281.639,111.040 281.799,110.600 281.981 M114.785 285.155 C 117.381 287.511,118.068 288.525,117.300 288.867 C 116.883 289.052,107.091 299.494,104.545 302.468 C 104.295 302.761,103.443 303.540,102.654 304.200 C 101.864 304.860,101.213 305.625,101.209 305.900 C 101.204 306.175,100.999 306.400,100.754 306.400 C 100.156 306.400,97.600 309.219,97.600 309.878 C 97.600 310.165,97.399 310.400,97.154 310.400 C 96.661 310.400,94.000 313.166,94.000 313.678 C 94.000 313.855,93.730 314.000,93.400 314.000 C 93.070 314.000,92.800 314.168,92.800 314.374 C 92.800 314.580,91.135 316.458,89.100 318.549 C 87.065 320.639,83.600 324.274,81.400 326.627 C 72.320 336.337,71.300 337.290,69.705 337.562 C 67.167 337.994,66.433 337.699,65.741 335.970 C 65.396 335.107,64.953 334.400,64.757 334.400 C 63.344 334.400,64.503 331.075,66.700 328.824 C 67.965 327.527,70.800 324.540,73.000 322.186 C 75.200 319.831,78.620 316.228,80.600 314.179 C 82.580 312.131,86.936 307.607,90.280 304.127 C 93.623 300.647,98.887 295.190,101.976 292.000 C 105.066 288.810,107.693 285.930,107.815 285.600 C 108.090 284.858,111.198 282.331,111.644 282.487 C 111.823 282.549,113.236 283.750,114.785 285.155 " stroke="none" fill="#f51514" fill-rule="evenodd"></path><path id="path1" d="M355.800 35.063 C 355.140 35.141,353.167 35.399,351.417 35.637 C 349.666 35.874,342.826 36.242,336.217 36.454 C 329.607 36.666,322.760 37.010,321.000 37.217 C 319.240 37.425,312.940 37.781,307.000 38.008 C 301.060 38.235,293.320 38.700,289.800 39.041 C 286.280 39.383,277.190 39.925,269.600 40.247 C 262.010 40.569,254.540 40.990,253.000 41.184 C 251.460 41.377,245.700 41.652,240.200 41.793 C 234.700 41.935,226.690 42.388,222.400 42.800 C 218.110 43.211,211.180 43.666,207.000 43.811 C 201.059 44.016,198.923 44.240,197.214 44.837 C 196.011 45.256,194.609 45.600,194.098 45.600 C 193.587 45.600,192.462 45.960,191.600 46.400 C 190.738 46.840,189.729 47.200,189.358 47.200 C 187.690 47.200,180.046 51.574,175.800 54.958 C 170.502 59.180,162.000 71.002,162.000 74.147 C 162.000 74.447,161.664 75.121,161.253 75.646 C 160.842 76.171,160.296 77.578,160.041 78.773 C 159.786 79.968,159.378 81.185,159.135 81.478 C 157.099 83.932,157.126 112.501,159.168 114.961 C 159.387 115.225,159.768 116.782,160.014 118.421 C 160.260 120.059,160.746 121.925,161.093 122.567 C 161.851 123.968,161.836 126.322,161.066 126.948 C 160.256 127.607,154.400 134.780,154.398 135.115 C 154.397 135.272,153.725 136.120,152.904 137.000 C 151.108 138.926,149.286 141.105,148.200 142.628 C 146.610 144.856,143.114 149.007,142.563 149.320 C 142.253 149.496,142.000 149.837,142.000 150.078 C 142.000 150.319,141.634 150.895,141.187 151.358 C 140.740 151.821,138.989 153.910,137.296 156.000 C 135.603 158.090,133.997 160.070,133.727 160.400 C 133.034 161.246,129.294 165.895,125.523 170.600 C 123.759 172.800,121.501 175.547,120.503 176.705 C 119.506 177.862,118.018 179.842,117.195 181.105 C 116.373 182.367,115.050 184.030,114.254 184.800 C 113.459 185.570,112.807 186.365,112.804 186.566 C 112.794 187.482,109.376 190.743,108.151 191.007 C 107.518 191.143,106.260 191.602,105.356 192.027 C 104.452 192.452,103.050 192.800,102.240 192.800 C 101.431 192.800,100.062 193.160,99.200 193.600 C 98.338 194.040,97.220 194.402,96.716 194.404 C 96.212 194.406,94.837 194.856,93.660 195.404 C 92.483 195.952,91.128 196.400,90.649 196.400 C 90.170 196.400,89.396 196.668,88.929 196.995 C 88.462 197.322,87.117 197.844,85.940 198.156 C 84.763 198.467,83.260 199.009,82.600 199.359 C 81.940 199.709,80.821 200.105,80.114 200.240 C 79.407 200.374,78.619 200.736,78.362 201.045 C 78.106 201.354,77.208 201.717,76.366 201.852 C 75.525 201.986,74.531 202.435,74.156 202.848 C 73.782 203.262,73.078 203.600,72.592 203.600 C 72.106 203.600,71.250 203.960,70.691 204.400 C 70.131 204.840,69.523 205.200,69.339 205.200 C 68.799 205.200,56.691 211.278,55.646 212.074 C 55.121 212.473,54.378 212.800,53.995 212.800 C 53.612 212.800,53.062 213.085,52.773 213.433 C 52.261 214.049,51.379 214.576,48.167 216.184 C 47.305 216.616,46.284 217.230,45.897 217.549 C 45.013 218.279,43.791 218.995,42.000 219.834 C 41.230 220.195,40.510 220.629,40.400 220.800 C 40.144 221.197,37.785 222.625,36.083 223.414 C 35.358 223.750,34.670 224.273,34.554 224.576 C 34.438 224.879,33.822 225.342,33.187 225.606 C 30.915 226.547,29.982 229.807,31.126 232.808 C 31.564 233.958,35.452 235.659,39.200 236.340 C 40.410 236.560,41.940 237.022,42.600 237.367 C 43.260 237.713,44.437 237.996,45.215 237.998 C 45.994 237.999,47.289 238.335,48.093 238.746 C 48.897 239.156,50.499 239.616,51.651 239.769 C 52.804 239.922,54.479 240.374,55.374 240.775 C 56.268 241.175,57.885 241.630,58.967 241.786 C 60.048 241.941,61.308 242.313,61.767 242.612 C 62.225 242.910,63.710 243.333,65.066 243.550 C 66.423 243.767,68.079 244.227,68.747 244.572 C 69.414 244.918,70.464 245.208,71.080 245.218 C 71.696 245.227,72.920 245.515,73.800 245.857 C 74.680 246.199,76.390 246.712,77.600 246.997 C 81.427 247.897,81.695 248.201,82.169 252.174 C 82.299 253.260,82.645 254.520,82.939 254.974 C 83.233 255.428,83.589 256.658,83.730 257.707 C 83.871 258.756,84.350 260.412,84.793 261.385 C 85.237 262.359,85.600 263.502,85.600 263.924 C 85.600 264.347,85.960 265.150,86.400 265.709 C 86.840 266.269,87.200 266.950,87.200 267.224 C 87.200 267.499,87.637 268.646,88.171 269.774 C 88.704 270.903,89.264 272.315,89.414 272.913 C 89.564 273.511,89.827 274.000,89.999 274.000 C 90.171 274.000,90.695 274.765,91.162 275.700 C 91.630 276.635,92.643 278.524,93.414 279.899 C 95.527 283.665,96.419 282.381,80.000 299.207 C 76.852 302.433,66.833 312.968,65.400 314.559 C 65.180 314.803,63.380 316.723,61.400 318.824 C 55.535 325.050,55.347 325.299,54.047 328.546 C 52.539 332.312,52.507 333.255,53.800 335.685 C 54.350 336.718,54.800 337.858,54.800 338.219 C 54.800 338.579,55.160 339.331,55.600 339.891 C 56.040 340.450,56.400 341.302,56.400 341.785 C 56.400 342.823,60.638 347.200,61.644 347.200 C 62.012 347.200,63.097 347.556,64.056 347.991 C 66.498 349.099,71.246 349.103,73.304 348.000 C 74.125 347.560,74.993 347.200,75.233 347.200 C 75.921 347.200,79.237 344.737,80.579 343.228 C 81.251 342.474,82.610 341.019,83.600 339.995 C 84.590 338.971,86.277 337.159,87.348 335.967 C 88.420 334.775,92.859 330.110,97.213 325.600 C 101.566 321.090,106.061 316.410,107.201 315.200 C 108.341 313.990,110.382 311.825,111.737 310.389 C 113.091 308.953,114.792 307.094,115.516 306.257 C 117.339 304.150,118.759 303.439,119.610 304.209 C 119.963 304.529,120.867 305.005,121.620 305.267 C 122.372 305.529,123.339 306.071,123.769 306.472 C 124.199 306.872,124.943 307.200,125.421 307.200 C 125.900 307.200,126.750 307.560,127.309 308.000 C 127.869 308.440,128.658 308.801,129.063 308.802 C 129.468 308.804,130.340 309.092,131.000 309.442 C 132.703 310.346,137.443 311.966,139.800 312.449 C 140.900 312.674,142.229 313.135,142.753 313.473 C 143.278 313.812,144.969 314.247,146.512 314.441 C 150.950 314.998,152.800 316.284,152.800 318.813 C 152.800 319.901,153.151 321.716,153.581 322.846 C 154.010 323.976,154.484 326.183,154.633 327.750 C 154.783 329.318,155.161 331.104,155.473 331.719 C 155.785 332.335,156.210 334.336,156.418 336.166 C 156.626 337.997,157.045 340.103,157.349 340.847 C 157.653 341.591,158.119 343.730,158.386 345.600 C 158.653 347.470,159.039 349.203,159.244 349.451 C 159.448 349.699,159.817 351.499,160.063 353.451 C 160.309 355.403,160.763 357.500,161.071 358.111 C 161.380 358.722,161.733 360.432,161.856 361.911 C 161.979 363.390,162.422 365.552,162.840 366.715 C 163.258 367.878,163.600 369.366,163.600 370.021 C 163.600 372.045,165.804 374.063,168.053 374.097 C 170.057 374.128,172.800 372.427,172.800 371.154 C 172.800 370.799,173.160 370.050,173.600 369.491 C 174.040 368.931,174.400 368.229,174.400 367.930 C 174.400 367.631,174.850 366.723,175.400 365.914 C 175.950 365.105,176.400 364.101,176.400 363.683 C 176.400 363.266,176.760 362.598,177.200 362.200 C 177.640 361.802,178.000 361.078,178.000 360.592 C 178.000 360.106,178.349 359.264,178.775 358.722 C 179.202 358.180,179.682 357.211,179.842 356.568 C 180.002 355.926,180.553 354.608,181.067 353.640 C 181.580 352.673,182.004 351.593,182.009 351.240 C 182.014 350.888,182.370 350.150,182.800 349.600 C 183.230 349.050,183.586 348.295,183.591 347.921 C 183.596 347.548,184.050 346.396,184.600 345.362 C 185.150 344.327,185.600 343.242,185.600 342.950 C 185.600 342.658,185.959 341.830,186.399 341.110 C 186.838 340.389,187.198 339.440,187.200 339.000 C 187.202 338.560,187.541 337.645,187.955 336.967 C 188.369 336.288,188.837 335.118,188.997 334.367 C 189.156 333.615,189.605 332.460,189.994 331.800 C 190.384 331.140,190.816 329.960,190.955 329.178 C 191.094 328.395,191.566 327.052,192.004 326.193 C 192.442 325.334,192.800 324.195,192.800 323.663 C 192.800 323.130,193.137 322.133,193.549 321.447 C 193.961 320.761,194.407 319.480,194.539 318.600 C 194.672 317.720,195.145 316.287,195.590 315.415 C 196.036 314.544,196.400 313.322,196.400 312.699 C 196.400 312.077,196.760 310.862,197.200 310.000 C 197.640 309.138,198.000 307.960,198.000 307.383 C 198.000 306.806,198.432 305.044,198.959 303.467 C 199.487 301.890,200.024 299.744,200.152 298.699 C 200.612 294.946,202.026 293.033,207.382 288.918 C 208.912 287.742,211.323 285.750,212.739 284.490 C 214.155 283.231,215.693 281.940,216.157 281.623 C 216.620 281.306,217.090 280.945,217.200 280.821 C 217.310 280.697,218.120 280.058,219.000 279.401 C 219.880 278.745,221.500 277.370,222.600 276.347 C 223.700 275.324,225.770 273.562,227.200 272.432 C 230.513 269.815,232.962 267.754,234.771 266.064 C 235.557 265.329,237.460 263.772,239.000 262.603 C 240.540 261.435,242.340 259.976,243.000 259.363 C 243.660 258.749,247.328 255.627,251.151 252.424 C 254.973 249.221,258.996 245.835,260.090 244.900 C 261.184 243.965,262.197 243.200,262.341 243.200 C 262.484 243.200,263.437 242.435,264.459 241.500 C 271.098 235.424,272.181 235.076,277.715 237.248 C 278.768 237.662,280.494 238.000,281.551 238.000 C 282.607 238.000,284.896 238.381,286.636 238.848 C 291.488 240.148,308.110 240.167,312.142 238.877 C 313.650 238.395,315.545 238.000,316.353 238.000 C 317.161 238.000,318.194 237.740,318.648 237.422 C 319.102 237.104,320.357 236.625,321.437 236.358 C 322.516 236.091,323.829 235.542,324.354 235.136 C 324.879 234.731,325.616 234.400,325.992 234.400 C 326.368 234.400,326.987 234.056,327.367 233.636 C 327.748 233.216,328.519 232.756,329.082 232.615 C 329.645 232.474,331.088 231.558,332.289 230.579 C 333.490 229.601,334.601 228.800,334.757 228.800 C 335.058 228.800,341.526 222.511,342.200 221.562 C 342.420 221.253,343.140 220.280,343.800 219.401 C 345.742 216.815,346.773 215.231,347.397 213.874 C 347.720 213.173,348.157 212.330,348.368 212.000 C 349.248 210.623,350.748 206.888,351.018 205.400 C 351.177 204.520,351.644 203.132,352.054 202.316 C 352.588 201.254,352.802 199.946,352.808 197.716 C 352.813 196.002,353.087 193.430,353.418 192.000 C 353.749 190.570,354.198 186.738,354.416 183.484 C 354.633 180.231,355.168 175.731,355.605 173.484 C 356.074 171.069,356.404 167.684,356.413 165.200 C 356.421 162.873,356.702 159.840,357.043 158.400 C 357.381 156.970,357.832 153.100,358.045 149.800 C 358.258 146.500,358.702 142.540,359.032 141.000 C 359.363 139.460,359.803 135.500,360.012 132.200 C 360.221 128.900,360.577 125.570,360.804 124.800 C 361.031 124.030,361.404 120.610,361.633 117.200 C 361.863 113.790,362.393 109.110,362.811 106.800 C 363.230 104.490,363.663 100.440,363.774 97.800 C 363.884 95.160,364.237 91.650,364.557 90.000 C 364.877 88.350,365.264 84.840,365.416 82.200 C 365.569 79.560,366.032 75.520,366.447 73.223 C 366.861 70.925,367.207 67.505,367.216 65.623 C 367.225 63.740,367.498 60.850,367.824 59.200 C 368.150 57.550,368.673 52.960,368.987 49.000 C 369.302 45.040,369.662 41.237,369.788 40.549 C 370.679 35.697,365.978 33.852,355.800 35.063 M359.365 47.233 C 359.345 47.985,359.031 50.310,358.666 52.400 C 358.302 54.490,358.002 57.550,358.000 59.200 C 357.999 60.850,357.638 64.051,357.199 66.314 C 356.759 68.577,356.399 71.727,356.398 73.314 C 356.397 74.901,356.022 78.630,355.564 81.600 C 355.107 84.570,354.575 89.610,354.383 92.800 C 354.191 95.990,353.840 99.230,353.602 100.000 C 353.364 100.770,352.993 104.075,352.779 107.344 C 352.564 110.613,352.130 114.573,351.815 116.144 C 351.499 117.715,351.041 121.790,350.799 125.200 C 350.556 128.610,350.174 132.210,349.949 133.200 C 349.725 134.190,349.289 137.970,348.980 141.600 C 348.671 145.230,348.148 149.730,347.817 151.600 C 347.487 153.470,347.211 156.260,347.205 157.800 C 347.199 159.340,346.915 162.310,346.573 164.400 C 346.231 166.490,345.702 171.260,345.397 175.000 C 345.093 178.740,344.564 183.150,344.222 184.800 C 343.881 186.450,343.598 189.060,343.594 190.600 C 343.589 192.140,343.312 194.660,342.977 196.200 C 342.642 197.740,342.185 199.950,341.961 201.112 C 341.603 202.974,340.489 205.741,339.108 208.200 C 338.860 208.640,338.462 209.360,338.222 209.800 C 336.916 212.197,333.511 216.599,331.800 218.103 C 328.518 220.989,324.523 223.689,321.600 224.998 C 320.830 225.343,319.735 225.882,319.167 226.195 C 318.599 226.509,317.429 226.934,316.567 227.140 C 315.705 227.347,314.190 227.793,313.200 228.132 C 307.241 230.174,290.650 230.210,283.400 228.196 C 282.300 227.891,280.140 227.426,278.600 227.163 C 277.060 226.900,275.440 226.450,275.000 226.163 C 274.560 225.875,273.390 225.520,272.400 225.374 C 271.410 225.227,270.005 224.768,269.277 224.353 C 268.550 223.939,267.560 223.599,267.077 223.599 C 266.595 223.598,265.628 223.248,264.928 222.822 C 264.229 222.395,262.924 221.849,262.028 221.608 C 261.133 221.366,260.400 221.003,260.400 220.801 C 260.400 220.598,259.635 220.214,258.700 219.947 C 257.765 219.680,256.730 219.244,256.400 218.978 C 256.070 218.712,255.350 218.362,254.800 218.200 C 254.250 218.038,253.530 217.675,253.200 217.393 C 252.870 217.110,251.970 216.589,251.200 216.233 C 249.070 215.248,248.018 214.623,241.000 210.171 C 240.340 209.752,239.521 209.228,239.181 209.005 C 238.840 208.782,237.967 208.240,237.240 207.800 C 236.513 207.360,234.412 205.830,232.571 204.400 C 230.730 202.970,228.618 201.350,227.878 200.800 C 226.573 199.831,223.418 197.117,218.825 193.011 C 215.614 190.140,210.522 184.979,208.160 182.200 C 205.112 178.614,203.847 177.168,202.213 175.400 C 201.399 174.520,200.163 173.092,199.467 172.227 C 198.770 171.362,197.840 170.274,197.400 169.809 C 195.602 167.908,192.800 164.493,192.800 164.204 C 192.800 164.033,192.481 163.603,192.091 163.247 C 191.701 162.891,191.161 162.150,190.891 161.600 C 190.621 161.050,189.771 159.790,189.002 158.800 C 188.233 157.810,187.441 156.633,187.243 156.184 C 187.045 155.735,186.595 155.127,186.242 154.835 C 185.889 154.542,185.600 154.076,185.600 153.800 C 185.600 153.524,185.317 153.063,184.971 152.776 C 184.625 152.489,183.988 151.611,183.556 150.827 C 183.124 150.042,182.341 148.680,181.816 147.800 C 180.582 145.732,178.000 140.603,178.000 140.221 C 178.000 140.059,177.640 139.469,177.200 138.909 C 176.760 138.350,176.399 137.511,176.397 137.046 C 176.396 136.581,176.037 135.660,175.600 135.000 C 175.163 134.340,174.804 133.439,174.803 132.997 C 174.801 132.555,174.350 131.348,173.800 130.315 C 173.250 129.282,172.800 128.092,172.800 127.672 C 172.800 127.251,172.465 126.028,172.056 124.953 C 170.862 121.819,169.930 117.977,167.796 107.400 C 167.054 103.720,167.047 92.736,167.784 89.000 C 168.690 84.411,169.595 81.110,170.471 79.200 C 172.477 74.828,173.761 72.400,174.068 72.400 C 174.251 72.400,174.400 72.139,174.400 71.821 C 174.400 70.467,181.170 63.249,184.600 60.946 C 185.700 60.207,186.781 59.456,187.003 59.276 C 187.973 58.491,192.497 56.400,193.228 56.400 C 193.670 56.400,194.700 56.061,195.516 55.647 C 196.332 55.233,198.350 54.770,200.000 54.618 C 201.650 54.466,204.710 54.089,206.800 53.779 C 208.890 53.470,215.730 53.030,222.000 52.800 C 228.270 52.571,234.570 52.208,236.000 51.993 C 237.430 51.778,244.116 51.424,250.858 51.207 C 257.600 50.989,265.700 50.548,268.858 50.226 C 272.016 49.904,279.910 49.444,286.400 49.202 C 292.890 48.961,299.370 48.597,300.800 48.393 C 303.987 47.939,317.731 47.200,322.977 47.200 C 325.092 47.200,329.473 46.914,332.711 46.564 C 339.012 45.884,356.742 45.239,358.400 45.630 C 359.236 45.827,359.394 46.090,359.365 47.233 M167.207 140.827 C 167.448 141.719,168.444 143.966,169.422 145.820 C 170.400 147.674,171.200 149.435,171.200 149.734 C 171.200 150.032,171.560 150.602,172.000 151.000 C 172.440 151.398,172.800 152.028,172.800 152.400 C 172.800 152.772,173.144 153.387,173.564 153.767 C 173.984 154.148,174.446 154.930,174.591 155.505 C 174.735 156.080,175.201 157.040,175.627 157.637 C 176.052 158.235,176.400 158.862,176.400 159.030 C 176.400 159.199,176.699 159.667,177.064 160.071 C 177.430 160.475,177.925 161.139,178.164 161.546 C 178.404 161.953,179.091 162.986,179.692 163.843 C 180.293 164.699,181.913 167.045,183.292 169.055 C 185.464 172.219,187.537 174.706,196.418 184.800 C 197.290 185.790,198.857 187.590,199.901 188.799 C 203.454 192.914,206.995 196.497,209.000 198.005 C 210.100 198.833,211.990 200.463,213.200 201.627 C 215.735 204.067,221.922 209.200,222.327 209.200 C 222.477 209.200,223.349 209.884,224.263 210.720 C 225.178 211.556,226.704 212.771,227.655 213.420 C 228.606 214.069,230.538 215.455,231.949 216.500 C 233.360 217.545,234.663 218.400,234.845 218.400 C 235.026 218.400,236.306 219.151,237.687 220.070 C 242.027 222.954,243.433 223.751,249.800 226.940 C 252.220 228.153,254.605 229.259,255.100 229.399 C 255.595 229.539,256.000 229.808,256.000 229.996 C 256.000 230.184,256.675 230.554,257.500 230.817 C 258.325 231.081,259.139 231.422,259.308 231.576 C 259.767 231.993,256.508 235.272,253.154 237.768 C 251.529 238.976,249.474 240.504,248.586 241.163 C 247.698 241.822,246.348 242.966,245.586 243.704 C 244.824 244.442,243.397 245.665,242.415 246.423 C 241.432 247.180,239.992 248.384,239.215 249.098 C 238.437 249.812,237.671 250.397,237.514 250.398 C 237.356 250.399,236.715 250.895,236.089 251.500 C 234.764 252.781,232.279 254.902,227.800 258.575 C 226.040 260.018,223.600 262.055,222.378 263.100 C 221.156 264.145,219.545 265.450,218.798 266.000 C 218.051 266.550,217.103 267.329,216.690 267.730 C 215.938 268.462,210.951 272.716,210.200 273.267 C 209.980 273.428,209.058 274.199,208.152 274.980 C 205.106 277.603,205.044 277.357,205.982 266.404 C 206.500 260.353,206.618 257.173,206.358 256.233 C 205.390 252.727,200.736 251.159,198.037 253.430 C 196.293 254.898,173.075 278.252,170.200 281.431 C 168.880 282.891,164.020 287.913,159.400 292.591 C 154.780 297.270,150.509 301.931,149.910 302.949 C 148.865 304.723,147.599 305.370,147.017 304.427 C 146.890 304.222,145.754 303.857,144.493 303.616 C 143.232 303.376,141.660 302.931,141.000 302.628 C 140.340 302.326,138.945 301.790,137.900 301.439 C 133.311 299.896,132.143 299.421,131.246 298.732 C 130.721 298.329,129.920 298.000,129.465 298.000 C 129.010 298.000,128.043 297.423,127.315 296.718 L 125.993 295.436 127.052 294.591 C 128.230 293.652,130.069 293.962,133.254 295.636 C 134.054 296.056,135.020 296.400,135.400 296.400 C 135.780 296.400,136.746 296.736,137.546 297.147 C 142.297 299.589,144.897 300.068,146.509 298.800 C 147.069 298.360,147.702 298.000,147.917 298.000 C 148.132 298.000,148.632 297.505,149.027 296.900 C 149.423 296.295,149.939 295.600,150.173 295.355 C 150.408 295.110,151.500 293.855,152.600 292.565 C 153.700 291.276,154.960 289.845,155.400 289.387 C 155.840 288.928,157.189 287.393,158.398 285.976 C 159.607 284.559,161.324 282.680,162.214 281.800 C 171.649 272.468,171.717 267.804,162.458 265.054 C 156.386 263.251,155.925 264.296,168.560 251.220 C 177.088 242.394,177.673 233.051,170.139 225.981 C 165.799 221.908,157.434 220.185,154.231 222.704 C 153.605 223.197,152.800 223.600,152.443 223.600 C 152.086 223.600,149.995 225.414,147.797 227.630 C 132.050 243.509,131.777 243.757,131.329 242.517 C 131.186 242.123,130.763 241.350,130.387 240.800 C 130.012 240.250,129.573 239.376,129.412 238.859 C 129.252 238.341,128.688 237.281,128.160 236.503 C 127.632 235.725,127.193 234.798,127.185 234.444 C 127.142 232.609,124.624 230.715,122.267 230.743 C 119.284 230.778,118.924 231.013,115.552 235.106 C 113.969 237.028,112.297 238.977,111.837 239.437 C 111.377 239.898,110.190 241.222,109.200 242.380 C 108.210 243.538,107.110 244.782,106.755 245.143 C 105.557 246.364,98.204 255.437,97.700 256.316 C 96.824 257.846,97.569 261.211,99.473 264.328 C 100.800 266.500,102.143 268.627,102.813 269.617 C 103.870 271.179,104.190 273.744,103.409 274.392 C 102.505 275.143,100.982 273.584,99.230 270.114 C 98.477 268.621,97.532 266.745,97.130 265.946 C 96.729 265.146,96.400 264.151,96.400 263.735 C 96.400 263.318,96.107 262.559,95.748 262.047 C 95.390 261.535,94.931 260.370,94.729 259.458 C 94.527 258.546,93.999 257.045,93.556 256.121 C 92.356 253.623,92.633 251.519,94.232 251.000 C 95.635 250.544,97.045 249.193,99.530 245.924 C 100.482 244.672,101.832 243.012,102.530 242.235 C 103.229 241.458,104.106 240.412,104.479 239.911 C 104.852 239.410,106.842 236.930,108.901 234.400 C 110.959 231.870,113.674 228.450,114.932 226.800 C 117.841 222.988,122.659 216.978,125.981 213.018 C 127.401 211.325,129.561 208.640,130.781 207.051 C 132.002 205.462,133.321 203.810,133.713 203.381 C 136.899 199.892,140.950 194.268,141.317 192.824 C 142.423 188.472,134.441 185.618,126.863 187.656 C 125.721 187.963,125.345 186.471,126.320 185.504 C 126.821 185.007,128.235 183.250,129.462 181.600 C 130.689 179.950,131.830 178.510,131.997 178.400 C 132.260 178.227,135.134 174.713,137.558 171.600 C 139.290 169.376,140.634 167.768,141.236 167.200 C 142.095 166.389,144.986 162.763,145.437 161.930 C 145.637 161.561,146.553 160.391,147.473 159.330 C 148.393 158.268,150.414 155.780,151.965 153.800 C 153.516 151.820,155.499 149.390,156.371 148.400 C 157.243 147.410,158.970 145.250,160.208 143.600 C 161.446 141.950,162.687 140.420,162.964 140.200 C 163.242 139.980,163.686 139.394,163.950 138.898 C 164.696 137.497,166.617 138.635,167.207 140.827 M123.407 198.812 C 123.753 199.372,122.023 202.191,119.925 204.486 C 118.976 205.524,117.390 207.454,116.400 208.776 C 115.410 210.098,113.992 211.859,113.248 212.690 C 112.504 213.520,110.369 216.180,108.503 218.600 C 106.637 221.020,104.771 223.247,104.355 223.549 C 103.940 223.851,103.600 224.249,103.600 224.435 C 103.600 224.620,103.227 225.183,102.770 225.686 C 101.491 227.095,92.370 238.526,92.005 239.177 C 91.559 239.973,87.997 239.880,86.194 239.024 C 85.420 238.657,83.844 238.199,82.693 238.008 C 81.542 237.816,79.931 237.376,79.113 237.030 C 78.295 236.683,77.257 236.400,76.805 236.400 C 76.354 236.400,74.697 235.950,73.123 235.400 C 71.549 234.850,69.797 234.396,69.230 234.391 C 68.664 234.386,67.474 234.053,66.587 233.650 C 65.700 233.247,64.082 232.783,62.992 232.620 C 61.902 232.456,60.498 232.058,59.872 231.734 C 59.245 231.410,57.629 230.967,56.280 230.750 C 54.931 230.532,53.639 230.198,53.408 230.007 C 53.178 229.816,52.134 229.444,51.088 229.180 C 48.117 228.432,48.495 227.145,52.200 225.395 C 53.872 224.606,56.959 222.765,57.200 222.415 C 57.310 222.254,57.882 222.005,58.472 221.861 C 59.062 221.717,59.821 221.322,60.160 220.983 C 60.499 220.644,61.364 220.162,62.082 219.912 C 62.800 219.661,63.570 219.307,63.794 219.125 C 64.479 218.565,72.827 214.400,73.264 214.400 C 73.489 214.400,74.131 214.040,74.691 213.600 C 75.250 213.160,76.061 212.800,76.492 212.800 C 76.924 212.800,77.756 212.459,78.342 212.041 C 78.928 211.624,80.171 211.077,81.104 210.826 C 82.037 210.575,82.800 210.217,82.800 210.032 C 82.800 209.847,83.655 209.482,84.700 209.221 C 85.745 208.961,86.960 208.519,87.400 208.240 C 87.840 207.960,89.072 207.515,90.137 207.251 C 91.203 206.986,92.463 206.527,92.937 206.230 C 93.412 205.933,94.440 205.578,95.222 205.441 C 96.005 205.305,97.348 204.834,98.207 204.396 C 99.066 203.958,100.226 203.596,100.785 203.591 C 101.343 203.586,102.585 203.226,103.544 202.791 C 104.503 202.356,105.891 202.000,106.629 202.000 C 107.366 202.000,108.951 201.633,110.149 201.185 C 111.348 200.736,113.650 200.210,115.264 200.015 C 116.879 199.820,119.010 199.395,120.000 199.070 C 122.216 198.343,123.077 198.277,123.407 198.812 M161.292 232.268 C 166.642 234.359,166.678 240.000,161.340 240.000 C 160.196 240.000,157.432 240.360,155.200 240.800 C 147.755 242.267,147.755 242.280,155.482 234.255 C 157.783 231.865,159.106 231.413,161.292 232.268 M149.200 242.213 C 149.200 242.330,148.930 243.072,148.600 243.862 C 147.436 246.647,148.575 249.629,151.226 250.742 C 153.335 251.628,153.221 252.150,150.229 255.300 C 146.667 259.051,144.228 258.545,139.557 253.088 L 138.514 251.869 143.357 246.935 C 147.534 242.681,149.200 241.334,149.200 242.213 M122.280 247.300 C 122.879 248.235,123.647 249.483,123.985 250.074 C 126.230 253.996,133.664 262.294,136.191 263.701 C 136.685 263.975,137.862 264.740,138.808 265.400 C 143.143 268.425,146.460 270.278,148.548 270.840 C 149.417 271.074,150.504 271.503,150.964 271.793 C 151.424 272.084,152.383 272.443,153.095 272.592 C 155.393 273.070,155.333 274.464,152.905 277.002 C 152.064 277.881,149.627 280.704,147.489 283.276 C 145.352 285.847,143.431 288.057,143.222 288.187 C 142.765 288.469,138.189 286.978,137.037 286.171 C 136.589 285.857,135.854 285.600,135.405 285.600 C 134.956 285.600,133.961 285.266,133.194 284.859 C 132.427 284.451,131.155 283.907,130.367 283.650 C 129.578 283.393,128.341 282.601,127.617 281.891 C 126.893 281.181,125.896 280.330,125.400 280.000 C 124.905 279.670,122.916 277.960,120.981 276.200 C 119.046 274.440,116.774 272.377,115.931 271.616 C 115.089 270.856,114.400 270.028,114.400 269.778 C 114.400 269.528,114.040 268.998,113.600 268.600 C 113.160 268.202,112.800 267.568,112.800 267.192 C 112.800 266.816,112.471 266.079,112.070 265.554 C 110.606 263.641,108.800 260.078,108.800 259.102 C 108.800 258.243,111.834 254.300,113.803 252.600 C 114.058 252.380,115.393 250.815,116.769 249.121 C 120.177 244.930,120.658 244.771,122.280 247.300 M194.400 275.527 C 194.400 277.027,194.044 279.592,193.609 281.227 C 193.175 282.862,192.815 284.746,192.809 285.413 C 192.804 286.080,192.526 287.610,192.191 288.813 C 191.856 290.016,191.314 292.440,190.988 294.200 C 190.661 295.960,190.147 298.030,189.845 298.800 C 189.542 299.570,189.167 301.147,189.010 302.304 C 188.852 303.461,188.381 305.117,187.962 305.984 C 187.543 306.852,187.200 308.134,187.200 308.833 C 187.200 309.533,186.859 310.667,186.442 311.353 C 186.026 312.039,185.554 313.410,185.394 314.400 C 185.235 315.390,184.766 316.868,184.352 317.684 C 183.938 318.500,183.599 319.580,183.599 320.084 C 183.598 320.588,183.265 321.544,182.860 322.208 C 182.455 322.873,181.993 324.112,181.833 324.962 C 181.674 325.813,181.196 327.156,180.772 327.948 C 180.347 328.740,180.000 329.663,180.000 330.000 C 180.000 330.337,179.664 331.239,179.253 332.006 C 178.843 332.773,178.370 334.030,178.203 334.800 C 178.036 335.570,177.582 336.830,177.194 337.600 C 175.543 340.875,174.400 343.519,174.400 344.064 C 174.400 344.384,174.133 344.996,173.806 345.424 C 173.480 345.851,173.012 346.917,172.766 347.793 C 171.461 352.446,169.580 352.529,169.061 347.956 C 168.921 346.722,168.557 345.102,168.251 344.356 C 167.946 343.610,167.572 341.920,167.420 340.600 C 167.267 339.280,166.796 337.056,166.371 335.658 C 165.947 334.260,165.598 332.460,165.595 331.658 C 165.592 330.856,165.250 329.118,164.835 327.795 C 164.421 326.472,163.953 324.312,163.796 322.995 C 163.639 321.678,163.171 319.571,162.755 318.313 C 162.340 317.055,162.000 315.300,162.000 314.414 C 162.000 313.528,161.628 311.727,161.172 310.412 C 160.717 309.097,160.402 307.554,160.472 306.984 C 160.606 305.901,192.872 272.952,193.900 272.850 C 194.256 272.814,194.400 273.586,194.400 275.527 M115.180 284.456 C 116.951 286.026,118.400 287.608,118.400 287.972 C 118.400 288.696,114.350 293.183,103.754 304.200 C 99.945 308.160,95.907 312.390,94.781 313.600 C 93.655 314.810,91.709 316.880,90.457 318.200 C 89.206 319.520,85.827 323.120,82.948 326.200 C 72.432 337.453,71.982 337.871,69.951 338.295 C 67.584 338.789,66.368 338.287,65.001 336.254 C 62.233 332.136,62.395 331.839,73.800 320.181 C 75.340 318.607,78.733 315.087,81.339 312.360 C 83.946 309.632,87.553 305.870,89.354 304.000 C 93.087 300.125,104.390 288.163,107.633 284.656 C 109.538 282.595,110.717 281.712,111.680 281.625 C 111.835 281.611,113.410 282.885,115.180 284.456 " stroke="none" fill="#0a0706" fill-rule="evenodd"></path><path id="path2" d="M164.000 138.750 C 164.000 138.942,163.551 139.617,163.002 140.250 C 162.454 140.882,160.699 143.027,159.102 145.017 C 157.506 147.006,155.874 148.986,155.475 149.417 C 152.271 152.877,152.016 153.671,153.700 154.935 C 155.783 156.499,158.179 156.774,166.361 156.387 C 174.376 156.008,174.897 155.848,173.730 154.131 C 173.307 153.509,172.736 152.550,172.461 152.000 C 172.186 151.450,171.690 150.460,171.360 149.800 C 171.029 149.140,170.584 148.330,170.371 148.000 C 170.158 147.670,169.710 146.770,169.375 146.000 C 169.041 145.230,168.414 143.945,167.983 143.146 C 167.552 142.346,167.200 141.311,167.200 140.846 C 167.200 140.380,166.840 139.640,166.400 139.200 C 165.596 138.396,164.000 138.097,164.000 138.750 M205.800 198.450 C 204.480 198.608,202.860 198.946,202.200 199.202 C 196.803 201.295,166.506 201.293,161.000 199.200 C 160.084 198.852,159.760 199.062,157.435 201.509 C 150.959 208.324,148.400 211.174,148.400 211.571 C 148.400 211.807,148.175 212.004,147.900 212.009 C 147.625 212.013,146.860 212.664,146.200 213.454 C 145.540 214.243,144.767 215.095,144.483 215.345 C 143.022 216.631,141.574 218.273,141.386 218.857 C 141.269 219.218,140.819 219.606,140.387 219.719 C 139.954 219.833,139.600 220.212,139.600 220.563 C 139.600 220.913,139.434 221.200,139.232 221.200 C 138.752 221.200,134.000 225.952,134.000 226.432 C 134.000 226.634,133.742 226.800,133.427 226.800 C 133.112 226.800,132.754 227.115,132.631 227.500 C 132.509 227.885,131.241 229.370,129.813 230.800 C 126.378 234.241,126.660 235.423,131.138 236.360 C 132.314 236.606,133.659 237.076,134.127 237.404 C 136.198 238.855,137.388 238.299,141.536 233.944 C 152.168 222.784,153.631 221.800,159.606 221.800 C 170.006 221.800,176.271 229.668,174.828 240.916 C 174.493 243.529,174.486 244.646,174.803 244.963 C 175.561 245.720,208.907 245.410,213.600 244.601 C 215.690 244.241,219.830 243.791,222.800 243.600 C 225.770 243.409,228.830 243.052,229.600 242.807 C 230.370 242.562,233.371 242.104,236.270 241.789 C 239.168 241.474,242.138 240.951,242.870 240.627 C 243.601 240.303,245.608 239.923,247.328 239.782 C 250.915 239.489,253.875 237.806,257.643 233.917 C 259.776 231.715,259.770 231.543,257.532 230.828 C 256.725 230.570,255.848 230.098,255.583 229.780 C 255.318 229.461,254.851 229.200,254.544 229.200 C 254.028 229.200,250.594 227.632,249.200 226.759 C 248.870 226.553,247.973 226.098,247.207 225.748 C 246.440 225.398,245.381 224.771,244.853 224.356 C 244.324 223.940,243.578 223.600,243.195 223.600 C 242.812 223.600,242.263 223.317,241.976 222.971 C 241.689 222.625,240.742 221.950,239.873 221.471 C 237.315 220.062,236.845 219.765,236.071 219.064 C 235.667 218.699,235.190 218.400,235.010 218.400 C 234.663 218.400,231.664 216.411,229.000 214.413 C 228.120 213.754,226.995 213.002,226.500 212.743 C 226.005 212.484,225.600 212.136,225.600 211.970 C 225.600 211.804,224.655 210.985,223.500 210.150 C 219.688 207.393,217.044 205.217,213.462 201.888 C 209.493 198.199,209.161 198.050,205.800 198.450 M158.000 233.096 C 157.239 233.392,151.600 239.134,151.600 239.613 C 151.600 239.951,159.551 239.774,162.215 239.377 C 163.566 239.175,164.871 237.422,164.451 236.373 C 163.367 233.665,160.406 232.161,158.000 233.096 M145.400 245.920 C 140.749 250.381,139.748 251.753,140.307 252.900 C 140.602 253.505,141.102 254.000,141.418 254.000 C 141.735 254.000,142.218 254.360,142.493 254.800 C 142.768 255.240,143.157 255.600,143.358 255.600 C 143.560 255.600,144.338 256.068,145.087 256.639 C 146.423 257.658,146.467 257.664,147.316 256.939 C 148.679 255.777,150.352 253.991,151.216 252.777 L 152.008 251.665 150.832 251.407 C 149.338 251.079,147.526 248.754,147.000 246.491 L 146.600 244.769 145.400 245.920 M98.095 265.933 C 97.505 266.307,98.057 268.322,99.209 270.000 C 99.586 270.550,100.011 271.373,100.152 271.830 C 100.294 272.286,100.941 273.168,101.590 273.791 C 103.875 275.980,104.850 272.801,102.778 269.916 C 102.350 269.320,102.000 268.654,102.000 268.436 C 102.000 267.931,99.530 265.602,99.000 265.608 C 98.780 265.610,98.373 265.756,98.095 265.933 M109.678 283.687 C 108.776 284.409,107.938 285.270,107.815 285.600 C 107.693 285.930,105.066 288.810,101.976 292.000 C 98.887 295.190,93.623 300.647,90.280 304.127 C 86.936 307.607,82.580 312.131,80.600 314.179 C 78.620 316.228,75.200 319.831,73.000 322.186 C 70.800 324.540,67.965 327.527,66.700 328.824 C 64.503 331.075,63.344 334.400,64.757 334.400 C 64.953 334.400,65.396 335.107,65.741 335.970 C 66.433 337.699,67.167 337.994,69.705 337.562 C 71.300 337.290,72.320 336.337,81.400 326.627 C 83.600 324.274,87.065 320.639,89.100 318.549 C 91.135 316.458,92.800 314.580,92.800 314.374 C 92.800 314.168,93.070 314.000,93.400 314.000 C 93.730 314.000,94.000 313.855,94.000 313.678 C 94.000 313.166,96.661 310.400,97.154 310.400 C 97.399 310.400,97.600 310.165,97.600 309.878 C 97.600 309.219,100.156 306.400,100.754 306.400 C 100.999 306.400,101.204 306.175,101.209 305.900 C 101.213 305.625,101.864 304.860,102.654 304.200 C 103.443 303.540,104.295 302.761,104.545 302.468 C 107.091 299.494,116.883 289.052,117.300 288.867 C 118.068 288.525,117.381 287.511,114.785 285.155 C 111.321 282.012,111.651 282.107,109.678 283.687 M161.400 282.838 C 160.960 283.072,160.060 283.970,159.400 284.833 C 158.740 285.696,157.488 287.159,156.618 288.085 C 155.748 289.011,153.952 291.036,152.627 292.585 C 151.301 294.133,149.898 295.749,149.508 296.175 C 149.119 296.602,148.800 297.080,148.800 297.237 C 148.800 297.742,145.291 299.600,144.337 299.600 C 143.320 299.600,139.820 298.349,137.521 297.163 C 136.707 296.743,135.751 296.400,135.396 296.400 C 135.041 296.400,133.817 295.963,132.675 295.428 C 129.684 294.028,128.008 293.824,126.865 294.722 L 125.930 295.456 127.379 296.728 C 128.176 297.428,129.157 298.000,129.560 298.000 C 129.963 298.000,130.721 298.326,131.246 298.724 C 131.771 299.123,133.008 299.683,133.997 299.969 C 134.985 300.256,136.150 300.740,136.586 301.045 C 137.021 301.350,137.723 301.600,138.145 301.600 C 138.567 301.600,139.652 301.952,140.556 302.383 C 141.460 302.813,143.232 303.365,144.493 303.610 C 145.754 303.854,146.890 304.222,147.017 304.427 C 147.601 305.373,148.865 304.723,149.910 302.938 C 150.509 301.913,154.735 297.299,159.300 292.683 C 167.484 284.408,168.681 282.800,166.656 282.800 C 166.137 282.800,164.922 282.712,163.956 282.605 C 162.990 282.498,161.840 282.603,161.400 282.838 " stroke="none" fill="#f8e405" fill-rule="evenodd"></path><path id="path3" d="M348.559 34.591 C 344.577 34.860,341.156 35.180,340.957 35.303 C 340.758 35.426,334.151 35.739,326.276 35.998 C 318.400 36.256,311.382 36.643,310.678 36.856 C 309.975 37.069,304.000 37.419,297.400 37.635 C 290.800 37.851,282.970 38.301,280.000 38.636 C 277.030 38.971,269.200 39.418,262.600 39.631 C 256.000 39.843,249.070 40.200,247.200 40.422 C 245.330 40.645,239.120 40.995,233.400 41.199 C 227.680 41.403,219.850 41.865,216.000 42.226 C 212.150 42.587,206.279 43.008,202.954 43.160 C 198.532 43.363,196.651 43.605,195.954 44.060 C 195.429 44.402,194.175 44.806,193.167 44.956 C 192.159 45.106,190.675 45.582,189.869 46.014 C 189.062 46.446,188.087 46.803,187.701 46.806 C 187.316 46.809,186.550 47.073,186.000 47.392 C 185.450 47.712,184.235 48.332,183.300 48.772 C 182.365 49.212,181.600 49.758,181.600 49.986 C 181.600 50.214,181.251 50.400,180.824 50.400 C 180.397 50.400,179.927 50.595,179.780 50.832 C 179.633 51.070,178.980 51.589,178.329 51.985 C 177.678 52.381,176.322 53.401,175.316 54.252 C 173.702 55.618,172.789 56.512,169.648 59.800 C 168.239 61.274,164.800 66.109,164.800 66.614 C 164.800 66.889,164.564 67.205,164.276 67.316 C 163.987 67.426,163.530 68.255,163.260 69.158 C 162.989 70.061,162.602 70.800,162.400 70.800 C 162.198 70.800,161.811 71.565,161.540 72.500 C 161.270 73.435,160.723 74.629,160.324 75.154 C 159.926 75.679,159.600 76.541,159.600 77.070 C 159.600 77.599,159.258 78.702,158.841 79.520 C 158.423 80.339,157.959 82.086,157.810 83.404 C 157.661 84.722,157.295 86.700,156.996 87.800 C 156.230 90.623,155.889 98.379,156.354 102.400 C 157.204 109.747,158.105 115.096,158.835 117.136 C 159.256 118.310,159.600 119.873,159.600 120.610 C 159.600 121.346,159.805 122.455,160.055 123.074 C 160.861 125.067,160.395 126.621,158.281 128.993 C 157.886 129.437,157.322 130.070,157.028 130.400 C 156.733 130.730,155.485 132.260,154.253 133.800 C 153.022 135.340,151.651 136.966,151.207 137.414 C 150.763 137.862,150.400 138.404,150.400 138.618 C 150.400 138.832,150.040 139.232,149.600 139.507 C 149.160 139.782,148.800 140.266,148.800 140.584 C 148.800 140.901,148.550 141.304,148.245 141.480 C 147.745 141.768,146.012 143.804,144.107 146.341 C 143.718 146.858,142.950 147.795,142.400 148.422 C 141.850 149.050,141.040 150.025,140.600 150.589 C 140.160 151.153,139.033 152.466,138.095 153.507 C 137.158 154.548,136.169 155.895,135.898 156.500 C 135.627 157.105,135.179 157.600,134.902 157.600 C 134.626 157.600,134.400 157.771,134.400 157.979 C 134.400 158.188,133.995 158.819,133.500 159.381 C 133.005 159.943,132.150 160.964,131.600 161.650 C 131.050 162.336,130.416 163.100,130.192 163.349 C 129.968 163.597,128.544 165.375,127.028 167.300 C 125.511 169.225,124.120 170.800,123.935 170.800 C 123.751 170.800,123.600 171.060,123.600 171.377 C 123.600 171.695,123.285 172.190,122.900 172.479 C 122.091 173.084,119.600 176.219,119.600 176.631 C 119.600 176.783,119.195 177.330,118.700 177.844 C 117.168 179.438,116.479 180.304,115.975 181.270 C 115.482 182.213,114.923 182.903,113.300 184.568 C 112.805 185.076,112.400 185.630,112.400 185.800 C 112.400 185.970,111.995 186.512,111.500 187.005 C 111.005 187.498,110.108 188.464,109.506 189.151 C 108.701 190.070,108.068 190.400,107.106 190.401 C 106.388 190.402,105.260 190.732,104.600 191.134 C 103.940 191.537,102.467 191.976,101.326 192.111 C 100.186 192.246,98.476 192.703,97.526 193.128 C 96.577 193.552,95.080 194.027,94.200 194.183 C 93.320 194.340,92.316 194.722,91.970 195.033 C 91.623 195.344,90.523 195.751,89.526 195.937 C 88.529 196.123,87.287 196.574,86.767 196.938 C 86.247 197.302,85.404 197.600,84.893 197.600 C 84.382 197.600,83.118 198.050,82.085 198.600 C 81.052 199.150,79.824 199.600,79.357 199.600 C 78.890 199.600,78.050 199.960,77.491 200.400 C 76.931 200.840,76.142 201.201,75.737 201.202 C 75.332 201.203,74.280 201.648,73.400 202.190 C 72.520 202.732,71.509 203.181,71.154 203.188 C 70.799 203.194,70.079 203.537,69.554 203.948 C 69.029 204.359,68.034 204.819,67.341 204.971 C 66.649 205.122,65.766 205.595,65.379 206.023 C 64.993 206.450,64.254 206.800,63.738 206.800 C 63.222 206.800,62.461 207.139,62.046 207.554 C 61.632 207.968,60.656 208.517,59.878 208.774 C 59.100 209.031,58.248 209.502,57.983 209.820 C 57.718 210.139,57.198 210.400,56.826 210.400 C 56.455 210.400,55.764 210.760,55.292 211.200 C 54.820 211.640,54.181 212.000,53.873 212.000 C 53.564 212.000,52.675 212.432,51.897 212.960 C 51.119 213.488,50.121 214.035,49.678 214.175 C 49.236 214.316,48.779 214.677,48.664 214.978 C 48.549 215.278,47.893 215.648,47.208 215.798 C 46.523 215.949,45.747 216.416,45.485 216.836 C 45.222 217.256,44.726 217.600,44.381 217.600 C 44.037 217.600,43.145 218.050,42.400 218.600 C 41.655 219.150,40.811 219.600,40.526 219.600 C 40.240 219.600,39.782 219.960,39.507 220.400 C 39.232 220.840,38.691 221.200,38.304 221.200 C 37.917 221.200,37.259 221.541,36.842 221.958 C 36.425 222.375,35.648 222.960,35.116 223.258 C 29.653 226.318,27.956 229.727,30.227 233.082 C 31.410 234.831,35.043 236.787,37.122 236.795 C 37.849 236.798,39.199 237.140,40.122 237.556 C 41.045 237.972,42.738 238.438,43.885 238.591 C 45.032 238.745,46.645 239.215,47.470 239.635 C 48.294 240.056,49.658 240.400,50.501 240.400 C 51.343 240.400,52.704 240.743,53.525 241.162 C 54.347 241.581,55.915 242.050,57.009 242.205 C 58.104 242.360,59.380 242.725,59.843 243.015 C 60.307 243.306,61.774 243.741,63.102 243.982 C 64.431 244.223,66.049 244.685,66.699 245.010 C 67.349 245.334,68.762 245.714,69.840 245.856 C 70.918 245.997,72.266 246.347,72.836 246.633 C 73.406 246.920,75.026 247.357,76.436 247.605 C 80.055 248.241,81.002 249.165,81.370 252.417 C 81.529 253.823,81.984 255.700,82.381 256.587 C 82.777 257.474,83.223 259.040,83.371 260.067 C 83.518 261.094,83.896 262.147,84.209 262.407 C 84.522 262.668,84.895 263.537,85.038 264.340 C 85.181 265.143,85.616 266.340,86.006 267.000 C 86.395 267.660,86.835 268.773,86.983 269.472 C 87.130 270.172,87.505 270.955,87.815 271.213 C 88.125 271.470,88.491 272.281,88.629 273.014 C 88.767 273.748,89.221 274.657,89.640 275.036 C 90.058 275.414,90.400 276.047,90.400 276.441 C 90.400 276.836,90.850 277.644,91.400 278.238 C 91.950 278.831,92.400 279.536,92.400 279.804 C 92.400 280.073,92.760 280.750,93.200 281.309 C 93.640 281.869,94.000 282.495,94.000 282.702 C 94.000 283.293,89.974 287.736,82.100 295.836 C 79.625 298.382,77.600 300.630,77.600 300.832 C 77.600 301.035,77.360 301.200,77.068 301.200 C 76.775 301.200,76.294 301.650,76.000 302.200 C 75.706 302.750,75.225 303.200,74.932 303.200 C 74.640 303.200,74.400 303.366,74.400 303.569 C 74.400 303.773,73.140 305.214,71.600 306.772 C 70.060 308.331,68.800 309.784,68.800 310.003 C 68.800 310.221,68.635 310.400,68.434 310.400 C 68.232 310.400,67.514 310.985,66.838 311.700 C 66.162 312.415,64.482 314.171,63.104 315.602 C 60.503 318.306,55.734 323.505,54.949 324.493 C 54.701 324.806,54.365 325.498,54.202 326.031 C 54.039 326.564,53.612 327.334,53.253 327.742 C 52.046 329.113,52.112 334.616,53.363 336.968 C 53.933 338.041,54.400 339.230,54.400 339.611 C 54.400 339.991,54.658 340.517,54.974 340.779 C 55.290 341.041,55.656 341.743,55.787 342.339 C 55.918 342.936,56.570 343.958,57.236 344.612 C 57.902 345.265,58.862 346.205,59.369 346.700 C 59.877 347.195,60.454 347.600,60.652 347.600 C 60.850 347.600,61.729 347.997,62.606 348.482 C 67.003 350.914,75.277 349.371,79.492 345.333 C 80.486 344.380,81.458 343.600,81.650 343.600 C 81.843 343.600,82.000 343.452,82.000 343.271 C 82.000 343.090,83.285 341.605,84.856 339.971 C 86.427 338.337,89.384 335.200,91.428 333.000 C 93.471 330.800,96.416 327.676,97.972 326.057 C 99.527 324.439,100.800 322.954,100.800 322.757 C 100.800 322.561,101.070 322.400,101.400 322.400 C 101.730 322.400,102.000 322.233,102.000 322.029 C 102.000 321.825,103.350 320.300,105.000 318.639 C 106.650 316.978,108.000 315.435,108.000 315.210 C 108.000 314.984,108.270 314.800,108.600 314.800 C 108.930 314.800,109.200 314.647,109.200 314.460 C 109.200 313.218,118.890 304.374,119.380 305.168 C 119.506 305.372,120.135 305.654,120.777 305.795 C 121.419 305.936,122.152 306.301,122.404 306.605 C 122.657 306.910,123.525 307.371,124.332 307.630 C 125.139 307.889,126.070 308.334,126.400 308.619 C 126.730 308.904,127.540 309.265,128.200 309.420 C 128.860 309.576,129.940 310.018,130.600 310.403 C 131.260 310.788,132.440 311.216,133.222 311.355 C 134.005 311.494,135.348 311.966,136.207 312.404 C 137.066 312.842,138.188 313.200,138.701 313.200 C 139.213 313.200,140.300 313.535,141.116 313.945 C 141.932 314.355,143.555 314.812,144.721 314.962 C 145.888 315.111,147.418 315.481,148.121 315.783 C 148.825 316.086,149.949 316.536,150.621 316.783 C 151.812 317.221,151.854 317.326,152.324 321.048 C 152.589 323.147,153.001 325.228,153.239 325.672 C 153.477 326.117,153.928 328.189,154.242 330.278 C 154.555 332.367,154.978 334.386,155.182 334.766 C 155.385 335.145,155.763 337.063,156.022 339.028 C 156.281 340.993,156.723 343.050,157.005 343.600 C 157.286 344.150,157.648 345.860,157.810 347.400 C 157.971 348.940,158.440 351.062,158.852 352.115 C 159.263 353.168,159.600 354.826,159.600 355.800 C 159.600 356.773,159.943 358.522,160.363 359.685 C 160.782 360.848,161.242 362.931,161.384 364.313 C 161.752 367.890,163.209 372.057,164.609 373.541 C 166.125 375.147,170.394 375.440,171.293 374.000 C 171.568 373.560,171.986 373.200,172.222 373.200 C 172.458 373.200,172.954 372.615,173.323 371.900 C 173.693 371.185,174.152 370.330,174.344 370.000 C 175.258 368.430,177.200 364.145,177.200 363.700 C 177.200 363.425,177.351 363.200,177.536 363.200 C 177.966 363.200,178.800 361.381,178.800 360.443 C 178.800 360.048,179.142 359.414,179.560 359.036 C 179.979 358.657,180.433 357.748,180.571 357.014 C 180.709 356.281,181.075 355.470,181.385 355.213 C 181.695 354.955,182.071 354.188,182.221 353.507 C 182.370 352.826,182.922 351.461,183.446 350.475 C 183.971 349.488,184.400 348.370,184.400 347.989 C 184.400 347.609,184.650 347.090,184.956 346.837 C 185.261 346.583,185.719 345.551,185.973 344.542 C 186.227 343.533,186.686 342.457,186.994 342.149 C 187.301 341.842,187.674 340.783,187.822 339.795 C 187.970 338.808,188.229 338.000,188.397 338.000 C 188.765 338.000,189.453 336.291,189.807 334.500 C 189.948 333.785,190.222 333.200,190.416 333.200 C 190.610 333.200,190.962 332.435,191.198 331.500 C 191.433 330.565,191.960 329.080,192.369 328.200 C 192.777 327.320,193.234 325.899,193.385 325.042 C 193.535 324.184,193.898 323.104,194.191 322.642 C 194.484 322.179,194.852 320.998,195.011 320.018 C 195.169 319.039,195.618 317.599,196.010 316.818 C 196.402 316.038,196.841 314.545,196.986 313.500 C 197.131 312.455,197.389 311.600,197.561 311.600 C 197.969 311.600,198.800 308.808,198.800 307.438 C 198.800 306.849,199.135 305.700,199.544 304.884 C 199.953 304.068,200.407 302.340,200.554 301.045 C 200.700 299.749,201.068 298.219,201.371 297.645 C 201.673 297.070,202.126 295.835,202.377 294.900 C 202.627 293.965,203.003 293.200,203.211 293.200 C 203.526 293.200,211.614 286.768,213.600 284.938 C 213.930 284.634,215.460 283.378,217.000 282.146 C 219.870 279.852,220.060 279.690,222.314 277.611 C 223.036 276.945,223.801 276.400,224.014 276.400 C 224.226 276.400,224.400 276.130,224.400 275.800 C 224.400 275.470,224.578 275.200,224.797 275.200 C 225.214 275.200,228.009 273.157,229.450 271.799 C 229.916 271.359,231.078 270.370,232.033 269.600 C 232.987 268.830,234.315 267.701,234.984 267.092 C 235.653 266.483,237.460 264.981,239.000 263.755 C 240.540 262.529,241.944 261.273,242.120 260.963 C 242.296 260.653,242.691 260.400,242.997 260.400 C 243.304 260.400,243.790 260.080,244.077 259.689 C 244.365 259.298,245.500 258.263,246.599 257.389 C 247.699 256.515,248.802 255.620,249.051 255.400 C 249.299 255.180,250.065 254.550,250.753 254.000 C 251.441 253.450,252.826 252.235,253.831 251.300 C 254.835 250.365,255.792 249.600,255.956 249.600 C 256.121 249.600,256.624 249.195,257.073 248.700 C 257.523 248.205,258.475 247.350,259.189 246.800 C 262.101 244.558,263.817 243.080,264.120 242.555 C 264.296 242.250,264.604 242.000,264.804 242.000 C 265.004 242.000,265.902 241.280,266.800 240.400 C 267.698 239.520,268.534 238.800,268.658 238.800 C 268.783 238.800,269.419 238.350,270.073 237.800 C 271.451 236.641,273.230 236.507,275.000 237.431 C 275.660 237.776,277.640 238.237,279.400 238.456 C 281.160 238.675,283.410 239.126,284.400 239.458 C 288.725 240.908,311.875 240.950,314.096 239.512 C 314.593 239.190,315.858 238.811,316.907 238.670 C 317.956 238.529,319.612 238.050,320.585 237.607 C 321.559 237.163,322.692 236.800,323.103 236.800 C 323.513 236.800,324.204 236.469,324.638 236.065 C 325.072 235.661,325.911 235.209,326.503 235.060 C 327.607 234.783,330.055 233.336,331.300 232.225 C 331.685 231.881,332.171 231.600,332.379 231.600 C 333.366 231.600,343.997 221.685,343.999 220.762 C 344.000 220.631,344.450 220.001,345.000 219.362 C 345.549 218.723,345.999 218.046,346.000 217.858 C 346.000 217.670,346.450 216.981,347.000 216.327 C 347.550 215.673,348.000 214.882,348.000 214.569 C 348.000 214.256,348.360 213.640,348.800 213.200 C 349.240 212.760,349.600 212.064,349.600 211.654 C 349.600 211.244,349.934 210.479,350.342 209.954 C 350.750 209.429,351.213 208.280,351.372 207.400 C 351.530 206.520,351.925 205.388,352.249 204.884 C 352.574 204.381,353.093 202.041,353.404 199.684 C 353.715 197.328,354.236 193.870,354.563 192.000 C 354.889 190.130,355.166 187.006,355.178 185.058 C 355.190 183.109,355.461 180.499,355.780 179.258 C 356.100 178.016,356.560 173.950,356.803 170.223 C 357.046 166.496,357.501 162.356,357.814 161.023 C 358.127 159.690,358.487 156.440,358.614 153.800 C 358.741 151.160,359.181 147.110,359.592 144.800 C 360.002 142.490,360.449 138.208,360.584 135.285 C 360.720 132.362,361.025 129.482,361.262 128.885 C 361.499 128.288,361.932 124.661,362.225 120.824 C 362.517 116.986,362.944 113.026,363.173 112.024 C 363.716 109.647,364.400 102.601,364.400 99.384 C 364.400 97.991,364.596 96.345,364.836 95.726 C 365.076 95.107,365.528 91.232,365.840 87.116 C 366.152 83.000,366.575 79.191,366.780 78.651 C 366.985 78.112,367.342 75.090,367.574 71.935 C 368.212 63.229,368.298 62.433,368.957 59.200 C 369.293 57.550,369.589 54.670,369.613 52.800 C 369.638 50.930,369.814 48.500,370.003 47.400 C 371.532 38.537,371.512 38.243,369.221 35.633 C 367.628 33.819,363.275 33.600,348.559 34.591 M368.100 35.900 C 369.470 37.337,370.073 38.997,369.788 40.549 C 369.662 41.237,369.302 45.040,368.987 49.000 C 368.673 52.960,368.150 57.550,367.824 59.200 C 367.498 60.850,367.225 63.740,367.216 65.623 C 367.207 67.505,366.861 70.925,366.447 73.223 C 366.032 75.520,365.569 79.560,365.416 82.200 C 365.264 84.840,364.877 88.350,364.557 90.000 C 364.237 91.650,363.884 95.160,363.774 97.800 C 363.663 100.440,363.230 104.490,362.811 106.800 C 362.393 109.110,361.863 113.790,361.633 117.200 C 361.404 120.610,361.031 124.030,360.804 124.800 C 360.577 125.570,360.221 128.900,360.012 132.200 C 359.803 135.500,359.363 139.460,359.032 141.000 C 358.702 142.540,358.258 146.500,358.045 149.800 C 357.832 153.100,357.381 156.970,357.043 158.400 C 356.702 159.840,356.421 162.873,356.413 165.200 C 356.404 167.684,356.074 171.069,355.605 173.484 C 355.168 175.731,354.633 180.231,354.416 183.484 C 354.198 186.738,353.749 190.570,353.418 192.000 C 353.087 193.430,352.813 196.002,352.808 197.716 C 352.802 199.946,352.588 201.254,352.054 202.316 C 351.644 203.132,351.177 204.520,351.018 205.400 C 350.748 206.888,349.248 210.623,348.368 212.000 C 348.157 212.330,347.720 213.173,347.397 213.874 C 346.773 215.231,345.742 216.815,343.800 219.401 C 343.140 220.280,342.420 221.253,342.200 221.562 C 341.526 222.511,335.058 228.800,334.757 228.800 C 334.601 228.800,333.490 229.601,332.289 230.579 C 331.088 231.558,329.645 232.474,329.082 232.615 C 328.519 232.756,327.748 233.216,327.367 233.636 C 326.987 234.056,326.368 234.400,325.992 234.400 C 325.616 234.400,324.879 234.731,324.354 235.136 C 323.829 235.542,322.516 236.091,321.437 236.358 C 320.357 236.625,319.102 237.104,318.648 237.422 C 318.194 237.740,317.161 238.000,316.353 238.000 C 315.545 238.000,313.650 238.395,312.142 238.877 C 308.110 240.167,291.488 240.148,286.636 238.848 C 284.896 238.381,282.607 238.000,281.551 238.000 C 280.494 238.000,278.768 237.662,277.715 237.248 C 272.181 235.076,271.098 235.424,264.459 241.500 C 263.437 242.435,262.484 243.200,262.341 243.200 C 262.197 243.200,261.184 243.965,260.090 244.900 C 258.996 245.835,254.973 249.221,251.151 252.424 C 247.328 255.627,243.660 258.749,243.000 259.363 C 242.340 259.976,240.540 261.435,239.000 262.603 C 237.460 263.772,235.557 265.329,234.771 266.064 C 232.962 267.754,230.513 269.815,227.200 272.432 C 225.770 273.562,223.700 275.324,222.600 276.347 C 221.500 277.370,219.880 278.745,219.000 279.401 C 218.120 280.058,217.310 280.697,217.200 280.821 C 217.090 280.945,216.620 281.306,216.157 281.623 C 215.693 281.940,214.155 283.231,212.739 284.490 C 211.323 285.750,208.912 287.742,207.382 288.918 C 202.026 293.033,200.612 294.946,200.152 298.699 C 200.024 299.744,199.487 301.890,198.959 303.467 C 198.432 305.044,198.000 306.806,198.000 307.383 C 198.000 307.960,197.640 309.138,197.200 310.000 C 196.760 310.862,196.400 312.077,196.400 312.699 C 196.400 313.322,196.036 314.544,195.590 315.415 C 195.145 316.287,194.672 317.720,194.539 318.600 C 194.407 319.480,193.961 320.761,193.549 321.447 C 193.137 322.133,192.800 323.130,192.800 323.663 C 192.800 324.195,192.442 325.334,192.004 326.193 C 191.566 327.052,191.094 328.395,190.955 329.178 C 190.816 329.960,190.384 331.140,189.994 331.800 C 189.605 332.460,189.156 333.615,188.997 334.367 C 188.837 335.118,188.369 336.288,187.955 336.967 C 187.541 337.645,187.202 338.560,187.200 339.000 C 187.198 339.440,186.838 340.389,186.399 341.110 C 185.959 341.830,185.600 342.658,185.600 342.950 C 185.600 343.242,185.150 344.327,184.600 345.362 C 184.050 346.396,183.596 347.548,183.591 347.921 C 183.586 348.295,183.230 349.050,182.800 349.600 C 182.370 350.150,182.014 350.888,182.009 351.240 C 182.004 351.593,181.580 352.673,181.067 353.640 C 180.553 354.608,180.002 355.926,179.842 356.568 C 179.682 357.211,179.202 358.180,178.775 358.722 C 178.349 359.264,178.000 360.106,178.000 360.592 C 178.000 361.078,177.640 361.802,177.200 362.200 C 176.760 362.598,176.400 363.266,176.400 363.683 C 176.400 364.101,175.950 365.105,175.400 365.914 C 174.850 366.723,174.400 367.631,174.400 367.930 C 174.400 368.229,174.040 368.931,173.600 369.491 C 173.160 370.050,172.800 370.799,172.800 371.154 C 172.800 372.427,170.057 374.128,168.053 374.097 C 165.804 374.063,163.600 372.045,163.600 370.021 C 163.600 369.366,163.258 367.878,162.840 366.715 C 162.422 365.552,161.979 363.390,161.856 361.911 C 161.733 360.432,161.380 358.722,161.071 358.111 C 160.763 357.500,160.309 355.403,160.063 353.451 C 159.817 351.499,159.448 349.699,159.244 349.451 C 159.039 349.203,158.653 347.470,158.386 345.600 C 158.119 343.730,157.653 341.591,157.349 340.847 C 157.045 340.103,156.626 337.997,156.418 336.166 C 156.210 334.336,155.785 332.335,155.473 331.719 C 155.161 331.104,154.783 329.318,154.633 327.750 C 154.484 326.183,154.010 323.976,153.581 322.846 C 153.151 321.716,152.800 319.901,152.800 318.813 C 152.800 316.284,150.950 314.998,146.512 314.441 C 144.969 314.247,143.278 313.812,142.753 313.473 C 142.229 313.135,140.900 312.674,139.800 312.449 C 137.443 311.966,132.703 310.346,131.000 309.442 C 130.340 309.092,129.468 308.804,129.063 308.802 C 128.658 308.801,127.869 308.440,127.309 308.000 C 126.750 307.560,125.900 307.200,125.421 307.200 C 124.943 307.200,124.199 306.872,123.769 306.472 C 123.339 306.071,122.372 305.529,121.620 305.267 C 120.867 305.005,119.963 304.529,119.610 304.209 C 118.759 303.439,117.339 304.150,115.516 306.257 C 114.792 307.094,113.091 308.953,111.737 310.389 C 110.382 311.825,108.341 313.990,107.201 315.200 C 106.061 316.410,101.566 321.090,97.213 325.600 C 92.859 330.110,88.420 334.775,87.348 335.967 C 86.277 337.159,84.590 338.971,83.600 339.995 C 82.610 341.019,81.251 342.474,80.579 343.228 C 79.237 344.737,75.921 347.200,75.233 347.200 C 74.993 347.200,74.125 347.560,73.304 348.000 C 71.246 349.103,66.498 349.099,64.056 347.991 C 63.097 347.556,62.012 347.200,61.644 347.200 C 60.638 347.200,56.400 342.823,56.400 341.785 C 56.400 341.302,56.040 340.450,55.600 339.891 C 55.160 339.331,54.800 338.579,54.800 338.219 C 54.800 337.858,54.350 336.718,53.800 335.685 C 52.507 333.255,52.539 332.312,54.047 328.546 C 55.347 325.299,55.535 325.050,61.400 318.824 C 63.380 316.723,65.180 314.803,65.400 314.559 C 66.833 312.968,76.852 302.433,80.000 299.207 C 96.419 282.381,95.527 283.665,93.414 279.899 C 92.643 278.524,91.630 276.635,91.162 275.700 C 90.695 274.765,90.171 274.000,89.999 274.000 C 89.827 274.000,89.564 273.511,89.414 272.913 C 89.264 272.315,88.704 270.903,88.171 269.774 C 87.637 268.646,87.200 267.499,87.200 267.224 C 87.200 266.950,86.840 266.269,86.400 265.709 C 85.960 265.150,85.600 264.347,85.600 263.924 C 85.600 263.502,85.237 262.359,84.793 261.385 C 84.350 260.412,83.871 258.756,83.730 257.707 C 83.589 256.658,83.233 255.428,82.939 254.974 C 82.645 254.520,82.299 253.260,82.169 252.174 C 81.695 248.201,81.427 247.897,77.600 246.997 C 76.390 246.712,74.680 246.199,73.800 245.857 C 72.920 245.515,71.696 245.227,71.080 245.218 C 70.464 245.208,69.414 244.918,68.747 244.572 C 68.079 244.227,66.423 243.767,65.066 243.550 C 63.710 243.333,62.225 242.910,61.767 242.612 C 61.308 242.313,60.048 241.941,58.967 241.786 C 57.885 241.630,56.268 241.175,55.374 240.775 C 54.479 240.374,52.804 239.922,51.651 239.769 C 50.499 239.616,48.897 239.156,48.093 238.746 C 47.289 238.335,45.994 237.999,45.215 237.998 C 44.437 237.996,43.260 237.713,42.600 237.367 C 41.940 237.022,40.410 236.560,39.200 236.340 C 35.452 235.659,31.564 233.958,31.126 232.808 C 29.982 229.807,30.915 226.547,33.187 225.606 C 33.822 225.342,34.438 224.879,34.554 224.576 C 34.670 224.273,35.358 223.750,36.083 223.414 C 37.785 222.625,40.144 221.197,40.400 220.800 C 40.510 220.629,41.230 220.195,42.000 219.834 C 43.791 218.995,45.013 218.279,45.897 217.549 C 46.284 217.230,47.305 216.616,48.167 216.184 C 51.379 214.576,52.261 214.049,52.773 213.433 C 53.062 213.085,53.612 212.800,53.995 212.800 C 54.378 212.800,55.121 212.473,55.646 212.074 C 56.691 211.278,68.799 205.200,69.339 205.200 C 69.523 205.200,70.131 204.840,70.691 204.400 C 71.250 203.960,72.106 203.600,72.592 203.600 C 73.078 203.600,73.782 203.262,74.156 202.848 C 74.531 202.435,75.525 201.986,76.366 201.852 C 77.208 201.717,78.106 201.354,78.362 201.045 C 78.619 200.736,79.407 200.374,80.114 200.240 C 80.821 200.105,81.940 199.709,82.600 199.359 C 83.260 199.009,84.763 198.467,85.940 198.156 C 87.117 197.844,88.462 197.322,88.929 196.995 C 89.396 196.668,90.170 196.400,90.649 196.400 C 91.128 196.400,92.483 195.952,93.660 195.404 C 94.837 194.856,96.212 194.406,96.716 194.404 C 97.220 194.402,98.338 194.040,99.200 193.600 C 100.062 193.160,101.431 192.800,102.240 192.800 C 103.050 192.800,104.452 192.452,105.356 192.027 C 106.260 191.602,107.518 191.143,108.151 191.007 C 109.376 190.743,112.794 187.482,112.804 186.566 C 112.807 186.365,113.459 185.570,114.254 184.800 C 115.050 184.030,116.373 182.367,117.195 181.105 C 118.018 179.842,119.506 177.862,120.503 176.705 C 121.501 175.547,123.759 172.800,125.523 170.600 C 129.294 165.895,133.034 161.246,133.727 160.400 C 133.997 160.070,135.603 158.090,137.296 156.000 C 138.989 153.910,140.740 151.821,141.187 151.358 C 141.634 150.895,142.000 150.319,142.000 150.078 C 142.000 149.837,142.253 149.496,142.563 149.320 C 143.114 149.007,146.610 144.856,148.200 142.628 C 149.286 141.105,151.108 138.926,152.904 137.000 C 153.725 136.120,154.397 135.272,154.398 135.115 C 154.400 134.780,160.256 127.607,161.066 126.948 C 161.836 126.322,161.851 123.968,161.093 122.567 C 160.746 121.925,160.260 120.059,160.014 118.421 C 159.768 116.782,159.387 115.225,159.168 114.961 C 157.126 112.501,157.099 83.932,159.135 81.478 C 159.378 81.185,159.786 79.968,160.041 78.773 C 160.296 77.578,160.842 76.171,161.253 75.646 C 161.664 75.121,162.000 74.447,162.000 74.147 C 162.000 71.002,170.502 59.180,175.800 54.958 C 180.046 51.574,187.690 47.200,189.358 47.200 C 189.729 47.200,190.738 46.840,191.600 46.400 C 192.462 45.960,193.587 45.600,194.098 45.600 C 194.609 45.600,196.011 45.256,197.214 44.837 C 198.923 44.240,201.059 44.016,207.000 43.811 C 211.180 43.666,218.110 43.211,222.400 42.800 C 226.690 42.388,234.700 41.935,240.200 41.793 C 245.700 41.652,251.460 41.377,253.000 41.184 C 254.540 40.990,262.010 40.569,269.600 40.247 C 277.190 39.925,286.280 39.383,289.800 39.041 C 293.320 38.700,301.060 38.235,307.000 38.008 C 312.940 37.781,319.240 37.425,321.000 37.217 C 322.760 37.010,329.607 36.666,336.217 36.454 C 342.826 36.242,349.666 35.874,351.417 35.637 C 356.576 34.937,356.780 34.922,362.025 34.860 C 367.020 34.800,367.057 34.807,368.100 35.900 M331.400 55.170 C 329.420 55.297,327.370 55.645,326.845 55.943 C 326.253 56.280,323.520 56.629,319.645 56.861 C 316.210 57.066,313.040 57.395,312.600 57.592 C 311.469 58.098,304.655 58.800,300.883 58.800 C 298.655 58.800,297.177 59.026,295.951 59.553 C 294.628 60.122,292.739 60.370,288.220 60.570 C 284.932 60.715,282.052 60.982,281.820 61.162 C 281.233 61.620,273.806 62.400,270.037 62.400 C 267.851 62.400,266.372 62.628,265.151 63.154 C 263.832 63.722,261.930 63.976,257.445 64.181 C 253.581 64.358,251.193 64.642,250.645 64.990 C 250.110 65.330,247.416 65.671,243.291 65.921 C 239.712 66.139,236.562 66.492,236.291 66.706 C 235.779 67.112,226.557 68.003,222.886 68.001 C 221.629 68.000,220.380 68.257,219.805 68.633 C 219.095 69.099,217.155 69.357,212.496 69.607 C 209.008 69.794,205.715 70.127,205.177 70.348 C 204.066 70.805,195.708 71.600,192.023 71.600 C 190.435 71.600,189.223 71.829,188.581 72.249 C 187.843 72.733,186.016 72.982,181.431 73.223 C 174.863 73.569,173.738 73.899,173.331 75.600 C 173.200 76.150,172.834 76.898,172.519 77.262 C 172.203 77.626,171.688 78.777,171.374 79.819 C 171.061 80.860,170.601 81.958,170.352 82.258 C 170.103 82.558,169.754 84.245,169.576 86.007 C 169.398 87.769,168.971 89.776,168.627 90.467 C 167.740 92.245,167.719 104.114,168.600 105.880 C 168.930 106.542,169.314 108.504,169.453 110.242 C 169.592 111.979,170.020 114.120,170.405 115.000 C 170.789 115.880,171.232 117.660,171.388 118.956 C 171.544 120.252,171.998 121.962,172.397 122.756 C 172.796 123.550,173.246 125.100,173.397 126.200 C 173.548 127.300,173.905 128.470,174.191 128.800 C 174.477 129.130,174.840 130.030,174.999 130.800 C 175.157 131.570,175.607 132.740,176.000 133.400 C 176.393 134.060,176.845 135.220,177.006 135.977 C 177.166 136.735,177.545 137.602,177.848 137.905 C 178.151 138.208,178.513 138.938,178.652 139.528 C 178.791 140.118,179.219 140.960,179.603 141.400 C 179.987 141.840,180.418 142.858,180.561 143.661 C 180.705 144.465,181.069 145.218,181.371 145.333 C 181.672 145.449,182.132 146.187,182.391 146.972 C 182.650 147.757,183.037 148.400,183.252 148.400 C 183.466 148.400,183.837 148.960,184.076 149.645 C 184.620 151.207,186.841 151.110,188.827 149.439 C 189.506 148.867,190.290 148.400,190.569 148.400 C 190.848 148.400,191.402 148.040,191.800 147.600 C 192.198 147.160,192.753 146.800,193.033 146.800 C 193.314 146.800,193.842 146.501,194.208 146.135 C 195.350 144.993,198.170 143.215,198.851 143.207 C 199.209 143.203,199.749 142.902,200.051 142.538 C 200.353 142.174,201.185 141.632,201.900 141.333 C 202.615 141.034,203.200 140.634,203.200 140.443 C 203.200 140.253,203.727 139.879,204.371 139.612 C 205.015 139.345,205.853 138.783,206.233 138.363 C 206.613 137.944,207.228 137.600,207.600 137.600 C 207.972 137.600,208.587 137.256,208.967 136.836 C 209.348 136.416,210.100 135.961,210.640 135.826 C 211.179 135.690,211.976 135.224,212.410 134.790 C 212.845 134.355,213.470 134.000,213.800 134.000 C 214.130 134.000,214.400 133.817,214.400 133.594 C 214.400 133.370,215.075 132.875,215.900 132.494 C 216.725 132.112,217.513 131.645,217.651 131.456 C 217.968 131.021,220.600 129.405,222.300 128.603 C 223.015 128.265,223.600 127.815,223.600 127.602 C 223.600 127.389,224.095 127.094,224.700 126.947 C 225.305 126.799,226.309 126.256,226.931 125.739 C 227.553 125.223,228.364 124.800,228.734 124.800 C 229.105 124.800,229.632 124.440,229.907 124.000 C 230.182 123.560,230.771 123.200,231.216 123.200 C 231.661 123.200,232.120 122.954,232.235 122.653 C 232.458 122.073,236.057 119.600,236.678 119.600 C 236.880 119.600,237.655 119.150,238.400 118.600 C 239.145 118.050,240.061 117.600,240.435 117.600 C 240.809 117.600,241.216 117.336,241.340 117.013 C 241.464 116.690,242.158 116.177,242.883 115.875 C 243.607 115.572,244.447 115.026,244.749 114.662 C 245.051 114.298,245.630 114.000,246.035 114.000 C 246.440 114.000,246.953 113.661,247.175 113.247 C 247.397 112.832,248.213 112.374,248.989 112.228 C 249.766 112.083,250.400 111.724,250.400 111.430 C 250.400 111.137,250.940 110.673,251.600 110.400 C 252.260 110.127,252.800 109.764,252.800 109.595 C 252.800 109.425,253.520 108.999,254.400 108.647 C 255.280 108.295,256.000 107.843,256.000 107.642 C 256.000 107.442,256.526 107.095,257.168 106.871 C 257.810 106.647,258.710 106.090,259.168 105.632 C 259.626 105.174,260.270 104.800,260.600 104.800 C 260.930 104.800,261.560 104.440,262.000 104.000 C 262.440 103.560,263.128 103.200,263.528 103.200 C 263.928 103.200,264.647 102.750,265.125 102.200 C 265.603 101.650,266.211 101.200,266.476 101.200 C 267.015 101.200,269.791 99.374,270.887 98.300 C 271.279 97.915,271.842 97.600,272.138 97.600 C 272.434 97.600,272.987 97.256,273.367 96.836 C 273.748 96.416,274.511 95.958,275.064 95.820 C 275.616 95.681,276.447 95.215,276.910 94.784 C 277.372 94.353,278.071 94.000,278.461 94.000 C 278.852 94.000,279.365 93.640,279.600 93.200 C 279.835 92.760,280.247 92.397,280.514 92.393 C 280.973 92.386,283.646 90.741,285.400 89.385 C 285.840 89.045,286.650 88.655,287.200 88.519 C 287.750 88.382,288.435 87.940,288.723 87.535 C 289.010 87.131,289.427 86.800,289.649 86.800 C 289.872 86.800,290.643 86.350,291.364 85.800 C 292.086 85.250,292.930 84.800,293.242 84.800 C 293.553 84.800,294.032 84.440,294.307 84.000 C 294.582 83.560,295.066 83.200,295.383 83.200 C 295.700 83.200,296.444 82.750,297.038 82.200 C 297.631 81.650,298.451 81.200,298.858 81.200 C 299.266 81.200,299.600 81.011,299.600 80.780 C 299.600 80.548,300.254 80.086,301.054 79.752 C 302.485 79.154,304.228 78.053,305.800 76.753 C 306.240 76.389,307.050 75.955,307.600 75.789 C 308.150 75.622,308.835 75.151,309.123 74.743 C 309.410 74.334,309.877 74.000,310.161 74.000 C 310.444 74.000,310.987 73.656,311.367 73.236 C 311.748 72.816,312.514 72.358,313.070 72.218 C 314.031 71.977,314.485 71.715,317.484 69.674 C 318.190 69.193,318.941 68.800,319.153 68.800 C 319.365 68.800,320.049 68.395,320.672 67.900 C 321.296 67.405,322.093 66.820,322.443 66.600 C 324.622 65.232,326.368 63.976,326.590 63.616 C 326.731 63.387,327.169 63.200,327.562 63.200 C 327.955 63.200,328.593 62.850,328.979 62.423 C 329.366 61.995,330.216 61.528,330.869 61.385 C 331.521 61.242,332.149 60.878,332.264 60.578 C 332.379 60.277,332.862 59.909,333.337 59.760 C 333.812 59.612,334.709 59.065,335.331 58.545 C 335.953 58.025,336.690 57.600,336.969 57.600 C 337.248 57.600,337.793 57.250,338.179 56.823 C 338.566 56.395,339.404 55.931,340.041 55.791 C 343.906 54.942,339.703 54.640,331.400 55.170 M125.749 186.189 C 125.263 187.454,126.514 188.160,127.633 187.253 C 128.724 186.368,128.656 186.180,127.103 185.790 C 126.275 185.582,125.944 185.680,125.749 186.189 M141.011 194.261 C 140.644 194.667,139.017 196.710,137.394 198.800 C 135.771 200.890,134.105 202.960,133.691 203.400 C 133.277 203.840,131.975 205.460,130.796 207.000 C 128.147 210.461,125.939 213.200,123.516 216.028 C 120.523 219.522,114.947 226.578,114.460 227.489 C 113.665 228.973,116.971 231.246,119.329 230.838 C 122.406 230.304,124.568 230.762,125.777 232.201 C 126.902 233.542,127.081 233.626,127.567 233.040 C 128.166 232.317,126.223 230.000,125.018 230.000 C 124.693 230.000,124.235 229.640,124.000 229.200 C 123.698 228.636,123.162 228.400,122.186 228.400 C 121.333 228.400,120.492 228.708,120.000 229.200 C 119.560 229.640,119.110 230.000,119.000 230.000 C 118.890 230.000,118.440 229.640,118.000 229.200 C 117.560 228.760,116.809 228.400,116.330 228.400 C 115.515 228.400,115.502 228.355,116.123 227.700 C 117.965 225.757,120.800 221.965,120.800 221.444 C 120.800 221.120,121.160 220.740,121.600 220.600 C 122.040 220.460,122.400 220.177,122.400 219.970 C 122.400 219.764,122.850 219.203,123.400 218.725 C 123.950 218.247,124.400 217.708,124.400 217.528 C 124.400 217.348,124.715 216.858,125.100 216.440 C 127.386 213.960,128.000 213.103,128.000 212.393 C 128.000 211.869,128.269 211.600,128.792 211.600 C 129.304 211.600,129.674 211.246,129.836 210.600 C 129.974 210.050,130.343 209.600,130.656 209.600 C 130.969 209.600,131.341 209.285,131.483 208.900 C 131.624 208.515,132.114 207.809,132.570 207.331 C 133.917 205.920,135.068 204.264,135.371 203.300 C 135.526 202.805,135.916 202.400,136.237 202.400 C 136.557 202.400,136.991 201.950,137.200 201.400 C 137.409 200.850,137.855 200.400,138.190 200.400 C 138.526 200.400,138.800 200.053,138.800 199.627 C 138.800 199.202,139.160 198.740,139.600 198.600 C 140.040 198.460,140.400 198.097,140.400 197.794 C 140.400 195.850,144.439 194.232,144.986 195.957 C 145.265 196.836,146.319 197.187,148.700 197.195 C 149.932 197.198,150.400 197.363,150.400 197.792 C 150.400 198.421,151.003 198.610,154.194 198.979 C 157.587 199.373,158.111 200.356,156.056 202.475 C 148.853 209.907,147.081 212.000,147.991 212.000 C 148.216 212.000,148.400 211.807,148.400 211.571 C 148.400 211.174,150.952 208.332,157.427 201.516 C 160.250 198.546,160.251 198.559,157.177 198.178 C 155.980 198.030,154.635 197.681,154.188 197.402 C 153.741 197.124,152.301 196.669,150.988 196.390 C 149.675 196.112,148.207 195.644,147.726 195.350 C 146.956 194.880,146.037 194.593,142.539 193.733 C 141.998 193.600,141.430 193.796,141.011 194.261 M146.101 213.040 C 145.606 213.604,145.411 213.996,145.667 213.911 C 146.098 213.767,147.480 211.991,147.149 212.007 C 147.067 212.011,146.595 212.476,146.101 213.040 M142.100 217.216 C 140.837 218.775,140.971 219.133,142.250 217.614 C 142.827 216.928,143.232 216.308,143.150 216.236 C 143.067 216.164,142.595 216.605,142.100 217.216 M132.074 227.798 C 131.823 228.349,131.453 228.800,131.251 228.800 C 131.050 228.800,130.769 229.105,130.626 229.478 C 130.405 230.051,130.497 230.036,131.220 229.382 C 132.162 228.530,132.959 227.225,132.697 226.964 C 132.605 226.872,132.325 227.247,132.074 227.798 M119.736 245.853 C 119.481 245.957,118.146 247.428,116.769 249.121 C 115.393 250.815,114.058 252.380,113.803 252.600 C 111.834 254.300,108.800 258.243,108.800 259.102 C 108.800 260.078,110.606 263.641,112.070 265.554 C 112.471 266.079,112.800 266.816,112.800 267.192 C 112.800 267.568,113.160 268.202,113.600 268.600 C 114.040 268.998,114.400 269.528,114.400 269.778 C 114.400 270.028,115.089 270.856,115.931 271.616 C 116.774 272.377,119.046 274.440,120.981 276.200 C 122.916 277.960,124.905 279.670,125.400 280.000 C 125.896 280.330,126.893 281.181,127.617 281.891 C 128.341 282.601,129.578 283.393,130.367 283.650 C 131.155 283.907,132.427 284.451,133.194 284.859 C 133.961 285.266,134.956 285.600,135.405 285.600 C 135.854 285.600,136.589 285.857,137.037 286.171 C 138.189 286.978,142.765 288.469,143.222 288.187 C 143.431 288.057,145.352 285.847,147.489 283.276 C 149.627 280.704,152.064 277.881,152.905 277.002 C 155.333 274.464,155.393 273.070,153.095 272.592 C 152.383 272.443,151.424 272.084,150.964 271.793 C 150.504 271.503,149.417 271.074,148.548 270.840 C 146.460 270.278,143.143 268.425,138.808 265.400 C 137.862 264.740,136.685 263.975,136.191 263.701 C 133.664 262.294,126.230 253.996,123.985 250.074 C 121.612 245.930,121.010 245.332,119.736 245.853 M122.284 249.528 C 122.540 249.687,122.946 250.263,123.185 250.808 C 123.781 252.166,125.529 254.529,126.227 254.919 C 126.542 255.095,126.800 255.420,126.800 255.640 C 126.800 256.201,129.383 258.800,129.940 258.800 C 130.193 258.800,130.400 259.160,130.400 259.600 C 130.400 260.040,130.587 260.400,130.816 260.400 C 131.044 260.400,132.121 261.255,133.208 262.300 C 135.865 264.854,136.579 265.453,137.645 266.024 C 138.142 266.290,138.910 266.844,139.350 267.254 C 139.791 267.664,140.387 268.000,140.675 268.000 C 140.964 268.000,141.200 268.160,141.200 268.356 C 141.200 268.552,141.996 269.086,142.969 269.543 C 143.941 270.000,144.842 270.545,144.971 270.752 C 145.099 270.960,145.958 271.258,146.879 271.413 C 147.800 271.569,148.801 271.944,149.105 272.248 C 149.408 272.551,150.093 272.889,150.628 272.999 C 151.163 273.110,152.050 273.293,152.600 273.408 C 153.994 273.697,153.853 274.375,152.000 276.304 C 151.120 277.220,150.400 278.246,150.400 278.585 C 150.400 278.923,150.136 279.200,149.814 279.200 C 149.492 279.200,149.028 279.573,148.784 280.029 C 148.540 280.485,147.634 281.544,146.770 282.383 C 145.907 283.221,145.200 284.063,145.200 284.254 C 145.200 286.472,140.230 287.430,138.371 285.571 C 137.942 285.142,137.051 284.800,136.363 284.800 C 135.683 284.800,134.694 284.460,134.167 284.045 C 133.639 283.630,132.530 283.164,131.703 283.010 C 130.877 282.856,129.886 282.430,129.503 282.065 C 129.119 281.699,128.309 280.989,127.703 280.486 C 127.096 279.983,125.617 278.678,124.415 277.586 C 123.214 276.494,122.018 275.600,121.758 275.600 C 121.498 275.600,121.181 275.328,121.054 274.997 C 120.927 274.665,120.367 274.186,119.811 273.932 C 119.255 273.679,118.800 273.225,118.800 272.923 C 118.800 272.622,118.527 272.270,118.194 272.142 C 117.216 271.767,115.200 269.728,115.200 269.115 C 115.200 268.805,114.862 268.188,114.449 267.745 C 114.036 267.301,113.565 266.502,113.403 265.969 C 113.241 265.436,112.789 264.640,112.400 264.200 C 112.011 263.760,111.556 262.953,111.390 262.408 C 111.224 261.862,110.725 260.925,110.282 260.326 L 109.476 259.236 111.787 256.518 C 113.059 255.023,114.347 253.656,114.649 253.480 C 114.952 253.304,115.200 252.821,115.200 252.407 C 115.200 251.993,115.560 251.540,116.000 251.400 C 116.440 251.260,116.800 250.909,116.800 250.619 C 116.800 250.329,117.250 249.797,117.800 249.437 C 118.350 249.076,118.800 248.550,118.800 248.268 C 118.800 247.034,120.976 246.896,121.409 248.102 C 121.634 248.728,122.027 249.370,122.284 249.528 " stroke="none" fill="#fc9898" fill-rule="evenodd"></path></g></svg>