<svg id="svg" version="1.1" xmlns="http://www.w3.org/2000/svg" xmlns:xlink="http://www.w3.org/1999/xlink" width="400" height="131.42857142857142" viewBox="0, 0, 400,131.42857142857142"><g id="svgg"><path id="path0" d="M262.917 34.833 C 261.902 34.923,260.013 35.716,258.720 36.593 C 258.390 36.817,258.003 37.000,257.861 37.000 C 257.580 37.000,256.656 37.586,255.566 38.455 C 255.190 38.755,254.813 39.000,254.727 39.000 C 254.642 39.000,254.165 39.262,253.667 39.583 C 253.169 39.904,252.562 40.167,252.318 40.167 C 252.074 40.167,251.774 40.288,251.651 40.436 C 251.528 40.584,251.030 40.929,250.543 41.204 C 250.057 41.478,249.586 41.839,249.498 42.005 C 249.409 42.170,249.118 42.354,248.852 42.413 C 248.586 42.471,248.236 42.665,248.075 42.843 C 247.914 43.021,247.678 43.167,247.550 43.167 C 247.423 43.167,247.116 43.357,246.868 43.589 C 246.620 43.821,246.248 44.046,246.042 44.089 C 245.835 44.132,245.477 44.206,245.246 44.254 C 245.014 44.302,244.546 44.586,244.204 44.885 C 243.863 45.184,243.283 45.620,242.917 45.855 C 241.145 46.988,239.605 47.871,239.040 48.077 C 238.123 48.413,236.986 48.996,236.417 49.422 C 236.142 49.628,235.504 50.000,235.000 50.249 C 234.496 50.499,233.909 50.919,233.696 51.185 C 233.466 51.471,233.149 51.667,232.915 51.667 C 232.694 51.667,232.181 51.960,231.750 52.333 C 231.326 52.700,230.869 53.000,230.733 53.000 C 230.376 53.000,229.350 53.553,228.602 54.150 C 228.246 54.434,227.817 54.667,227.650 54.667 C 227.482 54.667,227.077 54.902,226.749 55.190 C 226.217 55.657,224.407 56.833,224.220 56.833 C 224.071 56.833,222.750 57.933,222.363 58.381 C 221.817 59.011,221.144 59.333,220.375 59.333 C 219.847 59.333,219.620 59.451,219.083 60.000 C 218.333 60.769,218.210 60.807,218.137 60.292 C 218.028 59.525,216.912 59.845,215.956 60.917 C 215.468 61.465,214.776 62.015,214.248 62.273 C 213.697 62.543,212.992 63.111,212.392 63.771 C 211.377 64.884,211.134 64.992,210.555 64.586 C 210.175 64.320,209.843 65.365,210.188 65.742 C 210.617 66.210,209.244 66.441,208.758 65.983 C 208.438 65.680,207.973 65.805,208.155 66.145 C 208.364 66.535,208.237 66.667,207.650 66.667 C 206.647 66.667,205.667 67.356,205.667 68.061 C 205.667 68.654,205.279 68.626,204.834 68.000 C 204.322 67.282,203.750 67.182,203.315 67.736 C 203.021 68.110,202.883 68.160,202.401 68.069 C 201.769 67.951,199.396 69.028,198.750 69.726 C 198.230 70.288,197.471 70.779,196.833 70.968 C 194.791 71.570,194.227 71.867,193.677 72.626 C 193.378 73.038,193.056 73.304,192.872 73.290 C 192.596 73.270,190.599 74.428,189.217 75.409 C 188.925 75.618,188.370 75.838,187.985 75.900 C 187.600 75.961,187.085 76.154,186.841 76.328 C 186.596 76.502,186.202 76.693,185.964 76.753 C 185.726 76.813,185.361 77.043,185.153 77.264 C 184.945 77.486,184.673 77.667,184.547 77.667 C 184.422 77.667,183.966 77.992,183.535 78.389 C 182.769 79.094,181.469 79.832,180.989 79.834 C 180.564 79.836,179.000 81.216,179.179 81.432 C 179.295 81.571,179.128 81.679,178.587 81.815 C 178.172 81.920,177.740 82.154,177.626 82.336 C 177.513 82.518,177.307 82.667,177.168 82.667 C 177.030 82.668,176.671 82.818,176.371 83.001 C 176.071 83.184,175.641 83.333,175.415 83.333 C 175.103 83.333,174.946 83.474,174.761 83.917 C 174.564 84.388,174.427 84.500,174.046 84.500 C 173.786 84.500,173.402 84.620,173.192 84.767 C 172.982 84.914,172.610 85.057,172.364 85.085 C 172.118 85.112,171.642 85.188,171.306 85.254 C 170.741 85.363,170.675 85.334,170.427 84.853 C 170.279 84.567,170.048 84.333,169.912 84.333 C 169.777 84.333,169.667 84.186,169.667 84.006 C 169.667 83.826,169.431 83.409,169.142 83.081 C 168.747 82.631,168.664 82.436,168.809 82.291 C 169.035 82.065,169.065 81.500,168.851 81.500 C 168.770 81.500,168.580 81.192,168.429 80.816 C 168.157 80.135,168.154 80.133,167.453 80.246 C 164.929 80.652,163.923 79.840,164.936 78.214 C 165.063 78.011,165.167 77.814,165.167 77.775 C 165.167 77.613,164.526 77.556,164.276 77.696 C 164.018 77.840,163.256 77.657,161.957 77.141 C 161.473 76.949,160.650 75.463,160.418 74.364 C 160.346 74.019,160.167 73.759,159.943 73.673 C 159.597 73.539,159.601 73.527,160.062 73.347 C 160.490 73.179,160.529 73.103,160.432 72.621 C 160.373 72.325,160.278 71.795,160.222 71.443 L 160.119 70.803 159.431 70.906 C 158.151 71.098,157.727 70.230,158.951 69.923 L 159.388 69.813 158.903 69.517 C 158.635 69.354,158.314 69.096,158.188 68.944 C 158.028 68.750,157.697 68.667,157.084 68.667 C 155.619 68.667,155.243 68.531,154.940 67.895 C 154.651 67.289,154.642 67.284,153.542 67.002 C 153.114 66.892,152.833 66.724,152.833 66.577 C 152.833 66.266,152.345 66.272,151.926 66.589 C 151.749 66.723,151.436 66.833,151.232 66.833 C 151.027 66.833,150.648 66.939,150.389 67.068 C 149.661 67.429,149.130 67.630,148.585 67.750 C 148.311 67.810,148.039 67.937,147.980 68.032 C 147.885 68.186,147.432 68.316,145.964 68.612 C 145.715 68.662,145.424 68.807,145.318 68.935 C 145.212 69.062,144.919 69.167,144.665 69.167 C 144.412 69.167,143.990 69.279,143.727 69.416 C 143.465 69.553,143.123 69.665,142.968 69.666 C 142.813 69.666,142.640 69.742,142.583 69.833 C 142.527 69.925,142.365 70.000,142.224 70.000 C 142.083 70.000,141.731 70.102,141.442 70.227 C 140.943 70.444,140.397 70.658,138.792 71.270 C 138.402 71.418,137.933 71.602,137.750 71.678 C 137.567 71.753,137.004 71.974,136.500 72.168 C 133.512 73.315,133.056 73.717,132.938 75.304 C 132.875 76.166,132.727 76.741,132.437 77.260 C 131.988 78.063,132.077 78.250,132.827 78.085 C 133.206 78.002,133.389 78.063,133.664 78.364 C 133.857 78.576,134.133 78.877,134.276 79.031 C 134.419 79.186,134.790 79.433,135.099 79.580 C 135.409 79.727,135.738 79.989,135.831 80.162 C 135.923 80.335,136.231 80.642,136.513 80.843 L 137.028 81.209 137.507 80.854 C 137.771 80.660,138.215 80.500,138.493 80.500 C 138.772 80.500,139.000 80.434,139.000 80.353 C 139.000 80.174,138.416 80.005,137.786 80.002 C 137.297 80.000,137.250 79.931,137.097 79.000 C 137.008 78.459,136.955 78.415,136.375 78.396 C 135.078 78.353,133.688 77.620,133.893 77.086 C 134.028 76.733,134.215 76.770,134.653 77.236 C 134.983 77.587,135.095 77.616,135.529 77.465 C 135.886 77.340,136.146 77.347,136.455 77.487 C 136.754 77.623,136.937 77.630,137.059 77.508 C 137.317 77.250,137.796 77.294,138.565 77.649 C 138.942 77.822,139.831 78.091,140.542 78.246 C 141.587 78.475,141.833 78.587,141.833 78.838 C 141.833 79.279,141.625 79.350,141.114 79.085 C 140.583 78.810,140.537 78.921,140.463 80.667 C 140.415 81.799,140.948 82.349,141.368 81.598 C 141.519 81.329,142.018 81.240,142.224 81.446 C 142.392 81.614,141.654 82.333,141.314 82.333 C 141.152 82.333,140.973 82.408,140.917 82.500 C 140.860 82.592,140.673 82.667,140.500 82.667 C 139.876 82.667,139.920 83.153,140.564 83.380 C 140.646 83.408,140.610 83.596,140.484 83.797 C 140.230 84.204,140.617 84.820,140.984 84.593 C 141.224 84.445,141.218 83.951,140.973 83.706 C 140.809 83.542,141.348 83.167,141.747 83.167 C 141.877 83.167,141.779 85.014,141.645 85.097 C 141.565 85.146,141.500 85.356,141.500 85.564 C 141.500 86.206,140.783 86.740,140.195 86.535 C 139.380 86.251,139.274 87.449,140.037 88.330 C 140.338 88.677,140.916 89.417,141.323 89.973 C 141.730 90.529,142.274 91.140,142.532 91.330 C 142.828 91.549,143.000 91.830,143.000 92.094 C 143.000 92.597,143.344 92.762,143.839 92.497 C 144.076 92.370,144.477 92.345,144.977 92.424 L 145.750 92.547 145.208 92.695 C 144.910 92.776,144.667 92.883,144.667 92.932 C 144.667 93.224,145.056 93.667,145.312 93.667 C 145.478 93.667,145.699 93.854,145.803 94.083 C 145.907 94.313,146.089 94.500,146.206 94.500 C 146.497 94.500,147.333 95.294,147.333 95.570 C 147.333 95.692,147.446 95.886,147.583 96.000 C 148.042 96.381,147.896 96.996,147.320 97.111 C 146.943 97.186,146.826 97.289,146.881 97.497 C 146.922 97.656,146.818 97.867,146.644 97.975 C 146.147 98.286,146.264 98.741,146.901 98.972 C 147.794 99.295,147.779 99.599,146.819 100.614 C 146.216 101.252,145.990 101.612,146.050 101.842 C 146.102 102.038,146.052 102.167,145.924 102.167 C 145.807 102.167,145.521 102.317,145.288 102.500 C 144.726 102.942,144.500 102.921,144.500 102.427 C 144.500 101.824,144.221 101.758,143.664 102.227 C 143.253 102.573,143.083 102.619,142.667 102.500 C 142.375 102.416,142.167 102.419,142.167 102.507 C 142.167 102.590,141.930 102.718,141.642 102.793 C 141.034 102.951,140.753 103.493,141.060 103.913 C 141.448 104.444,143.219 104.463,143.741 103.941 L 144.177 103.505 144.349 103.959 C 144.634 104.709,144.399 105.432,143.736 105.842 C 143.080 106.247,142.883 106.196,143.154 105.691 C 143.454 105.129,142.786 104.984,141.144 105.256 C 140.529 105.358,140.428 105.713,140.855 106.265 C 141.009 106.463,140.548 106.743,139.800 106.905 C 139.532 106.963,139.263 107.186,139.132 107.459 C 138.705 108.356,137.324 108.152,137.669 107.243 C 137.829 106.824,137.804 106.729,137.467 106.473 C 137.136 106.221,137.112 106.135,137.292 105.843 C 137.406 105.657,137.500 105.354,137.500 105.169 C 137.500 104.944,137.610 104.833,137.833 104.833 C 138.017 104.833,138.167 104.908,138.167 105.000 C 138.167 105.092,138.231 105.167,138.309 105.167 C 138.387 105.167,138.447 104.539,138.442 103.772 C 138.435 102.736,138.505 102.267,138.713 101.950 C 139.092 101.372,139.262 100.232,139.014 99.934 C 138.678 99.529,138.507 98.702,138.722 98.524 C 139.087 98.225,140.869 97.799,141.352 97.895 C 142.326 98.090,141.588 96.979,140.583 96.738 C 139.830 96.558,137.959 95.584,137.599 95.185 C 136.426 93.886,135.722 95.785,136.646 97.757 C 136.932 98.370,137.167 99.135,137.167 99.458 C 137.167 99.781,137.255 100.522,137.362 101.105 C 137.593 102.358,137.604 102.341,136.564 102.358 C 135.502 102.376,135.401 102.456,135.842 102.926 C 136.293 103.406,136.174 103.792,135.552 103.863 C 135.210 103.902,135.097 103.997,135.133 104.213 C 135.168 104.418,135.002 104.586,134.597 104.755 C 133.829 105.076,133.833 105.077,133.833 104.520 C 133.833 104.257,133.721 103.947,133.583 103.833 C 133.433 103.708,133.333 103.343,133.333 102.914 C 133.333 101.541,132.251 100.846,131.508 101.741 C 131.210 102.099,130.731 102.065,130.451 101.665 C 130.222 101.338,130.206 101.337,129.816 101.637 C 129.174 102.129,128.865 102.177,128.153 101.892 C 127.507 101.633,127.496 101.616,127.855 101.437 C 128.892 100.919,128.426 99.499,127.129 99.223 C 126.207 99.027,125.699 95.929,126.517 95.491 C 127.122 95.167,127.964 95.470,128.167 96.084 C 128.279 96.423,128.490 96.671,128.716 96.729 C 128.918 96.781,129.415 97.129,129.820 97.502 C 130.226 97.875,130.658 98.142,130.782 98.094 C 131.120 97.964,131.246 97.490,131.023 97.186 C 130.914 97.038,130.669 96.671,130.477 96.371 C 130.168 95.886,130.068 95.837,129.581 95.928 C 129.069 96.024,129.026 95.996,128.915 95.495 C 128.762 94.797,129.050 94.614,129.803 94.928 C 130.460 95.203,131.500 95.246,131.500 94.999 C 131.500 94.907,131.084 94.513,130.575 94.124 C 129.770 93.509,129.661 93.358,129.736 92.965 C 129.841 92.414,129.227 92.558,128.496 93.256 C 127.693 94.022,127.258 93.890,127.199 92.862 C 127.149 91.986,127.138 91.968,126.407 91.645 C 125.661 91.315,125.455 90.950,125.917 90.773 C 126.288 90.631,126.225 89.771,125.816 89.401 C 125.524 89.137,125.483 88.962,125.567 88.346 C 125.760 86.938,126.423 86.675,127.714 87.494 C 128.722 88.133,129.115 87.756,128.511 86.731 C 128.322 86.410,128.167 85.948,128.167 85.705 C 128.167 85.423,128.000 85.128,127.708 84.893 C 127.297 84.561,127.277 84.500,127.516 84.303 C 128.021 83.885,128.500 83.030,128.500 82.545 C 128.500 81.991,128.929 81.548,129.879 81.119 C 130.229 80.961,130.576 80.656,130.661 80.431 C 130.746 80.209,130.932 79.961,131.076 79.881 C 131.499 79.644,131.717 78.667,131.348 78.667 C 130.954 78.667,130.500 79.187,130.500 79.638 C 130.500 80.046,130.334 80.099,130.022 79.792 C 129.852 79.624,129.728 79.678,129.393 80.065 C 129.097 80.407,128.803 80.556,128.376 80.582 C 127.918 80.610,127.653 80.761,127.263 81.215 C 126.231 82.414,125.615 83.262,125.391 83.792 C 125.265 84.090,125.097 84.333,125.018 84.333 C 124.939 84.333,124.778 84.565,124.661 84.848 C 124.544 85.130,124.366 85.449,124.266 85.556 C 123.777 86.076,123.515 86.958,123.756 87.275 C 124.156 87.803,124.052 88.411,123.487 88.843 C 122.696 89.450,122.608 89.734,123.042 90.280 C 123.373 90.695,123.407 90.886,123.333 91.917 C 123.235 93.295,123.461 94.224,124.136 95.208 C 124.682 96.005,125.078 97.265,125.250 98.750 C 125.313 99.300,125.448 99.850,125.549 99.973 C 125.649 100.096,125.712 100.525,125.687 100.928 C 125.637 101.746,126.033 102.253,127.183 102.841 C 127.513 103.009,127.898 103.324,128.039 103.539 C 128.555 104.327,131.900 107.500,132.214 107.500 C 132.305 107.500,133.190 108.105,134.181 108.844 C 137.791 111.538,141.942 112.253,145.667 110.821 C 146.171 110.627,146.783 110.419,147.028 110.359 C 147.273 110.299,147.640 110.037,147.844 109.776 C 148.230 109.283,150.489 107.729,153.083 106.170 C 153.908 105.675,155.160 104.890,155.864 104.426 C 158.771 102.512,159.736 101.891,160.555 101.408 C 161.029 101.129,162.879 99.929,164.666 98.742 C 166.454 97.555,167.991 96.553,168.083 96.515 C 168.175 96.478,168.827 96.009,169.532 95.474 C 170.237 94.938,170.884 94.500,170.970 94.500 C 171.056 94.500,171.219 94.388,171.332 94.252 C 171.445 94.115,171.998 93.691,172.561 93.308 C 173.765 92.490,174.326 91.989,174.330 91.728 C 174.332 91.624,174.655 91.459,175.048 91.360 C 175.441 91.261,175.942 90.989,176.161 90.756 C 176.379 90.524,176.641 90.333,176.742 90.333 C 176.843 90.333,177.054 90.183,177.211 90.000 C 177.368 89.817,177.673 89.667,177.889 89.667 C 178.105 89.667,178.416 89.518,178.580 89.337 C 178.744 89.156,178.940 89.046,179.015 89.093 C 179.182 89.196,179.864 88.832,180.050 88.542 C 180.123 88.427,180.359 88.333,180.574 88.333 C 180.789 88.333,181.008 88.221,181.060 88.083 C 181.113 87.946,181.271 87.833,181.411 87.833 C 181.743 87.833,181.741 87.564,181.409 87.437 C 181.084 87.312,181.379 86.667,181.762 86.667 C 181.960 86.667,181.975 86.736,181.833 87.000 C 181.682 87.283,181.707 87.333,181.994 87.333 C 182.181 87.333,182.333 87.260,182.333 87.170 C 182.333 87.080,182.521 86.959,182.750 86.902 C 182.979 86.844,183.167 86.730,183.167 86.649 C 183.167 86.567,183.271 86.500,183.399 86.500 C 183.527 86.500,183.674 86.388,183.727 86.250 C 183.780 86.112,184.013 86.000,184.245 86.000 C 184.509 86.000,184.667 85.906,184.667 85.750 C 184.667 85.611,184.815 85.500,185.000 85.500 C 185.326 85.500,185.365 85.427,185.400 84.750 C 185.415 84.458,185.514 84.423,186.208 84.472 C 186.926 84.522,187.312 84.298,186.800 84.128 C 186.527 84.037,187.192 83.122,187.882 82.640 C 188.176 82.434,188.454 82.221,188.500 82.167 C 188.546 82.112,188.846 81.890,189.167 81.673 C 189.487 81.457,189.862 81.150,190.000 80.992 C 190.137 80.834,190.550 80.612,190.917 80.498 C 191.283 80.384,191.696 80.195,191.833 80.077 C 191.971 79.959,192.496 79.678,193.000 79.454 C 193.504 79.229,194.239 78.735,194.632 78.356 C 195.090 77.915,195.501 77.667,195.773 77.667 C 196.007 77.667,196.398 77.563,196.641 77.437 C 197.654 76.911,197.979 76.800,198.167 76.917 C 198.299 76.998,198.346 76.936,198.306 76.733 C 198.166 76.006,201.128 74.270,201.525 74.846 C 201.644 75.019,201.659 74.980,201.581 74.702 C 201.484 74.359,201.517 74.331,201.903 74.428 C 202.261 74.518,202.333 74.479,202.333 74.193 C 202.333 73.759,203.442 72.875,203.683 73.116 C 203.914 73.347,204.667 73.180,204.667 72.897 C 204.667 72.770,204.771 72.667,204.899 72.667 C 205.026 72.667,205.178 72.479,205.235 72.250 C 205.293 72.021,205.440 71.833,205.563 71.833 C 205.686 71.833,206.116 71.544,206.518 71.191 C 206.921 70.838,207.512 70.414,207.833 70.250 C 208.154 70.085,208.511 69.816,208.627 69.652 C 208.903 69.261,210.283 68.333,210.588 68.333 C 210.857 68.333,214.281 66.589,214.667 66.255 C 214.804 66.136,215.248 65.872,215.652 65.669 C 216.590 65.197,218.341 64.029,218.667 63.658 C 218.804 63.501,219.817 62.906,220.917 62.336 C 222.017 61.765,223.029 61.201,223.167 61.082 C 223.437 60.849,224.890 59.969,225.833 59.467 C 226.479 59.123,226.778 58.934,228.443 57.821 C 229.070 57.401,229.844 56.914,230.162 56.737 C 230.480 56.561,230.817 56.357,230.912 56.284 C 231.207 56.055,232.859 55.000,232.922 55.000 C 232.955 55.000,233.829 54.423,234.866 53.718 C 235.902 53.013,237.350 52.040,238.083 51.557 C 239.639 50.531,239.965 50.307,241.756 49.035 C 242.493 48.511,243.355 47.939,243.673 47.763 C 243.990 47.586,244.550 47.205,244.917 46.915 C 245.283 46.626,245.921 46.219,246.333 46.010 C 246.746 45.802,247.427 45.458,247.846 45.246 C 248.266 45.034,248.839 44.667,249.120 44.430 C 249.401 44.194,249.685 44.000,249.750 44.000 C 249.970 44.000,252.406 42.358,253.447 41.508 C 254.013 41.045,254.607 40.667,254.767 40.667 C 254.927 40.667,255.175 40.567,255.320 40.446 C 255.465 40.325,255.898 40.127,256.283 40.006 C 256.668 39.885,257.022 39.684,257.069 39.560 C 257.117 39.435,257.301 39.333,257.477 39.333 C 257.653 39.333,257.841 39.221,257.894 39.083 C 257.946 38.946,258.104 38.833,258.245 38.833 C 258.385 38.833,258.500 38.763,258.500 38.678 C 258.500 38.592,258.658 38.472,258.851 38.411 C 259.044 38.350,259.326 38.199,259.476 38.075 C 260.005 37.641,262.355 36.000,262.446 36.000 C 262.498 36.000,262.786 35.784,263.087 35.519 C 263.388 35.255,263.735 35.003,263.859 34.959 C 264.305 34.800,263.896 34.746,262.917 34.833 M149.846 68.125 C 149.853 68.194,149.884 68.381,149.915 68.542 C 149.945 68.702,149.887 68.833,149.786 68.833 C 149.684 68.833,149.314 69.033,148.962 69.276 C 148.389 69.674,148.261 69.700,147.728 69.537 C 147.349 69.421,146.988 69.410,146.733 69.506 C 146.429 69.622,146.333 69.603,146.333 69.424 C 146.333 69.295,146.483 69.142,146.667 69.083 C 146.850 69.025,147.000 68.913,147.000 68.835 C 147.000 68.684,147.830 68.372,148.609 68.231 C 148.866 68.185,149.109 68.113,149.149 68.073 C 149.272 67.950,149.833 67.992,149.846 68.125 M135.083 75.827 C 135.389 75.953,135.393 75.974,135.125 76.083 C 134.762 76.231,134.276 76.061,134.416 75.835 C 134.536 75.640,134.627 75.639,135.083 75.827 M138.944 80.778 C 138.768 80.954,138.815 81.582,139.020 81.787 C 139.275 82.042,139.667 81.866,139.667 81.496 C 139.667 80.825,139.281 80.441,138.944 80.778 M134.268 82.249 C 134.095 82.381,133.878 82.513,133.788 82.543 C 133.545 82.624,133.807 83.308,134.151 83.492 C 134.860 83.871,135.455 83.292,135.239 82.431 C 135.118 81.951,134.753 81.882,134.268 82.249 M132.000 82.661 C 132.000 83.117,133.235 83.331,133.399 82.903 C 133.553 82.501,133.551 82.500,132.750 82.500 C 132.337 82.500,132.000 82.572,132.000 82.661 M143.202 83.698 C 142.981 83.919,142.333 83.709,142.333 83.415 C 142.333 82.886,143.069 82.622,143.226 83.095 C 143.316 83.364,143.307 83.593,143.202 83.698 M137.551 83.465 C 137.441 83.535,137.276 83.890,137.184 84.254 C 137.091 84.619,136.922 85.235,136.807 85.624 C 136.553 86.485,136.729 86.761,137.375 86.516 C 137.809 86.351,138.133 85.561,138.424 83.958 C 138.541 83.314,138.142 83.089,137.551 83.465 M183.000 86.319 C 183.000 86.403,182.906 86.505,182.792 86.545 C 182.500 86.647,182.150 86.495,182.261 86.316 C 182.382 86.120,183.000 86.123,183.000 86.319 M145.000 89.496 C 145.000 89.677,144.816 89.946,144.591 90.094 C 143.874 90.563,143.504 89.937,144.208 89.446 C 144.723 89.087,145.000 89.104,145.000 89.496 M137.652 90.445 C 137.510 90.613,137.274 91.068,137.128 91.456 L 136.862 92.161 137.389 92.606 C 138.511 93.552,139.823 93.652,140.090 92.812 C 140.161 92.588,140.289 92.516,140.500 92.583 C 140.744 92.661,140.788 92.612,140.717 92.340 C 140.657 92.111,140.490 92.000,140.208 92.000 C 139.974 92.000,139.617 91.815,139.402 91.583 C 139.187 91.351,138.830 91.167,138.596 91.167 C 138.267 91.167,138.147 91.056,138.043 90.653 C 137.917 90.165,137.897 90.155,137.652 90.445 M128.036 97.885 C 128.135 98.177,128.288 98.510,128.378 98.625 C 128.487 98.764,128.470 98.918,128.327 99.090 C 127.884 99.625,129.146 100.039,129.622 99.514 C 130.416 98.641,130.428 98.500,129.709 98.500 C 129.488 98.500,129.092 98.284,128.829 98.021 C 128.087 97.279,127.817 97.233,128.036 97.885 M143.208 97.777 C 143.094 97.823,143.000 98.005,143.000 98.181 C 143.000 98.500,142.878 98.554,142.250 98.517 C 141.466 98.471,141.304 99.197,142.053 99.398 C 143.103 99.680,144.068 99.446,143.499 99.047 C 143.053 98.735,143.079 98.585,143.652 98.177 L 144.138 97.831 144.652 98.264 C 144.948 98.512,145.167 98.607,145.167 98.486 C 145.167 98.371,145.291 98.139,145.442 97.971 C 145.717 97.668,143.876 97.508,143.208 97.777 M141.778 101.111 C 141.594 101.294,141.652 101.676,141.900 101.924 C 142.100 102.123,142.148 102.098,142.236 101.745 C 142.293 101.519,142.413 101.333,142.503 101.333 C 142.593 101.333,142.667 101.258,142.667 101.167 C 142.667 100.981,141.952 100.937,141.778 101.111 M146.500 103.744 C 146.500 104.244,146.053 104.512,145.542 104.319 C 144.844 104.055,145.204 103.333,146.033 103.333 C 146.418 103.333,146.500 103.405,146.500 103.744 M146.167 104.806 C 146.167 105.023,145.969 105.167,145.807 105.067 C 145.635 104.961,145.784 104.667,146.010 104.667 C 146.096 104.667,146.167 104.729,146.167 104.806 M142.167 106.583 C 142.167 106.722,142.019 106.833,141.833 106.833 C 141.648 106.833,141.500 106.722,141.500 106.583 C 141.500 106.444,141.648 106.333,141.833 106.333 C 142.019 106.333,142.167 106.444,142.167 106.583 " stroke="none" fill="#3c342e" fill-rule="evenodd"></path><path id="path1" d="M276.144 25.211 C 275.811 25.416,275.225 25.794,274.841 26.051 C 274.457 26.309,273.492 26.861,272.696 27.279 C 271.901 27.696,271.063 28.136,270.833 28.257 C 270.604 28.378,269.838 28.739,269.130 29.060 C 268.423 29.381,267.194 30.104,266.401 30.669 C 264.429 32.070,263.764 32.388,262.639 32.470 C 262.100 32.509,261.590 32.641,261.484 32.770 C 261.379 32.896,261.141 33.000,260.957 33.000 C 260.772 33.000,260.295 33.300,259.897 33.667 C 259.500 34.033,259.089 34.333,258.984 34.333 C 258.880 34.333,258.549 34.548,258.250 34.811 C 257.951 35.074,257.422 35.342,257.075 35.407 C 256.728 35.472,256.206 35.707,255.915 35.929 C 255.623 36.152,255.192 36.333,254.955 36.333 C 254.706 36.333,254.293 36.549,253.971 36.848 C 253.666 37.132,253.229 37.538,253.000 37.752 C 252.771 37.965,252.315 38.211,251.987 38.299 C 251.659 38.386,251.004 38.729,250.530 39.062 C 250.057 39.395,249.612 39.667,249.541 39.667 C 249.469 39.667,249.037 39.989,248.580 40.384 C 247.064 41.693,246.712 41.883,246.010 41.771 C 245.487 41.687,245.307 41.738,244.980 42.062 C 244.369 42.668,243.251 43.167,242.507 43.167 C 242.136 43.167,241.827 43.223,241.819 43.292 C 241.812 43.360,241.786 43.591,241.763 43.803 C 241.647 44.865,240.078 45.588,239.483 44.854 C 239.175 44.473,238.754 44.391,238.577 44.677 C 238.517 44.775,238.587 44.987,238.734 45.149 C 239.270 45.741,238.811 46.500,237.917 46.500 C 237.319 46.500,235.513 47.371,235.017 47.899 C 234.711 48.225,234.525 48.283,234.011 48.214 C 233.549 48.152,233.320 48.204,233.149 48.410 C 232.270 49.471,232.099 49.494,231.582 48.620 L 231.264 48.083 231.159 48.583 C 231.028 49.210,230.038 50.830,229.777 50.844 C 229.671 50.850,229.321 50.889,229.000 50.932 C 228.679 50.975,228.229 51.033,228.000 51.062 C 227.771 51.091,227.524 51.126,227.451 51.141 C 227.378 51.155,227.367 51.429,227.428 51.750 C 227.542 52.359,227.295 52.574,227.091 52.043 C 226.992 51.784,226.944 51.798,226.660 52.168 C 226.311 52.622,226.238 53.000,226.500 53.000 C 226.834 53.000,226.662 53.676,226.292 53.820 C 225.166 54.257,224.506 54.379,224.280 54.192 C 224.067 54.015,223.688 54.348,223.167 55.170 C 223.083 55.303,221.142 56.000,220.858 56.000 C 220.774 56.000,220.666 55.850,220.618 55.667 C 220.460 55.060,218.954 55.335,218.332 56.085 C 218.208 56.235,217.821 56.503,217.474 56.680 C 217.127 56.857,216.585 57.229,216.269 57.505 C 215.768 57.946,215.613 57.995,215.029 57.902 C 214.469 57.812,214.269 57.866,213.790 58.231 C 213.476 58.471,213.143 58.667,213.052 58.667 C 212.960 58.667,212.750 58.816,212.585 58.999 C 212.420 59.181,211.963 59.519,211.570 59.749 C 211.045 60.057,210.841 60.289,210.803 60.626 C 210.758 61.015,210.682 61.076,210.294 61.036 C 209.925 60.997,209.751 61.115,209.378 61.654 C 208.847 62.421,208.644 62.474,208.177 61.972 C 207.636 61.392,206.500 61.820,206.500 62.604 C 206.500 63.241,206.262 63.411,205.179 63.549 C 204.689 63.611,204.117 63.871,203.478 64.321 C 202.949 64.695,202.411 65.000,202.283 65.000 C 201.459 65.000,201.000 65.363,201.000 66.016 L 201.000 66.667 200.299 66.667 C 199.718 66.667,199.491 66.770,198.982 67.268 C 198.643 67.598,198.122 67.919,197.824 67.980 C 197.267 68.093,197.234 68.132,196.765 69.224 C 196.495 69.853,196.483 69.860,196.084 69.599 C 195.521 69.230,195.317 69.261,194.526 69.833 C 193.688 70.441,193.498 70.450,192.864 69.917 C 192.143 69.310,191.772 69.382,191.149 70.250 C 190.853 70.662,190.519 71.000,190.408 71.000 C 190.094 71.000,189.969 71.720,190.256 71.880 C 190.877 72.228,189.626 73.333,188.611 73.333 C 188.481 73.333,188.278 73.449,188.161 73.590 C 188.022 73.757,187.891 73.791,187.785 73.685 C 187.492 73.392,187.794 73.044,188.445 72.924 C 189.559 72.717,189.987 72.114,189.226 71.824 C 188.764 71.648,187.667 71.889,187.667 72.167 C 187.667 72.244,187.385 72.400,187.042 72.513 C 186.698 72.626,186.137 72.894,185.795 73.109 C 185.453 73.324,185.052 73.500,184.904 73.500 C 184.756 73.500,184.421 73.652,184.159 73.839 C 183.845 74.062,183.547 74.143,183.281 74.076 C 182.573 73.899,182.528 74.689,183.204 75.441 C 183.589 75.869,183.323 76.495,182.752 76.508 C 182.564 76.512,182.196 76.803,181.917 77.167 C 181.336 77.923,181.273 77.941,180.724 77.509 C 180.264 77.148,179.980 77.201,179.279 77.778 C 178.609 78.331,178.064 78.425,177.393 78.106 C 176.554 77.706,176.366 77.761,176.177 78.462 C 176.058 78.904,175.870 79.150,175.545 79.289 C 175.291 79.399,174.955 79.582,174.798 79.698 C 174.556 79.875,174.439 79.838,174.039 79.454 C 173.503 78.940,173.139 78.882,172.826 79.258 C 172.471 79.687,171.452 79.513,171.333 79.003 C 171.265 78.713,171.066 78.540,170.660 78.420 C 169.868 78.186,169.667 78.033,169.667 77.663 C 169.667 77.403,169.196 76.989,168.833 76.930 C 168.787 76.923,168.773 76.642,168.801 76.307 C 168.862 75.583,168.661 75.418,167.796 75.480 C 167.201 75.523,167.167 75.499,167.167 75.039 C 167.167 74.763,167.022 74.421,166.833 74.250 C 166.650 74.084,166.500 73.738,166.500 73.480 C 166.500 72.910,166.106 72.667,165.183 72.667 C 164.245 72.667,163.778 71.372,164.338 70.325 C 164.560 69.909,164.151 69.539,162.959 69.078 C 162.231 68.796,162.016 68.612,161.682 67.985 C 161.293 67.253,160.060 66.500,159.252 66.500 C 158.772 66.500,157.409 65.956,157.119 65.648 C 156.683 65.188,155.149 65.171,153.750 65.612 C 152.110 66.129,151.409 66.368,150.917 66.578 C 150.642 66.695,149.854 66.995,149.167 67.245 C 148.479 67.494,147.692 67.795,147.417 67.913 C 147.142 68.031,146.617 68.226,146.250 68.347 C 145.841 68.482,145.693 68.590,145.866 68.627 C 146.022 68.660,146.298 68.608,146.480 68.511 C 146.662 68.413,146.998 68.333,147.227 68.333 C 147.456 68.333,147.752 68.225,147.885 68.092 C 148.018 67.959,148.342 67.803,148.605 67.745 C 149.130 67.630,149.666 67.427,150.389 67.068 C 150.648 66.939,151.027 66.833,151.232 66.833 C 151.436 66.833,151.749 66.723,151.926 66.589 C 152.345 66.272,152.833 66.266,152.833 66.577 C 152.833 66.724,153.114 66.892,153.542 67.002 C 154.642 67.284,154.651 67.289,154.940 67.895 C 155.243 68.531,155.619 68.667,157.084 68.667 C 157.697 68.667,158.028 68.750,158.188 68.944 C 158.314 69.096,158.635 69.354,158.903 69.517 L 159.388 69.813 158.951 69.923 C 157.727 70.230,158.151 71.098,159.431 70.906 L 160.119 70.803 160.222 71.443 C 160.278 71.795,160.373 72.325,160.432 72.621 C 160.529 73.103,160.490 73.179,160.062 73.347 C 159.601 73.527,159.597 73.539,159.943 73.673 C 160.167 73.759,160.346 74.019,160.418 74.364 C 160.650 75.463,161.473 76.949,161.957 77.141 C 163.256 77.657,164.018 77.840,164.276 77.696 C 164.526 77.556,165.167 77.613,165.167 77.775 C 165.167 77.814,165.063 78.011,164.936 78.214 C 163.923 79.840,164.929 80.652,167.453 80.246 C 168.154 80.133,168.157 80.135,168.429 80.816 C 168.580 81.192,168.770 81.500,168.851 81.500 C 169.065 81.500,169.035 82.065,168.809 82.291 C 168.664 82.436,168.747 82.631,169.142 83.081 C 169.431 83.409,169.667 83.826,169.667 84.006 C 169.667 84.186,169.777 84.333,169.912 84.333 C 170.048 84.333,170.279 84.567,170.427 84.853 C 170.675 85.334,170.741 85.363,171.306 85.254 C 171.642 85.188,172.118 85.112,172.364 85.085 C 172.610 85.057,172.982 84.914,173.192 84.767 C 173.402 84.620,173.786 84.500,174.046 84.500 C 174.427 84.500,174.564 84.388,174.761 83.917 C 174.946 83.474,175.103 83.333,175.415 83.333 C 175.641 83.333,176.071 83.184,176.371 83.001 C 176.671 82.818,177.030 82.668,177.168 82.667 C 177.307 82.667,177.513 82.518,177.626 82.336 C 177.740 82.154,178.172 81.920,178.587 81.815 C 179.128 81.679,179.295 81.571,179.179 81.432 C 179.000 81.216,180.564 79.836,180.989 79.834 C 181.469 79.832,182.769 79.094,183.535 78.389 C 183.966 77.992,184.422 77.667,184.547 77.667 C 184.673 77.667,184.945 77.486,185.153 77.264 C 185.361 77.043,185.726 76.813,185.964 76.753 C 186.202 76.693,186.596 76.502,186.841 76.328 C 187.085 76.154,187.600 75.961,187.985 75.900 C 188.370 75.838,188.925 75.618,189.217 75.409 C 190.599 74.428,192.596 73.270,192.872 73.290 C 193.056 73.304,193.378 73.038,193.677 72.626 C 194.227 71.867,194.791 71.570,196.833 70.968 C 197.471 70.779,198.230 70.288,198.750 69.726 C 199.396 69.028,201.769 67.951,202.401 68.069 C 202.883 68.160,203.021 68.110,203.315 67.736 C 203.750 67.182,204.322 67.282,204.834 68.000 C 205.279 68.626,205.667 68.654,205.667 68.061 C 205.667 67.356,206.647 66.667,207.650 66.667 C 208.237 66.667,208.364 66.535,208.155 66.145 C 207.973 65.805,208.438 65.680,208.758 65.983 C 209.244 66.441,210.617 66.210,210.188 65.742 C 209.843 65.365,210.175 64.320,210.555 64.586 C 211.134 64.992,211.377 64.884,212.392 63.771 C 212.992 63.111,213.697 62.543,214.248 62.273 C 214.776 62.015,215.468 61.465,215.956 60.917 C 216.912 59.845,218.028 59.525,218.137 60.292 C 218.210 60.807,218.333 60.769,219.083 60.000 C 219.620 59.451,219.847 59.333,220.375 59.333 C 221.144 59.333,221.817 59.011,222.363 58.381 C 222.750 57.933,224.071 56.833,224.220 56.833 C 224.407 56.833,226.217 55.657,226.749 55.190 C 227.077 54.902,227.482 54.667,227.650 54.667 C 227.817 54.667,228.246 54.434,228.602 54.150 C 229.350 53.553,230.376 53.000,230.733 53.000 C 230.869 53.000,231.326 52.700,231.750 52.333 C 232.181 51.960,232.694 51.667,232.915 51.667 C 233.149 51.667,233.466 51.471,233.696 51.185 C 233.909 50.919,234.496 50.499,235.000 50.249 C 235.504 50.000,236.142 49.628,236.417 49.422 C 236.986 48.996,238.123 48.413,239.040 48.077 C 239.605 47.871,241.145 46.988,242.917 45.855 C 243.283 45.620,243.863 45.184,244.204 44.885 C 244.546 44.586,245.033 44.298,245.287 44.244 C 245.542 44.190,245.900 44.115,246.083 44.078 C 246.267 44.041,246.620 43.821,246.868 43.589 C 247.116 43.357,247.423 43.167,247.550 43.167 C 247.678 43.167,247.914 43.021,248.075 42.843 C 248.236 42.665,248.586 42.471,248.852 42.413 C 249.118 42.354,249.409 42.170,249.498 42.005 C 249.586 41.839,250.057 41.478,250.543 41.204 C 251.030 40.929,251.528 40.584,251.651 40.436 C 251.774 40.288,252.074 40.167,252.318 40.167 C 252.562 40.167,253.169 39.904,253.667 39.583 C 254.165 39.262,254.642 39.000,254.727 39.000 C 254.813 39.000,255.190 38.755,255.566 38.455 C 256.656 37.586,257.580 37.000,257.861 37.000 C 258.003 37.000,258.390 36.817,258.720 36.593 C 260.467 35.407,264.000 34.255,264.000 34.871 C 264.000 34.942,263.928 35.000,263.839 35.000 C 263.751 35.000,263.422 35.225,263.109 35.500 C 262.796 35.775,262.498 36.000,262.446 36.000 C 262.355 36.000,260.005 37.641,259.476 38.075 C 259.326 38.199,259.044 38.350,258.851 38.411 C 258.658 38.472,258.500 38.592,258.500 38.678 C 258.500 38.763,258.385 38.833,258.245 38.833 C 258.104 38.833,257.946 38.946,257.894 39.083 C 257.841 39.221,257.653 39.333,257.477 39.333 C 257.301 39.333,257.117 39.435,257.069 39.560 C 257.022 39.684,256.668 39.885,256.283 40.006 C 255.898 40.127,255.465 40.325,255.320 40.446 C 255.175 40.567,254.927 40.667,254.767 40.667 C 254.607 40.667,254.013 41.045,253.447 41.508 C 252.406 42.358,249.970 44.000,249.750 44.000 C 249.685 44.000,249.401 44.194,249.120 44.430 C 248.839 44.667,248.266 45.034,247.846 45.246 C 247.427 45.458,246.746 45.802,246.333 46.010 C 245.921 46.219,245.283 46.626,244.917 46.915 C 244.550 47.205,243.990 47.586,243.673 47.763 C 243.355 47.939,242.493 48.511,241.756 49.035 C 239.965 50.307,239.639 50.531,238.083 51.557 C 237.350 52.040,235.902 53.013,234.866 53.718 C 233.829 54.423,232.955 55.000,232.922 55.000 C 232.859 55.000,231.207 56.055,230.912 56.284 C 230.817 56.357,230.480 56.561,230.162 56.737 C 229.844 56.914,229.070 57.401,228.443 57.821 C 226.778 58.934,226.479 59.123,225.833 59.467 C 224.890 59.969,223.437 60.849,223.167 61.082 C 223.029 61.201,222.017 61.765,220.917 62.336 C 219.817 62.906,218.804 63.501,218.667 63.658 C 218.341 64.029,216.590 65.197,215.652 65.669 C 215.248 65.872,214.804 66.136,214.667 66.255 C 214.281 66.589,210.857 68.333,210.588 68.333 C 210.283 68.333,208.903 69.261,208.627 69.652 C 208.511 69.816,208.154 70.085,207.833 70.250 C 207.512 70.414,206.921 70.838,206.518 71.191 C 206.116 71.544,205.686 71.833,205.563 71.833 C 205.440 71.833,205.293 72.021,205.235 72.250 C 205.178 72.479,205.026 72.667,204.899 72.667 C 204.771 72.667,204.667 72.770,204.667 72.897 C 204.667 73.180,203.914 73.347,203.683 73.116 C 203.442 72.875,202.333 73.759,202.333 74.193 C 202.333 74.479,202.261 74.518,201.903 74.428 C 201.517 74.331,201.484 74.359,201.581 74.702 C 201.659 74.980,201.644 75.019,201.525 74.846 C 201.128 74.270,198.166 76.006,198.306 76.733 C 198.346 76.936,198.299 76.998,198.167 76.917 C 197.979 76.800,197.654 76.911,196.641 77.437 C 196.398 77.563,196.007 77.667,195.773 77.667 C 195.501 77.667,195.090 77.915,194.632 78.356 C 194.239 78.735,193.504 79.229,193.000 79.454 C 192.496 79.678,191.971 79.959,191.833 80.077 C 191.696 80.195,191.283 80.384,190.917 80.498 C 190.550 80.612,190.137 80.834,190.000 80.992 C 189.862 81.150,189.487 81.457,189.167 81.673 C 188.846 81.890,188.546 82.112,188.500 82.167 C 188.454 82.221,188.176 82.434,187.882 82.640 C 187.192 83.122,186.527 84.037,186.800 84.128 C 187.312 84.298,186.926 84.522,186.208 84.472 C 185.514 84.423,185.415 84.458,185.400 84.750 C 185.365 85.427,185.326 85.500,185.000 85.500 C 184.815 85.500,184.667 85.611,184.667 85.750 C 184.667 85.906,184.509 86.000,184.245 86.000 C 184.013 86.000,183.780 86.112,183.727 86.250 C 183.674 86.388,183.527 86.500,183.399 86.500 C 183.271 86.500,183.167 86.567,183.167 86.649 C 183.167 86.730,182.979 86.844,182.750 86.902 C 182.521 86.959,182.333 87.080,182.333 87.170 C 182.333 87.260,182.181 87.333,181.994 87.333 C 181.707 87.333,181.682 87.283,181.833 87.000 C 181.975 86.736,181.960 86.667,181.762 86.667 C 181.379 86.667,181.084 87.312,181.409 87.437 C 181.741 87.564,181.743 87.833,181.411 87.833 C 181.271 87.833,181.113 87.946,181.060 88.083 C 181.008 88.221,180.789 88.333,180.574 88.333 C 180.359 88.333,180.123 88.427,180.050 88.542 C 179.864 88.832,179.182 89.196,179.015 89.093 C 178.940 89.046,178.744 89.156,178.580 89.337 C 178.416 89.518,178.105 89.667,177.889 89.667 C 177.673 89.667,177.368 89.817,177.211 90.000 C 177.054 90.183,176.843 90.333,176.742 90.333 C 176.641 90.333,176.379 90.524,176.161 90.756 C 175.942 90.989,175.441 91.261,175.048 91.360 C 174.655 91.459,174.332 91.624,174.330 91.728 C 174.326 91.989,173.765 92.490,172.561 93.308 C 171.998 93.691,171.445 94.115,171.332 94.252 C 171.219 94.388,171.058 94.500,170.974 94.500 C 170.825 94.500,168.333 96.321,168.333 96.430 C 168.333 96.529,170.205 95.349,171.802 94.242 C 172.656 93.651,173.381 93.167,173.414 93.167 C 173.447 93.167,174.136 92.717,174.944 92.167 C 175.752 91.617,176.476 91.167,176.551 91.167 C 176.627 91.167,176.928 90.998,177.219 90.791 C 178.038 90.212,178.391 89.999,178.708 89.892 C 178.869 89.839,179.000 89.733,179.000 89.658 C 179.000 89.584,179.163 89.471,179.362 89.408 C 179.561 89.344,179.805 89.224,179.904 89.141 C 180.258 88.842,182.374 87.480,184.294 86.316 C 185.370 85.663,186.722 84.800,187.300 84.398 C 187.877 83.996,188.384 83.667,188.426 83.667 C 188.619 83.667,189.827 82.689,189.712 82.626 C 189.641 82.587,189.680 82.578,189.797 82.608 C 189.915 82.637,190.320 82.437,190.697 82.164 C 191.075 81.890,191.485 81.667,191.608 81.667 C 191.732 81.667,191.833 81.600,191.833 81.519 C 191.833 81.438,191.965 81.325,192.125 81.267 C 192.485 81.137,192.918 80.874,193.667 80.333 C 193.984 80.104,194.395 79.836,194.580 79.736 C 194.765 79.637,194.899 79.471,194.877 79.367 C 194.855 79.264,194.940 79.218,195.066 79.266 C 195.252 79.338,196.687 78.513,197.000 78.155 C 197.046 78.102,197.196 78.007,197.333 77.944 C 197.471 77.881,197.784 77.699,198.030 77.540 C 198.672 77.123,200.798 75.780,201.133 75.580 C 201.468 75.380,203.719 73.914,204.368 73.473 C 204.617 73.305,204.898 73.167,204.993 73.167 C 205.089 73.167,205.167 73.090,205.167 72.996 C 205.167 72.902,205.335 72.751,205.542 72.660 C 205.748 72.569,206.142 72.347,206.417 72.166 C 206.692 71.985,207.029 71.785,207.167 71.722 C 207.304 71.659,207.454 71.564,207.500 71.511 C 207.629 71.360,209.017 70.462,209.667 70.109 C 209.987 69.934,210.523 69.576,210.857 69.312 C 211.191 69.049,211.548 68.833,211.649 68.833 C 211.750 68.833,211.833 68.760,211.833 68.670 C 211.833 68.580,212.021 68.459,212.250 68.402 C 212.479 68.344,212.667 68.230,212.667 68.149 C 212.667 68.067,212.731 68.000,212.810 68.000 C 212.888 68.000,213.619 67.562,214.435 67.027 C 215.250 66.491,215.992 66.023,216.083 65.985 C 216.175 65.947,217.037 65.401,218.000 64.770 C 218.963 64.140,220.050 63.427,220.417 63.187 C 220.783 62.947,221.204 62.700,221.351 62.639 C 221.498 62.578,222.173 62.168,222.851 61.727 C 224.303 60.783,224.637 60.575,225.083 60.335 C 225.267 60.237,225.979 59.787,226.667 59.335 C 227.354 58.884,228.817 57.957,229.917 57.276 C 231.017 56.596,232.872 55.411,234.040 54.644 C 235.208 53.877,236.745 52.880,237.457 52.427 C 238.168 51.974,239.523 51.093,240.467 50.468 C 241.412 49.844,242.216 49.333,242.254 49.333 C 242.292 49.333,242.645 49.115,243.037 48.849 C 244.418 47.911,246.636 46.500,246.729 46.500 C 246.781 46.500,247.145 46.282,247.537 46.015 C 248.820 45.142,251.741 43.260,252.162 43.035 C 252.830 42.678,253.743 42.109,253.833 41.995 C 253.905 41.904,256.262 40.415,257.127 39.916 C 257.286 39.823,258.080 39.298,258.891 38.749 C 259.702 38.200,260.714 37.529,261.141 37.259 C 263.469 35.785,265.389 34.501,266.500 33.673 C 267.188 33.161,268.065 32.539,268.450 32.290 C 269.270 31.762,272.341 29.525,273.124 28.885 C 273.664 28.444,275.208 27.347,276.360 26.585 C 277.619 25.752,277.412 24.432,276.144 25.211 M149.149 68.073 C 149.109 68.113,148.866 68.185,148.609 68.231 C 147.830 68.372,147.000 68.684,147.000 68.835 C 147.000 68.913,146.850 69.025,146.667 69.083 C 146.483 69.142,146.333 69.295,146.333 69.424 C 146.333 69.603,146.429 69.622,146.733 69.506 C 146.988 69.410,147.349 69.421,147.728 69.537 C 148.261 69.700,148.389 69.674,148.962 69.276 C 149.314 69.033,149.684 68.833,149.786 68.833 C 149.887 68.833,149.945 68.702,149.915 68.542 C 149.884 68.381,149.853 68.194,149.846 68.125 C 149.833 67.992,149.272 67.950,149.149 68.073 M144.750 68.923 L 144.250 69.152 144.688 69.159 C 144.929 69.163,145.219 69.054,145.333 68.917 C 145.583 68.615,145.418 68.617,144.750 68.923 M139.750 70.756 C 139.475 70.882,139.362 70.986,139.500 70.987 C 139.637 70.987,139.938 70.881,140.167 70.750 C 140.694 70.449,140.412 70.453,139.750 70.756 M133.692 73.334 C 133.311 73.610,133.000 73.872,133.000 73.918 C 133.000 74.057,133.133 74.010,133.363 73.787 C 133.484 73.670,133.846 73.409,134.167 73.207 C 134.487 73.005,134.668 72.838,134.567 72.836 C 134.466 72.835,134.072 73.059,133.692 73.334 M132.872 74.833 C 132.872 75.154,132.906 75.285,132.948 75.125 C 132.990 74.965,132.990 74.702,132.948 74.542 C 132.906 74.381,132.872 74.512,132.872 74.833 M167.667 74.500 C 167.667 74.592,167.817 74.667,168.000 74.667 C 168.183 74.667,168.333 74.592,168.333 74.500 C 168.333 74.408,168.183 74.333,168.000 74.333 C 167.817 74.333,167.667 74.408,167.667 74.500 M181.392 75.333 C 181.326 75.663,181.191 75.833,180.997 75.833 C 180.835 75.833,180.668 75.927,180.626 76.042 C 180.509 76.358,180.671 76.683,180.881 76.554 C 180.983 76.491,181.346 76.455,181.686 76.475 C 182.384 76.516,182.709 75.869,182.339 75.176 C 182.055 74.646,181.511 74.736,181.392 75.333 M184.667 75.314 C 184.667 75.634,184.070 75.914,183.916 75.666 C 183.761 75.415,184.032 75.000,184.351 75.000 C 184.549 75.000,184.667 75.117,184.667 75.314 M134.416 75.835 C 134.276 76.061,134.762 76.231,135.125 76.083 C 135.393 75.974,135.389 75.953,135.083 75.827 C 134.627 75.639,134.536 75.640,134.416 75.835 M132.609 76.539 C 132.383 77.442,129.740 79.732,128.156 80.398 C 127.841 80.531,127.388 80.852,127.149 81.111 C 126.549 81.763,125.333 83.418,125.333 83.582 C 125.333 83.725,126.070 82.800,126.727 81.833 C 127.325 80.954,127.773 80.619,128.405 80.581 C 128.800 80.557,129.105 80.398,129.393 80.065 C 129.728 79.678,129.852 79.624,130.022 79.792 C 130.340 80.105,130.500 80.044,130.500 79.609 C 130.500 79.172,130.970 78.667,131.376 78.667 C 131.720 78.667,131.475 79.658,131.076 79.881 C 130.932 79.961,130.746 80.209,130.661 80.431 C 130.576 80.656,130.229 80.961,129.879 81.119 C 128.929 81.548,128.500 81.991,128.500 82.545 C 128.500 83.030,128.021 83.885,127.516 84.303 C 127.277 84.500,127.297 84.561,127.708 84.893 C 128.000 85.128,128.167 85.423,128.167 85.705 C 128.167 85.948,128.322 86.410,128.511 86.731 C 129.115 87.756,128.722 88.133,127.714 87.494 C 126.423 86.675,125.760 86.938,125.567 88.346 C 125.483 88.962,125.524 89.137,125.816 89.401 C 126.225 89.771,126.288 90.631,125.917 90.773 C 125.455 90.950,125.661 91.315,126.407 91.645 C 127.138 91.968,127.149 91.986,127.199 92.862 C 127.258 93.890,127.693 94.022,128.496 93.256 C 129.227 92.558,129.841 92.414,129.736 92.965 C 129.661 93.358,129.770 93.509,130.575 94.124 C 131.084 94.513,131.500 94.907,131.500 94.999 C 131.500 95.246,130.460 95.203,129.803 94.928 C 129.050 94.614,128.762 94.797,128.915 95.495 C 129.026 95.996,129.069 96.024,129.581 95.928 C 130.068 95.837,130.168 95.886,130.477 96.371 C 130.669 96.671,130.914 97.038,131.023 97.186 C 131.246 97.490,131.120 97.964,130.782 98.094 C 130.658 98.142,130.226 97.875,129.820 97.502 C 129.415 97.129,128.918 96.781,128.716 96.729 C 128.490 96.671,128.279 96.423,128.167 96.084 C 127.964 95.470,127.122 95.167,126.517 95.491 C 125.699 95.929,126.207 99.027,127.129 99.223 C 128.426 99.499,128.892 100.919,127.855 101.437 C 127.496 101.616,127.507 101.633,128.153 101.892 C 128.865 102.177,129.174 102.129,129.816 101.637 C 130.206 101.337,130.222 101.338,130.451 101.665 C 130.731 102.065,131.210 102.099,131.508 101.741 C 132.251 100.846,133.333 101.541,133.333 102.914 C 133.333 103.343,133.433 103.708,133.583 103.833 C 133.721 103.947,133.833 104.257,133.833 104.520 C 133.833 105.077,133.829 105.076,134.597 104.755 C 135.002 104.586,135.168 104.418,135.133 104.213 C 135.097 103.997,135.210 103.902,135.552 103.863 C 136.174 103.792,136.293 103.406,135.842 102.926 C 135.401 102.456,135.502 102.376,136.564 102.358 C 137.604 102.341,137.593 102.358,137.362 101.105 C 137.255 100.522,137.167 99.781,137.167 99.458 C 137.167 99.135,136.932 98.370,136.646 97.757 C 135.722 95.785,136.426 93.886,137.599 95.185 C 137.959 95.584,139.830 96.558,140.583 96.738 C 141.588 96.979,142.326 98.090,141.352 97.895 C 140.869 97.799,139.087 98.225,138.722 98.524 C 138.507 98.702,138.678 99.529,139.014 99.934 C 139.262 100.232,139.092 101.372,138.713 101.950 C 138.505 102.267,138.435 102.736,138.442 103.772 C 138.447 104.539,138.387 105.167,138.309 105.167 C 138.231 105.167,138.167 105.092,138.167 105.000 C 138.167 104.908,138.017 104.833,137.833 104.833 C 137.610 104.833,137.500 104.944,137.500 105.169 C 137.500 105.354,137.406 105.657,137.292 105.843 C 137.112 106.135,137.136 106.221,137.467 106.473 C 137.804 106.729,137.829 106.824,137.669 107.243 C 137.324 108.152,138.705 108.356,139.132 107.459 C 139.263 107.186,139.532 106.963,139.800 106.905 C 140.548 106.743,141.009 106.463,140.855 106.265 C 140.428 105.713,140.529 105.358,141.144 105.256 C 142.786 104.984,143.454 105.129,143.154 105.691 C 142.883 106.196,143.080 106.247,143.736 105.842 C 144.399 105.432,144.634 104.709,144.349 103.959 L 144.177 103.505 143.741 103.941 C 143.219 104.463,141.448 104.444,141.060 103.913 C 140.753 103.493,141.034 102.951,141.642 102.793 C 141.930 102.718,142.167 102.590,142.167 102.507 C 142.167 102.419,142.375 102.416,142.667 102.500 C 143.083 102.619,143.253 102.573,143.664 102.227 C 144.221 101.758,144.500 101.824,144.500 102.427 C 144.500 102.921,144.726 102.942,145.288 102.500 C 145.521 102.317,145.807 102.167,145.924 102.167 C 146.052 102.167,146.102 102.038,146.050 101.842 C 145.990 101.612,146.216 101.252,146.819 100.614 C 147.779 99.599,147.794 99.295,146.901 98.972 C 146.264 98.741,146.147 98.286,146.644 97.975 C 146.818 97.867,146.922 97.656,146.881 97.497 C 146.826 97.289,146.943 97.186,147.320 97.111 C 147.896 96.996,148.042 96.381,147.583 96.000 C 147.446 95.886,147.333 95.692,147.333 95.570 C 147.333 95.294,146.497 94.500,146.206 94.500 C 146.089 94.500,145.907 94.313,145.803 94.083 C 145.699 93.854,145.478 93.667,145.312 93.667 C 145.056 93.667,144.667 93.224,144.667 92.932 C 144.667 92.883,144.910 92.776,145.208 92.695 L 145.750 92.547 144.977 92.424 C 144.477 92.345,144.076 92.370,143.839 92.497 C 143.344 92.762,143.000 92.597,143.000 92.094 C 143.000 91.830,142.828 91.549,142.532 91.330 C 142.274 91.140,141.730 90.529,141.323 89.973 C 140.916 89.417,140.338 88.677,140.037 88.330 C 139.274 87.449,139.380 86.251,140.195 86.535 C 140.783 86.740,141.500 86.206,141.500 85.564 C 141.500 85.356,141.565 85.146,141.645 85.097 C 141.779 85.014,141.877 83.167,141.747 83.167 C 141.348 83.167,140.809 83.542,140.973 83.706 C 141.218 83.951,141.224 84.445,140.984 84.593 C 140.617 84.820,140.230 84.204,140.484 83.797 C 140.610 83.596,140.646 83.408,140.564 83.380 C 139.920 83.153,139.876 82.667,140.500 82.667 C 140.673 82.667,140.860 82.592,140.917 82.500 C 140.973 82.408,141.152 82.333,141.314 82.333 C 141.654 82.333,142.392 81.614,142.224 81.446 C 142.018 81.240,141.519 81.329,141.368 81.598 C 140.948 82.349,140.415 81.799,140.463 80.667 C 140.537 78.921,140.583 78.810,141.114 79.085 C 141.625 79.350,141.833 79.279,141.833 78.838 C 141.833 78.587,141.587 78.475,140.542 78.246 C 139.831 78.091,138.942 77.822,138.565 77.649 C 137.796 77.294,137.317 77.250,137.059 77.508 C 136.937 77.630,136.754 77.623,136.455 77.487 C 136.146 77.347,135.886 77.340,135.529 77.465 C 135.095 77.616,134.983 77.587,134.653 77.236 C 134.215 76.770,134.028 76.733,133.893 77.086 C 133.688 77.620,135.078 78.353,136.375 78.396 C 136.955 78.415,137.008 78.459,137.097 79.000 C 137.250 79.931,137.297 80.000,137.786 80.002 C 138.416 80.005,139.000 80.174,139.000 80.353 C 139.000 80.434,138.772 80.500,138.493 80.500 C 138.215 80.500,137.771 80.660,137.507 80.854 L 137.028 81.209 136.513 80.843 C 136.231 80.642,135.923 80.335,135.831 80.162 C 135.738 79.989,135.409 79.727,135.099 79.580 C 134.790 79.433,134.419 79.186,134.276 79.031 C 134.133 78.877,133.857 78.576,133.664 78.364 C 133.389 78.063,133.206 78.002,132.827 78.085 C 132.075 78.250,131.989 78.062,132.443 77.248 C 132.673 76.837,132.830 76.407,132.792 76.293 C 132.754 76.179,132.672 76.290,132.609 76.539 M177.333 77.083 C 177.333 77.221,177.408 77.333,177.500 77.333 C 177.592 77.333,177.667 77.221,177.667 77.083 C 177.667 76.946,177.592 76.833,177.500 76.833 C 177.408 76.833,177.333 76.946,177.333 77.083 M138.680 77.936 C 138.825 78.063,139.172 78.167,139.451 78.167 C 140.108 78.167,140.362 78.484,140.231 79.139 C 140.085 79.865,139.780 80.083,139.208 79.867 C 138.956 79.772,138.547 79.650,138.299 79.596 C 137.878 79.504,137.591 79.093,137.275 78.129 C 137.078 77.530,138.061 77.395,138.680 77.936 M133.567 79.077 C 133.624 79.307,133.833 79.506,134.082 79.568 C 134.547 79.685,134.609 80.033,134.272 80.639 L 134.057 81.028 133.770 80.590 C 133.594 80.322,133.525 80.016,133.593 79.804 C 133.697 79.476,133.660 79.463,132.935 79.572 C 132.028 79.708,131.887 79.411,132.594 78.855 C 133.095 78.461,133.431 78.538,133.567 79.077 M132.000 80.073 C 132.000 80.339,131.698 80.586,131.552 80.441 C 131.415 80.303,131.629 79.833,131.828 79.833 C 131.923 79.833,132.000 79.941,132.000 80.073 M139.566 80.930 C 139.831 81.623,139.452 82.219,139.020 81.787 C 138.815 81.582,138.768 80.954,138.944 80.778 C 139.141 80.581,139.462 80.659,139.566 80.930 M131.833 81.301 C 131.833 81.616,131.644 81.952,131.250 82.333 C 130.922 82.651,130.667 83.064,130.667 83.275 C 130.667 83.482,130.479 83.839,130.250 84.068 C 129.823 84.495,129.703 85.066,130.000 85.250 C 130.092 85.307,130.167 85.765,130.167 86.268 C 130.167 86.991,130.507 88.175,130.713 88.165 C 131.109 88.146,132.708 87.494,133.778 86.916 C 135.424 86.026,135.294 86.040,136.091 86.672 C 136.648 87.116,136.814 87.165,137.432 87.072 C 138.964 86.843,139.032 88.329,137.556 89.770 C 136.887 90.422,136.667 90.757,136.667 91.119 C 136.667 91.384,136.583 91.683,136.481 91.785 C 136.044 92.223,136.168 93.262,136.694 93.573 C 137.262 93.908,136.983 94.500,136.258 94.500 C 136.061 94.500,135.816 94.584,135.713 94.687 C 135.574 94.826,135.391 94.778,135.007 94.505 C 134.501 94.144,134.478 94.143,134.036 94.438 C 133.493 94.800,133.281 94.770,132.695 94.252 C 131.592 93.274,131.394 93.123,131.042 92.987 C 130.610 92.820,130.555 92.579,130.917 92.440 C 131.182 92.338,131.271 91.500,131.016 91.500 C 130.933 91.500,130.401 91.763,129.833 92.083 C 129.266 92.404,128.750 92.667,128.688 92.667 C 128.625 92.667,128.441 92.822,128.279 93.011 C 128.117 93.201,127.894 93.324,127.784 93.285 C 127.552 93.202,127.597 92.444,127.838 92.361 C 128.093 92.274,128.027 91.670,127.732 91.374 C 127.485 91.128,127.486 91.089,127.754 90.893 C 128.029 90.692,128.030 90.649,127.758 90.077 C 127.500 89.533,127.452 89.502,127.261 89.763 C 126.978 90.150,126.686 89.937,126.703 89.354 C 126.721 88.723,126.568 88.513,126.167 88.618 C 125.720 88.735,125.704 88.002,126.145 87.603 C 126.504 87.278,127.049 87.439,127.888 88.119 C 128.861 88.907,129.209 88.402,129.000 86.502 C 128.926 85.828,128.908 85.167,128.959 85.033 C 129.012 84.895,128.888 84.667,128.668 84.501 C 128.315 84.235,128.301 84.168,128.496 83.648 C 128.612 83.337,128.796 82.841,128.906 82.544 C 129.285 81.518,131.833 80.436,131.833 81.301 M137.000 81.703 C 137.000 81.775,136.865 81.833,136.700 81.833 C 136.535 81.833,136.309 81.924,136.199 82.035 C 135.808 82.426,135.366 81.757,135.742 81.342 C 136.044 81.008,137.000 81.282,137.000 81.703 M135.239 82.431 C 135.455 83.292,134.860 83.871,134.151 83.492 C 133.807 83.308,133.545 82.624,133.788 82.543 C 133.878 82.513,134.095 82.381,134.268 82.249 C 134.753 81.882,135.118 81.951,135.239 82.431 M133.500 82.570 C 133.500 83.123,132.940 83.325,132.322 82.994 C 131.782 82.705,131.960 82.500,132.750 82.500 C 133.162 82.500,133.500 82.531,133.500 82.570 M142.707 82.924 C 142.238 83.252,142.227 83.611,142.683 83.755 C 143.170 83.910,143.403 83.626,143.226 83.095 C 143.089 82.683,143.063 82.675,142.707 82.924 M138.424 83.958 C 138.133 85.561,137.809 86.351,137.375 86.516 C 136.729 86.761,136.553 86.485,136.807 85.624 C 136.922 85.235,137.091 84.619,137.184 84.254 C 137.370 83.521,137.559 83.340,138.144 83.336 C 138.508 83.334,138.529 83.380,138.424 83.958 M132.667 84.609 C 132.667 84.756,132.875 84.833,133.268 84.833 C 133.748 84.833,133.849 84.887,133.768 85.097 C 133.712 85.242,133.667 85.421,133.667 85.496 C 133.667 85.738,133.131 85.844,132.896 85.649 C 132.770 85.545,132.667 85.318,132.667 85.146 C 132.667 84.951,132.549 84.833,132.353 84.833 C 132.054 84.833,131.758 84.131,131.969 83.920 C 132.099 83.790,132.667 84.350,132.667 84.609 M124.481 84.875 C 124.372 85.081,124.228 85.287,124.160 85.333 C 123.999 85.442,123.477 86.699,123.559 86.781 C 123.593 86.816,123.721 86.598,123.843 86.297 C 123.965 85.996,124.114 85.712,124.176 85.667 C 124.333 85.548,124.859 84.500,124.760 84.500 C 124.715 84.500,124.590 84.669,124.481 84.875 M131.833 85.713 C 131.833 86.307,131.405 87.064,131.155 86.910 C 130.902 86.753,130.978 86.009,131.292 85.578 C 131.689 85.031,131.833 85.067,131.833 85.713 M182.261 86.316 C 182.150 86.495,182.500 86.647,182.792 86.545 C 182.906 86.505,183.000 86.403,183.000 86.319 C 183.000 86.123,182.382 86.120,182.261 86.316 M123.500 87.125 C 123.500 87.229,123.582 87.364,123.683 87.427 C 123.783 87.489,123.836 87.788,123.801 88.091 C 123.765 88.395,123.796 88.607,123.868 88.562 C 124.085 88.428,124.007 87.607,123.745 87.260 C 123.610 87.082,123.500 87.021,123.500 87.125 M122.946 89.136 C 122.411 89.694,122.385 90.011,122.841 90.423 C 123.137 90.691,123.177 90.907,123.146 92.074 C 123.126 92.828,123.205 93.701,123.326 94.065 C 123.626 94.968,124.892 97.068,124.753 96.433 C 124.695 96.167,124.423 95.623,124.149 95.225 C 123.456 94.217,123.235 93.306,123.333 91.861 C 123.394 90.974,123.357 90.588,123.199 90.458 C 122.671 90.020,122.640 89.678,123.087 89.231 C 123.325 88.993,123.491 88.769,123.456 88.734 C 123.421 88.699,123.192 88.880,122.946 89.136 M139.759 89.542 C 139.823 89.748,140.141 90.164,140.467 90.466 L 141.059 91.015 140.716 91.358 C 140.258 91.816,139.686 91.640,139.558 91.000 C 139.495 90.682,139.333 90.494,139.065 90.427 C 138.675 90.329,138.485 89.571,138.778 89.278 C 139.040 89.015,139.648 89.179,139.759 89.542 M144.208 89.446 C 143.504 89.937,143.874 90.563,144.591 90.094 C 145.015 89.816,145.158 89.160,144.792 89.175 C 144.677 89.180,144.415 89.302,144.208 89.446 M138.596 91.167 C 138.830 91.167,139.187 91.351,139.402 91.583 C 139.617 91.815,139.974 92.000,140.208 92.000 C 140.490 92.000,140.657 92.111,140.717 92.340 C 140.788 92.612,140.744 92.661,140.500 92.583 C 140.289 92.516,140.161 92.588,140.090 92.812 C 139.823 93.652,138.511 93.552,137.389 92.606 L 136.862 92.161 137.128 91.456 C 137.564 90.296,137.879 90.020,138.043 90.653 C 138.147 91.056,138.267 91.167,138.596 91.167 M132.792 90.795 C 132.360 90.888,132.438 91.427,132.939 91.821 C 133.465 92.234,133.762 92.260,133.899 91.903 C 134.039 91.537,134.029 91.500,133.789 91.500 C 133.672 91.500,133.466 91.327,133.330 91.116 C 133.186 90.892,132.962 90.759,132.792 90.795 M142.133 91.867 C 142.243 91.977,142.333 92.202,142.333 92.367 C 142.333 92.771,141.568 92.779,141.463 92.375 C 141.301 91.748,141.707 91.440,142.133 91.867 M144.500 93.667 C 145.360 94.470,144.864 95.049,143.939 94.321 C 143.476 93.957,143.357 93.419,143.708 93.277 C 143.823 93.231,143.927 93.187,143.941 93.180 C 143.954 93.173,144.206 93.392,144.500 93.667 M141.714 93.912 C 142.317 94.164,143.333 95.239,143.333 95.625 C 143.333 95.913,144.036 96.167,144.834 96.167 C 145.526 96.167,145.726 96.318,145.571 96.723 C 145.311 97.399,142.734 97.506,141.932 96.875 C 141.670 96.669,141.323 96.500,141.161 96.500 C 140.042 96.500,137.833 95.160,137.833 94.482 C 137.833 94.308,137.815 94.110,137.792 94.042 C 137.756 93.935,138.493 93.847,140.688 93.697 C 140.929 93.680,141.391 93.777,141.714 93.912 M134.333 95.417 C 134.644 95.646,134.957 95.833,135.029 95.833 C 135.101 95.833,135.207 95.646,135.265 95.417 C 135.388 94.927,135.437 94.913,135.792 95.268 C 136.008 95.484,136.025 95.627,135.879 96.014 C 135.723 96.428,135.776 96.655,136.277 97.699 C 136.800 98.791,136.839 98.970,136.685 99.576 C 136.548 100.116,136.562 100.272,136.758 100.381 C 137.226 100.643,137.051 101.296,136.479 101.421 C 136.150 101.494,135.915 101.465,135.840 101.344 C 135.767 101.226,135.371 101.171,134.819 101.201 C 134.037 101.243,133.923 101.211,133.966 100.959 C 134.032 100.562,133.191 99.541,132.640 99.349 C 132.159 99.181,132.000 99.351,132.000 100.033 C 132.000 100.439,131.336 101.667,131.117 101.667 C 131.032 101.667,130.997 101.431,131.039 101.143 C 131.106 100.688,131.053 100.595,130.641 100.439 C 129.931 100.171,129.860 99.695,130.452 99.179 C 131.442 98.317,131.838 96.988,131.250 96.500 C 130.870 96.185,130.948 95.833,131.396 95.833 C 131.614 95.833,131.886 95.721,132.000 95.583 C 132.114 95.446,132.405 95.332,132.645 95.331 C 132.886 95.329,133.196 95.256,133.333 95.167 C 133.679 94.943,133.698 94.948,134.333 95.417 M133.856 96.722 C 133.510 97.139,134.473 98.115,134.969 97.850 C 135.339 97.652,135.434 97.250,135.197 96.878 C 134.982 96.538,134.094 96.436,133.856 96.722 M124.844 97.053 C 124.815 97.430,125.532 101.581,125.671 101.842 C 125.839 102.155,126.702 102.833,126.933 102.833 C 127.006 102.833,126.811 102.646,126.501 102.417 C 125.739 101.855,125.654 101.695,125.696 100.890 C 125.716 100.508,125.648 100.095,125.545 99.971 C 125.443 99.848,125.305 99.260,125.239 98.665 C 125.135 97.725,124.874 96.661,124.844 97.053 M165.016 98.502 C 163.787 99.318,162.699 100.079,162.599 100.193 C 162.458 100.354,162.473 100.361,162.667 100.226 C 162.804 100.131,163.910 99.405,165.125 98.613 C 166.340 97.821,167.333 97.135,167.333 97.087 C 167.333 96.958,167.416 96.908,165.016 98.502 M127.274 97.461 C 127.650 97.701,127.609 98.366,127.210 98.515 C 126.897 98.632,126.820 98.588,126.734 98.244 C 126.559 97.550,126.821 97.171,127.274 97.461 M128.829 98.021 C 129.092 98.284,129.488 98.500,129.709 98.500 C 130.428 98.500,130.416 98.641,129.622 99.514 C 129.146 100.039,127.884 99.625,128.327 99.090 C 128.470 98.918,128.487 98.764,128.378 98.625 C 127.592 97.619,127.949 97.141,128.829 98.021 M145.442 97.971 C 145.291 98.139,145.167 98.371,145.167 98.486 C 145.167 98.607,144.948 98.512,144.652 98.264 L 144.138 97.831 143.652 98.177 C 143.079 98.585,143.053 98.735,143.499 99.047 C 144.068 99.446,143.103 99.680,142.053 99.398 C 141.304 99.197,141.466 98.471,142.250 98.517 C 142.878 98.554,143.000 98.500,143.000 98.181 C 143.000 97.759,143.200 97.695,144.567 97.680 C 145.672 97.667,145.707 97.679,145.442 97.971 M133.625 98.777 C 133.740 98.823,133.833 98.967,133.833 99.097 C 133.833 99.227,133.954 99.333,134.101 99.333 C 134.277 99.333,134.334 99.243,134.268 99.070 C 134.212 98.925,134.167 98.775,134.167 98.736 C 134.167 98.698,133.998 98.673,133.792 98.680 C 133.585 98.687,133.510 98.731,133.625 98.777 M140.995 99.824 C 141.144 100.103,141.070 100.205,140.459 100.572 C 139.550 101.116,139.274 100.583,140.110 99.899 C 140.692 99.423,140.777 99.416,140.995 99.824 M146.639 99.900 C 146.719 100.308,145.052 101.897,144.876 101.582 C 144.805 101.456,144.561 101.278,144.332 101.187 C 144.104 101.096,144.010 101.016,144.125 101.011 C 144.240 101.005,144.333 100.824,144.333 100.609 C 144.333 100.067,144.796 99.703,145.583 99.625 C 146.475 99.537,146.574 99.562,146.639 99.900 M142.667 101.167 C 142.667 101.258,142.593 101.333,142.503 101.333 C 142.413 101.333,142.293 101.519,142.236 101.745 C 142.148 102.098,142.100 102.123,141.900 101.924 C 141.652 101.676,141.594 101.294,141.778 101.111 C 141.952 100.937,142.667 100.981,142.667 101.167 M160.042 101.665 C 159.744 101.846,159.500 102.031,159.500 102.075 C 159.500 102.119,159.762 102.001,160.083 101.811 C 160.404 101.622,160.667 101.437,160.667 101.400 C 160.667 101.294,160.614 101.316,160.042 101.665 M143.333 101.833 C 143.333 102.019,143.222 102.167,143.083 102.167 C 142.803 102.167,142.792 102.136,142.934 101.764 C 143.077 101.391,143.333 101.436,143.333 101.833 M141.298 102.023 C 141.331 102.196,141.197 102.331,140.925 102.400 C 140.288 102.559,140.282 104.092,140.917 104.333 C 141.541 104.571,141.455 105.000,140.783 105.000 C 140.481 105.000,140.150 104.917,140.048 104.815 C 139.946 104.713,139.781 104.679,139.681 104.741 C 139.422 104.901,139.457 105.333,139.730 105.333 C 139.856 105.333,140.059 105.454,140.182 105.601 C 140.438 105.910,139.987 106.382,139.584 106.227 C 139.465 106.182,139.248 106.315,139.102 106.524 C 138.898 106.816,138.791 106.858,138.639 106.706 C 138.487 106.554,138.545 106.414,138.888 106.096 C 139.386 105.634,139.412 105.521,139.151 104.950 C 138.889 104.374,139.368 103.074,140.132 102.287 C 140.757 101.643,141.205 101.542,141.298 102.023 M135.011 102.839 C 135.617 103.164,135.398 103.481,134.604 103.427 C 133.671 103.365,133.415 103.220,133.679 102.902 C 133.908 102.625,134.555 102.595,135.011 102.839 M127.510 103.201 C 127.734 103.411,128.131 103.846,128.392 104.167 C 128.654 104.487,128.808 104.638,128.736 104.500 C 128.474 104.001,127.621 103.018,127.365 102.920 C 127.221 102.865,127.286 102.991,127.510 103.201 M145.367 103.533 C 145.058 103.842,145.129 104.163,145.542 104.319 C 146.053 104.512,146.500 104.244,146.500 103.744 C 146.500 103.285,145.754 103.146,145.367 103.533 M145.757 104.822 C 145.643 105.006,145.906 105.205,146.060 105.051 C 146.219 104.893,146.189 104.667,146.010 104.667 C 145.924 104.667,145.810 104.736,145.757 104.822 M153.790 105.729 C 152.990 106.221,152.766 106.454,153.417 106.117 C 153.939 105.847,154.644 105.344,154.500 105.344 C 154.454 105.344,154.135 105.517,153.790 105.729 M130.493 106.208 C 130.902 106.644,131.258 107.000,131.285 107.000 C 131.410 107.000,131.278 106.850,130.542 106.160 L 129.750 105.417 130.493 106.208 M141.500 106.583 C 141.500 106.722,141.648 106.833,141.833 106.833 C 142.019 106.833,142.167 106.722,142.167 106.583 C 142.167 106.444,142.019 106.333,141.833 106.333 C 141.648 106.333,141.500 106.444,141.500 106.583 M151.958 106.837 C 151.523 107.110,151.167 107.371,151.167 107.415 C 151.167 107.460,151.542 107.266,152.000 106.984 C 152.458 106.702,152.833 106.440,152.833 106.402 C 152.833 106.293,152.793 106.313,151.958 106.837 M132.181 107.554 C 132.219 107.584,132.512 107.777,132.833 107.984 L 133.417 108.361 132.917 107.931 C 132.642 107.695,132.348 107.501,132.264 107.501 C 132.180 107.500,132.142 107.524,132.181 107.554 M134.667 109.330 C 134.987 109.620,135.400 109.936,135.583 110.032 C 136.026 110.265,135.752 110.015,134.833 109.348 L 134.083 108.803 134.667 109.330 M140.083 111.574 C 140.450 111.714,141.050 111.819,141.417 111.807 C 142.080 111.787,142.079 111.786,141.250 111.656 C 140.792 111.585,140.192 111.480,139.917 111.423 C 139.553 111.348,139.599 111.389,140.083 111.574 " stroke="none" fill="#845d46" fill-rule="evenodd"></path><path id="path2" d="M271.833 20.833 C 271.833 21.044,272.174 21.044,272.500 20.833 C 272.695 20.707,272.649 20.671,272.292 20.669 C 272.040 20.668,271.833 20.742,271.833 20.833 M275.301 21.573 C 275.054 21.790,274.455 22.053,273.971 22.157 C 273.487 22.261,272.936 22.492,272.747 22.670 C 272.557 22.848,272.105 23.096,271.743 23.221 C 271.232 23.397,271.072 23.545,271.032 23.879 C 270.935 24.683,268.731 25.265,266.546 25.063 L 265.454 24.962 265.560 25.398 C 265.619 25.637,265.710 26.004,265.762 26.212 C 265.830 26.481,265.705 26.782,265.330 27.253 C 265.041 27.618,264.751 28.010,264.687 28.125 C 264.623 28.239,264.238 28.346,263.832 28.362 C 263.426 28.378,262.905 28.489,262.674 28.609 C 262.286 28.810,262.223 28.788,261.865 28.330 C 261.557 27.937,261.346 27.833,260.855 27.833 C 260.513 27.833,260.143 27.743,260.033 27.633 C 259.816 27.416,259.755 26.342,259.958 26.320 C 260.027 26.312,260.286 26.291,260.534 26.273 C 260.781 26.255,261.156 26.083,261.367 25.891 C 261.578 25.700,262.066 25.503,262.453 25.455 C 262.839 25.406,263.357 25.208,263.603 25.015 C 263.849 24.821,264.336 24.617,264.686 24.561 C 265.097 24.495,265.413 24.319,265.581 24.063 C 265.724 23.845,265.985 23.667,266.161 23.667 C 266.336 23.667,266.522 23.599,266.573 23.516 C 266.624 23.434,267.173 23.209,267.791 23.017 C 268.410 22.825,269.104 22.519,269.333 22.338 L 269.750 22.007 269.324 22.004 C 269.089 22.002,268.751 22.110,268.574 22.245 C 268.396 22.379,268.079 22.492,267.870 22.495 C 267.661 22.498,267.446 22.613,267.394 22.750 C 267.331 22.913,267.072 23.000,266.649 23.000 C 266.292 23.000,266.000 23.072,266.000 23.159 C 266.000 23.247,265.719 23.365,265.375 23.421 C 265.031 23.478,264.600 23.592,264.417 23.676 C 264.233 23.759,262.908 24.207,261.472 24.672 C 260.036 25.137,258.480 25.700,258.015 25.925 C 257.549 26.150,257.074 26.335,256.959 26.337 C 256.747 26.341,254.732 27.039,252.167 27.997 C 251.387 28.288,250.487 28.592,250.167 28.673 C 249.656 28.801,248.076 29.392,247.083 29.826 C 246.900 29.906,246.338 30.106,245.833 30.269 C 245.329 30.433,244.845 30.627,244.758 30.700 C 244.671 30.773,244.492 30.833,244.360 30.833 C 244.228 30.833,243.774 30.991,243.352 31.185 C 242.929 31.378,242.358 31.629,242.083 31.744 C 241.808 31.858,241.300 32.075,240.953 32.226 C 240.606 32.377,240.211 32.500,240.075 32.500 C 239.940 32.500,239.699 32.569,239.539 32.653 C 239.380 32.738,238.762 32.971,238.167 33.172 C 237.190 33.502,236.593 33.732,235.583 34.166 C 235.400 34.245,234.762 34.495,234.167 34.723 C 232.189 35.477,228.755 36.839,228.417 37.004 C 227.943 37.234,225.844 38.003,225.250 38.164 C 224.674 38.320,219.749 40.102,219.250 40.335 C 219.067 40.421,218.504 40.645,218.000 40.833 C 217.024 41.198,216.779 41.297,215.786 41.727 C 215.439 41.877,215.023 42.000,214.861 42.000 C 214.699 42.000,214.495 42.067,214.408 42.148 C 214.321 42.229,213.659 42.497,212.936 42.744 C 212.214 42.990,211.225 43.373,210.739 43.596 C 210.253 43.818,209.780 44.000,209.689 44.000 C 209.555 44.000,207.533 44.811,205.917 45.512 C 205.733 45.592,205.096 45.837,204.500 46.057 C 203.904 46.276,203.079 46.604,202.667 46.784 C 202.254 46.964,201.279 47.316,200.500 47.567 C 199.721 47.818,198.671 48.178,198.167 48.368 C 197.294 48.697,197.061 48.792,195.641 49.404 C 195.307 49.549,194.950 49.667,194.848 49.667 C 194.746 49.667,194.532 49.738,194.373 49.824 C 194.214 49.911,193.408 50.219,192.583 50.509 C 191.758 50.799,190.821 51.154,190.500 51.297 C 189.560 51.716,189.018 51.934,187.167 52.639 C 186.204 53.006,184.554 53.642,183.499 54.052 C 182.445 54.463,181.132 54.951,180.583 55.139 C 178.675 55.788,177.315 56.296,177.213 56.398 C 177.157 56.454,177.005 56.500,176.876 56.500 C 176.681 56.500,175.566 56.932,173.417 57.841 C 172.957 58.035,171.747 58.504,169.583 59.325 C 168.575 59.708,167.337 60.194,166.831 60.405 C 166.326 60.616,165.671 60.843,165.375 60.908 C 165.079 60.973,164.794 61.095,164.742 61.179 C 164.690 61.264,164.533 61.333,164.394 61.333 C 164.179 61.333,162.940 61.816,160.750 62.753 C 160.475 62.871,159.912 63.082,159.500 63.223 C 159.087 63.364,157.550 63.903,156.083 64.420 C 154.617 64.937,153.154 65.435,152.833 65.527 C 151.882 65.799,150.858 66.151,150.544 66.314 C 150.382 66.397,149.912 66.593,149.500 66.748 C 149.087 66.904,148.525 67.130,148.250 67.251 C 147.975 67.373,147.375 67.599,146.917 67.754 C 146.458 67.909,145.933 68.098,145.750 68.175 C 144.075 68.875,142.898 69.333,142.774 69.333 C 142.638 69.333,141.550 69.744,138.500 70.945 C 137.904 71.179,137.154 71.480,136.833 71.614 C 136.512 71.747,136.063 71.933,135.833 72.027 C 135.604 72.121,135.204 72.303,134.945 72.432 C 134.685 72.561,134.377 72.667,134.260 72.667 C 133.395 72.667,132.286 74.481,132.488 75.566 C 132.679 76.593,130.656 78.615,128.000 80.052 C 126.968 80.610,125.975 81.765,125.037 83.500 C 124.913 83.729,124.676 84.067,124.510 84.250 C 123.581 85.277,122.860 87.170,123.250 87.559 C 123.649 87.958,123.550 88.221,122.750 88.890 C 121.891 89.608,121.807 90.033,122.416 90.597 C 122.804 90.957,122.831 91.084,122.819 92.555 C 122.805 94.211,123.092 95.042,124.286 96.815 C 124.576 97.245,124.668 97.622,124.674 98.398 C 124.678 98.958,124.789 99.717,124.921 100.083 C 125.054 100.450,125.164 100.975,125.168 101.250 C 125.176 101.874,125.539 102.331,126.499 102.925 C 126.911 103.180,127.890 104.033,128.675 104.820 C 130.698 106.848,131.606 107.667,131.830 107.667 C 131.993 107.667,133.899 109.023,134.167 109.330 C 134.457 109.662,135.671 110.500,135.862 110.500 C 135.989 110.500,136.240 110.598,136.421 110.718 C 136.602 110.838,137.162 111.059,137.667 111.209 C 138.171 111.360,139.077 111.632,139.680 111.814 C 140.558 112.080,140.956 112.117,141.680 112.002 C 142.177 111.924,143.146 111.772,143.833 111.666 C 144.521 111.560,145.308 111.370,145.583 111.243 C 145.858 111.116,146.421 110.938,146.833 110.848 C 147.389 110.726,147.734 110.510,148.167 110.013 C 148.782 109.307,150.352 108.233,152.992 106.714 C 153.867 106.210,154.685 105.715,154.809 105.614 C 154.934 105.512,155.171 105.352,155.337 105.257 C 155.666 105.068,157.569 103.804,158.959 102.850 C 159.440 102.520,159.965 102.175,160.125 102.083 C 160.286 101.992,160.867 101.660,161.417 101.346 C 162.538 100.706,165.205 98.993,165.333 98.831 C 165.379 98.773,165.529 98.674,165.667 98.611 C 165.804 98.548,166.114 98.366,166.356 98.206 C 166.598 98.047,167.460 97.509,168.273 97.010 C 169.085 96.512,170.141 95.818,170.618 95.469 C 171.095 95.119,171.526 94.833,171.575 94.833 C 171.623 94.833,172.133 94.512,172.707 94.119 C 173.900 93.302,176.791 91.500,176.908 91.500 C 176.951 91.500,178.245 90.657,179.785 89.626 C 182.900 87.540,182.898 87.542,183.687 87.104 C 183.996 86.932,184.748 86.464,185.356 86.063 C 185.964 85.662,186.500 85.333,186.548 85.333 C 186.595 85.333,187.598 84.684,188.775 83.889 C 189.953 83.095,191.544 82.064,192.312 81.598 C 194.167 80.470,193.977 80.591,196.250 79.085 C 198.472 77.612,198.804 77.401,199.167 77.226 C 199.540 77.045,201.071 76.114,201.167 76.008 C 201.290 75.872,202.832 74.833,202.910 74.833 C 202.947 74.833,203.770 74.308,204.738 73.667 C 205.707 73.025,206.539 72.500,206.588 72.500 C 206.638 72.500,207.257 72.131,207.964 71.680 C 209.960 70.407,212.154 68.996,213.220 68.300 C 213.754 67.952,214.249 67.667,214.320 67.667 C 214.392 67.667,215.005 67.269,215.683 66.783 C 216.362 66.297,217.704 65.422,218.667 64.837 C 219.629 64.253,220.649 63.600,220.932 63.387 C 221.216 63.174,221.524 63.000,221.616 63.000 C 221.708 63.000,222.094 62.775,222.474 62.500 C 222.853 62.225,223.195 62.000,223.232 62.000 C 223.296 62.000,226.872 59.676,227.259 59.383 C 227.480 59.216,227.601 59.141,230.333 57.486 C 231.571 56.736,232.621 56.076,232.667 56.020 C 232.713 55.963,232.900 55.828,233.083 55.719 C 234.392 54.944,236.314 53.714,238.049 52.541 C 239.168 51.784,240.196 51.117,240.333 51.058 C 240.471 50.999,240.808 50.788,241.083 50.589 C 241.497 50.289,243.654 48.950,245.840 47.636 C 246.360 47.323,246.465 47.254,249.902 44.958 C 251.240 44.065,252.377 43.333,252.428 43.333 C 252.539 43.333,254.911 41.821,258.977 39.159 C 260.594 38.100,262.667 36.751,263.583 36.160 C 264.500 35.570,265.287 35.048,265.333 35.000 C 265.379 34.953,266.204 34.383,267.167 33.733 C 268.652 32.731,269.927 31.836,271.970 30.362 C 272.183 30.209,273.096 29.510,274.001 28.810 C 274.905 28.110,276.069 27.294,276.588 26.998 C 278.129 26.116,278.453 25.209,277.902 23.322 C 277.394 21.582,276.201 20.780,275.301 21.573 M277.086 25.004 C 277.325 25.391,276.958 26.189,276.360 26.585 C 275.208 27.347,273.664 28.444,273.124 28.885 C 272.341 29.525,269.270 31.762,268.450 32.290 C 268.065 32.539,267.188 33.161,266.500 33.673 C 265.389 34.501,263.469 35.785,261.141 37.259 C 260.714 37.529,259.702 38.200,258.891 38.749 C 258.080 39.298,257.286 39.823,257.127 39.916 C 256.262 40.415,253.905 41.904,253.833 41.995 C 253.743 42.109,252.830 42.678,252.162 43.035 C 251.741 43.260,248.820 45.142,247.537 46.015 C 247.145 46.282,246.781 46.500,246.729 46.500 C 246.636 46.500,244.418 47.911,243.037 48.849 C 242.645 49.115,242.292 49.333,242.254 49.333 C 242.216 49.333,241.412 49.844,240.467 50.468 C 239.523 51.093,238.168 51.974,237.457 52.427 C 236.745 52.880,235.208 53.877,234.040 54.644 C 232.872 55.411,231.017 56.596,229.917 57.276 C 228.817 57.957,227.354 58.884,226.667 59.335 C 225.979 59.787,225.267 60.237,225.083 60.335 C 224.637 60.575,224.303 60.783,222.851 61.727 C 222.173 62.168,221.498 62.578,221.351 62.639 C 221.204 62.700,220.783 62.947,220.417 63.187 C 220.050 63.427,218.963 64.140,218.000 64.770 C 217.037 65.401,216.175 65.947,216.083 65.985 C 215.992 66.023,215.250 66.491,214.435 67.027 C 213.619 67.562,212.888 68.000,212.810 68.000 C 212.731 68.000,212.667 68.067,212.667 68.149 C 212.667 68.230,212.479 68.344,212.250 68.402 C 212.021 68.459,211.833 68.580,211.833 68.670 C 211.833 68.760,211.750 68.833,211.649 68.833 C 211.548 68.833,211.191 69.049,210.857 69.312 C 210.523 69.576,209.987 69.934,209.667 70.109 C 209.017 70.462,207.629 71.360,207.500 71.511 C 207.454 71.564,207.304 71.659,207.167 71.722 C 207.029 71.785,206.692 71.985,206.417 72.166 C 206.142 72.347,205.748 72.569,205.542 72.660 C 205.335 72.751,205.167 72.902,205.167 72.996 C 205.167 73.090,205.089 73.167,204.993 73.167 C 204.898 73.167,204.617 73.305,204.368 73.473 C 203.719 73.914,201.468 75.380,201.133 75.580 C 200.798 75.780,198.672 77.123,198.030 77.540 C 197.784 77.699,197.471 77.881,197.333 77.944 C 197.196 78.007,197.046 78.103,197.000 78.156 C 196.844 78.338,194.960 79.555,194.500 79.771 C 194.362 79.836,193.987 80.083,193.666 80.319 C 192.851 80.921,192.463 81.161,192.125 81.274 C 191.965 81.328,191.833 81.438,191.833 81.519 C 191.833 81.600,191.739 81.667,191.624 81.667 C 191.508 81.667,190.752 82.117,189.944 82.667 C 189.136 83.217,188.446 83.667,188.412 83.667 C 188.377 83.667,187.877 83.996,187.300 84.398 C 186.722 84.800,185.370 85.663,184.294 86.316 C 182.374 87.480,180.258 88.842,179.904 89.141 C 179.805 89.224,179.561 89.344,179.362 89.408 C 179.163 89.471,179.000 89.584,179.000 89.658 C 179.000 89.733,178.869 89.839,178.708 89.892 C 178.391 89.999,178.038 90.212,177.219 90.791 C 176.928 90.998,176.627 91.167,176.551 91.167 C 176.476 91.167,175.752 91.617,174.944 92.167 C 174.136 92.717,173.447 93.167,173.414 93.167 C 173.381 93.167,172.656 93.651,171.802 94.244 C 170.948 94.836,169.912 95.523,169.500 95.771 C 169.087 96.018,167.250 97.208,165.417 98.415 C 163.583 99.621,161.596 100.899,161.000 101.254 C 160.404 101.609,158.642 102.735,157.083 103.756 C 155.525 104.777,153.387 106.140,152.333 106.784 C 149.217 108.689,148.219 109.384,147.892 109.877 C 147.722 110.133,147.396 110.384,147.167 110.435 C 146.938 110.485,146.600 110.587,146.417 110.662 C 145.300 111.118,144.489 111.333,143.890 111.333 C 143.515 111.333,142.890 111.446,142.500 111.583 C 141.330 111.996,141.122 111.966,137.750 110.887 C 136.105 110.361,135.613 110.118,134.694 109.373 C 134.297 109.051,133.349 108.367,132.587 107.852 C 131.192 106.910,128.984 104.930,128.113 103.839 C 127.855 103.515,127.292 103.051,126.863 102.808 C 125.686 102.142,125.549 101.856,125.155 99.250 C 124.845 97.195,124.728 96.785,124.170 95.810 C 123.281 94.254,123.105 93.612,123.146 92.074 C 123.177 90.907,123.137 90.691,122.841 90.423 C 122.338 89.968,122.421 89.593,123.167 88.955 C 123.860 88.362,123.990 87.913,123.635 87.345 C 123.481 87.098,123.487 86.879,123.661 86.349 C 123.877 85.697,123.991 85.509,124.767 84.527 C 124.960 84.283,125.243 83.821,125.395 83.500 C 125.881 82.481,127.389 80.769,128.090 80.442 C 130.940 79.111,132.639 77.237,132.838 75.207 C 132.984 73.711,133.295 73.340,134.956 72.684 C 135.949 72.292,138.040 71.447,138.917 71.084 C 139.394 70.887,140.481 70.482,145.167 68.756 C 146.313 68.333,147.400 67.921,147.583 67.839 C 147.767 67.758,148.592 67.448,149.417 67.151 C 150.242 66.853,150.992 66.562,151.083 66.502 C 151.175 66.443,151.700 66.257,152.250 66.090 C 152.800 65.922,153.546 65.678,153.907 65.548 C 154.838 65.211,156.599 65.255,157.768 65.643 C 158.308 65.823,159.200 66.103,159.750 66.265 C 161.226 66.702,162.333 67.449,162.333 68.009 C 162.333 68.174,162.560 68.382,162.875 68.507 C 164.531 69.162,165.357 69.986,165.587 71.213 C 165.651 71.552,165.770 71.789,165.852 71.739 C 165.933 71.688,166.000 71.726,166.000 71.823 C 166.000 71.921,166.230 72.000,166.511 72.000 C 166.922 72.000,167.004 72.057,166.931 72.292 C 166.880 72.452,166.914 72.996,167.006 73.500 C 167.098 74.004,167.191 74.529,167.213 74.667 C 167.307 75.253,167.620 75.548,168.060 75.464 C 168.626 75.356,168.903 75.693,168.775 76.332 C 168.689 76.762,168.743 76.864,169.171 77.086 C 169.459 77.235,169.667 77.476,169.667 77.661 C 169.667 78.033,169.867 78.186,170.660 78.420 C 171.066 78.540,171.265 78.713,171.333 79.003 C 171.452 79.513,172.471 79.687,172.826 79.258 C 173.139 78.882,173.503 78.940,174.039 79.454 C 174.439 79.838,174.556 79.875,174.798 79.698 C 174.955 79.582,175.291 79.399,175.545 79.289 C 175.870 79.150,176.058 78.904,176.177 78.462 C 176.366 77.761,176.554 77.706,177.393 78.106 C 178.064 78.425,178.609 78.331,179.279 77.778 C 179.980 77.201,180.264 77.148,180.724 77.509 C 181.273 77.941,181.336 77.923,181.917 77.167 C 182.196 76.803,182.564 76.512,182.752 76.508 C 183.323 76.495,183.589 75.869,183.204 75.441 C 182.528 74.689,182.573 73.899,183.281 74.076 C 183.547 74.143,183.845 74.062,184.159 73.839 C 184.421 73.652,184.756 73.500,184.904 73.500 C 185.052 73.500,185.453 73.324,185.795 73.109 C 186.137 72.894,186.698 72.626,187.042 72.513 C 187.385 72.400,187.667 72.244,187.667 72.167 C 187.667 71.889,188.764 71.648,189.226 71.824 C 189.987 72.114,189.559 72.717,188.445 72.924 C 187.794 73.044,187.492 73.392,187.785 73.685 C 187.891 73.791,188.022 73.757,188.161 73.590 C 188.278 73.449,188.481 73.333,188.611 73.333 C 189.626 73.333,190.877 72.228,190.256 71.880 C 189.969 71.720,190.094 71.000,190.408 71.000 C 190.519 71.000,190.853 70.662,191.149 70.250 C 191.772 69.382,192.143 69.310,192.864 69.917 C 193.498 70.450,193.688 70.441,194.526 69.833 C 195.317 69.261,195.521 69.230,196.084 69.599 C 196.483 69.860,196.495 69.853,196.765 69.224 C 197.234 68.132,197.267 68.093,197.824 67.980 C 198.122 67.919,198.643 67.598,198.982 67.268 C 199.491 66.770,199.718 66.667,200.299 66.667 L 201.000 66.667 201.000 66.016 C 201.000 65.363,201.459 65.000,202.283 65.000 C 202.411 65.000,202.949 64.695,203.478 64.321 C 204.117 63.871,204.689 63.611,205.179 63.549 C 206.262 63.411,206.500 63.241,206.500 62.604 C 206.500 61.820,207.636 61.392,208.177 61.972 C 208.644 62.474,208.847 62.421,209.378 61.654 C 209.751 61.115,209.925 60.997,210.294 61.036 C 210.682 61.076,210.758 61.015,210.803 60.626 C 210.841 60.289,211.045 60.057,211.570 59.749 C 211.963 59.519,212.420 59.181,212.585 58.999 C 212.750 58.816,212.960 58.667,213.052 58.667 C 213.143 58.667,213.476 58.471,213.790 58.231 C 214.269 57.866,214.469 57.812,215.029 57.902 C 215.613 57.995,215.768 57.946,216.269 57.505 C 216.585 57.229,217.127 56.857,217.474 56.680 C 217.821 56.503,218.208 56.235,218.332 56.085 C 218.954 55.335,220.460 55.060,220.618 55.667 C 220.666 55.850,220.774 56.000,220.858 56.000 C 221.142 56.000,223.083 55.303,223.167 55.170 C 223.688 54.348,224.067 54.015,224.280 54.192 C 224.506 54.379,225.166 54.257,226.292 53.820 C 226.662 53.676,226.834 53.000,226.500 53.000 C 226.238 53.000,226.311 52.622,226.660 52.168 C 226.944 51.798,226.992 51.784,227.091 52.043 C 227.295 52.574,227.542 52.359,227.428 51.750 C 227.367 51.429,227.378 51.155,227.451 51.141 C 227.524 51.126,227.771 51.091,228.000 51.062 C 228.229 51.033,228.679 50.975,229.000 50.932 C 229.321 50.889,229.671 50.850,229.777 50.844 C 230.038 50.830,231.028 49.210,231.159 48.583 L 231.264 48.083 231.582 48.620 C 232.099 49.494,232.270 49.471,233.149 48.410 C 233.320 48.204,233.549 48.152,234.011 48.214 C 234.525 48.283,234.711 48.225,235.017 47.899 C 235.513 47.371,237.319 46.500,237.917 46.500 C 238.811 46.500,239.270 45.741,238.734 45.149 C 238.587 44.987,238.517 44.775,238.577 44.677 C 238.754 44.391,239.175 44.473,239.483 44.854 C 240.078 45.588,241.647 44.865,241.763 43.803 C 241.786 43.591,241.812 43.360,241.819 43.292 C 241.827 43.223,242.136 43.167,242.507 43.167 C 243.251 43.167,244.369 42.668,244.980 42.062 C 245.307 41.738,245.487 41.687,246.010 41.771 C 246.712 41.883,247.064 41.693,248.580 40.384 C 249.037 39.989,249.469 39.667,249.541 39.667 C 249.612 39.667,250.057 39.395,250.530 39.062 C 251.004 38.729,251.659 38.386,251.987 38.299 C 252.315 38.211,252.771 37.965,253.000 37.752 C 253.229 37.538,253.666 37.132,253.971 36.848 C 254.293 36.549,254.706 36.333,254.955 36.333 C 255.192 36.333,255.623 36.152,255.915 35.929 C 256.206 35.707,256.728 35.472,257.075 35.407 C 257.422 35.342,257.951 35.074,258.250 34.811 C 258.549 34.548,258.880 34.333,258.984 34.333 C 259.089 34.333,259.500 34.033,259.897 33.667 C 260.295 33.300,260.772 33.000,260.957 33.000 C 261.141 33.000,261.379 32.896,261.484 32.770 C 261.590 32.641,262.100 32.509,262.639 32.470 C 263.764 32.388,264.429 32.070,266.401 30.669 C 267.194 30.104,268.423 29.381,269.130 29.060 C 269.838 28.739,270.604 28.378,270.833 28.257 C 271.063 28.136,271.901 27.696,272.696 27.279 C 273.492 26.861,274.457 26.309,274.841 26.051 C 276.646 24.841,276.909 24.718,277.086 25.004 M258.996 26.660 C 259.138 26.925,259.105 27.021,258.816 27.176 C 258.327 27.438,257.827 26.993,258.160 26.592 C 258.452 26.240,258.786 26.267,258.996 26.660 M253.890 29.690 C 253.912 30.157,253.853 30.259,253.532 30.304 C 252.665 30.427,252.376 29.444,253.165 29.052 C 253.673 28.800,253.855 28.960,253.890 29.690 M249.215 31.042 C 249.614 31.340,249.384 31.551,248.292 31.888 C 247.239 32.213,247.264 32.178,247.498 32.993 C 247.686 33.649,247.535 33.827,246.786 33.831 C 246.026 33.835,245.993 33.437,246.668 32.417 C 246.850 32.142,247.080 31.715,247.179 31.468 C 247.320 31.116,247.493 31.004,247.971 30.954 C 248.308 30.918,248.663 30.877,248.760 30.861 C 248.857 30.846,249.062 30.927,249.215 31.042 M245.706 32.397 C 246.165 33.095,245.543 33.545,244.219 33.476 C 243.162 33.421,243.080 33.442,243.032 33.775 C 242.938 34.434,241.436 34.549,240.740 33.951 L 240.295 33.568 240.903 33.034 C 241.564 32.454,242.020 32.380,242.667 32.750 C 243.222 33.068,243.255 33.063,243.720 32.598 C 244.306 32.012,245.380 31.904,245.706 32.397 M241.492 35.317 C 241.877 36.071,241.772 36.233,240.800 36.382 C 240.248 36.466,240.111 36.407,239.508 35.822 C 239.137 35.461,238.706 35.167,238.550 35.167 C 237.906 35.167,238.636 34.849,239.417 34.790 C 241.264 34.650,241.135 34.617,241.492 35.317 M236.500 35.563 C 236.500 35.921,236.051 36.205,235.675 36.086 C 235.397 35.998,235.365 35.918,235.506 35.655 C 235.705 35.284,236.500 35.210,236.500 35.563 M233.906 36.316 C 234.032 36.521,233.563 36.680,233.221 36.549 C 232.970 36.453,232.975 36.428,233.262 36.316 C 233.703 36.143,233.799 36.143,233.906 36.316 M235.167 37.325 C 235.167 37.524,234.669 37.688,234.460 37.558 C 234.348 37.489,234.393 37.368,234.583 37.230 C 234.880 37.012,235.167 37.059,235.167 37.325 M232.410 37.322 C 232.533 37.521,232.219 37.719,231.997 37.582 C 231.811 37.466,231.933 37.167,232.167 37.167 C 232.248 37.167,232.357 37.236,232.410 37.322 M231.837 39.462 C 232.665 40.251,232.570 40.412,231.250 40.453 C 230.608 40.473,229.558 40.560,228.917 40.646 C 227.645 40.815,227.417 40.736,227.292 40.079 C 227.151 39.343,227.601 39.212,228.945 39.595 C 229.210 39.671,229.412 39.579,229.695 39.252 C 230.189 38.684,231.115 38.775,231.837 39.462 M228.400 42.684 C 228.931 43.101,228.740 43.500,228.011 43.500 C 227.303 43.500,226.915 43.137,227.151 42.695 C 227.396 42.239,227.830 42.235,228.400 42.684 M208.750 46.167 C 209.273 46.442,209.912 46.667,210.170 46.667 C 210.428 46.667,210.761 46.713,210.911 46.771 C 211.352 46.940,210.545 47.404,209.887 47.360 C 209.584 47.340,209.143 47.451,208.905 47.606 C 208.502 47.870,208.442 47.871,208.006 47.613 C 207.518 47.325,206.761 47.446,206.167 47.908 C 205.319 48.567,204.371 48.655,203.870 48.122 C 203.439 47.663,203.557 47.432,204.403 47.078 C 204.756 46.931,205.248 46.660,205.496 46.477 C 205.744 46.293,206.207 46.123,206.526 46.097 C 206.844 46.072,207.250 45.967,207.427 45.864 C 207.605 45.761,207.761 45.675,207.775 45.672 C 207.788 45.669,208.227 45.892,208.750 46.167 M217.051 45.761 C 217.391 45.891,217.204 46.500,216.824 46.500 C 216.458 46.500,216.270 46.240,216.397 45.909 C 216.496 45.649,216.662 45.611,217.051 45.761 M212.406 47.930 C 212.755 48.279,212.593 48.500,211.990 48.500 C 211.429 48.500,211.388 48.400,211.776 47.971 C 212.109 47.603,212.081 47.605,212.406 47.930 M211.002 48.915 C 210.793 49.166,210.500 49.112,210.500 48.823 C 210.500 48.737,210.659 48.667,210.854 48.667 C 211.148 48.667,211.173 48.708,211.002 48.915 M214.667 49.000 C 214.667 49.244,214.556 49.333,214.250 49.333 C 213.795 49.333,213.723 49.177,214.033 48.867 C 214.340 48.560,214.667 48.629,214.667 49.000 M205.667 50.396 C 205.667 50.677,205.511 50.867,205.129 51.052 C 204.472 51.370,204.431 51.339,204.699 50.730 C 205.055 49.921,205.667 49.710,205.667 50.396 M216.137 50.471 C 216.166 50.670,216.112 50.833,216.017 50.833 C 215.796 50.833,215.477 50.245,215.620 50.102 C 215.814 49.908,216.082 50.100,216.137 50.471 M206.500 52.346 C 206.500 52.937,204.874 53.483,204.180 53.125 C 203.545 52.798,203.579 52.523,204.293 52.203 C 205.174 51.809,206.500 51.895,206.500 52.346 M198.500 52.667 C 198.174 52.877,197.833 52.877,197.833 52.667 C 197.833 52.575,198.040 52.501,198.292 52.503 C 198.649 52.505,198.695 52.541,198.500 52.667 M201.333 53.268 C 201.333 53.415,201.149 53.754,200.924 54.022 C 200.698 54.290,200.552 54.607,200.598 54.728 C 200.751 55.126,199.779 55.537,197.583 56.004 C 196.849 56.160,196.508 55.983,196.317 55.346 C 195.965 54.170,196.564 53.804,197.704 54.499 C 198.491 54.979,198.728 54.921,199.356 54.094 C 200.126 53.079,201.333 52.575,201.333 53.268 M203.303 54.290 C 203.245 54.787,202.766 55.000,202.441 54.673 C 202.297 54.530,202.354 54.402,202.667 54.161 C 203.233 53.726,203.365 53.753,203.303 54.290 M189.500 55.405 C 189.500 55.884,188.581 56.136,188.546 55.667 C 188.526 55.403,188.623 55.333,189.010 55.333 C 189.280 55.333,189.500 55.365,189.500 55.405 M187.241 56.318 C 187.453 56.663,187.119 57.000,186.566 57.000 C 186.119 57.000,186.000 56.933,186.000 56.681 C 186.000 56.233,187.006 55.939,187.241 56.318 M194.609 56.590 C 194.898 57.343,193.019 57.804,192.252 57.168 C 191.996 56.956,192.005 56.914,192.362 56.639 C 192.871 56.247,194.464 56.212,194.609 56.590 M197.167 57.250 C 197.341 57.460,197.280 57.539,196.776 57.750 C 196.000 58.074,195.833 58.065,195.833 57.700 C 195.833 57.049,196.745 56.742,197.167 57.250 M190.362 57.583 C 190.265 58.180,189.759 58.561,189.354 58.344 C 188.897 58.100,188.905 57.775,189.375 57.442 C 189.892 57.077,190.432 57.154,190.362 57.583 M180.662 59.009 C 180.420 59.462,180.065 59.583,179.616 59.366 L 179.250 59.189 179.630 59.178 C 179.839 59.172,180.054 59.054,180.106 58.917 C 180.159 58.779,180.347 58.667,180.524 58.667 C 180.796 58.667,180.817 58.719,180.662 59.009 M170.554 62.195 C 170.804 62.502,170.906 62.531,171.137 62.366 C 171.792 61.895,172.333 61.916,172.333 62.411 C 172.333 62.604,172.139 62.668,171.542 62.673 C 171.106 62.676,170.563 62.786,170.333 62.917 C 169.105 63.619,167.633 62.818,168.408 61.869 C 168.694 61.519,170.186 61.746,170.554 62.195 M174.470 63.858 C 174.441 64.055,174.267 64.299,174.084 64.400 C 173.901 64.501,173.512 64.783,173.220 65.027 C 172.734 65.433,172.632 65.456,172.005 65.297 C 170.642 64.951,170.827 64.299,172.354 64.066 C 172.755 64.004,173.271 63.855,173.500 63.734 C 174.151 63.389,174.532 63.438,174.470 63.858 M168.333 74.500 C 168.333 74.592,168.183 74.667,168.000 74.667 C 167.817 74.667,167.667 74.592,167.667 74.500 C 167.667 74.408,167.817 74.333,168.000 74.333 C 168.183 74.333,168.333 74.408,168.333 74.500 M182.339 75.176 C 182.709 75.869,182.384 76.516,181.686 76.475 C 181.346 76.455,180.983 76.491,180.881 76.554 C 180.671 76.683,180.509 76.358,180.626 76.042 C 180.668 75.927,180.835 75.833,180.997 75.833 C 181.191 75.833,181.326 75.663,181.392 75.333 C 181.511 74.736,182.055 74.646,182.339 75.176 M183.934 75.265 C 183.790 75.641,183.946 75.816,184.333 75.715 C 184.766 75.602,184.781 75.000,184.351 75.000 C 184.178 75.000,183.990 75.119,183.934 75.265 M177.667 77.083 C 177.667 77.221,177.592 77.333,177.500 77.333 C 177.408 77.333,177.333 77.221,177.333 77.083 C 177.333 76.946,177.408 76.833,177.500 76.833 C 177.592 76.833,177.667 76.946,177.667 77.083 M137.465 77.678 C 137.169 77.849,137.186 78.004,137.608 78.957 C 137.767 79.315,138.000 79.530,138.299 79.596 C 138.547 79.650,138.956 79.772,139.208 79.867 C 139.780 80.083,140.085 79.865,140.231 79.139 C 140.362 78.484,140.108 78.167,139.451 78.167 C 139.172 78.167,138.825 78.063,138.680 77.936 C 138.293 77.598,137.789 77.490,137.465 77.678 M135.742 81.342 C 135.366 81.757,135.808 82.426,136.199 82.035 C 136.309 81.924,136.535 81.833,136.700 81.833 C 137.139 81.833,137.067 81.611,136.522 81.290 C 136.066 81.020,136.031 81.022,135.742 81.342 M132.908 85.348 C 132.846 85.448,132.867 85.600,132.953 85.687 C 133.163 85.896,133.667 85.692,133.667 85.399 C 133.667 85.125,133.070 85.085,132.908 85.348 M131.276 85.638 C 130.978 85.968,130.903 86.754,131.155 86.910 C 131.389 87.054,131.833 86.323,131.833 85.796 C 131.833 85.258,131.663 85.210,131.276 85.638 " stroke="none" fill="#938b89" fill-rule="evenodd"></path><path id="path3" d="M157.167 65.664 C 157.167 65.860,158.058 66.252,158.851 66.406 C 160.373 66.701,161.262 67.195,161.680 67.980 C 162.016 68.613,162.230 68.796,162.959 69.078 C 164.151 69.539,164.560 69.909,164.338 70.325 C 163.778 71.372,164.245 72.667,165.183 72.667 C 166.104 72.667,166.500 72.910,166.500 73.477 C 166.500 73.766,166.666 74.095,166.939 74.346 C 167.366 74.738,167.373 74.739,167.185 74.378 C 167.078 74.173,166.975 73.555,166.954 73.003 C 166.918 72.030,166.903 72.001,166.458 72.000 C 166.206 72.000,166.000 71.921,166.000 71.823 C 166.000 71.726,165.933 71.688,165.852 71.739 C 165.770 71.789,165.651 71.552,165.587 71.213 C 165.357 69.986,164.531 69.162,162.875 68.507 C 162.560 68.382,162.333 68.174,162.333 68.009 C 162.333 67.447,161.221 66.698,159.750 66.269 C 159.200 66.109,158.447 65.870,158.078 65.739 C 157.282 65.456,157.167 65.447,157.167 65.664 M132.594 78.855 C 131.887 79.411,132.028 79.708,132.935 79.572 C 133.660 79.463,133.697 79.476,133.593 79.804 C 133.525 80.016,133.594 80.322,133.770 80.590 L 134.057 81.028 134.272 80.639 C 134.609 80.033,134.547 79.685,134.082 79.568 C 133.833 79.506,133.624 79.307,133.567 79.077 C 133.431 78.538,133.095 78.461,132.594 78.855 M131.558 80.091 C 131.503 80.232,131.501 80.389,131.552 80.441 C 131.698 80.586,132.000 80.339,132.000 80.073 C 132.000 79.754,131.682 79.766,131.558 80.091 M130.178 81.443 C 129.354 81.874,129.059 82.130,128.906 82.544 C 128.796 82.841,128.612 83.337,128.496 83.648 C 128.301 84.168,128.315 84.235,128.668 84.501 C 128.888 84.667,129.012 84.895,128.959 85.033 C 128.908 85.167,128.926 85.828,129.000 86.502 C 129.209 88.402,128.861 88.907,127.888 88.119 C 127.049 87.439,126.504 87.278,126.145 87.603 C 125.704 88.002,125.720 88.735,126.167 88.618 C 126.568 88.513,126.721 88.723,126.703 89.354 C 126.686 89.937,126.978 90.150,127.261 89.763 C 127.452 89.502,127.500 89.533,127.758 90.077 C 128.030 90.649,128.029 90.692,127.754 90.893 C 127.486 91.089,127.485 91.128,127.732 91.374 C 128.027 91.670,128.093 92.274,127.838 92.361 C 127.597 92.444,127.552 93.202,127.784 93.285 C 127.894 93.324,128.117 93.201,128.279 93.011 C 128.441 92.822,128.625 92.667,128.688 92.667 C 128.750 92.667,129.266 92.404,129.833 92.083 C 130.401 91.763,130.933 91.500,131.016 91.500 C 131.271 91.500,131.182 92.338,130.917 92.440 C 130.555 92.579,130.610 92.820,131.042 92.987 C 131.394 93.123,131.592 93.274,132.695 94.252 C 133.281 94.770,133.493 94.800,134.036 94.438 C 134.478 94.143,134.501 94.144,135.007 94.505 C 135.391 94.778,135.574 94.826,135.713 94.687 C 135.816 94.584,136.061 94.500,136.258 94.500 C 136.983 94.500,137.262 93.908,136.694 93.573 C 136.168 93.262,136.044 92.223,136.481 91.785 C 136.583 91.683,136.667 91.384,136.667 91.119 C 136.667 90.757,136.887 90.422,137.556 89.770 C 139.032 88.329,138.964 86.843,137.432 87.072 C 136.814 87.165,136.648 87.116,136.091 86.672 C 135.294 86.040,135.424 86.026,133.778 86.916 C 132.708 87.494,131.109 88.146,130.713 88.165 C 130.507 88.175,130.167 86.991,130.167 86.268 C 130.167 85.765,130.092 85.307,130.000 85.250 C 129.703 85.066,129.823 84.495,130.250 84.068 C 130.479 83.839,130.667 83.482,130.667 83.275 C 130.667 83.064,130.922 82.651,131.250 82.333 C 132.578 81.046,131.943 80.519,130.178 81.443 M131.969 83.920 C 131.758 84.131,132.054 84.833,132.353 84.833 C 132.565 84.833,132.667 84.952,132.667 85.200 C 132.667 85.485,132.711 85.522,132.867 85.367 C 132.977 85.257,133.239 85.167,133.450 85.167 C 133.661 85.167,133.833 85.092,133.833 85.000 C 133.833 84.908,133.571 84.833,133.250 84.833 C 132.872 84.833,132.667 84.754,132.667 84.609 C 132.667 84.350,132.099 83.790,131.969 83.920 M138.778 89.278 C 138.485 89.571,138.675 90.329,139.065 90.427 C 139.333 90.494,139.495 90.682,139.558 91.000 C 139.686 91.640,140.258 91.816,140.716 91.358 L 141.059 91.015 140.467 90.466 C 140.141 90.164,139.823 89.748,139.759 89.542 C 139.648 89.179,139.040 89.015,138.778 89.278 M133.789 91.500 C 134.029 91.500,134.039 91.537,133.899 91.903 C 133.697 92.428,132.500 91.797,132.500 91.167 C 132.500 90.704,133.044 90.671,133.330 91.116 C 133.466 91.327,133.672 91.500,133.789 91.500 M141.458 91.875 C 141.316 92.296,141.540 92.667,141.936 92.667 C 142.208 92.667,142.333 92.572,142.333 92.367 C 142.333 91.809,141.615 91.406,141.458 91.875 M143.708 93.277 C 143.357 93.419,143.476 93.957,143.939 94.321 C 144.864 95.049,145.360 94.470,144.500 93.667 C 144.206 93.392,143.954 93.173,143.941 93.180 C 143.927 93.187,143.823 93.231,143.708 93.277 M139.000 93.822 C 138.313 93.874,137.769 93.973,137.792 94.042 C 137.815 94.110,137.833 94.308,137.833 94.482 C 137.833 95.160,140.042 96.500,141.161 96.500 C 141.323 96.500,141.670 96.669,141.932 96.875 C 142.734 97.506,145.311 97.399,145.571 96.723 C 145.726 96.318,145.526 96.167,144.834 96.167 C 144.036 96.167,143.333 95.913,143.333 95.625 C 143.333 94.879,141.624 93.633,140.688 93.697 C 140.447 93.713,139.688 93.769,139.000 93.822 M133.333 95.167 C 133.196 95.256,132.886 95.329,132.645 95.331 C 132.405 95.332,132.114 95.446,132.000 95.583 C 131.886 95.721,131.614 95.833,131.396 95.833 C 130.948 95.833,130.870 96.185,131.250 96.500 C 131.838 96.988,131.442 98.317,130.452 99.179 C 129.860 99.695,129.931 100.171,130.641 100.439 C 131.053 100.595,131.106 100.688,131.039 101.143 C 130.997 101.431,131.032 101.667,131.117 101.667 C 131.336 101.667,132.000 100.439,132.000 100.033 C 132.000 99.351,132.159 99.181,132.640 99.349 C 133.191 99.541,134.032 100.562,133.966 100.959 C 133.923 101.211,134.037 101.243,134.819 101.201 C 135.371 101.171,135.767 101.226,135.840 101.344 C 135.915 101.465,136.150 101.494,136.479 101.421 C 137.051 101.296,137.226 100.643,136.758 100.381 C 136.562 100.272,136.548 100.116,136.685 99.576 C 136.839 98.970,136.800 98.791,136.277 97.699 C 135.776 96.655,135.723 96.428,135.879 96.014 C 136.025 95.627,136.008 95.484,135.792 95.268 C 135.437 94.913,135.388 94.927,135.265 95.417 C 135.207 95.646,135.101 95.833,135.029 95.833 C 134.957 95.833,134.644 95.646,134.333 95.417 C 133.698 94.948,133.679 94.943,133.333 95.167 M135.197 96.878 C 135.434 97.250,135.339 97.652,134.969 97.850 C 134.473 98.115,133.510 97.139,133.856 96.722 C 134.094 96.436,134.982 96.538,135.197 96.878 M126.727 97.584 C 126.674 97.721,126.677 98.019,126.734 98.244 C 126.879 98.823,127.613 98.577,127.524 97.979 C 127.435 97.377,126.907 97.115,126.727 97.584 M134.167 98.736 C 134.167 98.775,134.212 98.925,134.268 99.070 C 134.334 99.243,134.277 99.333,134.101 99.333 C 133.954 99.333,133.833 99.227,133.833 99.097 C 133.833 98.967,133.740 98.823,133.625 98.777 C 133.510 98.731,133.585 98.687,133.792 98.680 C 133.998 98.673,134.167 98.698,134.167 98.736 M140.110 99.899 C 139.274 100.583,139.550 101.116,140.459 100.572 C 141.070 100.205,141.144 100.103,140.995 99.824 C 140.777 99.416,140.692 99.423,140.110 99.899 M145.583 99.625 C 144.796 99.703,144.333 100.067,144.333 100.609 C 144.333 100.824,144.240 101.005,144.125 101.011 C 144.010 101.016,144.104 101.096,144.332 101.187 C 144.561 101.278,144.805 101.456,144.876 101.582 C 145.052 101.897,146.719 100.308,146.639 99.900 C 146.574 99.562,146.475 99.537,145.583 99.625 M142.934 101.764 C 142.792 102.136,142.803 102.167,143.083 102.167 C 143.222 102.167,143.333 102.019,143.333 101.833 C 143.333 101.436,143.077 101.391,142.934 101.764 M140.132 102.287 C 139.368 103.074,138.889 104.374,139.151 104.950 C 139.412 105.521,139.386 105.634,138.888 106.096 C 138.545 106.414,138.487 106.554,138.639 106.706 C 138.791 106.858,138.898 106.816,139.102 106.524 C 139.248 106.315,139.465 106.182,139.584 106.227 C 139.987 106.382,140.438 105.910,140.182 105.601 C 140.059 105.454,139.856 105.333,139.730 105.333 C 139.457 105.333,139.422 104.901,139.681 104.741 C 139.781 104.679,139.946 104.713,140.048 104.815 C 140.150 104.917,140.481 105.000,140.783 105.000 C 141.455 105.000,141.541 104.571,140.917 104.333 C 140.282 104.092,140.288 102.559,140.925 102.400 C 141.197 102.331,141.331 102.196,141.298 102.023 C 141.205 101.542,140.757 101.643,140.132 102.287 M133.679 102.902 C 133.415 103.220,133.671 103.365,134.604 103.427 C 135.140 103.463,135.333 103.415,135.333 103.244 C 135.333 102.726,134.046 102.459,133.679 102.902 " stroke="none" fill="#ab7f5c" fill-rule="evenodd"></path></g></svg>