<svg id="svg" version="1.1" xmlns="http://www.w3.org/2000/svg" xmlns:xlink="http://www.w3.org/1999/xlink" width="400" height="302.38095238095235" viewBox="0, 0, 400,302.38095238095235"><g id="svgg"><path id="path0" d="M161.498 19.994 C 161.207 20.163,159.179 22.712,156.990 25.658 C 154.802 28.603,152.453 31.742,151.770 32.631 C 151.088 33.521,148.623 36.801,146.293 39.920 C 143.964 43.039,140.639 47.485,138.905 49.800 C 137.171 52.115,135.005 55.009,134.092 56.231 C 132.866 57.870,132.533 58.516,132.820 58.693 C 133.034 58.826,133.117 59.084,133.003 59.267 C 132.880 59.467,132.964 59.536,133.215 59.440 C 133.832 59.203,135.324 59.847,135.079 60.244 C 134.941 60.467,135.075 60.515,135.478 60.386 C 135.866 60.263,136.145 60.349,136.251 60.624 C 136.415 61.051,139.438 62.632,140.090 62.632 C 140.276 62.632,140.349 62.762,140.252 62.920 C 140.154 63.078,140.554 63.297,141.141 63.407 C 141.728 63.517,142.209 63.728,142.209 63.876 C 142.209 64.024,142.379 64.146,142.587 64.147 C 142.795 64.148,143.374 64.372,143.873 64.645 C 146.629 66.151,153.004 69.279,153.328 69.283 C 153.536 69.286,153.707 69.410,153.707 69.559 C 153.707 69.707,154.063 69.918,154.499 70.028 C 154.936 70.137,155.490 70.424,155.731 70.665 C 155.973 70.907,156.416 71.104,156.717 71.104 C 157.017 71.104,157.433 71.309,157.640 71.558 C 157.847 71.808,158.326 72.012,158.704 72.012 C 159.081 72.012,159.469 72.216,159.565 72.466 C 159.661 72.716,160.008 72.920,160.336 72.920 C 160.664 72.920,161.006 73.038,161.095 73.183 C 161.318 73.543,165.460 75.558,166.498 75.811 C 167.077 75.952,167.251 76.122,167.056 76.359 C 166.855 76.604,167.131 76.716,168.023 76.751 C 168.710 76.779,169.321 76.949,169.381 77.130 C 169.441 77.310,169.685 77.458,169.922 77.458 C 170.160 77.458,170.587 77.731,170.872 78.064 C 171.157 78.396,171.616 78.669,171.891 78.669 C 172.166 78.669,172.564 78.876,172.775 79.130 C 172.985 79.383,173.225 79.524,173.307 79.441 C 173.389 79.359,173.812 79.542,174.247 79.848 C 174.682 80.154,175.344 80.500,175.719 80.616 C 176.093 80.732,176.399 80.939,176.399 81.076 C 176.399 81.213,176.876 81.414,177.458 81.523 C 178.041 81.632,178.519 81.818,178.521 81.935 C 178.524 82.135,179.379 82.565,182.300 83.837 C 186.402 85.623,186.494 85.675,186.058 85.981 C 185.747 86.199,185.858 86.232,186.460 86.100 C 186.942 85.995,187.292 86.049,187.292 86.227 C 187.292 86.397,187.496 86.536,187.746 86.536 C 187.995 86.536,188.200 86.652,188.200 86.794 C 188.200 87.047,192.367 89.259,192.844 89.259 C 192.976 89.259,193.288 89.463,193.538 89.713 C 193.788 89.962,194.254 90.166,194.575 90.166 C 194.896 90.166,195.159 90.292,195.159 90.445 C 195.159 90.598,195.577 90.815,196.087 90.927 C 196.597 91.039,197.089 91.323,197.178 91.557 C 197.268 91.790,197.651 91.982,198.029 91.982 C 198.406 91.982,198.885 92.186,199.092 92.436 C 199.299 92.685,199.717 92.890,200.019 92.890 C 200.322 92.890,200.647 93.015,200.742 93.169 C 200.837 93.322,201.796 93.877,202.874 94.402 C 203.953 94.928,204.912 95.483,205.007 95.636 C 205.102 95.790,205.512 95.915,205.918 95.915 C 206.324 95.915,206.657 96.037,206.657 96.185 C 206.657 96.333,207.013 96.544,207.450 96.654 C 207.886 96.763,208.440 97.050,208.681 97.292 C 208.923 97.533,209.375 97.731,209.686 97.731 C 209.997 97.731,210.329 97.855,210.423 98.007 C 210.586 98.272,212.056 99.014,214.145 99.888 C 214.965 100.231,215.129 100.461,215.129 101.269 C 215.129 101.803,215.323 102.348,215.561 102.481 C 216.188 102.832,216.940 104.405,216.942 105.371 C 216.943 105.828,217.064 106.203,217.211 106.203 C 217.358 106.203,217.573 107.088,217.689 108.169 C 217.805 109.251,217.993 110.136,218.107 110.136 C 218.329 110.136,219.170 112.982,219.671 115.431 C 219.841 116.263,220.098 117.216,220.241 117.549 C 220.472 118.086,221.000 119.882,222.241 124.357 C 223.085 127.398,223.279 128.188,223.445 129.252 C 223.541 129.864,223.750 130.408,223.910 130.462 C 224.069 130.516,224.288 131.407,224.396 132.443 C 224.504 133.478,224.684 134.269,224.795 134.201 C 226.005 133.453,225.674 139.029,224.427 140.396 C 224.049 140.810,222.398 142.920,220.758 145.083 C 219.118 147.247,217.590 149.168,217.361 149.353 C 217.131 149.537,216.944 149.772,216.944 149.873 C 216.944 150.102,213.599 154.534,212.781 155.390 C 212.453 155.733,212.035 156.294,211.852 156.635 C 211.669 156.977,210.630 158.398,209.543 159.793 C 208.456 161.188,207.305 162.670,206.986 163.086 C 206.667 163.502,206.156 164.150,205.850 164.526 C 205.545 164.902,204.887 165.758,204.387 166.430 C 203.888 167.101,202.791 168.496,201.950 169.529 C 201.109 170.562,200.015 172.020,199.518 172.769 C 198.537 174.248,196.306 174.786,195.756 173.676 C 194.873 171.893,194.641 170.926,194.571 168.742 C 194.562 168.441,194.426 168.273,194.271 168.369 C 194.115 168.465,193.893 167.895,193.779 167.101 C 193.664 166.307,193.466 165.522,193.340 165.356 C 193.111 165.053,192.812 163.895,191.935 159.909 C 191.679 158.744,191.346 157.662,191.196 157.504 C 191.046 157.346,190.919 156.801,190.913 156.293 C 190.908 155.786,190.709 155.114,190.472 154.800 C 190.234 154.487,189.949 153.602,189.838 152.834 C 189.727 152.066,189.546 151.301,189.436 151.135 C 189.326 150.968,189.193 150.424,189.141 149.924 C 189.089 149.425,188.892 148.744,188.703 148.411 C 188.515 148.079,188.184 147.126,187.969 146.293 C 187.196 143.312,186.655 141.136,186.491 140.349 C 186.381 139.820,185.951 139.359,185.220 138.988 C 184.612 138.679,184.006 138.256,183.873 138.048 C 183.740 137.840,183.293 137.670,182.880 137.670 C 182.467 137.670,182.051 137.466,181.955 137.216 C 181.859 136.967,181.625 136.763,181.435 136.763 C 180.983 136.764,178.396 135.467,178.265 135.174 C 178.210 135.049,177.903 134.947,177.584 134.947 C 177.266 134.947,176.744 134.686,176.425 134.367 C 176.106 134.048,175.764 133.868,175.664 133.967 C 175.565 134.067,175.083 133.851,174.592 133.488 C 174.102 133.126,173.423 132.829,173.083 132.829 C 172.736 132.829,172.466 132.630,172.466 132.375 C 172.466 132.076,172.167 131.921,171.591 131.921 C 171.109 131.921,170.640 131.726,170.549 131.488 C 170.457 131.250,169.932 131.011,169.382 130.958 C 168.746 130.897,168.412 130.716,168.464 130.462 C 168.510 130.241,168.404 130.149,168.229 130.258 C 167.873 130.478,165.431 129.382,164.928 128.776 C 164.644 128.434,163.463 127.821,158.850 125.619 C 158.268 125.341,157.723 125.030,157.640 124.927 C 157.557 124.825,157.148 124.637,156.732 124.509 C 156.316 124.382,155.614 124.023,155.173 123.712 C 154.731 123.401,154.274 123.147,154.158 123.147 C 153.972 123.147,151.997 122.175,146.596 119.428 C 145.764 119.005,144.402 118.320,143.570 117.906 C 142.738 117.493,140.151 116.186,137.821 115.002 C 135.492 113.818,133.415 112.851,133.207 112.854 C 132.999 112.857,132.829 112.755,132.829 112.628 C 132.829 112.501,132.114 112.079,131.241 111.691 C 130.367 111.303,129.380 110.837,129.047 110.655 C 128.714 110.473,127.892 110.029,127.220 109.668 C 126.548 109.307,125.731 108.863,125.404 108.682 C 125.078 108.502,124.300 108.272,123.676 108.172 C 123.052 108.072,122.542 107.861,122.542 107.702 C 122.542 107.543,122.336 107.413,122.085 107.413 C 121.834 107.413,121.395 107.141,121.110 106.808 C 120.825 106.475,120.408 106.203,120.183 106.203 C 119.959 106.203,119.571 105.998,119.321 105.749 C 119.072 105.499,118.619 105.295,118.316 105.295 C 118.013 105.295,117.687 105.091,117.591 104.841 C 117.495 104.592,117.068 104.387,116.641 104.387 C 116.215 104.387,115.791 104.191,115.699 103.952 C 115.607 103.712,115.144 103.431,114.670 103.327 C 114.197 103.223,113.647 102.943,113.448 102.704 C 113.250 102.465,112.943 102.269,112.766 102.269 C 112.307 102.269,109.870 101.059,109.666 100.730 C 109.572 100.578,109.163 100.454,108.757 100.454 C 108.351 100.454,108.018 100.320,108.018 100.157 C 108.018 99.994,107.644 99.779,107.186 99.679 C 105.641 99.342,103.728 98.257,104.151 97.957 C 104.397 97.782,104.209 97.755,103.634 97.882 C 103.136 97.991,102.642 98.222,102.536 98.394 C 102.430 98.566,101.240 100.155,99.891 101.925 C 90.955 113.658,57.978 157.910,57.776 158.440 C 57.389 159.454,57.764 160.287,58.914 160.966 C 59.935 161.568,59.955 161.614,59.479 162.262 C 57.727 164.650,57.976 165.738,60.575 167.050 C 62.647 168.096,62.598 167.915,61.271 169.653 C 59.453 172.033,59.782 172.999,62.951 174.592 C 65.864 176.056,65.846 176.025,64.690 177.597 C 63.525 179.180,63.444 180.488,64.458 181.309 C 64.958 181.715,65.087 182.006,64.886 182.276 C 62.364 185.672,62.477 186.604,65.611 188.270 L 66.597 188.795 65.825 190.112 C 64.369 192.597,64.652 193.002,69.661 195.598 C 74.372 198.040,77.338 199.633,78.468 200.328 C 78.994 200.651,79.663 200.998,79.955 201.099 C 80.246 201.199,80.484 201.401,80.484 201.548 C 80.484 201.695,80.685 201.815,80.930 201.815 C 81.265 201.815,81.331 202.043,81.195 202.723 C 81.056 203.421,81.123 203.631,81.485 203.631 C 81.744 203.631,82.037 203.886,82.136 204.198 C 82.235 204.510,82.789 205.252,83.367 205.847 C 83.945 206.442,84.418 207.072,84.418 207.247 C 84.418 207.421,84.612 207.564,84.849 207.564 C 85.087 207.564,85.339 207.734,85.410 207.943 C 85.481 208.151,85.491 208.023,85.431 207.658 C 85.206 206.280,87.303 206.811,87.673 208.226 C 87.792 208.682,87.889 208.729,88.078 208.423 C 88.460 207.806,89.266 209.055,89.051 209.931 C 88.881 210.629,90.427 212.362,91.248 212.393 C 91.427 212.400,91.884 212.736,92.264 213.140 C 92.643 213.544,93.130 213.807,93.345 213.725 C 93.560 213.642,93.826 213.720,93.936 213.898 C 94.268 214.435,94.896 214.262,95.233 213.540 L 95.550 212.859 95.865 213.616 C 96.109 214.202,96.184 214.246,96.199 213.811 C 96.223 213.098,97.714 214.381,97.730 215.129 C 97.739 215.532,97.773 215.532,98.038 215.129 C 98.229 214.837,98.417 214.786,98.563 214.984 C 98.918 215.468,100.388 216.339,100.850 216.339 C 101.080 216.339,101.519 216.616,101.825 216.955 C 102.132 217.293,102.566 217.500,102.791 217.414 C 103.016 217.327,103.277 217.459,103.372 217.706 C 103.467 217.952,103.672 218.154,103.827 218.154 C 103.983 218.154,104.406 218.430,104.768 218.767 C 105.129 219.104,105.584 219.318,105.779 219.244 C 105.974 219.169,106.421 219.310,106.774 219.556 C 107.126 219.803,107.551 219.920,107.718 219.817 C 107.886 219.713,108.101 219.833,108.197 220.083 C 108.292 220.332,108.542 220.471,108.751 220.391 C 108.960 220.310,109.306 220.455,109.520 220.712 C 109.733 220.970,110.211 221.180,110.581 221.180 C 110.951 221.180,111.558 221.444,111.930 221.766 C 112.302 222.089,112.795 222.280,113.025 222.192 C 113.292 222.089,113.752 222.538,114.284 223.421 C 114.750 224.191,115.352 224.811,115.634 224.811 C 115.915 224.811,116.349 225.015,116.598 225.265 C 116.848 225.514,117.240 225.719,117.470 225.719 C 117.699 225.719,118.152 225.919,118.475 226.163 C 118.798 226.407,119.470 226.612,119.970 226.619 C 120.469 226.625,121.267 226.833,121.744 227.082 C 122.954 227.713,123.652 227.646,123.853 226.879 C 123.994 226.340,124.103 226.290,124.472 226.596 C 124.718 226.800,125.372 227.039,125.924 227.125 C 127.564 227.383,127.810 227.439,128.393 227.686 C 128.699 227.816,129.243 227.937,129.603 227.955 C 130.034 227.977,130.290 228.216,130.352 228.654 C 130.474 229.512,131.423 229.754,133.132 229.365 C 133.215 229.347,133.042 229.191,132.747 229.019 C 132.452 228.848,132.294 228.573,132.396 228.408 C 132.514 228.217,132.726 228.230,132.986 228.447 C 133.210 228.632,133.844 228.794,134.397 228.806 C 134.949 228.818,135.946 229.069,136.611 229.364 C 138.620 230.255,142.175 231.913,145.583 233.550 C 150.240 235.788,149.689 235.976,153.976 230.679 L 155.910 228.290 158.212 228.361 C 160.769 228.440,162.231 228.030,162.107 227.269 C 162.027 226.776,165.799 226.441,166.550 226.874 C 166.936 227.096,168.267 227.054,168.864 226.802 C 169.924 226.353,171.558 226.972,171.558 227.821 C 171.558 228.296,171.872 228.393,173.752 228.500 C 176.071 228.631,176.148 228.670,183.349 233.283 C 189.698 237.351,189.401 237.284,192.284 235.308 C 194.788 233.592,232.822 206.424,239.334 201.699 C 242.247 199.587,245.855 196.973,247.352 195.891 C 248.850 194.809,251.301 193.035,252.799 191.949 C 254.297 190.863,255.672 189.881,255.854 189.768 C 256.037 189.654,256.281 189.175,256.396 188.704 C 256.522 188.189,256.491 187.917,256.319 188.023 C 256.142 188.133,256.045 185.744,256.064 181.770 C 256.090 176.467,256.124 175.977,256.262 178.971 C 256.490 183.913,256.806 180.880,256.730 174.480 C 256.685 170.621,256.745 169.964,257.159 169.807 C 257.423 169.707,257.820 169.448,258.040 169.230 C 258.580 168.696,259.304 168.730,259.304 169.289 C 259.304 169.539,259.440 169.743,259.607 169.743 C 259.799 169.743,259.909 167.477,259.909 163.551 C 259.909 157.438,259.918 157.354,260.590 156.996 C 260.964 156.797,262.607 155.669,264.240 154.490 C 269.226 150.888,270.279 150.135,272.163 148.824 C 273.162 148.130,274.047 147.481,274.130 147.381 C 274.213 147.282,275.303 146.520,276.551 145.688 C 277.799 144.856,278.888 144.104,278.971 144.016 C 279.337 143.632,281.646 141.906,281.795 141.906 C 281.886 141.906,283.024 141.157,284.324 140.242 C 286.955 138.389,286.812 138.494,288.546 137.138 C 289.235 136.599,289.958 136.157,290.152 136.157 C 290.346 136.157,290.421 136.021,290.318 135.855 C 290.215 135.688,290.283 135.552,290.469 135.552 C 290.655 135.552,290.731 135.429,290.638 135.278 C 290.544 135.127,290.727 135.071,291.043 135.154 C 291.483 135.269,291.625 135.138,291.644 134.596 C 291.711 132.749,291.804 132.526,292.510 132.526 C 292.896 132.526,293.289 132.322,293.385 132.073 C 293.481 131.823,293.749 131.619,293.981 131.619 C 294.213 131.619,294.402 131.483,294.402 131.316 C 294.402 130.924,295.523 129.803,295.915 129.803 C 296.082 129.803,296.218 129.629,296.218 129.417 C 296.218 128.894,297.218 128.069,297.670 128.220 C 298.108 128.366,298.160 129.198,297.731 129.198 C 297.323 129.198,297.346 130.205,297.763 130.623 C 298.073 130.932,298.037 132.129,297.651 134.425 C 297.573 134.887,297.628 135.337,297.772 135.426 C 298.160 135.666,298.089 140.010,297.686 140.656 C 297.440 141.049,297.428 141.469,297.644 142.090 C 297.820 142.595,297.843 143.257,297.699 143.648 C 297.540 144.076,297.563 144.327,297.762 144.327 C 297.966 144.327,298.076 146.049,298.076 149.244 C 298.076 155.363,298.295 158.850,298.677 158.850 C 298.957 158.850,303.575 155.580,314.058 147.958 C 342.858 127.016,341.077 128.437,340.518 126.847 C 340.359 126.395,339.795 125.752,339.264 125.418 C 338.038 124.647,338.044 124.460,339.334 123.279 C 340.429 122.276,340.637 121.445,340.063 120.372 C 339.775 119.834,339.930 119.572,341.273 118.331 C 343.458 116.312,343.289 115.629,340.106 113.601 C 337.950 112.227,337.913 112.066,339.491 110.949 C 341.540 109.500,341.497 108.268,339.344 106.750 C 337.648 105.554,337.646 105.587,339.486 104.265 C 340.318 103.667,340.998 103.053,340.998 102.900 C 340.998 102.747,341.074 102.425,341.166 102.185 C 341.258 101.945,340.965 101.312,340.516 100.777 L 339.698 99.806 340.802 98.734 C 343.165 96.439,344.202 97.363,326.090 85.619 C 322.633 83.377,317.498 80.045,314.679 78.215 C 311.860 76.384,304.098 71.346,297.430 67.020 C 290.762 62.693,284.119 58.382,282.668 57.439 C 281.217 56.497,278.941 55.031,277.610 54.182 C 276.278 53.334,272.806 51.078,269.894 49.170 C 266.977 47.259,264.278 45.698,263.885 45.695 C 263.169 45.688,260.427 47.554,249.358 55.577 C 246.300 57.793,243.577 59.607,243.306 59.607 C 242.766 59.607,241.271 58.870,194.743 35.652 C 177.124 26.860,162.555 19.671,162.368 19.676 C 162.181 19.681,161.789 19.824,161.498 19.994 M173.275 37.103 C 174.893 38.306,175.998 42.430,174.887 43.116 C 174.720 43.219,174.584 43.513,174.584 43.769 C 174.584 46.478,169.707 51.397,165.680 52.751 C 154.739 56.430,154.719 42.445,165.658 37.198 C 168.360 35.902,171.606 35.861,173.275 37.103 M168.230 37.216 C 168.230 37.383,168.672 37.521,169.213 37.523 C 169.754 37.525,170.503 37.609,170.877 37.710 C 171.378 37.844,171.558 37.763,171.558 37.403 C 171.558 37.012,171.225 36.914,169.894 36.914 C 168.979 36.914,168.230 37.050,168.230 37.216 M163.994 38.999 C 163.994 39.398,164.797 39.637,166.137 39.637 C 166.989 39.637,167.322 39.509,167.322 39.183 C 167.322 38.668,165.959 38.545,165.658 39.033 C 165.532 39.235,165.282 39.235,164.903 39.033 C 164.204 38.658,163.994 38.651,163.994 38.999 M173.979 41.150 C 173.979 41.815,174.115 42.360,174.281 42.360 C 174.448 42.360,174.584 41.815,174.584 41.150 C 174.584 40.484,174.448 39.939,174.281 39.939 C 174.115 39.939,173.979 40.484,173.979 41.150 M165.507 40.696 C 165.507 40.946,165.711 41.150,165.961 41.150 C 166.210 41.150,166.415 40.946,166.415 40.696 C 166.415 40.446,166.210 40.242,165.961 40.242 C 165.711 40.242,165.507 40.446,165.507 40.696 M163.086 41.604 C 163.086 41.853,163.290 42.057,163.540 42.057 C 163.790 42.057,163.994 41.853,163.994 41.604 C 163.994 41.354,163.790 41.150,163.540 41.150 C 163.290 41.150,163.086 41.354,163.086 41.604 M171.256 42.663 C 171.256 43.409,171.852 44.075,171.865 43.343 C 171.867 43.219,171.951 42.810,172.052 42.436 C 172.186 41.935,172.104 41.755,171.745 41.755 C 171.403 41.755,171.256 42.028,171.256 42.663 M159.228 44.376 C 159.020 44.460,158.861 44.755,158.874 45.033 C 158.889 45.347,158.955 45.395,159.051 45.159 C 159.135 44.951,159.464 44.781,159.783 44.781 C 160.102 44.781,160.363 44.644,160.363 44.478 C 160.363 44.161,159.870 44.117,159.228 44.376 M172.983 44.781 C 172.889 45.143,172.571 45.386,172.192 45.386 C 171.760 45.386,171.558 45.578,171.558 45.991 C 171.558 46.910,172.710 46.785,172.947 45.840 C 173.051 45.424,173.258 45.083,173.406 45.083 C 173.555 45.083,173.676 44.879,173.676 44.629 C 173.676 43.964,173.168 44.075,172.983 44.781 M169.440 47.504 C 169.440 48.109,169.592 48.411,169.894 48.411 C 170.144 48.411,170.348 48.207,170.348 47.958 C 170.348 47.708,170.552 47.504,170.802 47.504 C 171.051 47.504,171.256 47.300,171.256 47.050 C 171.256 46.747,170.953 46.596,170.348 46.596 C 169.541 46.596,169.440 46.697,169.440 47.504 M170.524 48.304 C 170.271 48.964,170.608 49.270,170.965 48.705 C 171.323 48.140,171.330 47.806,170.985 47.806 C 170.837 47.806,170.629 48.030,170.524 48.304 M158.245 49.168 C 158.245 49.773,158.396 49.924,159.002 49.924 C 159.847 49.924,159.976 49.494,159.326 48.844 C 158.675 48.193,158.245 48.322,158.245 49.168 M168.230 48.865 C 168.230 49.115,168.434 49.319,168.684 49.319 C 168.933 49.319,169.138 49.115,169.138 48.865 C 169.138 48.616,168.933 48.411,168.684 48.411 C 168.434 48.411,168.230 48.616,168.230 48.865 M163.691 50.378 C 163.691 50.628,163.896 50.832,164.145 50.832 C 164.395 50.832,164.599 50.628,164.599 50.378 C 164.599 50.129,164.395 49.924,164.145 49.924 C 163.896 49.924,163.691 50.129,163.691 50.378 M158.919 51.191 C 159.070 51.643,159.758 51.893,159.758 51.495 C 159.758 51.332,159.542 51.117,159.279 51.016 C 158.984 50.902,158.846 50.970,158.919 51.191 M160.363 52.042 C 160.363 52.209,160.567 52.345,160.817 52.345 C 161.067 52.345,161.271 52.209,161.271 52.042 C 161.271 51.876,161.067 51.740,160.817 51.740 C 160.567 51.740,160.363 51.876,160.363 52.042 M163.994 52.042 C 163.994 52.209,164.198 52.345,164.448 52.345 C 164.697 52.345,164.902 52.209,164.902 52.042 C 164.902 51.876,164.697 51.740,164.448 51.740 C 164.198 51.740,163.994 51.876,163.994 52.042 M129.803 61.091 C 129.803 61.342,131.045 61.795,131.229 61.611 C 131.278 61.561,130.978 61.365,130.561 61.175 C 130.144 60.985,129.803 60.947,129.803 61.091 M270.270 62.401 C 271.974 63.355,272.315 63.881,272.315 65.560 C 272.315 66.446,272.179 67.171,272.012 67.171 C 271.846 67.171,271.710 67.366,271.710 67.603 C 271.710 68.193,268.324 71.712,267.768 71.700 C 267.443 71.694,267.474 71.603,267.883 71.365 C 270.665 69.748,272.675 65.154,271.232 63.711 C 268.951 61.430,260.591 62.415,256.051 65.500 C 255.433 65.920,254.803 66.263,254.650 66.263 C 253.482 66.263,259.222 63.218,261.725 62.510 C 264.717 61.663,268.857 61.611,270.270 62.401 M227.927 64.934 C 234.621 69.894,222.645 84.281,214.735 80.782 C 212.656 79.862,212.002 78.606,212.175 75.857 C 212.366 72.793,213.432 70.667,216.060 68.104 C 219.696 64.556,225.372 63.041,227.927 64.934 M224.215 65.885 C 224.225 66.682,224.244 66.692,224.669 66.130 C 225.235 65.381,225.232 65.053,224.660 65.053 C 224.364 65.053,224.209 65.343,224.215 65.885 M220.351 65.805 C 220.065 66.130,220.060 66.284,220.333 66.452 C 220.530 66.574,220.744 66.513,220.809 66.317 C 220.874 66.121,221.129 65.961,221.374 65.961 C 221.620 65.961,221.737 65.825,221.634 65.658 C 221.372 65.235,220.795 65.301,220.351 65.805 M218.916 66.751 C 218.253 67.236,218.322 67.352,219.441 67.633 C 220.351 67.861,220.565 67.420,219.877 66.732 C 219.552 66.407,219.382 66.410,218.916 66.751 M227.976 66.585 C 227.857 66.778,227.947 67.057,228.176 67.205 C 228.529 67.432,228.527 67.516,228.166 67.749 C 227.803 67.982,227.811 68.097,228.222 68.507 C 228.765 69.050,228.917 68.895,228.987 67.732 C 229.042 66.816,228.332 66.009,227.976 66.585 M222.088 67.020 C 222.088 67.302,222.374 67.474,222.844 67.474 C 223.315 67.474,223.601 67.302,223.601 67.020 C 223.601 66.737,223.315 66.566,222.844 66.566 C 222.374 66.566,222.088 66.737,222.088 67.020 M224.508 67.798 C 224.508 68.217,225.278 68.986,225.697 68.986 C 226.156 68.986,226.099 68.416,225.589 67.906 C 225.079 67.396,224.508 67.339,224.508 67.798 M228.442 70.633 C 228.442 71.560,228.614 71.635,228.832 70.802 C 228.919 70.469,228.867 70.121,228.716 70.028 C 228.565 69.935,228.442 70.207,228.442 70.633 M214.826 70.499 C 214.826 70.666,215.098 70.802,215.431 70.802 C 215.764 70.802,216.036 70.666,216.036 70.499 C 216.036 70.333,215.764 70.197,215.431 70.197 C 215.098 70.197,214.826 70.333,214.826 70.499 M225.113 73.979 C 225.113 74.228,225.318 74.433,225.567 74.433 C 225.817 74.433,226.021 74.228,226.021 73.979 C 226.021 73.729,225.817 73.525,225.567 73.525 C 225.318 73.525,225.113 73.729,225.113 73.979 M224.508 75.492 C 224.508 75.741,224.727 75.946,224.995 75.946 C 225.333 75.946,225.419 76.107,225.279 76.475 C 225.142 76.836,225.176 76.907,225.388 76.697 C 225.803 76.286,225.455 75.038,224.927 75.038 C 224.697 75.038,224.508 75.242,224.508 75.492 M223.205 76.442 C 222.964 76.683,223.237 77.156,223.618 77.156 C 223.775 77.156,223.903 76.952,223.903 76.702 C 223.903 76.234,223.546 76.101,223.205 76.442 M221.785 77.156 C 221.785 77.492,221.987 77.761,222.239 77.761 C 222.491 77.761,222.693 77.492,222.693 77.156 C 222.693 76.820,222.491 76.551,222.239 76.551 C 221.987 76.551,221.785 76.820,221.785 77.156 M221.180 78.820 C 221.180 79.070,221.316 79.274,221.483 79.274 C 221.649 79.274,221.785 79.070,221.785 78.820 C 221.785 78.570,221.649 78.366,221.483 78.366 C 221.316 78.366,221.180 78.570,221.180 78.820 M214.221 79.539 C 214.221 80.126,215.087 80.538,215.642 80.215 C 216.152 79.918,216.153 79.897,215.658 79.888 C 215.367 79.883,215.129 79.743,215.129 79.576 C 215.129 79.410,214.924 79.274,214.675 79.274 C 214.425 79.274,214.221 79.393,214.221 79.539 M218.764 79.501 C 218.778 80.189,219.365 80.634,219.663 80.182 C 220.109 79.501,220.034 79.274,219.365 79.274 C 219.032 79.274,218.762 79.376,218.764 79.501 M186.215 89.420 C 186.538 89.664,186.939 89.864,187.105 89.864 C 187.271 89.864,187.143 89.664,186.820 89.420 C 186.497 89.175,186.097 88.975,185.930 88.975 C 185.764 88.975,185.892 89.175,186.215 89.420 M187.601 90.091 C 187.608 90.361,190.625 91.775,190.807 91.594 C 190.918 91.482,188.028 89.864,187.718 89.864 C 187.650 89.864,187.597 89.966,187.601 90.091 M320.260 95.736 C 325.340 97.504,322.583 103.307,314.741 107.350 C 314.029 107.718,313.186 108.018,312.868 108.018 C 312.550 108.018,312.215 108.139,312.124 108.286 C 311.605 109.126,304.394 109.245,302.701 108.441 C 300.918 107.595,300.018 104.442,301.289 103.496 C 301.413 103.404,301.911 102.745,302.395 102.031 C 303.362 100.606,306.272 98.279,308.168 97.414 C 310.572 96.318,311.737 95.915,312.518 95.911 C 312.955 95.908,313.517 95.774,313.767 95.613 C 314.445 95.174,318.888 95.259,320.260 95.736 M313.468 96.353 C 313.054 96.582,312.578 96.702,312.409 96.619 C 312.241 96.536,312.429 96.733,312.827 97.058 C 313.229 97.385,313.457 97.801,313.339 97.992 C 312.993 98.552,312.561 98.388,312.254 97.579 C 311.955 96.793,311.407 96.638,310.510 97.085 C 310.221 97.229,309.075 97.787,307.962 98.324 C 303.211 100.620,300.134 105.016,301.770 107.169 C 302.628 108.297,306.572 109.007,308.169 108.321 L 308.775 108.061 308.169 108.016 C 307.837 107.991,307.727 107.904,307.926 107.823 C 308.125 107.742,308.567 107.826,308.909 108.009 C 309.251 108.192,309.531 108.220,309.531 108.071 C 309.531 107.922,309.872 107.865,310.290 107.945 C 311.180 108.115,312.930 107.469,312.679 107.063 C 312.579 106.902,312.838 106.867,313.292 106.981 C 313.770 107.101,314.266 107.021,314.560 106.778 C 314.825 106.558,315.323 106.236,315.666 106.063 C 316.510 105.638,316.640 105.102,315.943 104.920 C 315.449 104.791,315.343 104.354,315.159 101.675 C 315.041 99.972,314.791 98.331,314.601 98.028 C 313.983 97.037,314.792 96.520,316.963 96.520 C 318.015 96.520,318.959 96.384,319.062 96.218 C 319.358 95.738,314.360 95.859,313.468 96.353 M201.076 96.795 C 200.987 96.939,201.213 97.135,201.579 97.230 C 202.448 97.458,202.531 97.340,201.816 96.893 C 201.498 96.695,201.165 96.651,201.076 96.795 M208.944 100.898 C 209.267 101.142,209.735 101.342,209.985 101.341 C 210.248 101.341,210.121 101.158,209.682 100.908 C 208.688 100.339,208.196 100.333,208.944 100.898 M320.121 100.908 C 320.121 101.157,320.257 101.362,320.424 101.362 C 320.590 101.362,320.726 101.157,320.726 100.908 C 320.726 100.658,320.590 100.454,320.424 100.454 C 320.257 100.454,320.121 100.658,320.121 100.908 M208.542 104.690 C 208.334 105.023,208.274 105.295,208.409 105.295 C 208.724 105.295,209.380 104.641,209.380 104.327 C 209.380 103.881,208.924 104.079,208.542 104.690 M207.110 106.808 C 207.005 107.141,206.791 107.413,206.636 107.413 C 206.481 107.413,206.354 107.582,206.354 107.788 C 206.354 107.994,206.694 107.796,207.110 107.347 C 207.921 106.474,208.033 106.203,207.585 106.203 C 207.429 106.203,207.216 106.475,207.110 106.808 M120.378 109.909 C 120.331 112.486,120.204 112.189,120.055 109.152 C 120.008 108.195,120.072 107.412,120.197 107.413 C 120.321 107.413,120.403 108.536,120.378 109.909 M204.748 109.856 C 204.280 110.506,204.083 110.967,204.310 110.880 C 204.732 110.718,205.892 108.968,205.703 108.779 C 205.645 108.721,205.215 109.206,204.748 109.856 M164.245 129.046 C 164.518 129.319,163.499 129.870,161.876 130.327 C 147.476 134.387,131.580 128.393,126.309 116.917 C 125.328 114.779,124.424 110.582,124.758 109.711 C 124.908 109.319,163.333 128.134,164.245 129.046 M275.110 115.866 C 278.728 118.123,281.931 120.106,282.227 120.272 C 282.524 120.439,283.193 120.881,283.714 121.256 C 284.236 121.630,284.749 121.936,284.855 121.936 C 284.961 121.936,285.416 122.195,285.867 122.511 C 286.318 122.827,287.878 123.856,289.334 124.799 C 292.545 126.878,292.540 126.603,289.416 128.775 C 288.005 129.757,284.201 132.466,280.962 134.796 C 277.724 137.126,272.481 140.870,269.311 143.116 C 266.141 145.363,261.899 148.393,259.884 149.849 C 255.542 152.987,256.242 152.890,253.175 150.784 C 245.980 145.846,245.352 145.400,243.660 144.021 C 243.389 143.800,243.564 143.434,244.342 142.588 C 244.917 141.964,245.461 141.224,245.552 140.944 C 245.642 140.664,246.123 140.346,246.622 140.236 C 247.324 140.082,247.488 139.913,247.352 139.484 C 247.152 138.855,247.763 138.321,248.086 138.843 C 248.212 139.047,248.466 138.755,248.714 138.125 C 249.151 137.012,249.452 136.813,249.750 137.443 C 249.848 137.651,249.864 137.477,249.786 137.055 C 249.686 136.517,249.820 136.179,250.238 135.918 C 250.594 135.696,250.832 135.669,250.832 135.852 C 250.832 136.020,250.977 136.157,251.155 136.157 C 251.333 136.157,251.397 135.903,251.299 135.592 C 251.173 135.196,251.357 134.871,251.915 134.505 C 253.208 133.658,257.186 129.430,257.186 128.903 C 257.186 128.741,257.580 128.405,258.062 128.156 C 258.545 127.906,258.918 127.477,258.894 127.197 C 258.870 126.919,259.054 126.632,259.304 126.560 C 259.708 126.444,259.708 126.468,259.304 126.778 C 258.908 127.082,258.907 127.111,259.299 127.004 C 259.547 126.937,259.778 126.506,259.813 126.048 C 259.884 125.116,260.398 124.357,260.957 124.357 C 261.160 124.357,261.488 123.817,261.686 123.158 C 261.883 122.498,262.344 121.749,262.709 121.494 C 263.074 121.238,263.258 121.029,263.119 121.029 C 262.979 121.029,263.085 120.693,263.354 120.283 C 263.623 119.873,263.843 119.371,263.843 119.168 C 263.843 118.965,264.149 118.461,264.523 118.049 C 264.898 117.637,265.036 117.397,264.829 117.516 C 264.577 117.661,264.514 117.579,264.635 117.262 C 264.734 117.004,265.039 116.788,265.312 116.783 C 265.754 116.775,265.749 116.728,265.271 116.365 C 264.857 116.051,264.826 115.921,265.137 115.801 C 265.406 115.698,265.526 115.170,265.494 114.233 C 265.468 113.456,265.548 112.983,265.671 113.183 C 265.827 113.435,266.006 113.340,266.255 112.874 C 266.453 112.505,266.536 112.123,266.439 112.027 C 266.342 111.930,266.255 112.044,266.244 112.279 C 266.234 112.515,266.095 112.384,265.937 111.988 C 265.741 111.499,265.759 111.135,265.994 110.852 C 266.395 110.370,265.599 109.932,275.110 115.866 M202.714 112.585 C 202.314 113.154,201.685 113.963,200.965 114.834 C 200.031 115.963,199.631 116.799,200.113 116.614 C 200.384 116.510,200.605 116.323,200.605 116.197 C 200.605 115.989,201.223 115.120,203.033 112.784 C 203.387 112.326,203.560 111.952,203.418 111.952 C 203.276 111.952,202.959 112.237,202.714 112.585 M198.901 117.789 C 198.065 118.750,197.704 119.359,198.124 119.100 C 198.485 118.876,199.816 117.095,199.621 117.095 C 199.557 117.095,199.233 117.407,198.901 117.789 M197.277 119.753 C 197.277 120.001,196.253 121.386,195.438 122.239 C 195.176 122.514,194.870 123.001,194.758 123.321 C 194.628 123.693,194.827 123.576,195.310 122.995 C 196.808 121.196,197.913 119.516,197.598 119.516 C 197.421 119.516,197.277 119.622,197.277 119.753 M193.643 124.733 C 192.940 125.790,192.624 126.360,192.929 126.021 C 194.262 124.538,194.619 124.054,194.377 124.054 C 194.221 124.054,193.891 124.360,193.643 124.733 M174.887 130.417 C 174.887 130.680,176.061 131.150,176.249 130.962 C 176.307 130.904,176.025 130.700,175.621 130.509 C 175.217 130.319,174.887 130.277,174.887 130.417 M188.640 131.422 C 187.951 132.180,187.857 132.637,188.519 132.005 C 188.908 131.636,189.165 131.275,189.091 131.204 C 189.017 131.133,188.814 131.231,188.640 131.422 M169.687 132.363 C 169.635 132.406,169.183 132.530,168.684 132.638 L 167.776 132.834 168.529 132.404 C 169.123 132.065,170.093 132.030,169.687 132.363 M137.040 132.715 C 137.432 133.069,136.799 133.015,136.157 132.640 L 135.401 132.199 136.157 132.400 C 136.573 132.511,136.970 132.653,137.040 132.715 M187.292 133.092 C 187.292 133.256,187.078 133.605,186.817 133.866 C 186.555 134.128,186.457 134.342,186.598 134.342 C 187.044 134.342,187.891 133.164,187.583 132.973 C 187.423 132.874,187.292 132.928,187.292 133.092 M129.501 134.342 C 129.251 134.503,128.298 134.616,127.383 134.592 L 125.719 134.549 127.231 134.342 C 129.709 134.002,130.027 134.002,129.501 134.342 M132.300 134.555 C 131.925 134.628,131.312 134.628,130.938 134.555 C 130.564 134.483,130.870 134.424,131.619 134.424 C 132.368 134.424,132.674 134.483,132.300 134.555 M124.811 135.154 C 124.478 135.229,123.406 135.559,122.428 135.888 C 121.451 136.216,120.578 136.412,120.489 136.323 C 120.400 136.234,120.757 136.075,121.283 135.970 C 121.809 135.865,122.239 135.669,122.239 135.535 C 122.239 135.252,123.213 135.032,124.508 135.023 C 125.059 135.020,125.178 135.071,124.811 135.154 M135.401 135.264 C 135.823 135.455,135.639 135.482,134.796 135.354 C 134.130 135.252,133.529 135.119,133.459 135.058 C 133.199 134.829,134.820 135.001,135.401 135.264 M144.251 135.156 C 143.960 135.232,143.483 135.232,143.192 135.156 C 142.901 135.080,143.139 135.017,143.722 135.017 C 144.304 135.017,144.542 135.080,144.251 135.156 M161.800 135.156 C 161.509 135.232,161.033 135.232,160.741 135.156 C 160.450 135.080,160.688 135.017,161.271 135.017 C 161.853 135.017,162.092 135.080,161.800 135.156 M146.369 135.761 C 146.078 135.837,145.601 135.837,145.310 135.761 C 145.019 135.685,145.257 135.622,145.840 135.622 C 146.422 135.622,146.660 135.685,146.369 135.761 M159.682 135.761 C 159.391 135.837,158.915 135.837,158.623 135.761 C 158.332 135.685,158.570 135.622,159.153 135.622 C 159.735 135.622,159.974 135.685,159.682 135.761 M117.602 138.298 C 112.611 141.575,107.110 148.654,107.110 151.801 C 107.110 152.117,106.961 152.525,106.777 152.708 C 106.183 153.302,106.301 159.076,106.946 160.968 C 109.191 167.555,115.905 170.914,123.578 169.288 C 125.613 168.857,128.286 167.979,128.593 167.640 C 128.676 167.549,129.289 167.201,129.955 166.869 C 133.837 164.929,140.091 158.918,140.091 157.126 C 140.091 156.909,140.197 156.732,140.327 156.732 C 140.457 156.732,140.748 156.290,140.974 155.749 C 141.200 155.208,141.582 154.289,141.823 153.707 C 142.446 152.201,142.837 150.293,143.094 147.504 L 143.317 145.083 143.363 147.352 C 143.502 154.222,137.946 163.149,131.277 166.771 C 130.566 167.158,129.797 167.644,129.569 167.852 C 129.341 168.060,128.900 168.230,128.589 168.230 C 128.278 168.230,127.954 168.342,127.869 168.480 C 127.784 168.617,126.823 168.985,125.733 169.296 C 124.417 169.672,123.744 170.021,123.728 170.332 C 123.712 170.652,123.655 170.680,123.550 170.418 C 123.439 170.142,122.869 170.076,121.531 170.183 C 115.869 170.634,115.280 170.647,115.280 170.318 C 115.280 170.132,115.484 170.059,115.734 170.155 C 115.983 170.251,116.188 170.212,116.188 170.070 C 116.188 169.927,115.677 169.717,115.053 169.603 C 114.429 169.489,113.465 169.132,112.912 168.809 C 112.358 168.487,111.745 168.314,111.550 168.426 C 111.355 168.538,111.295 168.519,111.417 168.385 C 111.669 168.106,110.519 167.007,110.014 167.044 C 109.822 167.057,109.841 167.131,110.061 167.220 C 110.587 167.433,110.534 167.927,109.985 167.927 C 109.609 167.927,109.338 166.985,109.607 166.612 C 109.855 166.268,108.761 165.519,108.247 165.681 C 107.719 165.849,107.677 165.767,107.860 164.932 C 107.990 164.343,107.947 163.994,107.745 163.994 C 107.569 163.994,107.335 163.620,107.226 163.162 C 107.116 162.704,106.909 162.179,106.765 161.994 C 104.906 159.619,105.666 152.330,108.257 147.673 C 110.368 143.880,116.381 137.670,117.943 137.670 C 118.102 137.670,118.401 137.466,118.608 137.216 C 118.815 136.967,119.200 136.762,119.463 136.762 C 119.726 136.762,118.889 137.454,117.602 138.298 M142.426 142.613 C 142.360 142.807,141.985 142.284,141.593 141.452 C 140.551 139.247,140.552 139.179,141.598 140.797 C 142.119 141.602,142.491 142.419,142.426 142.613 M90.578 141.208 C 90.693 141.323,91.078 141.462,91.433 141.516 C 94.936 142.051,99.179 148.721,97.997 151.835 C 97.850 152.220,97.730 153.037,97.729 153.651 C 97.728 154.264,97.524 155.156,97.275 155.632 C 97.026 156.109,96.823 156.622,96.823 156.773 C 96.823 156.924,96.483 157.586,96.067 158.245 C 95.651 158.904,95.310 159.774,95.310 160.177 C 95.310 160.743,95.182 160.878,94.749 160.765 C 94.347 160.660,94.011 160.918,93.564 161.676 C 92.800 162.970,92.901 163.086,94.792 163.086 C 96.105 163.086,96.244 163.144,95.907 163.550 C 95.483 164.061,96.078 164.716,97.277 165.058 C 99.236 165.618,101.466 167.020,100.396 167.020 C 99.987 167.020,96.148 165.164,95.912 164.852 C 95.827 164.739,95.385 164.553,94.929 164.439 C 94.473 164.325,94.100 164.131,94.100 164.009 C 94.100 163.887,93.555 163.624,92.890 163.425 C 91.421 162.984,91.416 162.908,92.784 161.573 C 99.833 154.699,98.748 143.665,90.847 141.869 C 89.974 141.670,89.259 141.393,89.259 141.253 C 89.259 140.947,90.282 140.912,90.578 141.208 M142.935 144.125 C 143.070 144.688,143.032 144.916,142.826 144.788 C 142.653 144.681,142.511 144.239,142.511 143.805 C 142.511 142.856,142.656 142.966,142.935 144.125 M89.561 146.228 C 96.808 148.825,91.491 160.742,82.129 162.887 C 73.376 164.892,72.801 153.067,81.410 148.115 C 83.440 146.948,84.134 146.637,85.477 146.294 C 87.469 145.784,88.285 145.771,89.561 146.228 M85.830 147.252 C 85.446 147.635,85.630 147.958,86.233 147.958 C 86.569 147.958,86.838 147.756,86.838 147.504 C 86.838 147.043,86.198 146.883,85.830 147.252 M294.473 147.958 C 294.473 148.540,294.535 148.778,294.611 148.487 C 294.687 148.196,294.687 147.719,294.611 147.428 C 294.535 147.137,294.473 147.375,294.473 147.958 M87.443 147.958 C 87.443 148.294,87.645 148.563,87.897 148.563 C 88.149 148.563,88.351 148.294,88.351 147.958 C 88.351 147.621,88.149 147.352,87.897 147.352 C 87.645 147.352,87.443 147.621,87.443 147.958 M81.997 148.847 C 81.997 149.190,82.133 149.470,82.300 149.470 C 82.466 149.470,82.602 149.274,82.602 149.034 C 82.602 148.795,82.466 148.514,82.300 148.411 C 82.133 148.309,81.997 148.505,81.997 148.847 M91.074 153.707 C 91.074 154.039,91.210 154.312,91.377 154.312 C 91.543 154.312,91.679 154.039,91.679 153.707 C 91.679 153.374,91.543 153.101,91.377 153.101 C 91.210 153.101,91.074 153.374,91.074 153.707 M87.746 154.160 C 87.746 154.413,88.015 154.614,88.351 154.614 C 88.687 154.614,88.956 154.816,88.956 155.068 C 88.956 155.318,89.160 155.522,89.410 155.522 C 89.660 155.522,89.864 155.318,89.864 155.068 C 89.864 154.818,89.660 154.614,89.410 154.614 C 89.160 154.614,88.956 154.410,88.956 154.160 C 88.956 153.908,88.687 153.707,88.351 153.707 C 88.015 153.707,87.746 153.908,87.746 154.160 M78.669 155.976 C 78.669 156.225,78.805 156.430,78.971 156.430 C 79.138 156.430,79.274 156.225,79.274 155.976 C 79.274 155.726,79.138 155.522,78.971 155.522 C 78.805 155.522,78.669 155.726,78.669 155.976 M75.946 158.094 C 75.946 159.009,76.077 159.758,76.238 159.758 C 76.400 159.758,76.512 159.009,76.488 158.094 C 76.463 157.179,76.332 156.430,76.195 156.430 C 76.058 156.430,75.946 157.179,75.946 158.094 M78.366 160.212 C 78.366 160.461,78.570 160.666,78.820 160.666 C 79.070 160.666,79.274 160.461,79.274 160.212 C 79.274 159.962,79.070 159.758,78.820 159.758 C 78.570 159.758,78.366 159.962,78.366 160.212 M76.853 160.807 C 76.853 161.078,77.031 161.184,77.307 161.078 C 77.557 160.982,77.761 160.782,77.761 160.633 C 77.761 160.485,77.557 160.363,77.307 160.363 C 77.057 160.363,76.853 160.563,76.853 160.807 M80.484 162.179 C 79.889 162.563,80.950 162.563,81.846 162.179 C 82.400 161.940,82.387 161.917,81.694 161.902 C 81.278 161.893,80.734 162.017,80.484 162.179 M105.598 163.423 C 105.681 163.532,106.021 163.689,106.354 163.773 C 106.781 163.879,106.692 163.933,106.051 163.954 C 105.447 163.974,104.901 163.728,104.417 163.218 L 103.691 162.453 104.569 162.839 C 105.051 163.051,105.514 163.314,105.598 163.423 M143.828 166.405 C 145.674 166.708,148.563 167.854,148.563 168.284 C 148.563 168.637,148.513 168.621,146.868 167.727 C 145.215 166.828,139.572 166.510,138.809 167.273 C 138.615 167.466,138.237 167.625,137.968 167.625 C 136.758 167.625,132.966 169.930,130.760 172.005 C 129.354 173.329,126.475 177.178,126.475 177.736 C 126.475 178.776,125.538 180.044,125.096 179.603 C 124.832 179.339,124.422 179.123,124.184 179.123 C 123.946 179.123,123.751 179.020,123.751 178.896 C 123.750 178.771,123.137 178.417,122.389 178.109 C 121.049 177.558,120.595 177.005,121.483 177.005 C 121.732 177.005,121.936 177.141,121.936 177.307 C 121.936 177.474,122.086 177.610,122.269 177.610 C 122.452 177.610,123.081 177.837,123.666 178.115 C 125.063 178.778,127.766 176.299,126.753 175.285 C 126.614 175.146,126.629 174.830,126.786 174.581 C 127.026 174.202,127.072 174.217,127.076 174.677 C 127.079 175.039,127.632 174.579,128.714 173.315 C 130.448 171.290,130.723 171.040,132.843 169.555 C 134.313 168.525,136.791 167.322,137.442 167.322 C 137.667 167.322,138.005 167.169,138.192 166.982 C 138.379 166.795,139.325 166.541,140.295 166.417 C 141.264 166.293,142.057 166.174,142.057 166.153 C 142.057 166.133,142.854 166.246,143.828 166.405 M103.424 168.105 C 103.871 168.338,104.396 168.530,104.591 168.531 C 104.786 168.532,105.331 168.853,105.801 169.244 C 106.272 169.635,106.861 170.044,107.110 170.153 C 107.360 170.262,107.156 170.273,106.657 170.176 C 106.157 170.080,105.703 169.875,105.648 169.720 C 105.593 169.566,105.425 169.440,105.277 169.440 C 105.128 169.440,104.016 168.955,102.806 168.363 C 101.300 167.626,100.922 167.348,101.609 167.484 C 102.161 167.593,102.978 167.872,103.424 168.105 M108.169 167.927 C 108.067 168.094,108.127 168.230,108.303 168.230 C 108.479 168.230,108.623 168.366,108.623 168.533 C 108.623 168.699,108.419 168.835,108.169 168.835 C 107.917 168.835,107.716 168.566,107.716 168.230 C 107.716 167.897,107.860 167.625,108.036 167.625 C 108.212 167.625,108.272 167.761,108.169 167.927 M256.184 171.180 C 256.108 171.471,256.046 171.233,256.046 170.651 C 256.046 170.068,256.108 169.830,256.184 170.121 C 256.260 170.412,256.260 170.889,256.184 171.180 M110.666 171.643 C 111.578 172.347,110.909 172.334,109.380 171.618 C 108.464 171.190,107.716 170.730,107.716 170.596 C 107.716 170.335,110.039 171.160,110.666 171.643 M120.121 171.104 C 120.121 171.357,119.852 171.558,119.516 171.558 C 119.180 171.558,118.911 171.357,118.911 171.104 C 118.911 170.852,119.180 170.651,119.516 170.651 C 119.852 170.651,120.121 170.852,120.121 171.104 M144.090 171.572 C 149.523 173.080,148.179 181.402,141.775 185.910 C 136.203 189.832,130.886 189.385,129.811 184.904 C 128.309 178.642,137.764 169.814,144.090 171.572 M140.091 172.279 C 140.091 172.548,141.315 172.688,141.470 172.438 C 141.563 172.287,141.291 172.163,140.865 172.163 C 140.439 172.163,140.091 172.216,140.091 172.279 M113.767 173.071 C 114.183 173.397,114.677 173.666,114.865 173.670 C 115.052 173.673,115.375 173.880,115.582 174.130 C 116.082 174.732,115.690 174.688,114.221 173.979 C 113.555 173.657,112.840 173.390,112.632 173.384 C 112.424 173.378,112.254 173.248,112.254 173.093 C 112.254 172.939,112.016 172.751,111.725 172.675 C 111.433 172.598,111.602 172.523,112.103 172.508 C 112.602 172.492,113.351 172.746,113.767 173.071 M259.723 176.097 C 259.723 178.177,259.772 179.028,259.831 177.988 C 259.890 176.948,259.890 175.246,259.831 174.206 C 259.772 173.166,259.723 174.017,259.723 176.097 M139.082 172.970 C 138.734 173.318,138.862 173.676,139.334 173.676 C 139.584 173.676,139.788 173.472,139.788 173.222 C 139.788 172.750,139.430 172.622,139.082 172.970 M144.932 173.236 C 144.932 173.327,145.296 173.765,145.741 174.210 L 146.550 175.019 146.350 174.272 C 146.240 173.861,146.149 173.423,146.146 173.298 C 146.142 173.042,144.932 172.980,144.932 173.236 M141.503 173.878 C 141.155 174.226,141.282 174.584,141.755 174.584 C 142.005 174.584,142.209 174.380,142.209 174.130 C 142.209 173.658,141.851 173.530,141.503 173.878 M118.789 175.677 C 119.859 176.185,120.150 176.702,119.365 176.702 C 119.115 176.702,118.911 176.577,118.911 176.423 C 118.911 176.270,118.502 176.055,118.003 175.946 C 117.504 175.836,117.095 175.621,117.095 175.468 C 117.095 175.060,117.626 175.126,118.789 175.677 M122.046 175.946 C 121.950 176.195,121.682 176.399,121.450 176.399 C 121.218 176.399,121.029 176.195,121.029 175.946 C 121.029 175.696,121.297 175.492,121.624 175.492 C 122.030 175.492,122.164 175.637,122.046 175.946 M134.947 175.946 C 134.947 176.228,135.233 176.399,135.703 176.399 C 136.174 176.399,136.460 176.228,136.460 175.946 C 136.460 175.663,136.174 175.492,135.703 175.492 C 135.233 175.492,134.947 175.663,134.947 175.946 M146.445 176.230 C 146.445 176.636,146.581 177.053,146.747 177.156 C 146.924 177.265,147.050 176.957,147.050 176.417 C 147.050 175.908,146.914 175.492,146.747 175.492 C 146.581 175.492,146.445 175.824,146.445 176.230 M123.752 176.727 C 123.752 177.465,123.045 177.360,122.898 176.601 C 122.840 176.303,122.994 176.097,123.276 176.097 C 123.557 176.097,123.752 176.356,123.752 176.727 M132.902 177.606 C 132.417 178.382,132.429 178.517,132.980 178.517 C 133.263 178.517,133.434 178.232,133.434 177.761 C 133.434 176.848,133.384 176.833,132.902 177.606 M133.737 177.761 C 133.737 178.232,133.908 178.517,134.191 178.517 C 134.473 178.517,134.644 178.232,134.644 177.761 C 134.644 177.290,134.473 177.005,134.191 177.005 C 133.908 177.005,133.737 177.290,133.737 177.761 M144.932 178.366 C 144.932 178.616,145.068 178.820,145.234 178.820 C 145.401 178.820,145.537 178.616,145.537 178.366 C 145.537 178.116,145.401 177.912,145.234 177.912 C 145.068 177.912,144.932 178.116,144.932 178.366 M131.749 180.367 C 131.530 180.722,132.115 181.228,132.753 181.236 C 133.299 181.243,133.219 180.431,132.653 180.214 C 132.019 179.971,131.991 179.976,131.749 180.367 M137.973 186.536 C 137.973 186.785,138.143 186.987,138.351 186.985 C 138.951 186.977,139.643 186.440,139.385 186.183 C 139.256 186.054,139.023 186.148,138.869 186.393 C 138.678 186.694,138.586 186.716,138.583 186.460 C 138.580 186.252,138.442 186.082,138.275 186.082 C 138.109 186.082,137.973 186.286,137.973 186.536 M131.921 228.442 C 131.921 228.778,131.720 229.047,131.467 229.047 C 131.007 229.047,130.847 228.407,131.215 228.038 C 131.599 227.655,131.921 227.839,131.921 228.442 " stroke="none" fill="#2c5e12" fill-rule="evenodd"></path><path id="path1" d="M167.171 37.216 C 166.505 37.538,165.739 37.806,165.468 37.811 C 164.579 37.830,164.171 38.641,164.864 39.011 C 165.265 39.226,165.533 39.233,165.658 39.033 C 165.959 38.545,167.322 38.668,167.322 39.183 C 167.322 39.822,164.810 39.804,164.167 39.161 C 163.627 38.622,163.226 38.888,162.542 40.242 C 162.316 40.690,162.232 40.752,162.338 40.393 C 162.457 39.986,162.065 40.229,161.137 41.137 C 160.378 41.879,159.758 42.607,159.758 42.755 C 159.758 42.902,159.511 43.384,159.210 43.826 C 157.590 46.200,157.318 50.868,158.790 51.021 C 158.989 51.042,159.289 51.076,159.455 51.097 C 159.622 51.118,159.758 51.331,159.758 51.571 C 159.758 52.816,162.952 53.411,164.709 52.494 C 165.186 52.246,165.760 52.042,165.986 52.042 C 166.239 52.042,166.331 51.840,166.225 51.513 C 166.086 51.081,166.112 51.064,166.366 51.423 C 166.830 52.078,170.920 49.697,170.500 49.017 C 170.284 48.669,170.653 47.806,171.018 47.806 C 171.184 47.806,171.235 48.030,171.130 48.303 C 170.970 48.718,171.015 48.737,171.400 48.417 C 171.653 48.207,171.861 47.896,171.861 47.727 C 171.861 47.558,172.099 47.238,172.390 47.017 C 172.881 46.645,172.869 46.615,172.239 46.606 C 171.264 46.592,171.319 45.502,172.304 45.314 C 172.714 45.235,173.098 45.315,173.156 45.490 C 173.225 45.697,173.342 45.682,173.487 45.447 C 173.611 45.247,173.568 45.083,173.392 45.083 C 173.215 45.083,173.071 44.864,173.071 44.597 C 173.071 44.322,173.242 44.176,173.465 44.262 C 173.698 44.351,174.030 44.029,174.273 43.479 C 174.580 42.786,174.595 42.515,174.333 42.428 C 173.857 42.269,173.878 40.032,174.357 39.832 C 174.639 39.715,174.612 39.574,174.251 39.278 C 173.787 38.896,173.679 38.694,173.674 38.200 C 173.661 36.807,169.364 36.157,167.171 37.216 M171.558 37.403 C 171.558 37.763,171.378 37.844,170.877 37.710 C 170.503 37.609,169.754 37.525,169.213 37.523 C 168.672 37.521,168.230 37.383,168.230 37.216 C 168.230 37.050,168.979 36.914,169.894 36.914 C 171.225 36.914,171.558 37.012,171.558 37.403 M166.415 40.696 C 166.415 40.946,166.210 41.150,165.961 41.150 C 165.711 41.150,165.507 40.946,165.507 40.696 C 165.507 40.446,165.711 40.242,165.961 40.242 C 166.210 40.242,166.415 40.446,166.415 40.696 M163.994 41.604 C 163.994 41.853,163.790 42.057,163.540 42.057 C 163.290 42.057,163.086 41.853,163.086 41.604 C 163.086 41.354,163.290 41.150,163.540 41.150 C 163.790 41.150,163.994 41.354,163.994 41.604 M172.052 42.436 C 171.951 42.810,171.867 43.219,171.865 43.343 C 171.852 44.075,171.256 43.409,171.256 42.663 C 171.256 42.028,171.403 41.755,171.745 41.755 C 172.104 41.755,172.186 41.935,172.052 42.436 M160.363 44.478 C 160.363 44.644,160.102 44.781,159.783 44.781 C 159.464 44.781,159.135 44.951,159.051 45.159 C 158.955 45.395,158.889 45.347,158.874 45.033 C 158.851 44.537,159.238 44.247,159.985 44.199 C 160.193 44.186,160.363 44.312,160.363 44.478 M171.256 47.050 C 171.256 47.300,171.051 47.504,170.802 47.504 C 170.552 47.504,170.348 47.708,170.348 47.958 C 170.348 48.207,170.144 48.411,169.894 48.411 C 169.592 48.411,169.440 48.109,169.440 47.504 C 169.440 46.697,169.541 46.596,170.348 46.596 C 170.953 46.596,171.256 46.747,171.256 47.050 M159.326 48.844 C 159.976 49.494,159.847 49.924,159.002 49.924 C 158.396 49.924,158.245 49.773,158.245 49.168 C 158.245 48.322,158.675 48.193,159.326 48.844 M169.138 48.865 C 169.138 49.115,168.933 49.319,168.684 49.319 C 168.434 49.319,168.230 49.115,168.230 48.865 C 168.230 48.616,168.434 48.411,168.684 48.411 C 168.933 48.411,169.138 48.616,169.138 48.865 M164.599 50.378 C 164.599 50.628,164.395 50.832,164.145 50.832 C 163.896 50.832,163.691 50.628,163.691 50.378 C 163.691 50.129,163.896 49.924,164.145 49.924 C 164.395 49.924,164.599 50.129,164.599 50.378 M161.271 52.042 C 161.271 52.209,161.067 52.345,160.817 52.345 C 160.567 52.345,160.363 52.209,160.363 52.042 C 160.363 51.876,160.567 51.740,160.817 51.740 C 161.067 51.740,161.271 51.876,161.271 52.042 M164.902 52.042 C 164.902 52.209,164.697 52.345,164.448 52.345 C 164.198 52.345,163.994 52.209,163.994 52.042 C 163.994 51.876,164.198 51.740,164.448 51.740 C 164.697 51.740,164.902 51.876,164.902 52.042 M126.724 57.413 C 126.300 57.871,124.649 60.015,123.056 62.179 C 121.463 64.342,119.735 66.657,119.216 67.322 C 118.347 68.436,108.837 81.151,103.480 88.360 C 99.833 93.267,99.244 94.195,99.244 95.025 C 99.244 95.796,100.334 97.126,100.966 97.126 C 101.143 97.126,101.468 97.343,101.688 97.608 C 101.989 97.970,102.395 98.045,103.314 97.907 C 104.014 97.801,104.373 97.831,104.151 97.977 C 103.727 98.256,105.679 99.351,107.186 99.679 C 107.644 99.779,108.018 99.994,108.018 100.157 C 108.018 100.320,108.351 100.454,108.757 100.454 C 109.163 100.454,109.572 100.578,109.666 100.730 C 109.870 101.059,112.307 102.269,112.766 102.269 C 112.943 102.269,113.250 102.465,113.448 102.704 C 113.647 102.943,114.197 103.223,114.670 103.327 C 115.144 103.431,115.607 103.712,115.699 103.952 C 115.791 104.191,116.215 104.387,116.641 104.387 C 117.068 104.387,117.495 104.592,117.591 104.841 C 117.687 105.091,118.013 105.295,118.316 105.295 C 118.619 105.295,119.072 105.499,119.321 105.749 C 119.571 105.998,119.959 106.203,120.183 106.203 C 120.408 106.203,120.825 106.475,121.110 106.808 C 121.395 107.141,121.834 107.413,122.085 107.413 C 122.336 107.413,122.542 107.543,122.542 107.702 C 122.542 107.861,123.052 108.072,123.676 108.172 C 124.300 108.272,125.078 108.502,125.404 108.682 C 125.731 108.863,126.548 109.307,127.220 109.668 C 127.892 110.029,128.714 110.473,129.047 110.655 C 129.380 110.837,130.367 111.303,131.241 111.691 C 132.114 112.079,132.829 112.501,132.829 112.628 C 132.829 112.755,132.999 112.857,133.207 112.854 C 133.415 112.851,135.492 113.818,137.821 115.002 C 140.151 116.186,142.738 117.493,143.570 117.906 C 144.402 118.320,145.764 119.005,146.596 119.428 C 151.997 122.175,153.972 123.147,154.158 123.147 C 154.274 123.147,154.731 123.401,155.173 123.712 C 155.614 124.023,156.316 124.382,156.732 124.509 C 157.148 124.637,157.557 124.825,157.640 124.927 C 157.723 125.030,158.268 125.341,158.850 125.619 C 163.463 127.821,164.644 128.434,164.928 128.776 C 165.431 129.382,167.873 130.478,168.229 130.258 C 168.404 130.149,168.510 130.241,168.464 130.462 C 168.412 130.716,168.746 130.897,169.382 130.958 C 169.932 131.011,170.457 131.250,170.549 131.488 C 170.640 131.726,171.109 131.921,171.591 131.921 C 172.167 131.921,172.466 132.076,172.466 132.375 C 172.466 132.630,172.736 132.829,173.083 132.829 C 173.423 132.829,174.102 133.126,174.592 133.488 C 175.083 133.851,175.565 134.067,175.664 133.967 C 175.764 133.868,176.106 134.048,176.425 134.367 C 176.744 134.686,177.266 134.947,177.584 134.947 C 177.903 134.947,178.210 135.049,178.265 135.174 C 178.396 135.467,180.983 136.764,181.435 136.763 C 181.625 136.763,181.859 136.967,181.955 137.216 C 182.051 137.466,182.467 137.670,182.880 137.670 C 183.293 137.670,183.740 137.840,183.873 138.048 C 184.006 138.256,184.612 138.679,185.220 138.988 C 185.951 139.359,186.381 139.820,186.491 140.349 C 186.655 141.136,187.196 143.312,187.969 146.293 C 188.184 147.126,188.515 148.079,188.703 148.411 C 188.892 148.744,189.089 149.425,189.141 149.924 C 189.193 150.424,189.326 150.968,189.436 151.135 C 189.546 151.301,189.727 152.066,189.838 152.834 C 189.949 153.602,190.234 154.487,190.472 154.800 C 190.709 155.114,190.908 155.786,190.913 156.293 C 190.919 156.801,191.046 157.346,191.196 157.504 C 191.346 157.662,191.679 158.744,191.935 159.909 C 192.812 163.895,193.111 165.053,193.340 165.356 C 193.466 165.522,193.664 166.307,193.779 167.101 C 193.893 167.895,194.115 168.465,194.271 168.369 C 194.426 168.273,194.562 168.441,194.571 168.742 C 194.641 170.926,194.873 171.893,195.756 173.676 C 196.306 174.786,198.537 174.248,199.518 172.769 C 200.015 172.020,201.109 170.562,201.950 169.529 C 202.791 168.496,203.888 167.101,204.387 166.430 C 204.887 165.758,205.545 164.902,205.850 164.526 C 206.156 164.150,206.667 163.502,206.986 163.086 C 207.305 162.670,208.456 161.188,209.543 159.793 C 210.630 158.398,211.669 156.977,211.852 156.635 C 212.035 156.294,212.453 155.733,212.781 155.390 C 213.599 154.534,216.944 150.102,216.944 149.873 C 216.944 149.772,217.131 149.537,217.361 149.353 C 217.590 149.168,219.118 147.247,220.758 145.083 C 222.398 142.920,224.049 140.810,224.427 140.396 C 225.674 139.029,226.005 133.453,224.795 134.201 C 224.684 134.269,224.504 133.478,224.396 132.443 C 224.288 131.407,224.069 130.516,223.910 130.462 C 223.750 130.408,223.541 129.864,223.445 129.252 C 223.279 128.188,223.085 127.398,222.241 124.357 C 221.000 119.882,220.472 118.086,220.241 117.549 C 220.098 117.216,219.841 116.263,219.671 115.431 C 219.170 112.982,218.329 110.136,218.107 110.136 C 217.993 110.136,217.805 109.251,217.689 108.169 C 217.573 107.088,217.358 106.203,217.211 106.203 C 217.064 106.203,216.943 105.828,216.942 105.371 C 216.940 104.405,216.188 102.832,215.561 102.481 C 215.323 102.348,215.129 101.803,215.129 101.269 C 215.129 100.461,214.965 100.231,214.145 99.888 C 212.056 99.014,210.586 98.272,210.423 98.007 C 210.329 97.855,209.997 97.731,209.686 97.731 C 209.375 97.731,208.923 97.533,208.681 97.292 C 208.440 97.050,207.886 96.763,207.450 96.654 C 207.013 96.544,206.657 96.333,206.657 96.185 C 206.657 96.037,206.324 95.915,205.918 95.915 C 205.512 95.915,205.102 95.790,205.007 95.636 C 204.912 95.483,203.953 94.928,202.874 94.402 C 201.796 93.877,200.837 93.322,200.742 93.169 C 200.647 93.015,200.322 92.890,200.019 92.890 C 199.717 92.890,199.299 92.685,199.092 92.436 C 198.885 92.186,198.406 91.982,198.029 91.982 C 197.651 91.982,197.268 91.790,197.178 91.557 C 197.089 91.323,196.597 91.039,196.087 90.927 C 195.577 90.815,195.159 90.598,195.159 90.445 C 195.159 90.292,194.896 90.166,194.575 90.166 C 194.254 90.166,193.788 89.962,193.538 89.713 C 193.288 89.463,192.976 89.259,192.844 89.259 C 192.367 89.259,188.200 87.047,188.200 86.794 C 188.200 86.652,187.995 86.536,187.746 86.536 C 187.496 86.536,187.292 86.397,187.292 86.227 C 187.292 86.049,186.942 85.995,186.460 86.100 C 185.858 86.232,185.747 86.199,186.058 85.981 C 186.494 85.675,186.402 85.623,182.300 83.837 C 179.379 82.565,178.524 82.135,178.521 81.935 C 178.519 81.818,178.041 81.632,177.458 81.523 C 176.876 81.414,176.399 81.213,176.399 81.076 C 176.399 80.939,176.093 80.732,175.719 80.616 C 175.344 80.500,174.682 80.154,174.247 79.848 C 173.812 79.542,173.389 79.359,173.307 79.441 C 173.225 79.524,172.985 79.383,172.775 79.130 C 172.564 78.876,172.166 78.669,171.891 78.669 C 171.616 78.669,171.157 78.396,170.872 78.064 C 170.587 77.731,170.160 77.458,169.922 77.458 C 169.685 77.458,169.441 77.310,169.381 77.130 C 169.321 76.949,168.710 76.779,168.023 76.751 C 167.131 76.716,166.855 76.604,167.056 76.359 C 167.251 76.122,167.077 75.952,166.498 75.811 C 165.460 75.558,161.318 73.543,161.095 73.183 C 161.006 73.038,160.664 72.920,160.336 72.920 C 160.008 72.920,159.661 72.716,159.565 72.466 C 159.469 72.216,159.081 72.012,158.704 72.012 C 158.326 72.012,157.847 71.808,157.640 71.558 C 157.433 71.309,157.017 71.104,156.717 71.104 C 156.416 71.104,155.973 70.907,155.731 70.665 C 155.490 70.424,154.936 70.137,154.499 70.028 C 154.063 69.918,153.707 69.707,153.707 69.559 C 153.707 69.410,153.536 69.286,153.328 69.283 C 153.004 69.279,146.629 66.151,143.873 64.645 C 143.374 64.372,142.795 64.148,142.587 64.147 C 142.379 64.146,142.209 64.024,142.209 63.876 C 142.209 63.728,141.728 63.517,141.141 63.407 C 140.554 63.297,140.154 63.078,140.252 62.920 C 140.349 62.762,140.276 62.632,140.090 62.632 C 139.438 62.632,136.415 61.051,136.251 60.624 C 136.145 60.349,135.866 60.263,135.478 60.386 C 135.075 60.515,134.941 60.467,135.079 60.244 C 135.317 59.858,133.840 59.200,133.246 59.428 C 133.020 59.514,132.922 59.413,133.011 59.183 C 133.195 58.702,129.296 56.581,128.227 56.581 C 127.818 56.581,127.156 56.948,126.724 57.413 M131.229 61.611 C 131.045 61.795,129.803 61.342,129.803 61.091 C 129.803 60.947,130.144 60.985,130.561 61.175 C 130.978 61.365,131.278 61.561,131.229 61.611 M222.315 65.025 C 221.858 65.318,221.574 65.649,221.685 65.760 C 221.796 65.870,221.670 65.961,221.407 65.961 C 221.143 65.961,220.865 66.131,220.789 66.339 C 220.678 66.641,220.570 66.641,220.250 66.339 C 219.960 66.066,219.950 65.961,220.212 65.961 C 220.411 65.961,220.575 65.808,220.575 65.621 C 220.575 65.386,220.435 65.398,220.121 65.658 C 219.608 66.084,219.510 66.868,219.970 66.868 C 220.136 66.868,220.272 67.087,220.272 67.355 C 220.272 67.735,220.090 67.796,219.441 67.633 C 218.317 67.351,218.253 67.238,218.933 66.724 C 219.254 66.481,219.399 66.278,219.257 66.273 C 218.270 66.236,214.559 69.999,215.440 70.142 C 215.768 70.195,216.036 70.381,216.036 70.556 C 216.036 70.730,215.698 70.808,215.282 70.728 C 214.382 70.556,213.828 71.110,214.113 71.898 C 214.225 72.210,214.206 72.365,214.069 72.241 C 212.616 70.922,212.210 77.866,213.655 79.328 C 214.216 79.895,214.573 80.224,214.448 80.059 C 214.091 79.585,214.181 79.274,214.675 79.274 C 214.924 79.274,215.129 79.410,215.129 79.576 C 215.129 79.743,215.367 79.881,215.658 79.884 C 216.111 79.888,216.122 79.931,215.734 80.182 C 215.414 80.388,215.846 80.476,217.191 80.479 C 218.966 80.484,219.089 80.441,218.911 79.879 C 218.760 79.403,218.856 79.274,219.365 79.274 C 219.873 79.274,219.970 79.403,219.818 79.879 C 219.708 80.226,219.764 80.484,219.949 80.484 C 220.127 80.484,220.272 80.370,220.272 80.229 C 220.272 80.089,220.821 79.810,221.491 79.610 C 222.246 79.384,222.632 79.117,222.504 78.910 C 222.385 78.717,222.434 78.660,222.621 78.775 C 222.799 78.885,223.398 78.607,223.953 78.156 C 224.508 77.706,224.979 77.331,225.000 77.322 C 225.372 77.174,225.356 75.946,224.983 75.946 C 224.722 75.946,224.508 75.741,224.508 75.492 C 224.508 75.242,224.713 75.038,224.962 75.038 C 225.378 75.038,225.537 75.468,225.496 76.485 C 225.487 76.698,225.772 76.557,226.129 76.171 C 227.539 74.646,229.058 71.916,229.026 70.965 C 229.005 70.353,229.002 70.353,228.744 70.953 C 228.516 71.485,228.482 71.456,228.463 70.708 C 228.451 70.241,228.563 69.933,228.710 70.024 C 228.858 70.116,229.039 69.779,229.113 69.276 C 229.200 68.688,229.143 68.466,228.955 68.655 C 228.766 68.843,228.498 68.783,228.200 68.486 C 227.806 68.091,227.801 67.983,228.166 67.749 C 228.527 67.516,228.529 67.432,228.176 67.205 C 227.947 67.057,227.857 66.778,227.976 66.585 C 228.138 66.322,228.320 66.332,228.696 66.622 C 229.064 66.906,229.048 66.833,228.632 66.345 C 227.145 64.600,224.003 63.943,222.315 65.025 M271.780 65.356 C 271.780 65.938,271.842 66.176,271.918 65.885 C 271.994 65.594,271.994 65.117,271.918 64.826 C 271.842 64.535,271.780 64.773,271.780 65.356 M225.113 65.298 C 225.113 65.432,224.914 65.807,224.669 66.130 C 224.244 66.692,224.225 66.682,224.215 65.885 C 224.209 65.343,224.364 65.053,224.660 65.053 C 224.909 65.053,225.113 65.163,225.113 65.298 M223.601 67.020 C 223.601 67.302,223.315 67.474,222.844 67.474 C 222.374 67.474,222.088 67.302,222.088 67.020 C 222.088 66.737,222.374 66.566,222.844 66.566 C 223.315 66.566,223.601 66.737,223.601 67.020 M225.589 67.906 C 226.099 68.416,226.156 68.986,225.697 68.986 C 225.278 68.986,224.508 68.217,224.508 67.798 C 224.508 67.339,225.079 67.396,225.589 67.906 M226.021 73.979 C 226.021 74.228,225.817 74.433,225.567 74.433 C 225.318 74.433,225.113 74.228,225.113 73.979 C 225.113 73.729,225.318 73.525,225.567 73.525 C 225.817 73.525,226.021 73.729,226.021 73.979 M223.903 76.702 C 223.903 76.952,223.775 77.156,223.618 77.156 C 223.237 77.156,222.964 76.683,223.205 76.442 C 223.546 76.101,223.903 76.234,223.903 76.702 M222.693 77.156 C 222.693 77.492,222.491 77.761,222.239 77.761 C 221.987 77.761,221.785 77.492,221.785 77.156 C 221.785 76.820,221.987 76.551,222.239 76.551 C 222.491 76.551,222.693 76.820,222.693 77.156 M221.785 78.820 C 221.785 79.070,221.649 79.274,221.483 79.274 C 221.316 79.274,221.180 79.070,221.180 78.820 C 221.180 78.570,221.316 78.366,221.483 78.366 C 221.649 78.366,221.785 78.570,221.785 78.820 M186.820 89.420 C 187.143 89.664,187.271 89.864,187.105 89.864 C 186.939 89.864,186.538 89.664,186.215 89.420 C 185.892 89.175,185.764 88.975,185.930 88.975 C 186.097 88.975,186.497 89.175,186.820 89.420 M189.387 90.666 C 190.237 91.107,190.876 91.524,190.807 91.594 C 190.625 91.775,187.608 90.361,187.601 90.091 C 187.592 89.756,187.699 89.790,189.387 90.666 M312.678 96.467 C 312.034 97.005,312.144 98.336,312.832 98.336 C 313.416 98.336,313.545 97.631,313.031 97.254 C 312.548 96.901,312.575 96.832,313.363 96.405 C 313.835 96.149,314.017 95.939,313.767 95.937 C 313.517 95.936,313.027 96.174,312.678 96.467 M319.062 96.218 C 318.959 96.384,318.015 96.520,316.963 96.520 C 314.792 96.520,313.983 97.037,314.601 98.028 C 314.791 98.331,315.041 99.972,315.159 101.675 C 315.341 104.328,315.452 104.792,315.931 104.917 C 316.581 105.087,316.633 105.333,316.127 105.840 C 315.911 106.056,315.890 106.203,316.076 106.203 C 316.248 106.203,316.566 105.870,316.784 105.462 C 317.002 105.055,317.373 104.648,317.607 104.558 C 317.864 104.459,317.953 104.525,317.831 104.724 C 317.686 104.957,317.796 104.962,318.210 104.741 C 319.181 104.221,321.663 101.268,321.495 100.831 C 321.409 100.606,321.459 100.497,321.606 100.588 C 322.313 101.025,322.459 98.198,321.776 97.295 C 321.531 96.972,321.331 96.870,321.331 97.068 C 321.331 97.266,321.184 97.428,321.004 97.428 C 320.823 97.428,320.732 97.260,320.800 97.055 C 320.869 96.850,320.592 96.509,320.186 96.299 C 319.297 95.838,319.297 95.838,319.062 96.218 M202.318 97.329 C 202.117 97.530,200.936 97.022,201.076 96.795 C 201.165 96.651,201.498 96.695,201.816 96.893 C 202.133 97.092,202.359 97.288,202.318 97.329 M209.682 100.908 C 210.121 101.158,210.248 101.341,209.985 101.341 C 209.735 101.342,209.267 101.142,208.944 100.898 C 208.196 100.333,208.688 100.339,209.682 100.908 M320.726 100.908 C 320.726 101.157,320.590 101.362,320.424 101.362 C 320.257 101.362,320.121 101.157,320.121 100.908 C 320.121 100.658,320.257 100.454,320.424 100.454 C 320.590 100.454,320.726 100.658,320.726 100.908 M209.380 104.327 C 209.380 104.641,208.724 105.295,208.409 105.295 C 208.274 105.295,208.334 105.023,208.542 104.690 C 208.924 104.079,209.380 103.881,209.380 104.327 M207.867 106.367 C 207.867 106.458,207.526 106.899,207.110 107.347 C 206.694 107.796,206.354 107.994,206.354 107.788 C 206.354 107.582,206.481 107.413,206.636 107.413 C 206.791 107.413,207.005 107.141,207.110 106.808 C 207.280 106.275,207.867 105.933,207.867 106.367 M312.695 107.089 C 312.790 107.243,312.584 107.460,312.236 107.570 C 311.888 107.681,311.670 107.838,311.752 107.919 C 311.968 108.136,313.162 107.442,313.162 107.100 C 313.162 106.939,313.018 106.808,312.841 106.808 C 312.665 106.808,312.599 106.934,312.695 107.089 M308.169 107.953 C 308.651 108.086,308.527 108.198,307.564 108.500 C 306.783 108.745,306.589 108.888,307.015 108.903 C 308.149 108.943,309.437 108.335,308.916 108.005 C 308.672 107.851,308.268 107.739,308.018 107.755 C 307.752 107.773,307.814 107.855,308.169 107.953 M205.265 109.803 C 204.966 110.309,204.537 110.793,204.310 110.880 C 204.083 110.967,204.280 110.506,204.748 109.856 C 205.731 108.488,206.062 108.454,205.265 109.803 M125.119 109.762 C 125.239 110.051,125.343 110.474,125.351 110.702 C 125.359 110.930,125.810 111.303,126.353 111.530 C 126.897 111.757,127.427 112.081,127.531 112.250 C 127.636 112.419,127.985 112.557,128.308 112.557 C 128.631 112.557,128.911 112.727,128.931 112.935 C 128.950 113.143,128.997 113.449,129.036 113.616 C 129.074 113.782,129.127 114.089,129.152 114.297 C 129.218 114.839,130.408 114.767,130.408 114.221 C 130.408 113.550,131.084 113.667,132.408 114.565 C 133.055 115.005,133.959 115.494,134.417 115.654 C 134.874 115.813,135.162 116.085,135.056 116.256 C 134.949 116.430,135.046 116.508,135.275 116.431 C 135.502 116.356,136.026 116.469,136.440 116.684 C 137.007 116.978,137.247 116.988,137.411 116.723 C 137.551 116.495,137.760 116.658,137.998 117.182 C 138.255 117.745,138.678 118.051,139.384 118.184 C 139.943 118.288,140.475 118.495,140.566 118.642 C 140.657 118.790,140.868 118.911,141.034 118.911 C 141.201 118.911,141.252 118.774,141.148 118.606 C 141.044 118.437,141.322 118.466,141.770 118.670 C 142.215 118.873,142.428 119.090,142.241 119.152 C 141.781 119.305,142.133 119.818,142.698 119.818 C 142.948 119.818,143.068 119.682,142.965 119.516 C 142.862 119.349,142.927 119.213,143.108 119.213 C 143.290 119.213,143.539 119.484,143.661 119.815 C 143.901 120.464,145.927 121.634,146.811 121.634 C 147.109 121.634,147.352 121.770,147.352 121.936 C 147.352 122.103,147.545 122.239,147.781 122.239 C 148.017 122.239,148.255 122.341,148.311 122.466 C 148.536 122.974,150.495 123.854,150.613 123.501 C 150.741 123.116,151.309 123.003,151.250 123.374 C 151.097 124.346,151.345 124.962,151.891 124.962 C 152.227 124.962,152.496 124.760,152.496 124.508 C 152.496 124.259,152.638 124.054,152.812 124.054 C 152.986 124.054,153.106 124.225,153.079 124.433 C 152.931 125.569,153.120 126.323,153.422 125.805 C 153.740 125.259,155.219 125.620,155.219 126.243 C 155.219 126.394,155.526 126.494,155.900 126.463 C 156.948 126.378,157.839 126.504,157.411 126.676 C 156.887 126.887,157.250 127.383,157.928 127.383 C 158.790 127.383,158.891 128.166,158.086 128.597 C 156.965 129.197,156.698 130.416,157.778 130.001 C 158.035 129.903,158.245 129.538,158.245 129.190 C 158.245 128.842,158.370 128.634,158.522 128.728 C 158.674 128.822,158.844 128.783,158.900 128.642 C 159.055 128.249,160.666 127.924,160.666 128.285 C 160.666 128.454,160.461 128.593,160.212 128.593 C 159.962 128.593,159.758 128.786,159.758 129.022 C 159.758 129.257,159.588 129.519,159.380 129.603 C 159.172 129.687,159.449 129.766,159.996 129.779 C 160.542 129.793,161.298 129.601,161.676 129.354 C 162.192 129.015,162.607 128.974,163.350 129.187 C 165.997 129.946,162.681 128.164,144.523 119.067 C 132.274 112.930,124.982 109.434,125.119 109.762 M265.994 110.852 C 265.759 111.135,265.741 111.499,265.937 111.988 C 266.095 112.384,266.234 112.515,266.244 112.279 C 266.255 112.044,266.342 111.930,266.439 112.027 C 266.536 112.123,266.453 112.505,266.255 112.874 C 266.006 113.340,265.827 113.435,265.671 113.183 C 265.548 112.983,265.468 113.456,265.494 114.233 C 265.526 115.170,265.406 115.698,265.137 115.801 C 264.826 115.921,264.857 116.051,265.271 116.365 C 265.749 116.728,265.754 116.775,265.312 116.783 C 265.039 116.788,264.734 117.004,264.635 117.262 C 264.514 117.579,264.577 117.661,264.829 117.516 C 265.036 117.397,264.898 117.637,264.523 118.049 C 264.149 118.461,263.843 118.965,263.843 119.168 C 263.843 119.371,263.623 119.873,263.354 120.283 C 263.085 120.693,262.979 121.029,263.119 121.029 C 263.258 121.029,263.074 121.238,262.709 121.494 C 262.344 121.749,261.883 122.498,261.686 123.158 C 261.488 123.817,261.160 124.357,260.957 124.357 C 260.398 124.357,259.884 125.116,259.813 126.048 C 259.778 126.506,259.547 126.937,259.299 127.004 C 258.907 127.111,258.908 127.082,259.304 126.778 C 259.708 126.468,259.708 126.444,259.304 126.560 C 259.054 126.632,258.870 126.919,258.894 127.197 C 258.918 127.477,258.545 127.906,258.062 128.156 C 257.580 128.405,257.186 128.741,257.186 128.903 C 257.186 129.430,253.208 133.658,251.915 134.505 C 251.357 134.871,251.173 135.196,251.299 135.592 C 251.397 135.903,251.333 136.157,251.155 136.157 C 250.977 136.157,250.832 136.020,250.832 135.852 C 250.832 135.669,250.594 135.696,250.238 135.918 C 249.820 136.179,249.686 136.517,249.786 137.055 C 249.864 137.477,249.848 137.651,249.750 137.443 C 249.452 136.813,249.151 137.012,248.714 138.125 C 248.466 138.755,248.212 139.047,248.086 138.843 C 247.763 138.321,247.152 138.855,247.352 139.484 C 247.488 139.913,247.324 140.082,246.622 140.236 C 246.123 140.346,245.642 140.664,245.552 140.944 C 245.461 141.224,244.917 141.964,244.342 142.588 C 243.564 143.434,243.389 143.800,243.660 144.021 C 245.352 145.400,245.980 145.846,253.175 150.784 C 256.242 152.890,255.542 152.987,259.884 149.849 C 261.899 148.393,266.141 145.363,269.311 143.116 C 272.481 140.870,277.724 137.126,280.962 134.796 C 284.201 132.466,288.005 129.757,289.416 128.775 C 292.540 126.603,292.545 126.878,289.334 124.799 C 287.878 123.856,286.318 122.827,285.867 122.511 C 285.416 122.195,284.961 121.936,284.855 121.936 C 284.749 121.936,284.236 121.630,283.714 121.256 C 283.193 120.881,282.524 120.439,282.227 120.272 C 281.931 120.106,278.728 118.123,275.110 115.866 C 265.599 109.932,266.395 110.370,265.994 110.852 M203.033 112.784 C 201.223 115.120,200.605 115.989,200.605 116.197 C 200.605 116.323,200.384 116.510,200.113 116.614 C 199.631 116.799,200.031 115.963,200.965 114.834 C 201.685 113.963,202.314 113.154,202.714 112.585 C 202.959 112.237,203.276 111.952,203.418 111.952 C 203.560 111.952,203.387 112.326,203.033 112.784 M126.475 115.233 C 126.475 115.526,127.480 116.490,127.785 116.490 C 127.897 116.490,127.988 116.150,127.988 115.734 C 127.988 115.129,127.837 114.977,127.231 114.977 C 126.815 114.977,126.475 115.092,126.475 115.233 M199.099 117.994 C 198.437 118.923,197.567 119.666,198.043 118.894 C 198.390 118.334,199.476 117.095,199.621 117.095 C 199.686 117.095,199.451 117.500,199.099 117.994 M196.993 120.802 C 195.483 122.897,194.531 123.969,194.758 123.321 C 194.870 123.001,195.176 122.514,195.438 122.239 C 196.253 121.386,197.277 120.001,197.277 119.753 C 197.277 119.622,197.421 119.516,197.598 119.516 C 197.775 119.516,197.503 120.095,196.993 120.802 M132.224 121.004 C 132.224 121.851,132.662 122.239,133.618 122.239 C 134.511 122.239,134.644 122.141,134.644 121.483 C 134.644 120.802,134.523 120.726,133.434 120.726 C 132.769 120.726,132.224 120.851,132.224 121.004 M142.511 121.353 C 142.511 122.263,143.384 123.085,143.744 122.515 C 144.310 121.622,144.071 120.726,143.268 120.726 C 142.704 120.726,142.511 120.886,142.511 121.353 M136.687 121.548 C 135.526 121.724,135.459 123.147,136.611 123.147 C 137.209 123.147,137.368 122.994,137.368 122.416 C 137.368 122.013,137.538 121.616,137.746 121.532 C 138.172 121.360,137.901 121.364,136.687 121.548 M140.318 121.540 C 139.128 121.851,139.678 123.147,140.998 123.147 C 142.292 123.147,142.834 121.939,141.730 121.515 C 141.224 121.321,141.152 121.322,140.318 121.540 M193.930 124.887 C 192.696 126.295,192.644 126.346,192.925 125.867 C 193.628 124.667,194.119 124.054,194.377 124.054 C 194.532 124.054,194.331 124.429,193.930 124.887 M152.377 126.954 C 152.059 127.783,152.172 127.988,152.950 127.988 C 153.555 127.988,153.707 127.837,153.707 127.231 C 153.707 126.361,152.686 126.148,152.377 126.954 M296.747 128.586 C 296.456 128.868,296.218 129.256,296.218 129.450 C 296.218 129.645,296.082 129.803,295.915 129.803 C 295.523 129.803,294.402 130.924,294.402 131.316 C 294.402 131.483,294.213 131.619,293.981 131.619 C 293.749 131.619,293.481 131.823,293.385 132.073 C 293.289 132.322,292.896 132.526,292.510 132.526 C 291.804 132.526,291.711 132.749,291.644 134.596 C 291.625 135.138,291.483 135.269,291.043 135.154 C 290.727 135.071,290.544 135.127,290.638 135.278 C 290.731 135.429,290.655 135.552,290.469 135.552 C 290.283 135.552,290.215 135.688,290.318 135.855 C 290.421 136.021,290.346 136.157,290.152 136.157 C 289.958 136.157,289.235 136.599,288.546 137.138 C 286.812 138.494,286.955 138.389,284.324 140.242 C 283.024 141.157,281.886 141.906,281.795 141.906 C 281.646 141.906,279.337 143.632,278.971 144.016 C 278.888 144.104,277.799 144.856,276.551 145.688 C 275.303 146.520,274.213 147.282,274.130 147.381 C 274.047 147.481,273.162 148.130,272.163 148.824 C 270.279 150.135,269.226 150.888,264.240 154.490 C 262.607 155.669,260.964 156.797,260.590 156.996 C 259.918 157.354,259.909 157.438,259.909 163.551 C 259.909 167.477,259.799 169.743,259.607 169.743 C 259.440 169.743,259.304 169.539,259.304 169.289 C 259.304 168.730,258.580 168.696,258.040 169.230 C 257.820 169.448,257.423 169.707,257.159 169.807 C 256.745 169.964,256.685 170.621,256.730 174.480 C 256.806 180.880,256.490 183.913,256.262 178.971 C 256.124 175.977,256.090 176.467,256.064 181.770 C 256.045 185.744,256.142 188.133,256.319 188.023 C 256.487 187.919,256.527 188.159,256.414 188.606 C 256.255 189.240,256.379 189.447,257.157 189.849 C 258.309 190.445,258.835 190.195,263.540 186.821 C 265.287 185.568,267.262 184.164,267.927 183.701 C 268.593 183.238,270.295 182.043,271.710 181.045 C 273.859 179.528,287.024 170.260,292.460 166.437 C 293.306 165.842,294.836 164.773,295.861 164.060 C 298.539 162.199,298.725 161.714,298.351 157.561 C 298.183 155.691,298.052 151.948,298.060 149.244 C 298.070 146.039,297.966 144.327,297.762 144.327 C 297.563 144.327,297.540 144.076,297.699 143.648 C 297.843 143.257,297.820 142.595,297.644 142.090 C 297.428 141.469,297.440 141.049,297.686 140.656 C 298.089 140.010,298.160 135.666,297.772 135.426 C 297.628 135.337,297.573 134.887,297.651 134.425 C 298.037 132.129,298.073 130.932,297.763 130.623 C 297.346 130.205,297.323 129.198,297.731 129.198 C 298.167 129.198,298.104 128.381,297.655 128.215 C 297.447 128.138,297.039 128.305,296.747 128.586 M176.249 130.962 C 176.061 131.150,174.887 130.680,174.887 130.417 C 174.887 130.277,175.217 130.319,175.621 130.509 C 176.025 130.700,176.307 130.904,176.249 130.962 M188.519 132.005 C 188.131 132.375,187.929 132.474,188.069 132.224 C 188.450 131.546,188.939 131.058,189.091 131.204 C 189.165 131.275,188.908 131.636,188.519 132.005 M187.364 133.747 C 187.084 134.074,186.739 134.342,186.598 134.342 C 186.457 134.342,186.555 134.128,186.817 133.866 C 187.078 133.605,187.292 133.256,187.292 133.092 C 187.292 132.928,187.423 132.874,187.583 132.973 C 187.750 133.076,187.657 133.405,187.364 133.747 M84.871 147.174 C 84.335 147.604,83.887 147.776,83.776 147.596 C 83.467 147.096,82.355 148.255,82.524 148.900 C 82.606 149.214,82.530 149.470,82.356 149.470 C 82.182 149.470,81.996 149.164,81.942 148.790 C 81.857 148.187,81.604 148.350,79.728 150.227 C 77.238 152.717,75.123 156.430,76.195 156.430 C 76.332 156.430,76.463 157.179,76.488 158.094 C 76.512 159.009,76.400 159.758,76.238 159.758 C 76.077 159.758,75.924 159.043,75.897 158.169 C 75.861 156.977,75.817 156.840,75.723 157.620 C 75.396 160.311,77.293 162.744,79.425 162.367 C 82.026 161.908,82.452 161.871,81.846 162.155 C 81.288 162.416,81.301 162.440,82.015 162.460 C 82.441 162.472,83.053 162.281,83.376 162.037 C 83.699 161.793,84.207 161.588,84.505 161.583 C 85.941 161.557,91.861 155.825,90.451 155.825 C 90.275 155.825,90.220 155.679,90.330 155.502 C 90.440 155.324,90.602 155.252,90.691 155.340 C 90.941 155.590,91.982 154.130,91.982 153.529 C 91.982 153.234,92.140 152.556,92.333 152.022 C 93.709 148.217,88.113 144.581,84.871 147.174 M86.838 147.504 C 86.838 147.756,86.569 147.958,86.233 147.958 C 85.630 147.958,85.446 147.635,85.830 147.252 C 86.198 146.883,86.838 147.043,86.838 147.504 M294.611 148.487 C 294.535 148.778,294.473 148.540,294.473 147.958 C 294.473 147.375,294.535 147.137,294.611 147.428 C 294.687 147.719,294.687 148.196,294.611 148.487 M88.351 147.958 C 88.351 148.294,88.149 148.563,87.897 148.563 C 87.645 148.563,87.443 148.294,87.443 147.958 C 87.443 147.621,87.645 147.352,87.897 147.352 C 88.149 147.352,88.351 147.621,88.351 147.958 M97.828 150.604 C 97.846 151.341,97.955 151.717,98.085 151.486 C 98.209 151.264,98.195 150.686,98.053 150.201 C 97.818 149.395,97.799 149.430,97.828 150.604 M91.679 153.707 C 91.679 154.039,91.543 154.312,91.377 154.312 C 91.210 154.312,91.074 154.039,91.074 153.707 C 91.074 153.374,91.210 153.101,91.377 153.101 C 91.543 153.101,91.679 153.374,91.679 153.707 M88.956 154.160 C 88.956 154.410,89.160 154.614,89.410 154.614 C 89.660 154.614,89.864 154.818,89.864 155.068 C 89.864 155.318,89.660 155.522,89.410 155.522 C 89.160 155.522,88.956 155.318,88.956 155.068 C 88.956 154.816,88.687 154.614,88.351 154.614 C 88.015 154.614,87.746 154.413,87.746 154.160 C 87.746 153.908,88.015 153.707,88.351 153.707 C 88.687 153.707,88.956 153.908,88.956 154.160 M79.274 155.976 C 79.274 156.225,79.138 156.430,78.971 156.430 C 78.805 156.430,78.669 156.225,78.669 155.976 C 78.669 155.726,78.805 155.522,78.971 155.522 C 79.138 155.522,79.274 155.726,79.274 155.976 M105.619 158.775 C 105.702 159.662,106.162 160.156,106.181 159.380 C 106.193 158.922,106.067 158.548,105.900 158.548 C 105.734 158.548,105.607 158.650,105.619 158.775 M94.807 159.930 C 94.707 160.190,94.779 160.558,94.967 160.747 C 95.223 161.002,95.310 160.881,95.310 160.272 C 95.310 159.362,95.084 159.208,94.807 159.930 M79.274 160.212 C 79.274 160.461,79.070 160.666,78.820 160.666 C 78.570 160.666,78.366 160.461,78.366 160.212 C 78.366 159.962,78.570 159.758,78.820 159.758 C 79.070 159.758,79.274 159.962,79.274 160.212 M77.761 160.633 C 77.761 160.782,77.557 160.982,77.307 161.078 C 77.031 161.184,76.853 161.078,76.853 160.807 C 76.853 160.563,77.057 160.363,77.307 160.363 C 77.557 160.363,77.761 160.485,77.761 160.633 M92.883 162.337 C 92.673 162.591,92.554 162.839,92.620 162.888 C 93.269 163.381,95.658 164.598,95.969 164.594 C 96.276 164.591,96.268 164.526,95.935 164.315 C 95.575 164.087,95.568 163.958,95.896 163.563 C 96.247 163.140,96.123 163.086,94.792 163.086 C 93.123 163.086,92.732 162.885,93.232 162.282 C 93.417 162.059,93.501 161.876,93.418 161.876 C 93.334 161.876,93.094 162.083,92.883 162.337 M104.417 163.218 C 104.901 163.728,105.447 163.974,106.051 163.954 C 106.692 163.933,106.781 163.879,106.354 163.773 C 106.021 163.689,105.681 163.532,105.598 163.423 C 105.514 163.314,105.051 163.051,104.569 162.839 L 103.691 162.453 104.417 163.218 M107.917 164.801 C 107.468 165.250,107.760 165.743,108.450 165.702 C 109.130 165.661,109.149 165.619,108.706 165.129 C 108.158 164.523,108.184 164.534,107.917 164.801 M98.033 165.523 C 99.044 166.213,100.756 167.017,100.748 166.799 C 100.744 166.671,100.132 166.259,99.390 165.885 C 97.995 165.182,97.236 164.979,98.033 165.523 M109.457 167.171 C 109.615 167.996,110.274 168.189,110.542 167.489 C 110.655 167.195,110.565 167.106,110.269 167.220 C 109.957 167.339,109.882 167.246,110.014 166.902 C 110.134 166.590,110.041 166.415,109.757 166.415 C 109.446 166.415,109.356 166.642,109.457 167.171 M107.716 168.230 C 107.716 168.566,107.917 168.835,108.169 168.835 C 108.419 168.835,108.623 168.699,108.623 168.533 C 108.623 168.366,108.479 168.230,108.303 168.230 C 108.127 168.230,108.067 168.094,108.169 167.927 C 108.272 167.761,108.212 167.625,108.036 167.625 C 107.860 167.625,107.716 167.897,107.716 168.230 M104.345 168.840 C 104.738 169.170,105.257 169.440,105.498 169.440 C 106.205 169.440,105.681 168.922,104.615 168.567 L 103.631 168.239 104.345 168.840 M256.046 170.651 C 256.046 171.233,256.108 171.471,256.184 171.180 C 256.260 170.889,256.260 170.412,256.184 170.121 C 256.108 169.830,256.046 170.068,256.046 170.651 M115.280 170.407 C 115.280 170.663,118.890 170.421,119.200 170.145 C 119.276 170.077,118.425 170.047,117.309 170.077 C 116.193 170.108,115.280 170.256,115.280 170.407 M108.321 170.953 C 108.570 171.114,108.979 171.246,109.228 171.246 C 109.632 171.246,109.632 171.214,109.228 170.953 C 108.979 170.792,108.570 170.660,108.321 170.660 C 107.917 170.660,107.917 170.692,108.321 170.953 M118.911 171.104 C 118.911 171.357,119.180 171.558,119.516 171.558 C 119.852 171.558,120.121 171.357,120.121 171.104 C 120.121 170.852,119.852 170.651,119.516 170.651 C 119.180 170.651,118.911 170.852,118.911 171.104 M138.956 172.533 C 138.582 172.713,138.275 173.061,138.275 173.306 C 138.275 173.665,138.189 173.679,137.825 173.377 C 137.460 173.074,137.339 173.096,137.188 173.491 C 137.085 173.759,136.769 173.979,136.487 173.979 C 135.577 173.979,131.138 178.832,131.228 179.728 C 131.237 179.811,131.119 180.208,130.966 180.610 C 130.790 181.073,130.797 181.409,130.986 181.526 C 131.173 181.642,131.179 181.876,131.002 182.156 C 130.765 182.531,130.720 182.517,130.716 182.073 C 130.713 181.781,130.589 181.543,130.440 181.543 C 130.291 181.543,130.177 182.394,130.186 183.434 C 130.206 185.648,130.787 186.652,132.592 187.593 C 134.075 188.366,137.406 188.391,136.933 187.626 C 136.862 187.511,137.228 187.385,137.746 187.346 C 139.318 187.226,144.078 184.073,143.367 183.623 C 143.051 183.422,143.067 183.367,143.442 183.363 C 144.031 183.357,145.094 182.230,145.371 181.316 C 145.485 180.942,145.711 180.635,145.873 180.635 C 146.036 180.635,146.136 180.465,146.096 180.257 C 145.988 179.696,146.443 178.517,146.768 178.517 C 147.146 178.517,147.129 177.392,146.747 177.156 C 146.326 176.895,146.368 175.568,146.802 175.423 C 147.029 175.347,147.071 175.091,146.918 174.717 C 146.767 174.349,146.625 174.268,146.538 174.500 C 146.448 174.743,146.133 174.603,145.622 174.091 C 145.074 173.543,144.950 173.247,145.205 173.090 C 145.470 172.925,145.436 172.759,145.074 172.459 C 144.661 172.115,144.535 172.120,144.281 172.485 C 144.050 172.817,143.942 172.830,143.825 172.542 C 143.740 172.334,143.422 172.163,143.116 172.163 C 142.811 172.163,142.493 172.334,142.408 172.542 C 142.289 172.836,142.191 172.828,141.967 172.509 C 141.774 172.234,141.614 172.205,141.479 172.422 C 141.345 172.640,141.031 172.651,140.514 172.454 C 140.093 172.294,139.724 172.173,139.693 172.184 C 139.662 172.195,139.331 172.352,138.956 172.533 M112.405 172.769 C 112.508 172.935,112.726 173.071,112.889 173.071 C 113.053 173.071,113.576 173.359,114.052 173.711 C 114.529 174.063,115.102 174.284,115.326 174.200 C 115.613 174.094,115.555 173.980,115.129 173.814 C 114.796 173.684,114.162 173.328,113.720 173.022 C 112.854 172.422,112.102 172.277,112.405 172.769 M259.831 177.988 C 259.772 179.028,259.723 178.177,259.723 176.097 C 259.723 174.017,259.772 173.166,259.831 174.206 C 259.890 175.246,259.890 176.948,259.831 177.988 M139.788 173.222 C 139.788 173.472,139.584 173.676,139.334 173.676 C 138.862 173.676,138.734 173.318,139.082 172.970 C 139.430 172.622,139.788 172.750,139.788 173.222 M142.209 174.130 C 142.209 174.380,142.005 174.584,141.755 174.584 C 141.282 174.584,141.155 174.226,141.503 173.878 C 141.851 173.530,142.209 173.658,142.209 174.130 M126.692 174.672 C 126.587 174.946,126.641 175.256,126.811 175.361 C 127.248 175.631,127.341 175.434,127.095 174.757 C 126.909 174.245,126.860 174.235,126.692 174.672 M117.700 175.520 C 117.700 175.671,117.825 175.794,117.978 175.794 C 118.131 175.794,118.494 175.885,118.784 175.997 C 119.117 176.124,119.240 176.082,119.116 175.882 C 118.858 175.464,117.700 175.168,117.700 175.520 M121.029 175.946 C 121.029 176.195,121.218 176.399,121.450 176.399 C 121.682 176.399,121.950 176.195,122.046 175.946 C 122.164 175.637,122.030 175.492,121.624 175.492 C 121.297 175.492,121.029 175.696,121.029 175.946 M136.460 175.946 C 136.460 176.228,136.174 176.399,135.703 176.399 C 135.233 176.399,134.947 176.228,134.947 175.946 C 134.947 175.663,135.233 175.492,135.703 175.492 C 136.174 175.492,136.460 175.663,136.460 175.946 M122.898 176.601 C 123.045 177.360,123.752 177.465,123.752 176.727 C 123.752 176.356,123.557 176.097,123.276 176.097 C 122.994 176.097,122.840 176.303,122.898 176.601 M133.434 177.761 C 133.434 178.232,133.263 178.517,132.980 178.517 C 132.429 178.517,132.417 178.382,132.902 177.606 C 133.384 176.833,133.434 176.848,133.434 177.761 M134.644 177.761 C 134.644 178.232,134.473 178.517,134.191 178.517 C 133.908 178.517,133.737 178.232,133.737 177.761 C 133.737 177.290,133.908 177.005,134.191 177.005 C 134.473 177.005,134.644 177.290,134.644 177.761 M125.567 178.064 C 125.115 178.608,124.310 178.652,123.817 178.159 C 123.621 177.962,123.376 177.884,123.275 177.986 C 123.174 178.087,123.524 178.395,124.054 178.669 C 124.585 178.943,125.041 179.123,125.069 179.069 C 125.097 179.015,125.378 178.665,125.693 178.290 C 126.008 177.916,126.194 177.610,126.105 177.610 C 126.017 177.610,125.774 177.814,125.567 178.064 M145.537 178.366 C 145.537 178.616,145.401 178.820,145.234 178.820 C 145.068 178.820,144.932 178.616,144.932 178.366 C 144.932 178.116,145.068 177.912,145.234 177.912 C 145.401 177.912,145.537 178.116,145.537 178.366 M132.653 180.214 C 133.219 180.431,133.299 181.243,132.753 181.236 C 132.115 181.228,131.530 180.722,131.749 180.367 C 131.991 179.976,132.019 179.971,132.653 180.214 M138.583 186.460 C 138.586 186.716,138.678 186.694,138.869 186.393 C 139.023 186.148,139.256 186.054,139.385 186.183 C 139.643 186.440,138.951 186.977,138.351 186.985 C 138.143 186.987,137.973 186.785,137.973 186.536 C 137.973 186.286,138.109 186.082,138.275 186.082 C 138.442 186.082,138.580 186.252,138.583 186.460 " stroke="none" fill="#b39c1a" fill-rule="evenodd"></path></g></svg>